<svg width="18" height="18" viewBox="0 0 18 18" fill="none" xmlns="http://www.w3.org/2000/svg">
<path d="M9.75 14.9535C11.263 14.761 12.6459 13.9996 13.6176 12.8241C14.5894 11.6486 15.077 10.1472 14.9815 8.62498C14.886 7.10281 14.2145 5.67412 13.1034 4.62928C11.9924 3.58445 10.5252 3.00189 9 3C7.47297 2.99886 6.00296 3.58 4.8895 4.62501C3.77605 5.67001 3.10293 7.10024 3.00731 8.62428C2.91168 10.1483 3.40075 11.6515 4.37486 12.8274C5.34896 14.0034 6.7348 14.7638 8.25 14.9535V10.5H6.75V9H8.25V7.7595C8.25 6.75675 8.355 6.393 8.55 6.02625C8.74209 5.66339 9.03897 5.36677 9.402 5.175C9.6885 5.02125 10.0447 4.929 10.6672 4.88925C10.914 4.8735 11.2335 4.893 11.6258 4.94925V6.37425H11.25C10.5623 6.37425 10.278 6.4065 10.1085 6.49725C10.0074 6.54927 9.92502 6.63161 9.873 6.73275C9.783 6.90225 9.75 7.07025 9.75 7.75875V9H11.625L11.25 10.5H9.75V14.9535ZM9 16.5C4.85775 16.5 1.5 13.1423 1.5 9C1.5 4.85775 4.85775 1.5 9 1.5C13.1423 1.5 16.5 4.85775 16.5 9C16.5 13.1423 13.1423 16.5 9 16.5Z" fill="#707C93"/>
</svg>
