<svg width="60" height="72" viewBox="0 0 60 72" fill="none" xmlns="http://www.w3.org/2000/svg">
<path d="M45.3938 64.9278C45.0021 65.5056 44.6027 66.0784 44.1872 66.6508C43.7561 67.2493 43.3038 67.8511 42.8303 68.4562L42.7851 68.5126V68.5151L42.7454 68.5664L40.4519 72C39.2137 71.4144 37.9439 70.8316 36.7244 70.2167H36.7218C35.2455 69.4745 33.7854 68.6553 32.3462 67.7722C30.8939 66.8808 29.4742 65.9323 28.087 64.9268H0L6.80396 55.2995L3.01582 50.9483L5.40738 50.9561C6.85981 50.9636 8.31187 50.9661 9.7643 50.9714L13.5234 50.9789C9.63203 46.0214 6.51847 40.5713 4.77872 34.9471C3.17565 29.7678 2.73915 24.4393 3.93364 19.2107L4.33781 17.4388L6.15252 17.0108C6.5971 16.9038 7.0494 16.8207 7.50427 16.7515C7.96723 16.6802 8.41695 16.6231 8.85639 16.5732C9.97263 16.4448 11.1004 16.3609 12.2396 16.3214C13.3695 16.2804 14.5019 16.2829 15.6313 16.3189C16.4029 16.3446 17.1631 16.3856 17.9145 16.4423C18.5837 16.4898 19.2503 16.5514 19.9144 16.627C20.0444 15.557 20.2809 14.5017 20.6206 13.476C21.0205 12.2719 21.5341 11.1063 22.1549 9.99392C23.4512 7.6546 25.1046 5.55638 27.1181 3.87973C28.9776 2.33112 31.1418 1.14238 33.6153 0.459019L35.2746 0L35.013 1.65347C34.8542 2.64747 34.6426 3.65075 34.431 4.65546C34.1558 5.96011 33.8798 7.26192 33.7218 8.5787C33.6715 8.99991 33.6344 9.41827 33.6116 9.83199C33.5888 10.2457 33.5877 10.6666 33.6035 11.0824C33.6167 11.3778 33.6381 11.6731 33.6671 11.9659C33.6961 12.2587 33.7332 12.5512 33.7773 12.8518C33.8699 13.486 33.9864 14.1151 34.1161 14.7343C34.2428 15.3452 34.3913 15.9769 34.5419 16.6114C34.5735 16.7472 34.6294 16.9784 34.6848 17.207C34.7881 17.635 34.8939 18.0672 34.9916 18.5166C35.0629 18.5063 35.1423 18.4963 35.2378 18.4834L35.4891 18.4478C35.8672 18.3911 36.2975 18.3297 36.6557 18.3297C37.2484 18.3297 37.9016 18.4399 38.5498 18.6019C39.1134 18.7445 39.6715 18.9253 40.1822 19.1076C42.0708 16.9891 44.2827 15.7001 46.7224 14.8912C49.2014 14.0709 51.9031 13.7456 54.7356 13.5455L56.2989 13.4385L56.1325 14.0217L56.217 14.2246L56.045 14.322L55.8786 14.9051C55.7684 15.2974 55.6431 15.6897 55.516 16.0821C55.3785 16.4958 55.2463 16.8781 55.1166 17.243C54.8226 18.0697 54.5081 18.8968 54.1642 19.7157C53.8203 20.5346 53.4551 21.3364 53.0531 22.1299C52.8466 22.5354 52.6298 22.9413 52.3969 23.3426C52.1639 23.7438 51.9262 24.1386 51.6694 24.5213C51.299 25.0734 50.8978 25.6359 50.4683 26.1801C50.1104 26.6376 49.729 27.0773 49.3256 27.4976C50.2225 28.0701 51.1006 28.6632 51.9446 29.2848C52.8889 29.9782 53.8016 30.7115 54.6668 31.4854C55.4473 32.1866 56.4048 33.1343 57.1984 34.1461C57.7991 34.9136 58.3043 35.7175 58.5637 36.4776L58.8176 37.2265L58.8228 37.3885L58.6137 38.1485C58.3679 39.0448 58.0821 39.9436 57.7753 40.8423C57.4629 41.7515 57.1378 42.6296 56.8122 43.4927C56.2978 44.8408 55.7503 46.1821 55.1695 47.5165C54.6588 48.6799 54.1217 49.8338 53.5583 50.9782L55.7302 50.9757H60L57.1984 57.7754V57.7832C57.198 57.8055 57.199 57.8278 57.2013 57.8499C57.2007 58.1174 57.1723 58.3841 57.1165 58.646C57.0587 58.9141 56.9765 59.1767 56.8707 59.4307L55.8757 61.796C55.7116 62.1874 55.5003 62.5585 55.2463 62.9016C54.9925 63.2436 54.6976 63.5549 54.3678 63.829C53.9562 64.1771 53.4865 64.4545 52.9789 64.6493C52.489 64.8347 51.9678 64.9297 51.442 64.9293L45.3938 64.9278Z" fill="white"/>
<path d="M41.9518 68.2877L40.1438 71L39.4768 70.6846L37.282 69.625C20.0717 60.9444 0.0902553 39.1296 4.66255 19.1082L4.92295 17.9755L6.08286 17.6996C6.91838 17.5018 7.83722 17.3767 8.68688 17.2779C10.8996 17.0201 13.1546 16.955 15.3777 17.028C23.0756 17.2754 30.6931 19.2124 37.6838 22.3164C43.2266 24.7756 49.6567 28.0553 54.1751 32.1148C55.383 33.1997 57.282 35.1429 57.8177 36.7211L58 37.2494L57.8512 37.7887C57.3609 39.5669 56.7073 41.3896 56.0541 43.1135C54.5084 47.1911 52.6443 51.201 50.4666 55.0001C47.9113 59.4581 45.241 64.0774 42.0615 68.147C42.0243 68.194 41.9868 68.2406 41.9518 68.2877Z" fill="#0B121D"/>
<path d="M6.61504 18.6523C2.22887 38.4172 22.1672 60.4591 38.9445 68.8075L38.9794 68.9387C38.9794 68.9387 39.0036 68.9119 39.0463 68.8585C39.1399 68.9064 39.2361 68.9547 39.3323 69L40.3516 67.7242C42.0737 65.4746 44.5584 61.791 48.8056 54.17C53.0529 46.549 56 36.9315 56 36.9315C56 36.9315 54.0758 31.1094 36.9175 23.2744C19.7591 15.4394 6.61504 18.6523 6.61504 18.6523Z" fill="#94CB53"/>
<path d="M48.6751 49.7802C49.1015 50.0925 49.8817 50.6782 50.3164 50.9804L51.3353 51.6907L40.1696 69C38.7078 68.7343 37.3619 68.4635 36.115 68.1852C33.7903 66.8603 30.2988 64.7147 25.6918 61.4724C19.0098 56.7728 12.8155 47.331 10 42.6563L12.6357 37.2135C13.1478 36.1308 13.703 35.0611 14.2904 34.0901C14.8911 33.0934 15.497 32.0989 16.0869 31.0968L19.1759 25.0998L21.1233 21.1514C19.9971 17.4919 21.016 13.5067 22.8878 10.1334C25.2986 5.77875 28.9428 2.34842 33.823 1C33.2786 4.42527 32.2589 7.46554 32.3885 10.7632C32.4158 11.3992 32.4767 12.0334 32.5709 12.6633C32.7613 13.9781 33.0551 15.2795 33.362 16.5704C33.5415 17.3198 33.7344 18.0851 33.8953 18.8504L34.0443 19.4751C34.4301 19.4336 36.2189 19.1548 36.5969 19.1548C37.6989 19.1548 39.1897 19.6494 40.2329 20.0427L40.5226 20.1511C44.2257 15.5336 49.4359 14.6957 55 14.3027C55 14.3027 53.3669 20.0145 50.8731 23.7485C49.5458 25.7368 48.4252 26.8744 47.6662 27.5042C47.9292 27.7945 48.1686 28.1043 48.382 28.4307C48.7037 28.9412 49.0229 29.4487 49.3473 29.9563L49.4091 30.0524L49.4601 30.1565C49.7417 30.7371 50.2378 31.7157 50.326 32.3194C50.3342 32.3769 50.3424 32.4366 50.3476 32.494L50.5808 32.4991L49.6236 35.7527L54.9624 43.9986C54.9311 48.0001 51.6273 48.6418 48.6751 49.7802Z" fill="#0B121D"/>
<path d="M43.858 32.6033C43.858 32.6033 44.193 30.8742 43.3609 28.9712C43.0617 28.293 42.5735 27.7016 42.0696 27.2191L40.8045 26.8595L41.7285 28.3956C41.7285 28.3956 40.1646 26.8661 37.2345 26.3587C34.3045 25.8513 32.7097 25 32.7097 25C32.7097 25 33.6578 26.3244 35.1885 26.8161C36.7192 27.3078 38.4506 27.4282 39.9323 28.1565C41.414 28.8847 42.1949 30.9424 42.1949 30.9424C42.1949 30.9424 41.4812 29.3443 39.7004 28.5482C37.9195 27.752 37.237 27.9356 35.0235 27.4625C32.8099 26.9894 31.8103 25.5096 31.8103 25.5096C32.2688 28.5876 37.1161 29.0946 38.9273 30.2091C39.3708 30.4011 39.729 30.6716 40.0998 31.0081C40.9967 31.8229 42.012 32.7928 42.012 32.7928C42.012 32.7928 42.0789 32.196 41.6795 31.5444C41.2801 30.8928 40.9555 30.619 40.9555 30.619C40.9555 30.619 41.896 31.2472 42.3624 31.9331C42.8287 32.619 42.8545 32.8768 43.1791 32.9111C43.5037 32.9454 43.858 32.6033 43.858 32.6033ZM46.301 34.1175L46.2598 33.9018C46.2598 33.9018 46.8138 33.7152 47.3292 32.9742C47.8445 32.2332 47.7697 31.6495 47.7697 31.6495C47.7697 31.6495 48.1384 32.1146 48.012 33.2002C47.8857 34.2858 47.2826 35.3397 47.2826 35.3397L46.301 34.1175ZM29.7188 30.9505C29.9973 30.4719 30.4174 29.8334 30.9299 29.3312C31.8783 28.4007 32.7727 28.1459 32.7727 28.1459C32.7727 28.1459 34.3474 32.0332 36.7718 33.0374C39.1578 34.0259 40.7039 33.3239 40.7529 33.3031C40.3941 33.4923 40.0093 33.6252 39.6116 33.6974C40.2454 33.4783 40.7454 33.3057 40.7529 33.3031C40.9118 33.2214 41.0628 33.1246 41.2039 33.014C41.2039 33.014 41.2708 34.1493 39.8081 35.0166C38.3454 35.8839 36.8934 35.5766 36.8934 35.5766C36.8934 35.5766 37.9088 35.9839 39.54 35.5766C41.1713 35.1692 41.3542 34.8801 41.3542 34.8801L46.482 39.5478L42.2708 33.8098C42.2708 33.8098 42.6365 33.4867 43.1107 33.3947C43.5849 33.3028 43.742 33.5813 43.742 33.5813C43.742 33.5813 43.6082 33.2998 43.8494 33.1739C44.0906 33.048 45.3128 33.421 45.3128 33.421L52 42.5517L50.9668 42.3308L50.7012 42.4334L45.558 35.965L50.2503 42.486C50.2503 42.486 49.0857 43.0116 48.9207 43.0456C48.7557 43.0795 47.6892 42.2126 47.6892 42.2126L48.5213 43.3664C48.5213 43.3664 49.0703 44.4017 49.4286 44.854C49.7868 45.3062 49.7686 45.1745 49.7686 45.1745C49.7686 45.1745 49.6612 45.4479 48.2715 45.5661C46.8818 45.6844 45.491 44.9536 45.491 44.9536C45.491 44.9536 46.5912 45.6505 47.671 45.8107C48.7507 45.971 49.8949 45.4296 49.8949 45.4296C49.8949 45.4296 48.9876 45.9659 47.9623 46.0316C46.9369 46.0973 45.6661 45.3953 45.6661 45.3953C45.6661 45.3953 46.6814 46.2714 48.1631 46.1761C49.6447 46.0809 50.0341 45.7344 50.0341 45.7344C50.0341 45.7344 49.6862 46.0655 48.6451 46.2707C47.604 46.4758 46.0397 45.9659 46.0397 45.9659C46.0397 45.9659 46.7304 46.4572 47.8979 46.4652C49.0653 46.4733 50.1189 45.921 50.1189 45.921C50.1189 45.921 49.1372 46.72 47.5808 46.6437C46.0243 46.5674 41.0639 42.578 39.4509 41.3398C37.8379 40.1016 37.6858 39.5237 37.003 39.5237C36.3201 39.5237 36.387 40.3885 37.1214 40.8115C37.8558 41.2346 38.7835 41.5949 40.4498 42.7827C42.1161 43.9706 45.8096 46.9223 47.691 47.1267C49.5724 47.3311 50.5022 46.3802 50.5022 46.3802C50.5022 46.3802 49.8863 47.2869 48.1316 47.3815C46.3768 47.476 44.985 46.7193 44.985 46.7193C44.985 46.7193 46.4334 47.5498 47.8223 47.6286C49.2113 47.7075 49.9611 47.253 49.9611 47.253C49.9611 47.253 47.8402 48.3569 45.8922 47.8808C43.9442 47.4048 40.968 44.9452 40.0687 44.267C39.1693 43.5887 39.1356 43.5522 39.1356 43.5522C39.1356 43.5522 41.3571 45.1219 43.0295 46.1075C44.7019 47.0931 45.3278 47.3745 45.3278 47.3745C45.3278 47.3745 40.9755 44.4542 39.1435 43.1795C37.3115 41.9048 37.2055 41.8391 37.2055 41.8391C37.2055 41.8391 37.0624 41.976 37.2134 42.3071C37.3644 42.6382 37.4557 42.7645 37.4557 42.7645C37.4557 42.7645 36.1233 42.5017 35.7575 40.9758C35.3917 39.45 36.6232 38.8863 36.6232 38.8863C36.6232 38.8863 36.3727 38.8363 35.9998 39.0492C35.6269 39.262 35.5667 39.4565 35.5667 39.4565C35.5921 39.2057 35.6846 38.9669 35.8341 38.7661C35.9837 38.5654 36.1845 38.4105 36.4146 38.3184C37.2213 37.9873 37.538 38.1818 37.538 38.1818C37.538 38.1818 37.0151 37.869 36.1569 38.2161C35.2987 38.5633 35.157 38.8966 35.0181 39.7456C34.8792 40.5947 35.1906 41.3909 35.1906 41.3909C35.1906 41.3909 34.7912 41.1437 34.1262 40.1267C33.4613 39.1097 33.4105 38.3107 33.4105 38.3107C33.4105 38.3107 33.0959 38.8363 33.6785 39.9742C34.2612 41.112 35.3406 41.7406 35.3406 41.7406C35.3406 41.7406 34.6935 41.722 33.462 40.5841C32.2305 39.4463 32.0626 36.9016 32.0626 36.9016C32.0626 36.9016 31.7638 37.3933 31.8977 38.2424C32.0315 39.0915 32.1453 39.4303 32.1453 39.4303C32.1453 39.4303 30.2331 38.2081 29.2847 35.4747C28.3363 32.7413 30.0613 31.4863 30.0613 31.4863L29.3455 31.6546C29.4484 31.4087 29.5734 31.1729 29.7188 30.9505V30.9505ZM32.7727 28.1459C32.7727 28.1459 32.7623 28.1722 32.7469 28.2189L32.7727 28.1459ZM51.7974 44.7251C51.7974 44.7251 51.4521 45.4004 51.3103 45.5373C51.1686 45.6742 51.0373 45.6768 51.0373 45.6768C51.1366 45.6953 51.2377 45.7022 51.3386 45.6976C51.4357 45.6945 51.5295 45.6606 51.6067 45.6005C51.5838 45.6475 51.5509 45.6887 51.5103 45.721C51.4697 45.7533 51.4226 45.7758 51.3723 45.787C51.1933 45.8345 51.1117 45.8213 51.1117 45.8213L51.3694 46.4203C51.3694 46.4203 51.4238 46.5047 51.6557 45.8421C51.8876 45.1796 51.7974 44.7251 51.7974 44.7251V44.7251Z" fill="#747E87"/>
<path d="M33.9106 32.2914L33.9305 32.31L33.9476 32.3266C34.0108 32.3918 34.0795 32.457 34.1463 32.5262L34.1523 32.5307L34.155 32.5353C34.6272 32.9884 35.2194 33.4859 35.8379 33.8146C37.2429 34.5566 38.3875 34.6338 38.3875 34.6338L38.5962 34.6433C38.8272 34.6724 39.0609 34.6842 39.2945 34.6785C39.2945 34.6785 39.1459 34.9067 37.3546 35.1949C35.5632 35.4831 34.7472 35.3615 34.7472 35.3615C34.7472 35.3615 35.3196 35.9809 37.8152 36.3144C40.3108 36.6479 42.0477 36.0119 42.0477 36.0119L48 40L43.6932 34.3147C43.6932 34.3147 43.9714 34.1191 44.2198 34.1715C44.4682 34.224 44.7834 34.4366 44.7834 34.4366C44.7834 34.4366 44.6089 33.9838 44.6459 33.7301C44.6601 33.6428 44.6983 33.5593 44.7576 33.4859C44.5545 33.4625 44.3828 33.4579 44.3057 33.4908C44.0366 33.6033 44.1864 33.8547 44.1864 33.8547C44.1864 33.8547 44.0119 33.6033 43.4853 33.6881C42.9587 33.7728 42.5525 34.0587 42.5525 34.0587L47.2285 39.183L41.5338 35.0143C41.5338 35.0143 41.3307 35.2725 39.5191 35.6363C37.7075 36.0001 36.5799 35.6363 36.5799 35.6363C36.5799 35.6363 38.1884 35.9085 39.8168 35.1362C40.3832 34.8663 40.7441 34.5657 40.973 34.2912C41.3991 33.7771 41.3677 33.3477 41.3677 33.3477C41.3677 33.3477 41.1244 33.4837 40.6065 33.6268C40.097 33.7653 39.2099 33.8357 39.1785 33.838C38.4575 33.838 37.5302 33.7278 36.4456 33.3686C33.7528 32.472 32.0044 29 32.0044 29C32.0044 29 31.8156 30.1554 33.9106 32.2914Z" fill="#384A59"/>
<path d="M31 38.5272C31.0583 38.088 31.1595 37.4741 31.3135 36.9663L31.5901 36.0686C31.5901 36.0686 31.9678 37.4249 32.2414 38.0062L32.5154 38.5897L32.8079 37.0565C32.8079 37.0565 33.1003 37.7958 33.4618 38.5545C33.8233 39.3132 34.0785 39.6103 34.0785 39.6103C34.0785 39.6103 33.9404 38.3976 35.1766 37.6018C36.4129 36.806 38.0797 37.9539 38.0797 37.9539L36.7238 38.1665L37.3061 38.4996L36.5857 38.7834C36.5857 38.7834 37.5986 38.6576 38.5428 39.6807C39.487 40.7039 41.7387 42.3766 43.2486 43.5934C44.7584 44.8102 45.3253 45.127 45.3253 45.127L44.812 44.2619C44.812 44.2619 46.0136 44.8978 47.3192 44.9497C48.6249 45.0016 49.0525 44.7204 49.0525 44.7204L47.0611 41.5497C47.0611 41.5497 48.5714 42.3603 48.9676 42.3247C49.3638 42.2891 49.8767 41.9537 49.8767 41.9537L45.8969 36L50.3844 42.2758C50.3844 42.2758 49.1829 42.8215 49.0126 42.8567C48.8424 42.892 47.742 41.992 47.742 41.992L48.6006 43.1898C48.6006 43.1898 49.167 44.2645 49.5366 44.734C49.9062 45.2036 49.8874 45.0668 49.8874 45.0668C49.8874 45.0668 49.7766 45.3506 48.3428 45.4734C46.909 45.5962 45.4741 44.8375 45.4741 44.8375C45.4741 44.8375 46.6092 45.5609 47.7232 45.7273C48.8372 45.8936 50.0178 45.3317 50.0178 45.3317C50.0178 45.3317 49.0817 45.8883 48.0238 45.9565C46.9659 46.0248 45.6546 45.296 45.6546 45.296C45.6546 45.296 46.7022 46.2055 48.2309 46.1066C49.7596 46.0077 50.1614 45.6481 50.1614 45.6481C50.1614 45.6481 49.8025 45.9918 48.7283 46.2048C47.6541 46.4177 46.0401 45.8883 46.0401 45.8883C46.0401 45.8883 46.7528 46.3984 47.9573 46.4067C49.1618 46.4151 50.2489 45.8417 50.2489 45.8417C50.2489 45.8417 49.236 46.6712 47.6301 46.592C46.0243 46.5128 40.9064 42.3713 39.2421 41.0859C37.5779 39.8005 37.421 39.2006 36.7164 39.2006C36.0119 39.2006 36.081 40.0983 36.8387 40.5376C37.5964 40.9768 38.5535 41.3508 40.2727 42.5839C41.992 43.817 45.8027 46.8812 47.7439 47.0934C49.6851 47.3056 50.6444 46.3184 50.6444 46.3184C50.6444 46.3184 50.0089 47.2598 48.1984 47.3579C46.388 47.4561 44.9519 46.6705 44.9519 46.6705C44.9519 46.6705 46.4463 47.5326 47.8794 47.6144C49.3125 47.6963 50.0861 47.2245 50.0861 47.2245C50.0861 47.2245 47.8979 48.3705 45.888 47.8763C43.8781 47.3822 40.8074 44.8288 39.8795 44.1247C38.9515 43.4206 38.9168 43.3827 38.9168 43.3827C38.9168 43.3827 41.2088 45.0122 42.9343 46.0354C44.6599 47.0585 45.3057 47.3507 45.3057 47.3507C45.3057 47.3507 40.8152 44.3191 38.925 42.9958C37.0347 41.6725 36.9254 41.6043 36.9254 41.6043C36.9254 41.6043 36.7777 41.7464 36.9336 42.0901C37.0894 42.4338 37.1835 42.5649 37.1835 42.5649C37.1835 42.5649 35.8088 42.2921 35.4314 40.7081C35.0541 39.1241 36.3247 38.539 36.3247 38.539C36.3247 38.539 36.0662 38.4871 35.6814 38.708C35.2967 38.9289 35.2346 39.1309 35.2346 39.1309C35.2608 38.8705 35.3562 38.6226 35.5105 38.4142C35.6648 38.2058 35.872 38.0449 36.1094 37.9493C36.9417 37.6056 37.2685 37.8076 37.2685 37.8076C37.2685 37.8076 36.729 37.4828 35.8435 37.8432C34.958 38.2036 34.8118 38.5496 34.6685 39.431C34.5253 40.3125 34.8465 41.1389 34.8465 41.1389C34.8465 41.1389 34.4344 40.8824 33.7484 39.8266C33.0623 38.7709 33.0099 37.9414 33.0099 37.9414C33.0099 37.9414 32.6853 38.4871 33.2864 39.6682C33.8876 40.8494 35.0012 41.502 35.0012 41.502C35.0012 41.502 34.3336 41.4827 33.063 40.3015C31.7924 39.1203 31.6192 36.4786 31.6192 36.4786C31.6192 36.4786 31.3109 36.9891 31.449 37.8705C31.5871 38.7519 31.7045 39.1036 31.7045 39.1036C31.7045 39.1036 31.4121 38.9172 31 38.5272ZM51.9822 44.6007C51.9822 44.6007 51.6259 45.3017 51.4796 45.4438C51.3334 45.5859 51.1979 45.5886 51.1979 45.5886C51.3004 45.6078 51.4047 45.615 51.5088 45.6102C51.609 45.607 51.7057 45.5718 51.7854 45.5094C51.7618 45.5582 51.7278 45.601 51.686 45.6345C51.6441 45.668 51.5954 45.6914 51.5435 45.703C51.3589 45.7523 51.2747 45.7386 51.2747 45.7386L51.5406 46.3605C51.5406 46.3605 51.5967 46.448 51.836 45.7602C52.0752 45.0725 51.9822 44.6007 51.9822 44.6007Z" fill="#384A59"/>
<path d="M44 33L51.1655 41.8468L52 42L44.5352 33.1305C44.5352 33.1305 44.2966 33.0684 44 33Z" fill="white"/>
<path d="M32 30.0634C32 30.0634 31.071 30.2708 30.6243 30.5465C30.1775 30.8222 29.8988 31.3155 29.8988 31.3155L30.7125 31.2685C30.7125 31.2685 29.3976 32.3919 29.5613 34.9858C29.7186 37.5112 30.7754 38.9238 30.8319 39C30.1149 38.0998 29.5682 37.0098 29.2319 35.8102C28.4585 33.0799 29.8674 31.8274 29.8674 31.8274L29.2849 31.9955C29.2849 31.9955 29.7192 30.6227 30.5454 30.2315C31.3715 29.8402 32 30.0634 32 30.0634Z" fill="white"/>
<path d="M41 30C40.5165 29.5366 39.9409 29.1641 39.3048 28.9029C37.4307 28.1395 36.712 28.3177 34.3821 27.8657C32.0521 27.4138 31 26 31 26C31.2113 28.6992 36.4622 28.1646 38.5782 28.9252C39.9885 29.4326 40.9891 29.9927 41 30Z" fill="white"/>
<path d="M43.9287 32.7278C43.9287 32.7278 44.2871 31.1978 43.3968 29.5139C43.0766 28.9138 42.5543 28.3905 42.0151 27.9635L40.6614 27.6454L40.9896 28.0943L41.883 28.2433C41.883 28.2433 42.2579 28.5059 42.8369 29.4526C43.4159 30.3993 43.7717 31.9594 43.584 32.2304C43.3964 32.5014 43.041 32.4397 43.041 32.4397C43.041 32.4397 42.4976 31.6141 41.927 31.1768C41.3565 30.7394 40.11 30.3069 40.11 30.3069L40.5844 31.0421C40.5844 31.0421 39.8454 30.1651 37.2785 29.9025C36.9338 29.865 36.6275 29.8379 36.3518 29.8211C37.2616 30.0837 38.0919 30.3234 38.6494 30.607C39.1239 30.7769 39.5072 31.0162 39.904 31.314C40.8636 32.035 41.95 32.8932 41.95 32.8932C41.95 32.8932 42.0216 32.3651 41.5943 31.7885C41.1669 31.212 40.8196 30.9697 40.8196 30.9697C40.8196 30.9697 41.8259 31.5256 42.3249 32.1325C42.8239 32.7394 42.8515 32.9675 43.1988 32.9978C43.5461 33.0282 43.9287 32.7278 43.9287 32.7278ZM34.1158 26.6696C32.7318 26.3211 32 26 32 26C32 26 33.0144 27.1719 34.6523 27.6069C36.2901 28.042 38.1428 28.1486 39.7282 28.793C40.663 29.1745 41.3365 29.9629 41.7329 30.5466C41.7329 30.5466 41.2446 29.3999 40.1586 28.6951C39.0726 27.9903 37.4868 28.0023 35.7222 27.5672C34.6316 27.2975 34.2509 26.9209 34.1158 26.6696Z" fill="#384A59"/>
<path d="M35.1998 25L35 25.1877L39.9756 27L40 26.6154L35.1998 25Z" fill="#AA522A"/>
<path d="M35 24.824L34.1985 22L34 22.3123L34.8149 25L35 24.824Z" fill="#AA522A"/>
<path d="M34.1606 20.7855L35.2521 24.2858L39.8703 25.7058L40.5153 25.9059L40.8311 26L40.8421 25.8268L41 23.4264L39.2151 20.9827C38.874 20.8237 37.0551 20 36.1485 20C35.5489 20 34.8214 20.1186 34.3181 20.217C34.1997 20.2405 34.0908 20.2612 34 20.2815L34.0142 20.3285L34.1606 20.7855Z" fill="#FFC972"/>
<path d="M40.1774 25.8009L40.5153 25.9059L40.8311 26L40.8421 25.8268L41 23.4264L39.2151 20.9827C38.874 20.8237 37.0551 20 36.1485 20C35.5489 20 34.8214 20.1186 34.3181 20.217C34.1997 20.2405 34.0908 20.2612 34 20.2815L34.0142 20.3285L34.1504 20.7658C34.5313 20.7488 34.9493 20.7418 35.3953 20.7521C37.4672 20.7959 38.5697 21.3856 38.5697 21.3856C38.5697 21.3856 37.1945 21.2331 36.6971 21.3113L36.2025 21.3856C36.2025 21.3856 38.0755 21.6501 38.4308 21.7485C38.786 21.8469 38.9648 21.8803 38.9648 21.8803L40.3037 23.9136L40.1774 25.8009Z" fill="#FFEAC7"/>
<path d="M43.7994 32.6089C43.7994 32.6089 43.8576 31.6638 44.1147 31.1181C44.3718 30.5723 46.1708 30.5103 46.1708 30.5103C46.1708 30.5103 45.0633 30.2226 44.3714 30.3018C43.6795 30.3811 43.6404 30.3986 43.6404 30.3986C43.6404 30.3986 43.2273 28.5553 42.6336 27.8014C42.0399 27.0475 42 27 42 27C42 27 42.909 27.4665 43.6404 28.0271C44.3718 28.5877 44.6889 28.8606 44.6889 28.8606C44.6889 28.8606 44.5881 28.4127 44.1933 27.8831L43.7994 27.3542C43.7994 27.3542 45.3998 28.3613 46.0913 29.2768C46.7827 30.1923 47.1988 30.7329 47.1988 30.7329C47.1988 30.7329 47.3212 30.9461 47.4712 31.2152C47.3012 31.4385 46.9693 31.7982 46.3756 32.1283C46.2685 32.188 46.1676 32.2454 46.073 32.3006C45.4946 32.4728 44.9562 33 44.9562 33L43.7994 32.6089ZM47.6667 31.5753C47.829 31.8754 47.9727 32.1631 47.988 32.2575C48.0279 32.4808 47.9697 32.5304 47.7921 32.5304C47.7372 32.5304 47.642 32.498 47.5167 32.456C47.6187 32.1695 47.6694 31.8727 47.6671 31.5746L47.6667 31.5753Z" fill="#747E87"/>
<path d="M44.8033 28.5034C44.6971 28.2866 44.5624 28.0782 44.4013 27.8809L43.9689 27.3521C43.9689 27.3521 45.7215 28.359 46.4787 29.2743C47.2358 30.1896 47.6914 30.7302 47.6914 30.7302C48.2345 31.2038 48.1037 31.313 46.9543 32.0392L46.951 32.044L46.9477 32.0465L46.9408 32.0489L46.931 32.054L46.9277 32.0564L46.924 32.0589L46.9175 32.0613L46.9142 32.064L46.904 32.0688L46.9007 32.0713L46.8807 32.0812L46.8775 32.0837L46.8537 32.0961H46.8509L46.8477 32.0985C46.8393 32.1041 46.8303 32.1092 46.8207 32.1136L46.7904 32.1284C46.6732 32.1882 46.5627 32.2456 46.4591 32.3007L46.4289 32.3079C46.4195 32.3124 46.4093 32.3158 46.3986 32.3179V32.3179C46.3889 32.3201 46.3798 32.3235 46.3716 32.3279H46.3684C46.3591 32.3306 46.3502 32.3339 46.3418 32.3379H46.339C46.3305 32.3416 46.3217 32.3448 46.3125 32.3475H46.3093C46.3023 32.3503 46.2925 32.3551 46.2855 32.3575L46.279 32.3599L46.259 32.3675L46.252 32.3699C46.2439 32.3727 46.2361 32.3761 46.2288 32.3799L46.2218 32.3823C46.2134 32.3847 46.2055 32.3881 46.1985 32.3923V32.3923C45.6726 32.6107 45.2371 33 45.2371 33L43.9703 32.608C43.9703 32.608 44.0341 31.663 44.3156 31.1174C44.5972 30.5717 46.5671 30.5097 46.5671 30.5097C46.5671 30.5097 45.3543 30.222 44.5967 30.3013C43.8391 30.3805 43.7963 30.3981 43.7963 30.3981C43.7963 30.3981 43.344 28.555 42.6939 27.8013C42.0437 27.0475 42 27 42 27C42 27 42.0973 27.0472 42.2583 27.1264C42.8209 27.5398 43.605 28.1599 43.9336 28.6322C44.4762 29.4083 44.4762 29.6564 44.4762 29.6564C44.4762 29.6564 45.2636 29.8748 45.9807 30.1452C46.6978 30.4156 46.7816 30.6189 46.7816 30.6189C46.7816 30.6189 45.7964 30.7222 45.339 30.9785C44.8815 31.2348 44.7861 32.0203 44.7661 32.0775C44.7461 32.1346 44.9839 32.3575 44.9839 32.3575C44.9839 32.3575 45.775 31.9062 46.609 31.931C46.669 31.9038 46.7327 31.8739 46.803 31.8442C47.0878 31.7126 47.3526 31.4226 47.5011 31.2314C47.1717 30.7933 46.8093 30.3694 46.4154 29.9616C45.9155 29.4535 45.3773 28.9666 44.8033 28.5034V28.5034Z" fill="#384A59"/>
<path d="M23.5 27C25.431 27 27 28.3433 27 30C27 31.6567 25.431 33 23.5 33C21.569 33 20 31.6567 20 30C20 28.3433 21.5666 27 23.5 27ZM23.5 28.0187C24.7765 28.0187 25.8106 28.9068 25.8106 30C25.8106 31.0932 24.7765 31.9813 23.5 31.9813C22.2235 31.9813 21.188 31.0932 21.188 30C21.188 28.9068 22.2239 28.0187 23.5 28.0187V28.0187Z" fill="#FFC972"/>
<path d="M24.0014 28C25.1058 28 26 28.8941 26 30C26 31.1059 25.1046 32 24.0014 32C22.8981 32 22 31.1055 22 30C22 28.8945 22.8942 28 24.0014 28Z" fill="#FFC972"/>
<path d="M29.9235 24.7848C29.9235 24.7848 29.1121 24.014 29.2101 21.9696C29.4662 16.6114 28.2833 14.6214 28.8861 9.7046C29.1773 7.32618 29.9235 5.91644 29.9235 5.91644C29.9235 5.91644 27.1985 8.46422 25.2842 13.861C23.3698 19.2579 25.2842 22.1718 25.9651 23.1448C26.646 24.1178 28.0092 24.987 28.0092 24.987C28.0092 24.987 25.8367 25.3556 24.0839 22.1718C22.3311 18.988 22.7852 14.9328 24.8624 10.9446C26.9397 6.95645 32 3 32 3C32 3 30.0211 7.2242 30.1513 10.7086C30.2814 14.1929 31.4799 17.9476 31.7712 20.1271C32.0624 22.3066 29.9235 24.7848 29.9235 24.7848Z" fill="#747E87"/>
<path d="M29.6815 25C29.6815 25 29.2243 24.607 29 23.64L30.2815 21.046C30.2815 21.046 28.6889 14.9879 29.4852 9.30199C30.0432 5.32981 31.0467 3.83337 31.6048 3.29114C31.8544 3.10263 32 3 32 3C32 3 29.7909 7.26586 29.9361 10.7846C30.0814 14.3033 31.4194 18.095 31.7446 20.296C32.0697 22.497 29.6815 25 29.6815 25Z" fill="#384A59"/>
<path d="M26.145 25C25.4965 24.5836 24.7756 23.8732 24.1142 22.6692C22.313 19.3937 22.7781 15.2208 24.9151 11.1173C26.3865 8.28743 29.3205 5.47352 31 4C29.1939 5.67411 25.9074 9.33417 24.3338 14.9672C23.0555 19.5431 24.5922 22.9362 26.145 25Z" fill="white"/>
<path d="M41 22.1494C42.7563 19.0322 47.5106 15.878 51 15C45.2231 18.2698 42.5858 20.122 43.3685 27C43.3685 27 42.3431 25.7945 41.8204 24.9757L41.2989 24.1522L41.4489 23.1863L41 22.1494Z" fill="#747E87"/>
<path d="M46 19L45.997 19.0026L46 19ZM44.7671 20.3741C43.6581 21.9686 43.2828 23.983 43.6637 27C43.6637 27 42.5637 25.8382 42.003 25.0491L42 25.0435C42.1334 24.7063 42.3193 24.2789 42.5672 23.7347C43.1417 22.4777 44.0355 21.2619 44.7671 20.3741Z" fill="#384A59"/>
<path d="M41 22.4207C42.7563 19.1852 47.5106 15.9114 51 15C50.4384 15.3281 49.9112 15.6447 49.4086 15.9496C48.2271 16.5915 46.7801 17.4736 45.5092 18.5343C42.7852 20.8056 41.3727 24 41.3727 24L41.4477 23.4989L41 22.4207Z" fill="white"/>
<path d="M27.4637 32C27.4637 32 28.1514 38.3491 30.6759 46.4851C33.2004 54.621 38 65.527 38 65.527L35.6639 65.8642L34.3537 66C34.3537 66 30.1145 53.1032 28.1213 44.9349C26.128 36.7666 26 32.9816 26 32.9816C26 32.9816 27.0906 38.4526 27.9017 41.6945C28.7128 44.9364 29.1492 45.8138 29.1492 45.8138L27.1848 36.4272L28.4782 40.5967C28.4782 40.5967 27.8702 37.4049 27.6846 35.2964C27.4989 33.1879 27.4637 32 27.4637 32Z" fill="#FFC972"/>
<path d="M27.464 32C27.464 32 28.1517 38.3491 30.6761 46.4851C33.2005 54.621 38 65.527 38 65.527L35.6639 65.8642L34.3538 66C34.3538 66 34.2643 65.731 34.1075 65.2474L36.1007 64.6357C36.1007 64.6357 36.1007 64.4005 35.2292 62.2034C34.3578 60.0063 31.5807 51.3323 31.5807 51.3323L28.931 41.4908L29.0563 42.2673L28.6206 41.7954L29.7115 47.6373L28.7775 45.779C28.3672 44.9658 27.834 43.2798 27.3634 41.6404C26.0918 35.7407 26 32.9806 26 32.9806C26 32.9806 27.0906 38.4515 27.9017 41.6934C28.7128 44.9353 29.1491 45.8127 29.1491 45.8127L27.1848 36.4261L28.4782 40.5956C28.4782 40.5956 27.8702 37.4038 27.6845 35.2953C27.4988 33.1868 27.464 32 27.464 32Z" fill="#AD4C21"/>
<path d="M38 44C38 44 38.1135 47.2117 40.1026 53.4656C42.0917 59.7196 43.4087 63 43.4087 63L46 59.5829C46 59.5829 42.3942 53.329 41.4927 50.3554C40.5913 47.3818 39.8409 44.9909 39.8409 44.9909C39.8409 44.9909 40.6026 48.3165 40.9111 49.8616C41.2197 51.4066 41.2221 51.4595 41.2221 51.4595L38.9693 44.4259L39.6999 49.2277C39.6999 49.2277 38.6268 46.2729 38.3857 45.196C38.1446 44.119 38 44 38 44Z" fill="#FFC972"/>
<path d="M38 44C38 44 38.1135 47.2937 40.1023 53.7075C40.1693 53.9163 40.2331 54.122 40.2969 54.3232L39.3172 49.8738C39.3172 49.8738 39.8725 50.7781 39.8826 50.7065C39.8927 50.635 40.0134 49.2878 40.0134 49.2878L41.4236 53.4388L41.5544 51.941C41.5544 51.941 43.7144 57.8042 44.9909 60.4657L45.2469 61L46 59.98C46 59.98 42.3947 53.5662 41.4934 50.5166C40.5921 47.4671 39.8418 45.0151 39.8418 45.0151C39.8418 45.0151 40.6034 48.4257 40.9119 50.0102C41.2204 51.5947 41.2229 51.649 41.2229 51.649L38.9692 44.4367L39.6997 49.3613C39.6997 49.3613 38.6267 46.331 38.3856 45.2265C38.1446 44.1221 38 44 38 44Z" fill="#AD4C21"/>
<path d="M22.7683 34C22.7559 34.0724 22.625 34.9056 22.44 36.282C23.1209 36.3708 24.2264 36.3943 25.2602 36.3907C25.1098 35.1128 25.0306 34.2597 25.0084 34.0069C24.2809 34.2622 23.4946 34.2603 22.7683 34.0015V34ZM21.9588 40.2542C21.9047 40.7472 21.8526 41.2637 21.7985 41.8009C22.6521 42.2623 24.483 42.7162 26.2396 43.0763C26.1162 42.3745 26.0044 41.6998 25.9041 41.0522L25.7636 41.0366C24.5029 40.8986 23.0979 40.5671 21.9588 40.2542ZM21.426 46.1903C21.3938 46.6438 21.3643 47.1056 21.3345 47.5697C21.3173 47.8775 21.3002 48.1749 21.2827 48.4643C22.3337 49.3301 23.6047 50.2755 24.9371 51.0568C25.9781 51.6642 27.2957 52.2884 28.6229 52.8679C28.1987 51.4726 27.8039 50.1059 27.4685 48.8411C25.1591 47.9739 22.7683 46.8474 21.426 46.1903V46.1903ZM21.0435 53.7097C20.9942 55.3397 20.9966 56.3206 21.0041 56.8292C22.5657 58.6338 24.214 60.2794 25.8966 61.5678C27.8156 63.0413 29.5263 64.2881 31.0214 65.335C32.4894 66 33 66 33 66C33 66 32.1464 63.6372 31.0536 60.4058C29.504 59.9349 27.6412 59.138 25.8154 57.8029C23.9697 56.4503 22.3241 54.9663 21.0435 53.7097Z" fill="#94CB53"/>
<path d="M22.7618 34C22.7567 34.0362 22.7172 34.2793 22.6589 34.6912C22.8929 34.7727 23.1342 34.8287 23.379 34.8582C24.1615 34.96 24.4629 34.8737 24.4629 34.8737L24.5689 36.3894C24.7962 36.3919 25.028 36.3919 25.2547 36.3894C25.1041 35.1114 25.0249 34.2583 25.0026 34.0054C24.2747 34.2608 23.4879 34.2589 22.7611 34H22.7618ZM21.8778 40.9483C22.4348 41.2009 23.0195 41.3788 23.6184 41.4779C24.6875 41.6474 25.2776 41.7989 25.2776 41.7989L25.4035 42.8994C25.6799 42.962 25.959 43.0193 26.2353 43.0769C26.1119 42.3751 26 41.7003 25.8996 41.0526L25.7591 41.0371C24.4972 40.899 23.09 40.5661 21.9529 40.2546C21.9258 40.4817 21.9025 40.711 21.8778 40.9483ZM21.3518 47.1953L26.2823 49.48L26.6502 51.9654C27.2822 52.2733 27.9488 52.5758 28.6202 52.8681C28.1957 51.4727 27.8007 50.106 27.465 48.841C25.1542 47.9748 22.7618 46.8486 21.4187 46.1911C21.394 46.5222 21.3717 46.8588 21.3518 47.1953ZM21 55.3484C21.9011 56.2638 24.2232 58.4783 26.713 59.6885C29.9019 61.2379 29.999 61.2379 29.999 61.2379L31.5362 65.5566C32.6101 66 33 66 33 66C33 66 32.1458 63.6371 31.0524 60.4054C29.5018 59.9345 27.6378 59.1376 25.8108 57.8023C23.964 56.4515 22.3174 54.9673 21.036 53.7089C21.0161 54.3548 21.0062 54.8971 21 55.3484Z" fill="#0B3770"/>
<path d="M21.4996 33.9217C21.4996 33.9217 20.4161 39.7332 19.3355 47.0919C18.5359 52.5356 18.3829 54.3986 18.3567 55C18.171 54.7697 17.9852 54.5391 17.8046 54.3063L12 44.1842L12.8454 41.995L14.7718 45.8939L13.5887 41.1744C13.5887 41.1744 15.0099 37.6179 16.2584 35.4621C17.5069 33.3063 18.051 32.3478 18.051 32.3478L19.048 30.3296C19.048 30.3296 19.116 31.2458 19.6296 32.3662C20.1432 33.4866 20.4503 33.6455 20.4503 33.6455L18.3058 45.7033L21.4996 33.9217ZM20.7294 26.6414L22.7158 23C23.5558 24.7026 25.283 26.1592 27 26.8989C27 26.8989 24.3725 26.3611 23.7208 26.3508C23.0691 26.3405 22.3861 24.7619 22.3861 24.7619L22.6296 26.3188C22.6296 26.3188 21.4229 26.7374 20.8552 27.1648C20.2875 27.5922 20.1879 27.6798 20.1879 27.6798L20.7294 26.6414Z" fill="#94CB53"/>
<path d="M22 33.5035C22 33.5035 20.9877 39.4304 19.9781 46.935C19.231 52.4867 19.088 54.3867 19.0636 55C18.8901 54.7652 18.7165 54.53 18.5478 54.2925L18 53.2531L19.2616 46.576L18.1881 48.2854L20.445 33.5279C20.445 33.5279 20.4939 33.5632 20.1615 32.6907C19.9629 32.1557 19.8848 31.5756 19.9339 31C20.0218 31.3137 20.1288 31.6205 20.2542 31.9183C20.7371 33.0579 21.0196 33.2218 21.0196 33.2218L19.016 45.5189L22 33.5035Z" fill="#0B3770"/>
<path d="M12.428 43.5683L12 42.868L12.843 40.8151L14.7639 44.4718L13.5842 40.0454C13.5842 40.0454 15.0013 36.7099 16.2462 34.688C17.4911 32.6661 18.0337 31.7671 18.0337 31.7671L19.0278 29.8743C19.0278 29.8743 19.0615 30.3113 19.2677 30.9399L14.3536 40.4163L15.4492 46L12.9206 42.4854L12.428 43.5683ZM21.09 26.743L23 23.5288C22.8855 23.3564 22.7782 23.1787 22.6843 23L20.7037 26.4152L20.1637 27.3863C20.1637 27.3863 20.2655 27.3066 20.8291 26.9034C20.9125 26.8454 20.9993 26.7918 21.0889 26.743H21.09Z" fill="white"/>
<path d="M41 46C41 46 41.3686 47.8445 42.1263 50.2121C42.8193 49.6011 43.4623 49.0216 43.9013 48.5971C43.7953 48.5118 43.6921 48.4292 43.5917 48.3435C41.5337 46.654 41 46 41 46ZM44.347 55.6925C45.6088 58.4261 45.839 59 45.839 59C45.839 59 47.0951 57.3798 47.8942 55.4122C48.6932 53.4447 49 52.2064 49 52.2064C49 52.2064 48.366 51.7952 47.4813 51.1946C46.7322 52.4944 45.6522 54.1843 44.347 55.6925Z" fill="#94CB53"/>
<path d="M41 46C41 46 41.3686 47.8597 42.1263 50.247C42.3237 50.072 42.5125 49.9001 42.6997 49.7356L42.2119 48.0994L43.468 49.0305C43.6273 48.881 43.7748 48.7427 43.9013 48.6193C43.7953 48.5334 43.6921 48.45 43.5917 48.3637C41.5337 46.6594 41 46 41 46ZM44.904 57L47.6968 52.2551L48.7997 52.9628C48.9382 52.5078 49 52.2577 49 52.2577C49 52.2577 48.366 51.8432 47.4813 51.2376C46.7322 52.5482 45.653 54.2521 44.347 55.7728C44.5591 56.2426 44.745 56.6475 44.904 57Z" fill="#0B3770"/>
<path d="M37.1693 48.1715L36.5114 47.3672C36.5114 47.3672 37.0084 47.0388 37.2737 46.545C37.539 46.0511 37.7706 45.5421 37.7706 45.5421L38 48.1892C38 48.1892 37.6284 49.6527 36.6846 49.9327C34.5954 50.5513 31.8044 46.7461 31.1935 45.0991C31.1935 45.0991 31.1575 45.196 32.3468 46.2166C33.5361 47.2372 34.4111 47.6953 34.4111 47.6953C33.6533 47.0345 32.946 46.3258 32.2945 45.5742C31.1935 44.309 30.9431 43.9481 30.9431 43.9481L30.5356 42.8791C30.5356 42.8791 30.9981 43.374 32.0467 44.5869C33.0953 45.7998 33.27 45.8546 33.27 45.8546C33.27 45.8546 31.5991 43.1081 30.9607 42.2707C30.3223 41.4332 30.1598 40.8404 30.1598 40.8404L30 39C31.5846 41.5078 34.0342 47.1177 37.1693 48.1715Z" fill="#94CB53"/>
<path d="M37.1662 48.1711L36.5083 47.3669C36.6098 47.2962 36.7055 47.2187 36.7947 47.135L37.5241 48.4002C37.5241 48.4002 37.1689 48.4893 35.7625 47.6341C34.3561 46.779 32.7402 44.3302 32.7402 44.3302L34.0036 46.5496L33.4256 46.2215L35.0962 48.0951L32.856 47.3722C32.856 47.3722 35.0247 49.4261 36.3405 49.378C37.6563 49.3299 38 48.1892 38 48.1892C38 48.1892 37.6284 49.6527 36.6846 49.9327C34.5954 50.5513 31.8044 46.7461 31.1935 45.0991C31.1935 45.0991 31.1575 45.196 32.3468 46.2166C33.5361 47.2372 34.4111 47.6953 34.4111 47.6953C33.6533 47.0345 32.946 46.3258 32.2945 45.5742C31.1935 44.309 30.9431 43.9481 30.9431 43.9481L30.5356 42.8791C30.5356 42.8791 30.9981 43.374 32.0467 44.5869C33.0953 45.7998 33.27 45.8546 33.27 45.8546C33.27 45.8546 31.5991 43.1081 30.9607 42.2707C30.3223 41.4332 30.1598 40.8404 30.1598 40.8404L30 39C31.5815 41.5075 34.0312 47.1173 37.1662 48.1711Z" fill="#0B3770"/>
<path d="M35.797 52.8467C37.4704 52.95 38.3242 52 38.3242 52L38.7659 53.3066C38.1591 53.6141 37.1245 54.0019 35.8473 53.9261C33.8535 53.8069 33.6605 53.4098 33.6605 53.4098L33.5871 53.4443L33 52.1179C33.9452 52.7572 34.5568 52.7687 35.797 52.8467ZM39.0215 54.0673L39.6551 55.9475C39.3536 56.1179 39.035 56.2601 38.7038 56.372L38.1941 54.3961C38.4775 54.3043 38.754 54.1944 39.0215 54.0673V54.0673ZM38.1017 56.553C37.7004 56.6607 37.3015 56.7442 36.9251 56.8098L36.2645 54.7244C36.7111 54.7167 37.1554 54.6632 37.5896 54.565L38.1017 56.553ZM36.2985 56.9035C35.8436 56.9653 35.4491 56.9991 35.161 57.0157L34.0186 54.4255C34.4026 54.5447 34.9163 54.6485 35.5989 54.7008L36.2985 56.9035ZM39.9144 56.7123L40 56.9647C40 56.9647 38.9555 57.4832 37.7714 57.7792C36.5873 58.0753 35.5918 57.988 35.5918 57.988L35.4987 57.7792C36.2645 57.7197 37.4534 57.5727 38.6226 57.2308C39.0715 57.1015 39.5045 56.9279 39.9144 56.7129V56.7123Z" fill="#FFC972"/>
<path d="M35.9413 52.8554C37.7011 52.9597 38.599 52 38.599 52L39.0635 53.3199C38.8156 53.4404 38.5585 53.545 38.2942 53.6329L38.1038 53.0231C38.1038 53.0231 37.9701 53.1648 36.1693 53.2758C35.1999 53.334 34.2289 53.1863 33.3344 52.8448L33 52.1191C33.994 52.7649 34.6372 52.7765 35.9413 52.8554ZM34.3478 55.0529L35.5776 55.2683L36.0818 57C36.2054 56.9858 36.334 56.972 36.4702 56.9536L35.7345 54.7284C35.0166 54.675 34.4764 54.5707 34.0726 54.4503L34.3478 55.0529ZM36.5681 55.1572L37.7232 55.0668L38.1352 56.6568C38.2124 56.6381 38.2896 56.6198 38.3643 56.5989L37.8283 54.5916C37.3717 54.6908 36.9044 54.7447 36.4348 54.7526L36.5681 55.1572ZM38.5876 54.8813L39.3079 54.7075L39.7685 56.1098C39.8506 56.0702 39.9278 56.0287 40 55.9891L39.3336 54.0897C39.0525 54.2187 38.7619 54.3302 38.4639 54.4235L38.5876 54.8813Z" fill="#AD4C21"/>
<path d="M24.1092 39.31C23.3831 39.1596 22.6727 38.9832 22.0525 38.8145L22.0292 38.8094L22.0317 38.783C22.0675 38.4771 22.1065 38.1715 22.1426 37.8681C22.1812 37.5731 22.2173 37.2909 22.2498 37.0263L22.2552 37L22.2859 37.0026C22.6792 37.0553 23.1972 37.0871 23.761 37.1028C24.3248 37.1186 24.9346 37.1237 25.5127 37.1211H25.5385L25.541 37.1475C25.5899 37.5244 25.6464 37.9277 25.7083 38.3552C25.7623 38.7479 25.8241 39.1537 25.887 39.5698L25.892 39.6064L25.8563 39.6039C25.2907 39.5384 24.6958 39.4311 24.1092 39.31ZM30.1216 56.4192C30.4126 57.2858 30.7008 58.1345 30.9796 58.9444L31 59L30.946 58.9813C30.2183 58.7287 29.5065 58.4304 28.8146 58.088C28.0316 57.6983 27.2786 57.2482 26.5623 56.7416C25.4455 55.9511 24.3977 55.1134 23.4607 54.3017C22.5237 53.4899 21.695 52.7101 21.0079 52.0326L21 52.0246V52.0114C21.0154 51.6399 21.0336 51.2473 21.054 50.8308C21.0722 50.433 21.0926 50.0139 21.1158 49.5766L21.1208 49.5239L21.1623 49.5557C21.6628 49.9378 22.2019 50.3301 22.7657 50.7097C23.3295 51.0892 23.9165 51.4606 24.5135 51.8006C25.1906 52.1827 25.9703 52.5692 26.794 52.9468C27.6177 53.3245 28.4828 53.6927 29.3323 54.0378L29.3451 54.0429L29.3501 54.0561C29.6047 54.8513 29.8646 55.6411 30.1216 56.4192ZM23.9261 45.8869C22.9015 45.4338 22.0264 45.0225 21.4497 44.7458L21.4319 44.7352L21.4344 44.7169C21.4626 44.3769 21.4908 44.0292 21.522 43.6761C21.5527 43.3335 21.5834 42.9961 21.6145 42.6696L21.617 42.6301L21.6528 42.6458C22.2319 42.8881 23.0195 43.1216 23.8897 43.3412C24.7598 43.5608 25.7094 43.7628 26.6156 43.9366L26.6335 43.9417L26.6385 43.9604C26.685 44.2052 26.7314 44.4424 26.7751 44.677C26.8187 44.9116 26.8702 45.1527 26.9216 45.4042C26.9785 45.6863 27.0428 45.9839 27.1147 46.2949C27.1865 46.606 27.2666 46.9299 27.3492 47.2593L27.3621 47.312L27.3131 47.2937C26.1298 46.8406 24.9532 46.3429 23.9265 45.8869H23.9261Z" fill="#FFC972"/>
<path d="M22.1398 37.5295C22.1632 37.3557 22.184 37.1896 22.2045 37.0263L22.2099 37L22.2408 37.0026C22.6362 37.0553 23.157 37.0871 23.7238 37.1028C24.2907 37.1186 24.9039 37.1237 25.4851 37.1211H25.511L25.5135 37.1475C25.5627 37.5244 25.6195 37.9276 25.6817 38.355C25.736 38.7477 25.7982 39.1535 25.8614 39.5696L25.8665 39.6061L25.8305 39.6036C25.543 39.5692 25.2487 39.527 24.9477 39.477L24.8288 37.8094L22.1398 37.5295ZM21.5032 43.3287C21.7257 43.455 22.088 43.6317 22.6728 43.8659C24.4122 44.5641 25.6803 44.5978 25.6803 44.5978L25.7993 46.7004C26.2885 46.9006 26.7906 47.1007 27.2952 47.2932L27.3445 47.3115L27.3315 47.2588C27.2485 46.9295 27.1684 46.6056 27.0958 46.2946C27.0231 45.9836 26.9588 45.6861 26.9017 45.4039C26.8499 45.1536 26.8008 44.9113 26.7543 44.6768C26.7104 44.4423 26.6637 44.2051 26.617 43.9603L26.6119 43.9417L26.594 43.9365C25.6828 43.7627 24.7249 43.5596 23.8532 43.3412C22.9816 43.1227 22.1865 42.8878 21.6042 42.6459L21.5683 42.6302L21.5658 42.6697C21.5456 42.886 21.5251 43.1048 21.5043 43.3287H21.5032ZM21 50.8006C21.7325 51.4513 23.3321 52.7979 24.7112 53.4302C26.567 54.281 27.2528 54.3311 27.2528 54.3311L27.9023 54.5342L28.8416 58.1068C29.5242 58.4429 30.227 58.735 30.9457 58.9813L31 59L30.9795 58.9444C30.6999 58.1331 30.4102 57.2845 30.1169 56.4195C29.8581 55.6422 29.5967 54.8518 29.3405 54.0585L29.3354 54.0453L29.3225 54.0402C28.4685 53.6951 27.5972 53.3288 26.7705 52.9494C25.9437 52.5699 25.1584 52.1853 24.4776 51.8033C23.8773 51.4633 23.2871 51.0945 22.7203 50.7124C22.1534 50.3304 21.6128 49.9407 21.1082 49.5587L21.0665 49.5268L21.0615 49.5795C21.0435 50.0047 21.0205 50.4135 21.0022 50.8006H21Z" fill="#AD4C21"/>
<path d="M44.2927 50.1335C44.6945 49.7199 45.0545 49.337 45.3407 49.0213L45.3616 49L45.3821 49.0213C45.6449 49.2451 45.9151 49.4719 46.1853 49.6923C46.4555 49.9127 46.7183 50.1335 46.9791 50.3386L47 50.3574L46.9881 50.3816C46.631 51.1016 46.1853 51.947 45.6687 52.8265C45.2587 53.5282 44.7979 54.2541 44.2989 54.954L44.2665 55L44.1689 54.7609C43.9475 54.2158 43.7409 53.6614 43.5461 53.1065C43.3514 52.5517 43.171 52.0066 43.0057 51.4675L43 51.4492L43.0148 51.4339C43.4547 50.9943 43.8938 50.5471 44.2927 50.1335Z" fill="#FFC972"/>
<path d="M44.2927 50.2803C44.6945 49.8132 45.0545 49.3806 45.3407 49.024L45.3616 49L45.3821 49.024C45.6449 49.2768 45.9151 49.533 46.1853 49.7819C46.4555 50.0309 46.7183 50.2803 46.9791 50.512L47 50.5331L46.9881 50.5605C46.87 50.8272 46.7421 51.1108 46.6072 51.4049L45.5092 50.3288L43.3514 53C43.2284 52.5953 43.1152 52.1902 43.0057 51.7889L43 51.7682L43.0148 51.7509C43.4547 51.2526 43.8938 50.7474 44.2927 50.2803Z" fill="#AD4C21"/>
<path d="M26.5028 27.8494C26.8274 28.384 27.0005 29.0128 27 29.6559C27 31.5026 25.5947 33 23.8653 33C22.5878 33 21.4889 32.1834 21 31.0151C21.2908 31.4905 21.6836 31.8793 22.1437 32.1472C22.6038 32.4151 23.1168 32.5536 23.6372 32.5505C25.3688 32.5505 26.7719 31.0532 26.7719 29.2065C26.7724 28.738 26.6806 28.275 26.5028 27.8494V27.8494ZM23.8653 27.4474C24.1954 27.446 24.521 27.5306 24.8156 27.6944C25.1103 27.8581 25.3655 28.0963 25.5605 28.3896C25.257 27.5754 24.5089 27 23.6372 27C22.4943 27 21.5681 27.9876 21.5681 29.2061C21.5676 29.6609 21.6977 30.1041 21.9398 30.4725C21.8436 30.2133 21.7941 29.9359 21.794 29.6559C21.7947 28.4374 22.7224 27.4474 23.8653 27.4474V27.4474Z" fill="#AD4C21"/>
<path d="M24.0014 28C25.1058 28 26 28.8941 26 30C26 31.1059 25.1046 32 24.0014 32C22.8981 32 22 31.1055 22 30C22 29.9449 22.0031 29.8899 22.0058 29.8352C22.0837 30.6919 22.8047 31.3628 23.6821 31.3628C24.6126 31.3628 25.3639 30.6103 25.3639 29.6812C25.3639 28.804 24.6912 28.0832 23.8332 28.0052C23.8892 28.0028 23.9453 28 24.0014 28Z" fill="#AD4C21"/>
<path d="M23.5115 27C25.3161 27 26.8009 28.3253 27 30.0323C26.6475 28.5475 25.2803 27.4431 23.6471 27.4431C21.7481 27.4431 20.2073 28.9414 20.2073 30.79C20.2072 31.3131 20.3325 31.8285 20.5725 32.2926C20.1987 31.7405 19.9992 31.0879 20 30.4201C20 28.5308 21.5717 27 23.5115 27ZM25.8063 30.0951C25.8218 30.2022 25.8295 30.3104 25.8294 30.4186C25.8294 31.6644 24.7918 32.6764 23.5112 32.6764C23.1177 32.679 22.7299 32.5815 22.384 32.3928C22.0381 32.2042 21.7454 31.9307 21.533 31.5977C21.8653 32.4182 22.6859 33 23.6468 33C24.9015 33 25.9185 32.0111 25.9185 30.7882C25.9193 30.5525 25.8814 30.3183 25.8063 30.0951Z" fill="white"/>
<path d="M31.0099 27.0114C30.7344 26.6558 36.2855 34.7761 40 32.6421C37.0907 31.3503 32.9959 29.5694 31.0099 27.0114Z" fill="#FFC972"/>
<path d="M46 33.824C46 33.824 46.9245 33.0551 47.4231 32.426C47.9218 31.7968 48 31 48 31C48 31 48.0071 31.7462 47.4717 32.7545C46.9364 33.7628 46.5839 33.9924 46.4217 33.9998C46.2595 34.0072 46 33.824 46 33.824Z" fill="#FFC972"/>
<path d="M42.1198 68.3032L40.3267 71L39.6652 70.6865L37.4884 69.6329C25.6114 63.628 12.4088 51.3028 7 37.654L8.40017 36C13.4474 49.812 27.0909 62.5266 39.1062 68.3517L39.1409 68.4787C39.1409 68.4787 39.1649 68.4528 39.2073 68.401C39.3003 68.4474 39.3959 68.4941 39.4914 68.538L40.5038 67.3032C42.2143 65.126 44.6822 61.5608 48.9008 54.1848C49.5889 52.9835 50.2423 51.7278 50.8562 50.4697L52 52.4632C51.5381 53.3484 51.0584 54.2244 50.5611 55.0909C48.0268 59.5234 45.3784 64.1163 42.225 68.1626C42.1918 68.21 42.1545 68.2564 42.1198 68.3032Z" fill="#0B121D"/>
<path d="M58 53.0113L55.7278 58.1627H55.7252C55.7332 58.2437 55.7384 58.325 55.7384 58.4086C55.7344 58.7847 55.6503 59.1565 55.4908 59.5036L54.5009 61.704C54.2414 62.2883 53.8305 62.8071 53.303 63.2165C52.6788 63.7013 51.9365 64 51.109 64H2L8.06604 55.9772L5.291 53C22.8788 53.0591 40.437 53.0113 58 53.0113Z" fill="#0B121D"/>
<path d="M17.7495 54.0363L13.8572 63L10.775 62.9482L11.703 60.7333L9.6628 60.6143L8.20192 62.9482H5L10.1052 55.6439L8.69193 54.0036L17.7495 54.0363ZM13.7415 56.0367L12.4176 56.0133L10.8937 58.3393L12.7182 58.3573L13.7415 56.0367ZM26.3375 55.9123L24.2229 61.1473C23.946 61.828 23.6479 62.2614 23.3897 62.4904C23.0469 62.793 22.5474 62.9482 21.8761 62.9482H20.5786L19.4872 58.3915L17.6334 62.9482H14.6695L18.4665 54.0029H21.2169L22.3427 58.4472L24.1068 54.0018H27.1366L26.3375 55.9123ZM35.5825 54.0029L32.5428 61.3155C32.3663 61.7529 32.0418 62.1098 31.6437 62.4232C31.198 62.775 30.7421 62.9482 30.2803 62.9482H25.8973L24.7477 61.5847L27.238 55.4002L27.6808 54.0029H30.845L27.9313 61.116H29.5954L32.2348 54.8626L31.4727 54L35.5825 54.0029ZM43.5589 55.3898L42.81 57.2788C42.6675 57.6357 42.4038 57.8998 42.0244 58.0626C41.7578 58.1765 41.344 58.2596 40.7822 58.3189C41.5788 58.482 41.9551 58.8774 41.9109 59.5049L41.1462 61.3834C40.9798 61.7939 40.7147 62.1588 40.3735 62.4469C39.9809 62.7833 39.5678 62.95 39.1448 62.95H32.4736L35.7063 55.3812L36.219 54.0047H42.2863L43.5589 55.3898ZM40.3394 55.8789H38.5859L37.9029 57.5659H39.6458L40.3394 55.8789ZM38.9844 59.2738H37.199L36.4373 61.1628H38.2116L38.9844 59.2738ZM47.8284 54.0029L47.1325 55.7366L44.2346 62.8886C44.0289 62.929 43.8196 62.9489 43.6098 62.9479H41.0942L44.3613 55.379L43.1194 54.0025L47.8284 54.0029ZM56 54.0029L54.9321 56.6265H52.2689L52.5747 55.8685H50.8237L50.1067 57.5659H53.4185C54.1066 57.5659 54.452 57.8326 54.452 58.3706C54.449 58.5868 54.4034 58.8004 54.3175 58.9996L53.3262 61.3802C53.1572 61.7956 52.8874 62.1643 52.5403 62.4541C52.1528 62.7826 51.7466 62.9482 51.3222 62.9482H45.0857L46.2009 60.2003H49.1252L48.7853 61.0629H50.4359L51.1874 59.2206H48.2287L46.9421 57.8003L47.9441 55.3111C48.0998 54.9229 48.4528 54.6045 48.9908 54.3508C49.4762 54.1208 49.9543 54.0053 50.4253 54.0043L56 54.0029Z" fill="white"/>
<path d="M16.7747 55.0299L8.88423 55.0024L9.98989 56.2123L5 62.9523H7.34909L8.85458 60.6832L11.7037 60.8383L10.7603 62.9624L13.1094 63L16.7747 55.0299ZM13.8122 56.2749L12.4388 59.2179L9.62759 59.1901L11.6767 56.2374L13.8122 56.2749ZM26.4031 55H24.1272L21.9779 60.1095L20.6049 55H18.3373L14.7609 62.9523H16.9696L19.2222 57.7277L20.5493 62.9523H21.5765C22.0199 62.9523 22.5335 62.8873 22.874 62.6017C23.1984 62.3286 23.4687 61.8016 23.6283 61.4318L25.8024 56.3626L26.4031 55ZM35.0613 55H32.2501L32.6394 55.4133L29.7486 61.8854H27.2253L30.2122 55H27.8095L27.4363 56.117L24.9584 61.9202L25.8801 62.9523H30.195C30.6305 62.9523 31.0209 62.7721 31.3547 62.5241C31.6884 62.2761 32.0008 61.9707 32.163 61.5946L35.0613 55ZM43.3682 56.0645L42.3301 55H36.5484L36.1103 56.1069L33.0126 62.9523H39.2823C39.669 62.9523 40.0069 62.7847 40.2934 62.554C40.5971 62.3115 40.8335 62.0049 40.9827 61.66L41.7395 59.8966C41.7504 59.4256 41.3502 59.2604 40.8828 59.1703L38.5363 58.7142L40.9203 58.4738C41.2691 58.4391 41.7583 58.3837 42.0842 58.2536C42.368 58.1382 42.5723 57.9579 42.6871 57.6901L43.3682 56.0645ZM41.0675 56.1094L40.0512 58.4464H37.4483L38.4515 56.1094H41.0675ZM39.681 59.3957L38.5806 61.9279H35.9451L37.0263 59.3957H39.681ZM47.623 55H44.2005L45.0711 55.9118L41.8514 62.9523H43.8574C43.9794 62.9533 44.1013 62.9465 44.2223 62.9322L47.1131 56.1946L47.623 55ZM56 55H50.8438C50.3843 55 49.9465 55.1176 49.538 55.2981C49.1866 55.4557 48.8003 55.6912 48.6516 56.0419L47.7108 58.2509L48.762 59.3432H52.1841L51.1111 61.8301H48.6051L48.9565 60.9987H46.7726L45.9316 62.9523H51.7625C52.1462 62.9523 52.4788 62.7871 52.7653 62.5617C53.074 62.3159 53.3141 62.0049 53.4654 61.6548L54.4791 59.3505C54.5499 59.2002 54.5882 59.0385 54.5917 58.8746C54.5917 58.7869 54.5782 58.6794 54.5167 58.6067C54.395 58.4676 54.0842 58.4464 53.9111 58.4464H49.948L50.9992 56.0996H53.6077L53.2943 56.8357H55.2056L56 55Z" fill="white"/>
<path d="M8.31387 59L5 62.9537H7.58282L9.2381 60.7508L12.3708 60.9017L11.3338 62.9635L13.9162 63L16 59H13.3515L13.1794 59.3283L10.0884 59.3016L10.3229 59H8.31387Z" fill="#849EB5"/>
<path d="M17.3844 59H19L17.6707 63H16L17.3844 59Z" fill="#849EB5"/>
<path d="M20 59H22.0482L22.3648 60.2078L22.8609 59H25L23.9512 61.5065C23.798 61.8684 23.5384 62.3874 23.2269 62.6556C22.8998 62.9361 22.4066 63 21.9808 63H20.9944L20 59Z" fill="#849EB5"/>
<path d="M26.2371 59H28.402L27.1613 61.9531H29.5629L30.8426 59H33L31.8619 61.666C31.7075 62.0355 31.4114 62.3332 31.0922 62.5793C30.7729 62.8253 30.4025 63 29.9877 63H25.8778L25 61.9859L26.2371 59Z" fill="#849EB5"/>
<path d="M34.6912 59H38.8516L40.2144 59.2853C40.6429 59.3738 41.0098 59.5361 40.9998 59.9987L40.306 61.7307C40.1692 62.0694 39.9525 62.3705 39.6741 62.6088C39.4115 62.8353 39.1018 63 38.7473 63H33L34.6912 59Z" fill="#849EB5"/>
<path d="M43.2653 59H46L43.883 62.9801C43.7359 62.9942 43.5876 63.0008 43.4393 62.9999H41L43.2653 59Z" fill="#849EB5"/>
<path d="M48.2049 59H54C53.9955 59.1592 53.9602 59.3161 53.896 59.4623L52.9596 61.7256C52.8199 62.0694 52.598 62.3749 52.3129 62.6163C52.0483 62.8377 51.741 63 51.3866 63H46L46.7768 61.0812H48.7941L48.4695 61.8978H50.7843L51.7754 59.4551H48.6144L48.2049 59Z" fill="#849EB5"/>
<path d="M39 59L38.1166 62H36L36.868 59H39Z" fill="#0B121D"/>
</svg>
