<svg width="92" height="108" viewBox="0 0 92 108" fill="none" xmlns="http://www.w3.org/2000/svg">
<path d="M66.9213 92.916C66.389 93.6933 65.8462 94.4639 65.2814 95.234C64.6955 96.0391 64.0808 96.8487 63.4373 97.6627L63.3759 97.7385V97.7419L63.3219 97.811L60.2049 102.43C58.5221 101.642 56.7963 100.858 55.1389 100.031H55.1354C53.1289 99.0326 51.1445 97.9305 49.1885 96.7425C47.2146 95.5433 45.2851 94.2673 43.3998 92.9146H5.22705L14.4743 79.9632L9.32582 74.1096L12.5762 74.1202C14.5502 74.1302 16.5236 74.1336 18.4976 74.1408L23.6066 74.1509C18.3178 67.4816 14.0862 60.1497 11.7218 52.5836C9.54304 45.6159 8.9498 38.4476 10.5732 31.4137L11.1225 29.03L13.5889 28.4542C14.1931 28.3103 14.8078 28.1985 15.426 28.1054C16.0552 28.0095 16.6665 27.9327 17.2637 27.8655C18.7808 27.6928 20.3135 27.5799 21.8618 27.5268C23.3974 27.4716 24.9364 27.475 26.4714 27.5234C27.5201 27.558 28.5533 27.6131 29.5745 27.6894C30.484 27.7534 31.39 27.8363 32.2925 27.938C32.4692 26.4985 32.7906 25.0788 33.2523 23.6989C33.7958 22.0791 34.4939 20.511 35.3376 19.0146C37.0994 15.8675 39.3465 13.0448 42.083 10.7893C44.6103 8.70595 47.5516 7.10676 50.9133 6.18745L53.1684 5.56995L52.8128 7.79432C52.5971 9.13154 52.3095 10.4812 52.0219 11.8328C51.6478 13.588 51.2728 15.3393 51.0581 17.1107C50.9897 17.6773 50.9392 18.2402 50.9083 18.7967C50.8773 19.3533 50.8758 19.9195 50.8973 20.4789C50.9153 20.8762 50.9442 21.2735 50.9837 21.6674C51.0231 22.0613 51.0736 22.4548 51.1335 22.8592C51.2593 23.7123 51.4176 24.5587 51.5939 25.3916C51.7662 26.2136 51.9679 27.0633 52.1727 27.9169C52.2156 28.0997 52.2915 28.4106 52.3669 28.7181C52.5072 29.2939 52.651 29.8754 52.7839 30.48C52.8807 30.4661 52.9886 30.4526 53.1184 30.4354L53.46 30.3874C53.9739 30.3111 54.5586 30.2286 55.0455 30.2286C55.851 30.2286 56.7388 30.3768 57.6197 30.5947C58.3857 30.7866 59.1443 31.0298 59.8384 31.275C62.4051 28.425 65.4113 26.691 68.727 25.6028C72.0962 24.4992 75.7681 24.0616 79.6176 23.7925L81.7424 23.6485L81.5162 24.433L81.6311 24.706L81.3974 24.837L81.1712 25.6215C81.0213 26.1493 80.8511 26.677 80.6783 27.2048C80.4915 27.7614 80.3118 28.2758 80.1355 28.7666C79.736 29.8788 79.3085 30.9914 78.8411 32.0931C78.3737 33.1947 77.8774 34.2733 77.3311 35.3409C77.0504 35.8864 76.7558 36.4324 76.4392 36.9722C76.1226 37.512 75.7995 38.0431 75.4505 38.558C74.9471 39.3007 74.4018 40.0574 73.818 40.7895C73.3316 41.405 72.8133 41.9966 72.265 42.5619C73.484 43.332 74.6774 44.1299 75.8245 44.9662C77.1078 45.899 78.3483 46.8855 79.5243 47.9266C80.5849 48.8699 81.8862 50.1448 82.9649 51.506C83.7813 52.5385 84.4679 53.62 84.8205 54.6425L85.1656 55.6501L85.1726 55.8679L84.8884 56.8904C84.5543 58.0961 84.1658 59.3052 83.7489 60.5143C83.3244 61.7373 82.8825 62.9186 82.44 64.0798C81.7409 65.8934 80.9967 67.6978 80.2074 69.4929C79.5133 71.058 78.7834 72.6104 78.0177 74.1499L80.9694 74.1465H86.7725L82.9649 83.294V83.3046C82.9643 83.3345 82.9656 83.3645 82.9689 83.3943C82.968 83.7541 82.9294 84.1129 82.8535 84.4652C82.7751 84.8259 82.6633 85.1792 82.5194 85.5208L81.1672 88.7029C80.9442 89.2294 80.657 89.7287 80.3118 90.1903C79.9669 90.6503 79.5661 91.0691 79.1178 91.4378C78.5585 91.9061 77.9201 92.2793 77.2302 92.5413C76.5644 92.7908 75.856 92.9185 75.1414 92.918L66.9213 92.916Z" fill="white"/>
<path d="M62.2435 97.4359L59.7863 101.085L58.8798 100.661L55.8969 99.2351C32.5064 87.5573 5.34988 58.2102 11.564 31.2758L11.9179 29.7521L13.4944 29.3809C14.6299 29.1147 15.8787 28.9464 17.0335 28.8136C20.0407 28.4667 23.1056 28.3791 26.1269 28.4774C36.589 28.8102 46.9419 31.416 56.4429 35.5917C63.9761 38.9 72.7152 43.3122 78.856 48.7733C80.4977 50.2329 83.0787 52.8469 83.8067 54.9701L84.0545 55.6809L83.8522 56.4062C83.1859 58.7984 82.2976 61.2505 81.4098 63.5697C79.309 69.0551 76.7755 74.4496 73.8158 79.5604C70.343 85.5577 66.7139 91.7719 62.3926 97.2467C62.3421 97.3099 62.291 97.3727 62.2435 97.4359Z" fill="#0B121D"/>
<path d="M14.2177 30.6625C8.25653 57.2518 35.3546 86.9044 58.1564 98.1353L58.2039 98.3118C58.2039 98.3118 58.2367 98.2758 58.2947 98.2038C58.422 98.2683 58.5527 98.3333 58.6835 98.3942L60.0688 96.6779C62.4092 93.6517 65.7861 88.6962 71.5585 78.4438C77.3309 68.1914 81.3364 55.2531 81.3364 55.2531C81.3364 55.2531 78.7213 47.4208 55.4015 36.8805C32.0817 26.3403 14.2177 30.6625 14.2177 30.6625Z" fill="#94CB53"/>
<path d="M71.3813 72.8922C71.9608 73.3124 73.0213 74.1002 73.6119 74.5068L74.9968 75.4624L59.8216 98.7482C57.8349 98.3908 56.0056 98.0265 54.311 97.6521C51.1515 95.8697 46.4062 92.9833 40.145 88.6215C31.0634 82.2992 22.6449 69.5973 18.8184 63.3087L22.4005 55.9865C23.0964 54.53 23.8511 53.0909 24.6493 51.7847C25.4658 50.4439 26.2893 49.106 27.0911 47.7579L31.2892 39.6902L33.9359 34.3785C32.4053 29.4554 33.7901 24.0942 36.3341 19.5563C39.6105 13.698 44.5633 9.08322 51.196 7.26923C50.456 11.8772 49.0702 15.9672 49.2463 20.4035C49.2834 21.259 49.3662 22.1122 49.4943 22.9596C49.753 24.7284 50.1523 26.4791 50.5694 28.2158C50.8134 29.224 51.0756 30.2535 51.2942 31.2831L51.4967 32.1234C52.0211 32.0675 54.4522 31.6926 54.9659 31.6926C56.4637 31.6926 58.4898 32.3578 59.9076 32.887L60.3014 33.0329C65.3342 26.821 72.4154 25.6937 79.9774 25.1651C79.9774 25.1651 77.7579 32.849 74.3687 37.8723C72.5647 40.5471 71.0417 42.0776 70.0101 42.9248C70.3676 43.3153 70.6929 43.732 70.9829 44.1712C71.4203 44.8579 71.854 45.5407 72.2949 46.2235L72.3789 46.3529L72.4483 46.4929C72.8309 47.274 73.5051 48.5905 73.6251 49.4026C73.6362 49.48 73.6474 49.5602 73.6545 49.6375L73.9713 49.6443L72.6705 54.0213L79.9263 65.1144C79.8838 70.4975 75.3936 71.3608 71.3813 72.8922Z" fill="#0B121D"/>
<path d="M64.8345 49.4305C64.8345 49.4305 65.2898 47.1043 64.1589 44.5443C63.7522 43.6319 63.0888 42.8364 62.4039 42.1872L60.6845 41.7034L61.9404 43.7699C61.9404 43.7699 59.8148 41.7123 55.8326 41.0297C51.8504 40.3471 49.6829 39.2019 49.6829 39.2019C49.6829 39.2019 50.9714 40.9835 53.0518 41.645C55.1322 42.3065 57.4854 42.4685 59.4991 43.4482C61.5128 44.4279 62.5742 47.1961 62.5742 47.1961C62.5742 47.1961 61.6043 45.0462 59.1839 43.9752C56.7636 42.9041 55.836 43.1511 52.8276 42.5147C49.8191 41.8783 48.4606 39.8874 48.4606 39.8874C49.0837 44.0282 55.6716 44.7103 58.1333 46.2096C58.7359 46.4679 59.2228 46.8318 59.7267 47.2845C60.9457 48.3806 62.3256 49.6854 62.3256 49.6854C62.3256 49.6854 62.4166 48.8825 61.8737 48.0059C61.3309 47.1293 60.8897 46.761 60.8897 46.761C60.8897 46.761 62.168 47.6062 62.8018 48.5289C63.4356 49.4516 63.4706 49.7983 63.9118 49.8445C64.3529 49.8907 64.8345 49.4305 64.8345 49.4305ZM68.1547 51.4675L68.0988 51.1773C68.0988 51.1773 68.8517 50.9263 69.5521 49.9295C70.2526 48.9326 70.1509 48.1473 70.1509 48.1473C70.1509 48.1473 70.6519 48.773 70.4802 50.2334C70.3085 51.6939 69.4889 53.1116 69.4889 53.1116L68.1547 51.4675ZM45.6181 47.2069C45.9965 46.5631 46.5675 45.7042 47.2641 45.0285C48.553 43.7768 49.7686 43.434 49.7686 43.434C49.7686 43.434 51.9087 48.6635 55.2037 50.0144C58.4465 51.3443 60.5478 50.3999 60.6144 50.3719C60.1267 50.6264 59.6038 50.8052 59.0633 50.9023C59.9247 50.6076 60.6042 50.3754 60.6144 50.3719C60.8303 50.2619 61.0355 50.1317 61.2273 49.983C61.2273 49.983 61.3183 51.5102 59.3303 52.677C57.3424 53.8438 55.369 53.4303 55.369 53.4303C55.369 53.4303 56.749 53.9784 58.966 53.4303C61.183 52.8823 61.4316 52.4934 61.4316 52.4934L68.4008 58.7728L62.6773 51.0535C62.6773 51.0535 63.1744 50.6189 63.8189 50.4952C64.4634 50.3714 64.6769 50.7461 64.6769 50.7461C64.6769 50.7461 64.495 50.3675 64.8228 50.1981C65.1507 50.0287 66.8117 50.5305 66.8117 50.5305L75.9002 62.8138L74.496 62.5167L74.1351 62.6547L67.1449 53.9528L73.5222 62.7254C73.5222 62.7254 71.9394 63.4326 71.7152 63.4782C71.4909 63.5239 70.0415 62.3576 70.0415 62.3576L71.1724 63.9099C71.1724 63.9099 71.9185 65.3026 72.4054 65.911C72.8923 66.5195 72.8675 66.3422 72.8675 66.3422C72.8675 66.3422 72.7216 66.71 70.8328 66.8691C68.9441 67.0282 67.054 66.0451 67.054 66.0451C67.054 66.0451 68.5492 66.9826 70.0167 67.1982C71.4841 67.4137 73.0392 66.6855 73.0392 66.6855C73.0392 66.6855 71.8061 67.4069 70.4126 67.4952C69.019 67.5836 67.2918 66.6393 67.2918 66.6393C67.2918 66.6393 68.6717 67.8179 70.6855 67.6897C72.6992 67.5615 73.2284 67.0955 73.2284 67.0955C73.2284 67.0955 72.7556 67.5409 71.3407 67.8169C69.9257 68.0929 67.7996 67.4069 67.7996 67.4069C67.7996 67.4069 68.7384 68.0678 70.325 68.0786C71.9117 68.0895 73.3437 67.3465 73.3437 67.3465C73.3437 67.3465 72.0095 68.4214 69.8941 68.3188C67.7787 68.2161 61.0371 62.8492 58.8449 61.1835C56.6527 59.5177 56.4459 58.7403 55.5179 58.7403C54.5898 58.7403 54.6808 59.9037 55.6789 60.4729C56.677 61.042 57.9377 61.5267 60.2024 63.1247C62.4672 64.7226 67.4869 68.6935 70.0439 68.9685C72.6009 69.2435 73.8646 67.9642 73.8646 67.9642C73.8646 67.9642 73.0275 69.1841 70.6427 69.3112C68.2578 69.4384 66.3662 68.4204 66.3662 68.4204C66.3662 68.4204 68.3347 69.5376 70.2224 69.6437C72.1101 69.7498 73.1292 69.1384 73.1292 69.1384C73.1292 69.1384 70.2467 70.6234 67.5992 69.983C64.9517 69.3427 60.9068 66.0338 59.6844 65.1214C58.4621 64.209 58.4164 64.1599 58.4164 64.1599C58.4164 64.1599 61.4355 66.2715 63.7085 67.5974C65.9814 68.9233 66.8322 69.3019 66.8322 69.3019C66.8322 69.3019 60.917 65.3733 58.4271 63.6585C55.9372 61.9436 55.7932 61.8552 55.7932 61.8552C55.7932 61.8552 55.5986 62.0394 55.8039 62.4848C56.0091 62.9302 56.1332 63.1001 56.1332 63.1001C56.1332 63.1001 54.3223 62.7465 53.8252 60.6938C53.3281 58.6411 55.0018 57.8829 55.0018 57.8829C55.0018 57.8829 54.6613 57.8157 54.1545 58.102C53.6476 58.3882 53.5659 58.65 53.5659 58.65C53.6004 58.3126 53.7261 57.9913 53.9293 57.7212C54.1326 57.4511 54.4055 57.2427 54.7182 57.1188C55.8146 56.6734 56.2451 56.9352 56.2451 56.9352C56.2451 56.9352 55.5344 56.5143 54.368 56.9813C53.2016 57.4483 53.009 57.8967 52.8203 59.0389C52.6315 60.1812 53.0547 61.2522 53.0547 61.2522C53.0547 61.2522 52.5119 60.9197 51.6081 59.5516C50.7044 58.1835 50.6353 57.1085 50.6353 57.1085C50.6353 57.1085 50.2078 57.8157 50.9996 59.3463C51.7915 60.877 53.2585 61.7227 53.2585 61.7227C53.2585 61.7227 52.3791 61.6976 50.7054 60.1669C49.0317 58.6362 48.8035 55.2129 48.8035 55.2129C48.8035 55.2129 48.3974 55.8744 48.5793 57.0167C48.7612 58.1589 48.9159 58.6146 48.9159 58.6146C48.9159 58.6146 46.317 56.9705 45.028 53.2933C43.7391 49.6162 46.0835 47.9278 46.0835 47.9278L45.1107 48.1542C45.2505 47.8233 45.4204 47.5062 45.6181 47.2069V47.2069ZM49.7686 43.434C49.7686 43.434 49.7545 43.4694 49.7335 43.5322L49.7686 43.434ZM75.6249 65.7377C75.6249 65.7377 75.1555 66.6462 74.9629 66.8303C74.7703 67.0145 74.5918 67.0179 74.5918 67.0179C74.7268 67.0428 74.8642 67.0522 75.0013 67.0459C75.1333 67.0418 75.2607 66.9962 75.3657 66.9153C75.3346 66.9786 75.2899 67.034 75.2347 67.0774C75.1796 67.1209 75.1154 67.1512 75.0471 67.1662C74.8039 67.2301 74.693 67.2124 74.693 67.2124L75.0432 68.0182C75.0432 68.0182 75.1171 68.1317 75.4323 67.2404C75.7475 66.3491 75.6249 65.7377 75.6249 65.7377V65.7377Z" fill="#747E87"/>
<path d="M51.3149 49.0109L51.3419 49.0359L51.3652 49.0583C51.4511 49.146 51.5445 49.2337 51.6353 49.3267L51.6434 49.3328L51.6471 49.339C52.2889 49.9486 53.0937 50.6179 53.9343 51.0599C55.8438 52.0581 57.3995 52.1621 57.3995 52.1621L57.6831 52.1748C57.997 52.214 58.3147 52.2299 58.6322 52.2222C58.6322 52.2222 58.4302 52.5292 55.9956 52.9169C53.561 53.3046 52.452 53.141 52.452 53.141C52.452 53.141 53.2299 53.9743 56.6216 54.423C60.0134 54.8716 62.374 54.016 62.374 54.016L70.4637 59.3811L64.6103 51.7327C64.6103 51.7327 64.9885 51.4696 65.3261 51.5402C65.6637 51.6108 66.0921 51.8967 66.0921 51.8967C66.0921 51.8967 65.8549 51.2876 65.9052 50.9463C65.9244 50.8289 65.9763 50.7166 66.0569 50.6178C65.7809 50.5863 65.5475 50.5801 65.4428 50.6244C65.0771 50.7757 65.2807 51.1139 65.2807 51.1139C65.2807 51.1139 65.0436 50.7757 64.3278 50.8898C63.6121 51.0038 63.06 51.3884 63.06 51.3884L69.4152 58.282L61.6756 52.6739C61.6756 52.6739 61.3995 53.0213 58.9374 53.5107C56.4753 54.0002 54.9428 53.5107 54.9428 53.5107C54.9428 53.5107 57.1289 53.8769 59.342 52.8379C60.1117 52.4748 60.6022 52.0704 60.9134 51.7011C61.4924 51.0095 61.4498 50.4319 61.4498 50.4319C61.4498 50.4319 61.1192 50.6148 60.4153 50.8073C59.7228 50.9937 58.5171 51.0884 58.4745 51.0915C57.4946 51.0915 56.2343 50.9433 54.7602 50.46C51.1005 49.2539 48.7242 44.583 48.7242 44.583C48.7242 44.583 48.4677 46.1373 51.3149 49.0109Z" fill="#384A59"/>
<path d="M47.3589 57.3998C47.4382 56.809 47.5757 55.9831 47.785 55.3L48.1608 54.0923C48.1608 54.0923 48.6742 55.9168 49.0461 56.6989L49.4185 57.4839L49.8159 55.4213C49.8159 55.4213 50.2134 56.4159 50.7047 57.4365C51.196 58.4571 51.5428 58.8568 51.5428 58.8568C51.5428 58.8568 51.3551 57.2255 53.0353 56.1549C54.7155 55.0843 56.9809 56.6285 56.9809 56.6285L55.1381 56.9145L55.9295 57.3626L54.9504 57.7444C54.9504 57.7444 56.327 57.5752 57.6102 58.9516C58.8934 60.3281 61.9537 62.5783 64.0058 64.2153C66.0579 65.8522 66.8282 66.2784 66.8282 66.2784L66.1306 65.1145C66.1306 65.1145 67.7637 65.97 69.5382 66.0398C71.3128 66.1097 71.8939 65.7314 71.8939 65.7314L69.1874 61.4659C69.1874 61.4659 71.24 62.5564 71.7785 62.5085C72.317 62.4605 73.014 62.0094 73.014 62.0094L67.6051 54L73.7041 62.4427C73.7041 62.4427 72.0711 63.1768 71.8397 63.2242C71.6084 63.2716 70.1128 62.0609 70.1128 62.0609L71.2796 63.6723C71.2796 63.6723 72.0495 65.1181 72.5518 65.7497C73.0542 66.3814 73.0286 66.1973 73.0286 66.1973C73.0286 66.1973 72.878 66.5792 70.9293 66.7443C68.9807 66.9095 67.0305 65.8889 67.0305 65.8889C67.0305 65.8889 68.5732 66.8621 70.0872 67.0859C71.6013 67.3097 73.2057 66.5537 73.2057 66.5537C73.2057 66.5537 71.9336 67.3026 70.4957 67.3943C69.0579 67.4861 67.2759 66.5058 67.2759 66.5058C67.2759 66.5058 68.6996 67.7293 70.7773 67.5962C72.8549 67.4632 73.401 66.9794 73.401 66.9794C73.401 66.9794 72.9132 67.4417 71.4533 67.7282C69.9934 68.0148 67.7998 67.3026 67.7998 67.3026C67.7998 67.3026 68.7684 67.9888 70.4054 68C72.0425 68.0112 73.5199 67.2399 73.5199 67.2399C73.5199 67.2399 72.1433 68.3558 69.9608 68.2493C67.7782 68.1427 60.8226 62.5712 58.5607 60.842C56.2989 59.1127 56.0856 58.3057 55.1281 58.3057C54.1705 58.3057 54.2644 59.5134 55.2942 60.1043C56.324 60.6951 57.6248 61.1983 59.9614 62.8572C62.298 64.516 67.4771 68.6382 70.1153 68.9237C72.7536 69.2092 74.0574 67.8812 74.0574 67.8812C74.0574 67.8812 73.1937 69.1475 70.7331 69.2796C68.2725 69.4116 66.3208 68.3548 66.3208 68.3548C66.3208 68.3548 68.3518 69.5146 70.2995 69.6247C72.2472 69.7348 73.2986 69.1001 73.2986 69.1001C73.2986 69.1001 70.3246 70.6417 67.593 69.9769C64.8615 69.3122 60.6881 65.8772 59.4269 64.93C58.1658 63.9828 58.1186 63.9318 58.1186 63.9318C58.1186 63.9318 61.2336 66.1239 63.5787 67.5004C65.9239 68.8768 66.8016 69.2699 66.8016 69.2699C66.8016 69.2699 60.6986 65.1915 58.1296 63.4113C55.5606 61.6311 55.4121 61.5393 55.4121 61.5393C55.4121 61.5393 55.2114 61.7305 55.4231 62.1929C55.6349 62.6553 55.7629 62.8317 55.7629 62.8317C55.7629 62.8317 53.8945 62.4646 53.3816 60.3337C52.8687 58.2027 54.5956 57.4156 54.5956 57.4156C54.5956 57.4156 54.2443 57.3458 53.7214 57.643C53.1984 57.9402 53.1141 58.2119 53.1141 58.2119C53.1496 57.8617 53.2794 57.5281 53.4891 57.2477C53.6988 56.9674 53.9803 56.751 54.303 56.6224C55.4342 56.16 55.8783 56.4317 55.8783 56.4317C55.8783 56.4317 55.1451 55.9948 53.9417 56.4796C52.7382 56.9645 52.5395 57.4299 52.3448 58.6157C52.1501 59.8015 52.5867 60.9133 52.5867 60.9133C52.5867 60.9133 52.0266 60.5682 51.0942 59.1479C50.1617 57.7276 50.0905 56.6117 50.0905 56.6117C50.0905 56.6117 49.6493 57.3458 50.4664 58.9348C51.2834 60.5238 52.7969 61.4017 52.7969 61.4017C52.7969 61.4017 51.8896 61.3757 50.1627 59.7867C48.4359 58.1976 48.2005 54.6439 48.2005 54.6439C48.2005 54.6439 47.7814 55.3306 47.9691 56.5163C48.1568 57.7021 48.3164 58.1752 48.3164 58.1752C48.3164 58.1752 47.919 57.9244 47.3589 57.3998ZM75.8756 65.5703C75.8756 65.5703 75.3913 66.5134 75.1926 66.7046C74.9938 66.8958 74.8097 66.8993 74.8097 66.8993C74.949 66.9252 75.0907 66.9349 75.2322 66.9284C75.3684 66.9242 75.4998 66.8767 75.6081 66.7928C75.5761 66.8585 75.5299 66.916 75.473 66.9611C75.4161 67.0062 75.3499 67.0377 75.2794 67.0533C75.0285 67.1196 74.914 67.1012 74.914 67.1012L75.2754 67.9378C75.2754 67.9378 75.3517 68.0555 75.6769 67.1303C76.0021 66.205 75.8756 65.5703 75.8756 65.5703Z" fill="#384A59"/>
<path d="M65.0273 49.9642L74.7659 61.8656L75.9001 62.0717L65.7547 50.1397C65.7547 50.1397 65.4304 50.0562 65.0273 49.9642Z" fill="white"/>
<path d="M48.7184 46.0136C48.7184 46.0136 47.4558 46.2927 46.8486 46.6635C46.2415 47.0344 45.8627 47.698 45.8627 47.698L46.9686 47.6348C46.9686 47.6348 45.1816 49.1461 45.404 52.6357C45.6177 56.0331 47.0541 57.9333 47.1309 58.0359C46.1564 56.8248 45.4134 55.3585 44.9563 53.7448C43.9051 50.0717 45.82 48.3867 45.82 48.3867L45.0284 48.6129C45.0284 48.6129 45.6185 46.7661 46.7414 46.2397C47.8643 45.7134 48.7184 46.0136 48.7184 46.0136Z" fill="white"/>
<path d="M60.9498 45.9283C60.2927 45.3049 59.5104 44.8038 58.6459 44.4524C56.0988 43.4254 55.122 43.6651 51.9554 43.0571C48.7888 42.4491 47.3589 40.5472 47.3589 40.5472C47.6461 44.1784 54.7825 43.4592 57.6583 44.4824C59.5751 45.165 60.9349 45.9184 60.9498 45.9283Z" fill="white"/>
<path d="M64.9304 49.598C64.9304 49.598 65.4176 47.5396 64.2075 45.2744C63.7724 44.4671 63.0625 43.7631 62.3297 43.1887L60.4899 42.7607L60.9359 43.3647L62.1502 43.565C62.1502 43.565 62.6597 43.9183 63.4466 45.1919C64.2336 46.4655 64.7171 48.5642 64.462 48.9288C64.207 49.2934 63.724 49.2104 63.724 49.2104C63.724 49.2104 62.9855 48.0997 62.21 47.5114C61.4345 46.923 59.7405 46.3412 59.7405 46.3412L60.3853 47.3302C60.3853 47.3302 59.3808 46.1504 55.8922 45.7972C55.4238 45.7468 55.0074 45.7102 54.6327 45.6877C55.8693 46.0409 56.9977 46.3633 57.7554 46.7449C58.4003 46.9734 58.9213 47.2954 59.4605 47.696C60.7647 48.6659 62.2412 49.8205 62.2412 49.8205C62.2412 49.8205 62.3386 49.11 61.7578 48.3344C61.1769 47.5587 60.7049 47.2328 60.7049 47.2328C60.7049 47.2328 62.0726 47.9807 62.7508 48.7971C63.4289 49.6136 63.4664 49.9204 63.9385 49.9612C64.4105 50.0021 64.9304 49.598 64.9304 49.598ZM51.5938 41.448C49.7129 40.9791 48.7183 40.5472 48.7183 40.5472C48.7183 40.5472 50.0969 42.1237 52.3229 42.709C54.5489 43.2943 57.0669 43.4377 59.2216 44.3046C60.492 44.8177 61.4075 45.8784 61.9462 46.6636C61.9462 46.6636 61.2826 45.121 59.8066 44.1729C58.3306 43.2247 56.1753 43.2408 53.7771 42.6555C52.2948 42.2927 51.7775 41.786 51.5938 41.448Z" fill="#384A59"/>
<path d="M53.0669 39.2019L52.7954 39.4544L59.5577 41.8925L59.5909 41.375L53.0669 39.2019Z" fill="#AA522A"/>
<path d="M52.7956 38.9652L51.7063 35.1661L51.4365 35.5862L52.5441 39.2019L52.7956 38.9652Z" fill="#AA522A"/>
<path d="M51.6549 33.5323L53.1382 38.2412L59.4148 40.1515L60.2914 40.4206L60.7206 40.5472L60.7356 40.3142L60.9502 37.085L58.5243 33.7976C58.0608 33.5836 55.5887 32.4755 54.3565 32.4755C53.5416 32.4755 52.5529 32.6351 51.8689 32.7674C51.708 32.7991 51.5599 32.8269 51.4365 32.8542L51.4558 32.9175L51.6549 33.5323Z" fill="#FFC972"/>
<path d="M59.8322 40.2794L60.2914 40.4206L60.7206 40.5472L60.7356 40.3142L60.9502 37.085L58.5243 33.7976C58.0608 33.5836 55.5887 32.4755 54.3565 32.4755C53.5416 32.4755 52.5529 32.6351 51.8689 32.7674C51.708 32.7991 51.5599 32.8269 51.4365 32.8542L51.4558 32.9175L51.6409 33.5057C52.1586 33.4829 52.7267 33.4734 53.3329 33.4873C56.1488 33.5462 57.6472 34.3396 57.6472 34.3396C57.6472 34.3396 55.7781 34.1344 55.1022 34.2395L54.43 34.3396C54.43 34.3396 56.9755 34.6954 57.4583 34.8278C57.9411 34.9601 58.1842 35.005 58.1842 35.005L60.0038 37.7403L59.8322 40.2794Z" fill="#FFEAC7"/>
<path d="M64.7546 49.438C64.7546 49.438 64.8337 48.1666 65.1832 47.4324C65.5326 46.6982 67.9775 46.6148 67.9775 46.6148C67.9775 46.6148 66.4723 46.2277 65.532 46.3343C64.5917 46.4409 64.5386 46.4646 64.5386 46.4646C64.5386 46.4646 63.9772 43.9848 63.1703 42.9706C62.3634 41.9564 62.3091 41.8925 62.3091 41.8925C62.3091 41.8925 63.5445 42.5201 64.5386 43.2742C65.5326 44.0283 65.9635 44.3954 65.9635 44.3954C65.9635 44.3954 65.8266 43.7929 65.29 43.0804L64.7546 42.369C64.7546 42.369 66.9298 43.7238 67.8695 44.9554C68.8092 46.1869 69.3747 46.9142 69.3747 46.9142C69.3747 46.9142 69.541 47.2011 69.7449 47.5631C69.5139 47.8635 69.0628 48.3474 68.2559 48.7914C68.1104 48.8718 67.9733 48.949 67.8447 49.0232C67.0586 49.255 66.3268 49.9641 66.3268 49.9641L64.7546 49.438ZM70.0106 48.0475C70.2313 48.4512 70.4265 48.8383 70.4473 48.9653C70.5016 49.2656 70.4224 49.3324 70.181 49.3324C70.1065 49.3324 69.9771 49.2888 69.8067 49.2322C69.9454 48.8469 70.0143 48.4476 70.0112 48.0466L70.0106 48.0475Z" fill="#747E87"/>
<path d="M66.1191 43.9149C65.9747 43.6234 65.7916 43.3429 65.5726 43.0775L64.9851 42.3661C64.9851 42.3661 67.3669 43.7207 68.396 44.9521C69.425 46.1834 70.0442 46.9106 70.0442 46.9106C70.7823 47.5478 70.6046 47.6947 69.0424 48.6716L69.0379 48.6781L69.0335 48.6813L69.024 48.6846L69.0107 48.6915L69.0063 48.6948L69.0012 48.698L68.9924 48.7013L68.988 48.705L68.9741 48.7115L68.9696 48.7147L68.9424 48.7281L68.938 48.7314L68.9057 48.7481H68.9019L68.8975 48.7513C68.8861 48.7589 68.8739 48.7657 68.8608 48.7717L68.8197 48.7916C68.6603 48.872 68.5102 48.9492 68.3694 49.0234L68.3283 49.0331C68.3156 49.0391 68.3018 49.0436 68.2872 49.0465V49.0465C68.274 49.0495 68.2617 49.0541 68.2505 49.06H68.2461C68.2335 49.0636 68.2214 49.0681 68.21 49.0734H68.2062C68.1947 49.0784 68.1826 49.0827 68.1702 49.0864H68.1658C68.1563 49.0901 68.143 49.0966 68.1335 49.0998L68.1246 49.1031L68.0974 49.1133L68.088 49.1165C68.0769 49.1203 68.0663 49.1248 68.0563 49.1299L68.0468 49.1332C68.0354 49.1364 68.0247 49.141 68.0152 49.1466V49.1466C67.3005 49.4405 66.7085 49.9641 66.7085 49.9641L64.987 49.4367C64.987 49.4367 65.0736 48.1655 65.4563 47.4315C65.8389 46.6974 68.5161 46.6139 68.5161 46.6139C68.5161 46.6139 66.8679 46.227 65.8383 46.3336C64.8086 46.4402 64.7504 46.4638 64.7504 46.4638C64.7504 46.4638 64.1357 43.9844 63.2521 42.9704C62.3685 41.9564 62.3091 41.8925 62.3091 41.8925C62.3091 41.8925 62.4413 41.9559 62.6601 42.0625C63.4248 42.6187 64.4905 43.4528 64.937 44.0882C65.6745 45.1323 65.6745 45.466 65.6745 45.466C65.6745 45.466 66.7446 45.7598 67.7192 46.1236C68.6939 46.4874 68.8077 46.7609 68.8077 46.7609C68.8077 46.7609 67.4688 46.8999 66.8471 47.2447C66.2253 47.5895 66.0957 48.6461 66.0685 48.7231C66.0413 48.8 66.3645 49.0998 66.3645 49.0998C66.3645 49.0998 67.4397 48.4927 68.5731 48.5261C68.6547 48.4895 68.7413 48.4492 68.8368 48.4093C69.2239 48.2323 69.5837 47.8421 69.7855 47.5848C69.3379 46.9955 68.8453 46.4252 68.31 45.8766C67.6306 45.193 66.8991 44.5381 66.1191 43.9149V43.9149Z" fill="#384A59"/>
<path d="M37.166 41.8925C39.7903 41.8925 41.9228 43.6996 41.9228 45.9283C41.9228 48.157 39.7903 49.9641 37.166 49.9641C34.5416 49.9641 32.4092 48.157 32.4092 45.9283C32.4092 43.6996 34.5383 41.8925 37.166 41.8925ZM37.166 43.2629C38.9008 43.2629 40.3063 44.4577 40.3063 45.9283C40.3063 47.3989 38.9008 48.5937 37.166 48.5937C35.4312 48.5937 34.0238 47.3989 34.0238 45.9283C34.0238 44.4577 35.4317 43.2629 37.166 43.2629V43.2629Z" fill="#FFC972"/>
<path d="M37.8475 43.2378C39.3485 43.2378 40.5638 44.4406 40.5638 45.9284C40.5638 47.4161 39.3469 48.6189 37.8475 48.6189C36.348 48.6189 35.1274 47.4156 35.1274 45.9284C35.1274 44.4411 36.3428 43.2378 37.8475 43.2378Z" fill="#FFC972"/>
<path d="M45.896 38.9124C45.896 38.9124 44.7933 37.8755 44.9265 35.1252C45.2744 27.9169 43.6669 25.2398 44.4861 18.6253C44.8819 15.4257 45.896 13.5292 45.896 13.5292C45.896 13.5292 42.1925 16.9567 39.5907 24.2169C36.989 31.4772 39.5907 35.3972 40.5161 36.7061C41.4415 38.0151 43.2942 39.1844 43.2942 39.1844C43.2942 39.1844 40.3417 39.6803 37.9594 35.3972C35.5772 31.1141 36.1944 25.6587 39.0176 20.2935C41.8407 14.9283 48.7182 9.60577 48.7182 9.60577C48.7182 9.60577 46.0287 15.2885 46.2055 19.976C46.3824 24.6634 48.0113 29.7145 48.4072 32.6465C48.803 35.5785 45.896 38.9124 45.896 38.9124Z" fill="#747E87"/>
<path d="M45.5673 39.2019C45.5673 39.2019 44.946 38.6732 44.6411 37.3724L46.3828 33.8827C46.3828 33.8827 44.2182 25.7328 45.3005 18.0837C46.0589 12.74 47.4228 10.7269 48.1812 9.99743C48.5205 9.74383 48.7184 9.60577 48.7184 9.60577C48.7184 9.60577 45.716 15.3445 45.9134 20.0782C46.1108 24.8119 47.9293 29.9128 48.3712 32.8737C48.8131 35.8346 45.5673 39.2019 45.5673 39.2019Z" fill="#384A59"/>
<path d="M40.7606 39.2019C39.8793 38.6418 38.8995 37.686 38.0006 36.0664C35.5527 31.6598 36.1848 26.0462 39.0892 20.5258C41.0889 16.7188 45.0765 12.9333 47.3591 10.951C44.9043 13.2032 40.4378 18.127 38.2991 25.705C36.5618 31.8609 38.6502 36.4255 40.7606 39.2019Z" fill="white"/>
<path d="M60.9502 35.3671C63.3372 31.1735 69.7987 26.9304 74.5411 25.7491C66.6898 30.1479 63.1055 32.6396 64.1692 41.8925C64.1692 41.8925 62.7756 40.2708 62.0652 39.1692L61.3564 38.0614L61.5603 36.762L60.9502 35.3671Z" fill="#747E87"/>
<path d="M67.7454 31.1302L67.7413 31.1338L67.7454 31.1302ZM66.0698 32.9789C64.5626 35.1239 64.0526 37.8338 64.5702 41.8925C64.5702 41.8925 63.0753 40.3296 62.3132 39.268L62.3091 39.2604C62.4904 38.8069 62.7431 38.2319 63.0799 37.4997C63.8607 35.8087 65.0755 34.1731 66.0698 32.9789Z" fill="#384A59"/>
<path d="M60.9502 35.7321C63.3372 31.3794 69.7987 26.9752 74.5411 25.7491C73.7778 26.1905 73.0614 26.6165 72.3782 27.0266C70.7725 27.8902 68.8058 29.0768 67.0786 30.5038C63.3765 33.5593 61.4567 37.8567 61.4567 37.8567L61.5587 37.1826L60.9502 35.7321Z" fill="white"/>
<path d="M42.5527 48.6189C42.5527 48.6189 43.4875 57.1602 46.9185 68.1054C50.3495 79.0505 56.8726 93.722 56.8726 93.722L53.6976 94.1757L51.9169 94.3584C51.9169 94.3584 46.1555 77.0086 43.4465 66.02C40.7375 55.0314 40.5635 49.9395 40.5635 49.9395C40.5635 49.9395 42.0457 57.2994 43.1481 61.6607C44.2505 66.0219 44.8436 67.2024 44.8436 67.2024L42.1738 54.5747L43.9316 60.1838C43.9316 60.1838 43.1053 55.8899 42.8529 53.0534C42.6006 50.2169 42.5527 48.6189 42.5527 48.6189Z" fill="#FFC972"/>
<path d="M42.5531 48.6189C42.5531 48.6189 43.4879 57.1602 46.9188 68.1054C50.3497 79.0505 56.8726 93.722 56.8726 93.722L53.6977 94.1757L51.9171 94.3584C51.9171 94.3584 51.7954 93.9965 51.5823 93.346L54.2912 92.5231C54.2912 92.5231 54.2912 92.2066 53.1069 89.2509C51.9225 86.2952 48.1482 74.6263 48.1482 74.6263L44.5469 61.3867L44.7173 62.4313L44.1251 61.7964L45.6078 69.6555L44.3383 67.1555C43.7807 66.0615 43.056 63.7934 42.4165 61.5879C40.6883 53.6512 40.5635 49.938 40.5635 49.938C40.5635 49.938 42.0457 57.2979 43.148 61.6592C44.2504 66.0205 44.8435 67.2009 44.8435 67.2009L42.1737 54.5733L43.9315 60.1823C43.9315 60.1823 43.1052 55.8885 42.8529 53.0519C42.6005 50.2154 42.5531 48.6189 42.5531 48.6189Z" fill="#AD4C21"/>
<path d="M56.8726 64.7622C56.8726 64.7622 57.0268 69.0828 59.7302 77.4961C62.4335 85.9095 64.2235 90.3225 64.2235 90.3225L67.7453 85.7256C67.7453 85.7256 62.8447 77.3123 61.6195 73.312C60.3943 69.3117 59.3745 66.0953 59.3745 66.0953C59.3745 66.0953 60.4097 70.5691 60.8291 72.6476C61.2484 74.7261 61.2517 74.7973 61.2517 74.7973L58.1899 65.3351L59.1829 71.795C59.1829 71.795 57.7245 67.8199 57.3968 66.3711C57.0691 64.9224 56.8726 64.7622 56.8726 64.7622Z" fill="#FFC972"/>
<path d="M56.8726 64.7622C56.8726 64.7622 57.0268 69.1932 59.7297 77.8215C59.8208 78.1024 59.9075 78.3791 59.9943 78.6498L58.6628 72.6641C58.6628 72.6641 59.4175 73.8807 59.4312 73.7844C59.4449 73.6881 59.609 71.8758 59.609 71.8758L61.5255 77.4601L61.7033 75.4451C61.7033 75.4451 64.639 83.3328 66.3738 86.9132L66.7217 87.632L67.7453 86.2597C67.7453 86.2597 62.8454 77.6314 61.6204 73.5289C60.3955 69.4264 59.3757 66.1279 59.3757 66.1279C59.3757 66.1279 60.4108 70.716 60.8301 72.8476C61.2494 74.9792 61.2527 75.0522 61.2527 75.0522L58.1897 65.3497L59.1826 71.9747C59.1826 71.9747 57.7243 67.898 57.3967 66.4122C57.069 64.9265 56.8726 64.7622 56.8726 64.7622Z" fill="#AD4C21"/>
<path d="M36.1713 51.3094C36.1545 51.4069 35.9766 52.5277 35.7251 54.3794C36.6505 54.4988 38.153 54.5305 39.5581 54.5256C39.3536 52.8064 39.2461 51.6588 39.2158 51.3187C38.2271 51.6622 37.1584 51.6597 36.1713 51.3114V51.3094ZM35.0712 59.7231C34.9976 60.3863 34.9269 61.0811 34.8533 61.8038C36.0134 62.4246 38.5018 63.0352 40.8892 63.5196C40.7215 62.5755 40.5695 61.6678 40.4332 60.7966L40.2423 60.7756C38.5288 60.5899 36.6193 60.1441 35.0712 59.7231ZM34.347 67.7088C34.3032 68.3189 34.2632 68.9402 34.2227 69.5644C34.1994 69.9786 34.1761 70.3787 34.1523 70.768C35.5807 71.9327 37.3081 73.2045 39.1189 74.2556C40.5338 75.0728 42.3246 75.9124 44.1283 76.6921C43.5518 74.815 43.0152 72.9765 42.5593 71.2748C39.4207 70.1082 36.1713 68.5928 34.347 67.7088V67.7088ZM33.8273 77.8245C33.7602 80.0174 33.7634 81.3369 33.7737 82.0211C35.896 84.4488 38.1362 86.6626 40.423 88.3959C43.0311 90.3782 45.356 92.0554 47.388 93.4637C49.3832 94.3584 50.0772 94.3584 50.0772 94.3584C50.0772 94.3584 48.917 91.1798 47.4318 86.8326C45.3257 86.1992 42.794 85.1271 40.3126 83.3309C37.8042 81.5114 35.5677 79.515 33.8273 77.8245Z" fill="#94CB53"/>
<path d="M36.1625 51.3094C36.1555 51.3582 36.1019 51.6852 36.0227 52.2393C36.3407 52.349 36.6687 52.4243 37.0014 52.4639C38.0648 52.6009 38.4745 52.4849 38.4745 52.4849L38.6185 54.5239C38.9275 54.5273 39.2425 54.5273 39.5505 54.5239C39.3459 52.8046 39.2383 51.6569 39.208 51.3168C38.2187 51.6603 37.1494 51.6577 36.1616 51.3094H36.1625ZM34.9611 60.6569C35.7181 60.9966 36.5128 61.236 37.3267 61.3693C38.7797 61.5974 39.5818 61.8011 39.5818 61.8011L39.7528 63.2816C40.1284 63.3659 40.5078 63.4429 40.8834 63.5204C40.7156 62.5763 40.5635 61.6685 40.4271 60.7972L40.2361 60.7763C38.5211 60.5906 36.6085 60.1427 35.0632 59.7236C35.0263 60.0292 34.9946 60.3377 34.9611 60.6569ZM34.2462 69.0608L40.9472 72.1344L41.4473 75.4779C42.3062 75.8921 43.2121 76.2991 44.1246 76.6923C43.5477 74.8151 43.0108 72.9765 42.5545 71.2747C39.414 70.1095 36.1625 68.5944 34.3371 67.7099C34.3035 68.1553 34.2732 68.6081 34.2462 69.0608ZM33.7681 80.029C34.9928 81.2605 38.1487 84.2396 41.5325 85.8677C45.8666 87.952 45.9985 87.952 45.9985 87.952L48.0877 93.7619C49.5473 94.3584 50.0772 94.3584 50.0772 94.3584C50.0772 94.3584 48.9163 91.1796 47.4301 86.8321C45.3228 86.1986 42.7894 85.1265 40.3064 83.3302C37.7964 81.513 35.5585 79.5164 33.817 77.8234C33.79 78.6923 33.7765 79.4218 33.7681 80.029Z" fill="#0B3770"/>
<path d="M34.447 51.2041C34.447 51.2041 32.9744 59.0223 31.5058 68.9216C30.419 76.245 30.211 78.7513 30.1755 79.5603C29.923 79.2505 29.6706 78.9403 29.4251 78.6271L21.5361 65.0101L22.6851 62.0649L25.3033 67.31L23.6953 60.961C23.6953 60.961 25.6268 56.1765 27.3237 53.2764C29.0205 50.3762 29.76 49.0867 29.76 49.0867L31.115 46.3717C31.115 46.3717 31.2074 47.6043 31.9054 49.1115C32.6034 50.6187 33.0208 50.8325 33.0208 50.8325L30.1063 67.0537L34.447 51.2041ZM33.4002 41.4101L36.0999 36.5114C37.2415 38.8019 39.5889 40.7614 41.9225 41.7565C41.9225 41.7565 38.3515 41.033 37.4657 41.0192C36.58 41.0053 35.6518 38.8815 35.6518 38.8815L35.9828 40.9761C35.9828 40.9761 34.3428 41.5392 33.5711 42.1142C32.7995 42.6892 32.6642 42.807 32.6642 42.807L33.4002 41.4101Z" fill="#94CB53"/>
<path d="M35.1273 50.6416C35.1273 50.6416 33.7515 58.6148 32.3793 68.7106C31.364 76.1793 31.1697 78.7352 31.1364 79.5603C30.9006 79.2444 30.6647 78.928 30.4354 78.6086L29.6909 77.2102L31.4055 68.2277L29.9466 70.5273L33.0139 50.6744C33.0139 50.6744 33.0804 50.7218 32.6286 49.548C32.3587 48.8284 32.2526 48.0479 32.3193 47.2736C32.4387 47.6957 32.5841 48.1084 32.7546 48.509C33.4108 50.0421 33.7948 50.2626 33.7948 50.2626L31.0718 66.8056L35.1273 50.6416Z" fill="#0B3770"/>
<path d="M22.1179 64.1815L21.5361 63.2394L22.6819 60.4776L25.2925 65.3969L23.6892 59.4422C23.6892 59.4422 25.6151 54.955 27.3071 52.235C28.9991 49.515 29.7364 48.3056 29.7364 48.3056L31.0876 45.7592C31.0876 45.7592 31.1334 46.3472 31.4136 47.1927L24.7349 59.9411L26.2239 67.4528L22.7873 62.7247L22.1179 64.1815ZM33.8903 41.5467L36.4861 37.2228C36.3305 36.9907 36.1847 36.7517 36.0571 36.5114L33.3652 41.1058L32.6313 42.4122C32.6313 42.4122 32.7697 42.305 33.5356 41.7625C33.6491 41.6845 33.767 41.6124 33.8888 41.5467H33.8903Z" fill="white"/>
<path d="M60.9502 67.4528C60.9502 67.4528 61.4512 69.9342 62.4809 73.1193C63.4228 72.2973 64.2967 71.5177 64.8934 70.9467C64.7492 70.8319 64.6089 70.7207 64.4726 70.6055C61.6755 68.3326 60.9502 67.4528 60.9502 67.4528ZM65.499 80.492C67.214 84.1694 67.5268 84.9415 67.5268 84.9415C67.5268 84.9415 69.234 82.7619 70.32 80.1149C71.406 77.468 71.8229 75.8021 71.8229 75.8021C71.8229 75.8021 70.9613 75.249 69.7589 74.441C68.7408 76.1897 67.273 78.463 65.499 80.492Z" fill="#94CB53"/>
<path d="M60.9502 67.4528C60.9502 67.4528 61.4512 69.9547 62.4809 73.1662C62.7492 72.9308 63.0058 72.6995 63.2602 72.4782L62.5973 70.2771L64.3045 71.5298C64.521 71.3286 64.7214 71.1425 64.8934 70.9766C64.7492 70.8609 64.6089 70.7488 64.4726 70.6326C61.6755 68.3399 60.9502 67.4528 60.9502 67.4528ZM66.256 82.2509L70.0517 75.8677L71.5507 76.8197C71.7389 76.2077 71.8229 75.8712 71.8229 75.8712C71.8229 75.8712 70.9613 75.3135 69.7589 74.4988C68.7408 76.262 67.2741 78.5541 65.499 80.5999C65.7873 81.232 66.0401 81.7767 66.256 82.2509Z" fill="#0B3770"/>
<path d="M55.7437 70.374L54.8496 69.2921C54.8496 69.2921 55.525 68.8503 55.8856 68.1859C56.2461 67.5216 56.561 66.8367 56.561 66.8367L56.8727 70.3978C56.8727 70.3978 56.3677 72.3667 55.0849 72.7433C52.2456 73.5756 48.4523 68.4565 47.622 66.2408C47.622 66.2408 47.5732 66.3712 49.1895 67.7441C50.8059 69.1171 51.9951 69.7334 51.9951 69.7334C50.9651 68.8445 50.0039 67.891 49.1184 66.88C47.6221 65.178 47.2817 64.6924 47.2817 64.6924L46.7279 63.2543C46.7279 63.2543 47.3566 63.9201 48.7817 65.5517C50.2068 67.1834 50.4443 67.2571 50.4443 67.2571C50.4443 67.2571 48.1733 63.5624 47.3056 62.4358C46.438 61.3092 46.2172 60.5117 46.2172 60.5117L46 58.0358C48.1536 61.4095 51.4829 68.9564 55.7437 70.374Z" fill="#94CB53"/>
<path d="M55.7396 70.3736L54.8454 69.2916C54.9833 69.1965 55.1134 69.0922 55.2346 68.9797L56.2259 70.6817C56.2259 70.6817 55.7432 70.8016 53.8318 69.6512C51.9203 68.5008 49.7242 65.2065 49.7242 65.2065L51.4413 68.1921L50.6557 67.7508L52.9262 70.2713L49.8816 69.2988C49.8816 69.2988 52.829 72.0618 54.6173 71.9972C56.4057 71.9325 56.8727 70.3978 56.8727 70.3978C56.8727 70.3978 56.3677 72.3667 55.0849 72.7433C52.2456 73.5756 48.4523 68.4565 47.6221 66.2408C47.6221 66.2408 47.5732 66.3712 49.1895 67.7441C50.8059 69.1171 51.9951 69.7334 51.9951 69.7334C50.9651 68.8445 50.0039 67.891 49.1184 66.88C47.6221 65.1779 47.2817 64.6924 47.2817 64.6924L46.7279 63.2543C46.7279 63.2543 47.3566 63.9201 48.7817 65.5517C50.2068 67.1834 50.4443 67.2571 50.4443 67.2571C50.4443 67.2571 48.1733 63.5624 47.3056 62.4358C46.438 61.3092 46.2172 60.5117 46.2172 60.5117L46 58.0358C48.1494 61.409 51.4787 68.9559 55.7396 70.3736Z" fill="#0B3770"/>
<path d="M53.8785 76.6636C56.1528 76.8025 57.3133 75.5245 57.3133 75.5245L57.9136 77.2822C57.0888 77.6959 55.6827 78.2176 53.9469 78.1156C51.2371 77.9553 50.9749 77.4211 50.9749 77.4211L50.8751 77.4674L50.0771 75.6831C51.3618 76.5431 52.193 76.5585 53.8785 76.6636ZM58.2609 78.3055L59.1221 80.8349C58.7123 81.0643 58.2792 81.2555 57.8291 81.406L57.1364 78.748C57.5216 78.6244 57.8973 78.4766 58.2609 78.3055V78.3055ZM57.0108 81.6495C56.4654 81.7944 55.9233 81.9067 55.4117 81.995L54.514 79.1895C55.1209 79.1791 55.7248 79.1073 56.3149 78.9752L57.0108 81.6495ZM54.5601 82.1211C53.9418 82.2042 53.4057 82.2497 53.0141 82.272L51.4616 78.7874C51.9834 78.9477 52.6816 79.0875 53.6093 79.1578L54.5601 82.1211ZM59.4744 81.8638L59.5908 82.2034C59.5908 82.2034 58.1713 82.9009 56.562 83.2992C54.9526 83.6974 53.5996 83.58 53.5996 83.58L53.4731 83.2992C54.5139 83.219 56.1297 83.0214 57.7187 82.5614C58.3288 82.3874 58.9174 82.1539 59.4744 81.8647V81.8638Z" fill="#FFC972"/>
<path d="M54.0747 76.6752C56.4664 76.8155 57.6867 75.5245 57.6867 75.5245L58.318 77.3002C57.981 77.4622 57.6316 77.6029 57.2725 77.7211L57.0136 76.9009C57.0136 76.9009 56.832 77.0914 54.3845 77.2408C53.0671 77.319 51.7474 77.1204 50.5317 76.6609L50.0771 75.6847C51.4281 76.5535 52.3022 76.5691 54.0747 76.6752ZM51.9089 79.6315L53.5804 79.9213L54.2656 82.2509C54.4336 82.2318 54.6084 82.2132 54.7934 82.1885L53.7935 79.195C52.818 79.1231 52.0837 78.9827 51.535 78.8208L51.9089 79.6315ZM54.9265 79.7718L56.4965 79.6501L57.0564 81.7892C57.1613 81.7641 57.2662 81.7394 57.3677 81.7112L56.6392 79.0109C56.0187 79.1443 55.3836 79.2169 54.7453 79.2274L54.9265 79.7718ZM57.6712 79.4007L58.6502 79.1668L59.2761 81.0534C59.3878 81.0001 59.4927 80.9442 59.5908 80.891L58.6851 78.3357C58.3031 78.5092 57.9081 78.6593 57.5031 78.7848L57.6712 79.4007Z" fill="#AD4C21"/>
<path d="M37.9937 58.4529C37.0069 58.2505 36.0415 58.0132 35.1985 57.7863L35.1669 57.7794L35.1703 57.7439C35.2189 57.3323 35.2719 56.9212 35.3209 56.5131C35.3734 56.1163 35.4225 55.7367 35.4667 55.3807L35.474 55.3453L35.5158 55.3487C36.0502 55.4196 36.7543 55.4624 37.5205 55.4836C38.2867 55.5048 39.1156 55.5117 39.9013 55.5082H39.9363L39.9397 55.5437C40.0062 56.0508 40.083 56.5933 40.1671 57.1684C40.2404 57.6967 40.3245 58.2427 40.41 58.8024L40.4168 58.8517L40.3682 58.8482C39.5995 58.7601 38.7911 58.6158 37.9937 58.4529ZM46.1652 81.4695C46.5607 82.6353 46.9523 83.7771 47.3313 84.8666L47.359 84.9414L47.2856 84.9163C46.2966 84.5765 45.3291 84.1751 44.3888 83.7145C43.3246 83.1903 42.3013 82.5848 41.3278 81.9032C39.8099 80.8398 38.3858 79.7128 37.1124 78.6208C35.8389 77.5289 34.7126 76.4797 33.7788 75.5684L33.7681 75.5575V75.5398C33.789 75.0401 33.8137 74.5118 33.8414 73.9516C33.8662 73.4164 33.8939 72.8527 33.9255 72.2643L33.9323 72.1934L33.9887 72.2363C34.6689 72.7503 35.4016 73.278 36.1678 73.7886C36.934 74.2991 37.7318 74.7989 38.5433 75.2562C39.4635 75.7702 40.5232 76.2901 41.6427 76.7982C42.7621 77.3063 43.9379 77.8016 45.0924 78.2659L45.1099 78.2728L45.1167 78.2905C45.4626 79.3603 45.8158 80.4228 46.1652 81.4695ZM37.745 67.3006C36.3524 66.6911 35.163 66.1377 34.3793 65.7655L34.355 65.7512L34.3584 65.7266C34.3968 65.2692 34.4352 64.8015 34.4774 64.3264C34.5192 63.8656 34.561 63.4117 34.6033 62.9725L34.6067 62.9193L34.6553 62.9405C35.4424 63.2664 36.5128 63.5805 37.6954 63.8759C38.878 64.1713 40.1685 64.4431 41.4002 64.677L41.4245 64.6839L41.4313 64.709C41.4945 65.0383 41.5576 65.3574 41.6169 65.673C41.6762 65.9885 41.7461 66.313 41.8161 66.6512C41.8934 67.0308 41.9808 67.4311 42.0785 67.8496C42.1762 68.2681 42.285 68.7038 42.3972 69.1469L42.4147 69.2178L42.3481 69.1931C40.7399 68.5836 39.1409 67.9141 37.7454 67.3006H37.745Z" fill="#FFC972"/>
<path d="M35.3171 56.0576C35.3489 55.8238 35.3772 55.6003 35.4051 55.3807L35.4124 55.3453L35.4544 55.3487C35.9918 55.4196 36.6996 55.4624 37.47 55.4836C38.2404 55.5048 39.0738 55.5117 39.8637 55.5082H39.8989L39.9023 55.5437C39.9692 56.0507 40.0464 56.5932 40.131 57.1682C40.2047 57.6964 40.2892 58.2423 40.3752 58.802L40.382 58.8513L40.3332 58.8478C39.9424 58.8016 39.5425 58.7448 39.1334 58.6775L38.9717 56.4342L35.3171 56.0576ZM34.452 63.8592C34.7544 64.029 35.2468 64.2668 36.0416 64.5819C38.4055 65.5211 40.129 65.5664 40.129 65.5664L40.2907 68.395C40.9556 68.6643 41.638 68.9336 42.3239 69.1925L42.3908 69.2171L42.3732 69.1462C42.2604 68.7032 42.1514 68.2675 42.0528 67.8491C41.9541 67.4307 41.8666 67.0304 41.789 66.6509C41.7186 66.3142 41.6519 65.9881 41.5887 65.6727C41.5291 65.3572 41.4656 65.0382 41.4021 64.7089L41.3952 64.6838L41.3708 64.6769C40.1324 64.443 38.8305 64.1698 37.6459 63.8759C36.4612 63.582 35.3806 63.266 34.5893 62.9406L34.5404 62.9194L34.537 62.9726C34.5096 63.2635 34.4818 63.5579 34.4535 63.8592H34.452ZM33.7681 73.911C34.7637 74.7863 36.9375 76.5978 38.812 77.4485C41.3342 78.593 42.2662 78.6605 42.2662 78.6605L43.149 78.9337L44.4255 83.7398C45.3533 84.192 46.3084 84.585 47.2852 84.9163L47.359 84.9414L47.3311 84.8666C46.9511 83.7752 46.5573 82.6336 46.1587 81.4699C45.807 80.4243 45.4518 79.361 45.1035 78.2937L45.0967 78.276L45.0791 78.2691C43.9184 77.8049 42.7342 77.3121 41.6107 76.8016C40.4871 76.2911 39.4197 75.7738 38.4944 75.2598C37.6786 74.8025 36.8765 74.3063 36.1061 73.7924C35.3357 73.2784 34.601 72.7541 33.9151 72.2402L33.8584 72.1974L33.8516 72.2683C33.8272 72.8403 33.7959 73.3902 33.771 73.911H33.7681Z" fill="#AD4C21"/>
<path d="M65.4249 73.0136C65.971 72.4572 66.4603 71.942 66.8492 71.5173L66.8776 71.4886L66.9055 71.5173C67.2627 71.8184 67.6299 72.1235 67.9971 72.42C68.3643 72.7165 68.7215 73.0136 69.0759 73.2895L69.1043 73.3147L69.0882 73.3473C68.6028 74.3158 67.9971 75.4532 67.295 76.6364C66.7378 77.5803 66.1114 78.5569 65.4333 79.4985L65.3893 79.5603L65.2566 79.2386C64.9557 78.5054 64.6749 77.7595 64.4102 77.0131C64.1455 76.2666 63.9003 75.5334 63.6758 74.8081L63.668 74.7835L63.688 74.7629C64.2859 74.1716 64.8827 73.57 65.4249 73.0136Z" fill="#FFC972"/>
<path d="M65.4249 73.211C65.971 72.5826 66.4603 72.0007 66.8492 71.521L66.8776 71.4886L66.9055 71.521C67.2627 71.8611 67.6299 72.2057 67.9971 72.5406C68.3643 72.8755 68.7215 73.211 69.0759 73.5227L69.1043 73.5511L69.0882 73.588C68.9277 73.9468 68.7538 74.3282 68.5705 74.7239L67.0782 73.2763L64.1455 76.8698C63.9784 76.3254 63.8246 75.7804 63.6758 75.2405L63.668 75.2127L63.688 75.1894C64.2859 74.519 64.8827 73.8395 65.4249 73.211Z" fill="#AD4C21"/>
<path d="M41.2469 43.0351C41.6881 43.7543 41.9233 44.6002 41.9226 45.4654C41.9226 47.9497 40.0127 49.9641 37.6623 49.9641C35.926 49.9641 34.4325 48.8656 33.7681 47.2939C34.1632 47.9334 34.6972 48.4565 35.3225 48.8169C35.9477 49.1772 36.645 49.3636 37.3523 49.3595C39.7057 49.3595 41.6126 47.3451 41.6126 44.8608C41.6133 44.2305 41.4886 43.6076 41.2469 43.0351V43.0351ZM37.6623 42.4943C38.1108 42.4924 38.5534 42.6063 38.9538 42.8266C39.3543 43.0469 39.7012 43.3673 39.9662 43.7618C39.5537 42.6666 38.5369 41.8925 37.3523 41.8925C35.799 41.8925 34.5402 43.221 34.5402 44.8603C34.5394 45.4721 34.7162 46.0684 35.0453 46.5639C34.9146 46.2152 34.8474 45.8421 34.8472 45.4654C34.8481 43.8261 36.109 42.4943 37.6623 42.4943V42.4943Z" fill="#AD4C21"/>
<path d="M37.8475 43.2378C39.3485 43.2378 40.5638 44.4406 40.5638 45.9284C40.5638 47.4161 39.3469 48.6189 37.8475 48.6189C36.348 48.6189 35.1274 47.4156 35.1274 45.9284C35.1274 45.8543 35.1317 45.7802 35.1354 45.7066C35.2412 46.8591 36.2211 47.7617 37.4136 47.7617C38.6781 47.7617 39.6993 46.7493 39.6993 45.4995C39.6993 44.3194 38.785 43.3497 37.6189 43.2448C37.6951 43.2416 37.7713 43.2378 37.8475 43.2378Z" fill="#AD4C21"/>
<path d="M37.1817 41.8925C39.6343 41.8925 41.6522 43.6753 41.9228 45.9717C41.4438 43.9743 39.5855 42.4885 37.366 42.4885C34.7851 42.4885 32.6909 44.5042 32.6909 46.9911C32.6908 47.6947 32.8611 48.3881 33.1873 49.0125C32.6793 48.2697 32.4081 47.3918 32.4092 46.4934C32.4092 43.9518 34.5453 41.8925 37.1817 41.8925ZM40.3005 46.0562C40.3215 46.2003 40.332 46.3458 40.3318 46.4915C40.3318 48.1673 38.9217 49.5289 37.1812 49.5289C36.6464 49.5323 36.1194 49.4011 35.6493 49.1473C35.1792 48.8936 34.7813 48.5256 34.4927 48.0776C34.9443 49.1814 36.0596 49.9641 37.3655 49.9641C39.0708 49.9641 40.4529 48.6338 40.4529 46.9887C40.454 46.6716 40.4025 46.3566 40.3005 46.0562Z" fill="white"/>
<path d="M47.3723 41.9078C46.9979 41.4293 54.5424 52.3535 59.5907 49.4826C55.6367 47.7448 50.0715 45.349 47.3723 41.9078Z" fill="#FFC972"/>
<path d="M67.7456 51.0727C67.7456 51.0727 69.0021 50.0384 69.6798 49.192C70.3575 48.3455 70.4638 47.2736 70.4638 47.2736C70.4638 47.2736 70.4734 48.2775 69.7458 49.634C69.0183 50.9904 68.5392 51.2992 68.3187 51.3092C68.0982 51.3192 67.7456 51.0727 67.7456 51.0727Z" fill="#FFC972"/>
<path d="M62.4718 97.4568L60.0348 101.085L59.1357 100.663L56.1772 99.2456C40.0353 91.1674 22.0918 74.5866 14.7407 56.2252L16.6437 54C23.5034 72.581 42.0461 89.6857 58.376 97.5221L58.4231 97.6929C58.4231 97.6929 58.4557 97.658 58.5134 97.5884C58.6398 97.6508 58.7696 97.7137 58.8995 97.7727L60.2755 96.1116C62.6001 93.1826 65.9543 88.3864 71.6877 78.4637C72.6229 76.8475 73.511 75.1583 74.3454 73.4658L75.8998 76.1476C75.272 77.3385 74.6201 78.5169 73.9442 79.6827C70.4998 85.6456 66.9005 91.8243 62.6147 97.2677C62.5695 97.3315 62.5189 97.3939 62.4718 97.4568Z" fill="#0B121D"/>
<path d="M84.0544 76.8849L80.9662 83.815H80.9627C80.9737 83.9239 80.9806 84.0333 80.9806 84.1458C80.9752 84.6517 80.861 85.152 80.6442 85.619L79.2989 88.5791C78.9461 89.3651 78.3877 90.063 77.6708 90.6139C76.8224 91.2661 75.8136 91.6678 74.6889 91.6678H7.94531L16.1896 80.8749L12.4181 76.8698C36.3215 76.9492 60.1847 76.8849 84.0544 76.8849Z" fill="#0B121D"/>
<path d="M29.3506 78.2639L24.0607 90.3225L19.8717 90.2529L21.133 87.2732L18.3601 87.1132L16.3746 90.2529H12.0229L18.9614 80.4265L17.0406 78.2199L29.3506 78.2639ZM23.9034 80.955L22.1041 80.9235L20.033 84.0527L22.5127 84.0768L23.9034 80.955ZM41.0225 80.7877L38.1486 87.8302C37.7723 88.7459 37.3671 89.329 37.0162 89.637C36.5504 90.0441 35.8714 90.2529 34.9591 90.2529H33.1956L31.7124 84.1228L29.1928 90.2529H25.1647L30.3252 78.2189H34.0632L35.5932 84.1977L37.9908 78.2174H42.1086L41.0225 80.7877ZM53.5873 78.2189L49.4561 88.0564C49.2162 88.6448 48.7752 89.1249 48.2342 89.5465C47.6284 90.0199 47.0088 90.2529 46.3811 90.2529H40.4242L38.8618 88.4186L42.2464 80.0987L42.8482 78.2189H47.1486L43.1886 87.7881H45.4504L49.0375 79.3754L48.0018 78.215L53.5873 78.2189ZM64.428 80.0847L63.4101 82.6259C63.2165 83.106 62.8582 83.4614 62.3425 83.6804C61.9802 83.8336 61.4177 83.9453 60.6542 84.0251C61.7369 84.2446 62.2483 84.7765 62.1882 85.6206L61.1489 88.1478C60.9228 88.7 60.5625 89.1908 60.0987 89.5785C59.5651 90.031 59.0037 90.2553 58.4288 90.2553H49.3621L53.7556 80.0731L54.4524 78.2213H62.6984L64.428 80.0847ZM60.0524 80.7427H57.6693L56.741 83.0122H59.1097L60.0524 80.7427ZM58.2108 85.3097H55.7843L54.749 87.851H57.1606L58.2108 85.3097ZM70.2306 78.2189L69.2849 80.5512L65.3463 90.1727C65.0668 90.2271 64.7823 90.2538 64.4972 90.2524H61.0783L65.5186 80.0702L63.8307 78.2184L70.2306 78.2189ZM81.3366 78.2189L79.8852 81.7484H76.2657L76.6813 80.7287H74.3016L73.327 83.0122H77.828C78.7633 83.0122 79.2327 83.3709 79.2327 84.0947C79.2287 84.3856 79.1666 84.6729 79.05 84.9408L77.7026 88.1435C77.473 88.7023 77.1063 89.1982 76.6345 89.5881C76.1079 90.03 75.5559 90.2529 74.979 90.2529H66.5031L68.0187 86.5562H71.9931L71.5312 87.7165H73.7745L74.7958 85.2382H70.7746L69.0261 83.3274L70.3879 79.9788C70.5994 79.4566 71.0792 79.0283 71.8104 78.6869C72.4701 78.3775 73.12 78.2221 73.7601 78.2208L81.3366 78.2189Z" fill="white"/>
<path d="M28.0259 79.6005L17.302 79.5636L18.8047 81.1912L12.0229 90.2584H15.2156L17.2617 87.2058L21.1339 87.4145L19.8517 90.272L23.0443 90.3225L28.0259 79.6005ZM23.9995 81.2755L22.133 85.2346L18.3123 85.1972L21.0972 81.2249L23.9995 81.2755ZM41.1117 79.5603H38.0186L35.0974 86.4341L33.2314 79.5603H30.1495L25.2889 90.2584H28.2907L31.3522 83.2298L33.1559 90.2584H34.5519C35.1545 90.2584 35.8526 90.1709 36.3154 89.7867C36.7562 89.4193 37.1236 88.7103 37.3404 88.2129L40.2953 81.3934L41.1117 79.5603ZM52.879 79.5603H49.0583L49.5874 80.1163L45.6585 88.8231H42.2291L46.2887 79.5603H43.0231L42.5159 81.063L39.1483 88.8699L40.4009 90.2584H46.2652C46.8571 90.2584 47.3877 90.016 47.8414 89.6823C48.295 89.3487 48.7195 88.9378 48.9399 88.4319L52.879 79.5603ZM64.1688 80.9923L62.7579 79.5603H54.9001L54.3047 81.0494L50.0946 90.2584H58.6158C59.1413 90.2584 59.6005 90.0329 59.9898 89.7226C60.4026 89.3963 60.7239 88.9838 60.9267 88.5199L61.9553 86.1477C61.9701 85.514 61.4262 85.2917 60.7909 85.1705L57.6019 84.557L60.842 84.2336C61.316 84.1868 61.9808 84.1124 62.4237 83.9374C62.8095 83.782 63.0871 83.5396 63.2432 83.1792L64.1688 80.9923ZM61.042 81.0527L59.6607 84.1966H56.1232L57.4866 81.0527H61.042ZM59.1576 85.4738L57.6621 88.8802H54.0802L55.5497 85.4738H59.1576ZM69.9514 79.5603H65.3L66.4833 80.7869L62.1074 90.2584H64.8336C64.9994 90.2597 65.1651 90.2506 65.3296 90.2313L69.2585 81.1674L69.9514 79.5603ZM81.3366 79.5603H74.3288C73.7043 79.5603 73.1094 79.7185 72.5542 79.9614C72.0766 80.1734 71.5516 80.4902 71.3495 80.9619L70.0708 83.9336L71.4995 85.4031H76.1504L74.6921 88.7487H71.2862L71.7638 87.6302H68.7957L67.6528 90.2584H75.5774C76.0989 90.2584 76.551 90.0361 76.9403 89.7329C77.3598 89.4023 77.6863 88.9838 77.8919 88.5128L79.2696 85.4129C79.3658 85.2108 79.4178 84.9932 79.4226 84.7727C79.4226 84.6548 79.4043 84.5102 79.3206 84.4124C79.1553 84.2252 78.7328 84.1966 78.4976 84.1966H73.1114L74.5401 81.0396H78.0853L77.6592 82.0299H80.2569L81.3366 79.5603Z" fill="white"/>
<path d="M16.5268 84.9414L12.0229 90.2603H15.5332L17.7829 87.2967L22.0405 87.4998L20.6312 90.2735L24.1409 90.3225L26.973 84.9414H23.3735L23.1395 85.383L18.9386 85.3471L19.2573 84.9414H16.5268Z" fill="#849EB5"/>
<path d="M28.8542 84.9414H31.0499L29.2433 90.3225H26.9727L28.8542 84.9414Z" fill="#849EB5"/>
<path d="M32.4092 84.9414H35.1929L35.6232 86.5663L36.2974 84.9414H39.2046L37.7792 88.3134C37.5709 88.8002 37.2181 89.4984 36.7948 89.8592C36.3503 90.2366 35.68 90.3225 35.1013 90.3225H33.7606L32.4092 84.9414Z" fill="#849EB5"/>
<path d="M40.8859 84.9414H43.8282L42.142 88.9141H45.406L47.1452 84.9414H50.0773L48.5306 88.5279C48.3207 89.025 47.9183 89.4254 47.4844 89.7565C47.0504 90.0876 46.547 90.3225 45.9833 90.3225H40.3976L39.2046 88.9583L40.8859 84.9414Z" fill="#849EB5"/>
<path d="M52.3756 84.9414H58.03L59.8823 85.3252C60.4646 85.4443 60.9632 85.6626 60.9496 86.285L60.0067 88.6149C59.8208 89.0706 59.5263 89.4757 59.1479 89.7962C58.791 90.101 58.3701 90.3225 57.8883 90.3225H50.0771L52.3756 84.9414Z" fill="#849EB5"/>
<path d="M64.029 84.9414H67.7457L64.8685 90.2958C64.6685 90.3147 64.467 90.3236 64.2654 90.3224H60.9502L64.029 84.9414Z" fill="#849EB5"/>
<path d="M70.7422 84.9414H78.6183C78.6122 85.1556 78.5643 85.3667 78.4769 85.5633L77.2044 88.608C77.0144 89.0706 76.7129 89.4816 76.3254 89.8063C75.9658 90.1042 75.5482 90.3225 75.0665 90.3225H67.7456L68.8013 87.7411H71.543L71.1018 88.8397H74.2478L75.5949 85.5537H71.2988L70.7422 84.9414Z" fill="#849EB5"/>
<path d="M58.2321 84.9414L57.0314 88.9773H54.1548L55.3345 84.9414H58.2321Z" fill="#0B121D"/>
</svg>
