<svg width="358" height="358" viewBox="0 0 358 358" fill="none" xmlns="http://www.w3.org/2000/svg">
<path d="M340.018 106.394L358 118.38L355.909 122.802L348.884 137.352C291.335 251.451 146.711 383.92 13.9767 353.608L6.4675 351.881L4.63814 344.191C3.32667 338.652 2.49712 332.561 1.84258 326.928C0.133106 312.259 -0.298452 297.308 0.185858 282.57C1.8258 231.536 14.6672 181.035 35.2456 134.689C51.5491 97.9419 73.2927 55.3129 100.205 25.3579C107.398 17.35 120.28 4.75982 130.743 1.20843L134.246 -5.86809e-06L137.821 0.986475C149.61 4.23699 161.694 8.57018 173.123 12.9009C200.156 23.1481 226.74 35.5065 251.926 49.9439C281.481 66.8845 312.106 84.5872 339.085 105.666C339.397 105.913 339.707 106.162 340.018 106.394Z" fill="#94CB53"/>
</svg>
