<svg width="32" height="32" viewBox="0 0 32 32" fill="none" xmlns="http://www.w3.org/2000/svg">
<g clip-path="url(#clip0)">
<path d="M22.3673 27.391C22.2053 27.6285 22.0401 27.864 21.8682 28.0993C21.6899 28.3453 21.5028 28.5926 21.307 28.8414L21.2883 28.8646V28.8656L21.2719 28.8867L20.3232 30.2981C19.811 30.0573 19.2858 29.8178 18.7814 29.5651H18.7803C18.1696 29.2599 17.5657 28.9232 16.9704 28.5602C16.3697 28.1938 15.7824 27.8039 15.2086 27.3906H3.59082L6.4052 23.4332L4.83827 21.6446L5.82751 21.6478C6.4283 21.6509 7.0289 21.652 7.6297 21.6541L9.18461 21.6572C7.57498 19.6194 6.2871 17.3791 5.56747 15.0672C4.90438 12.9382 4.72383 10.7479 5.21792 8.59864L5.3851 7.87029L6.13574 7.69436C6.31963 7.65039 6.5067 7.61623 6.69488 7.58777C6.88635 7.55844 7.07238 7.53501 7.25413 7.51447C7.71585 7.46171 8.18233 7.42718 8.65356 7.41097C9.12091 7.3941 9.58933 7.39513 10.0565 7.40994C10.3757 7.4205 10.6901 7.43737 11.0009 7.46068C11.2777 7.48023 11.5535 7.50552 11.8281 7.53662C11.8819 7.09677 11.9797 6.66299 12.1202 6.24133C12.2857 5.74641 12.4981 5.26725 12.7549 4.80999C13.2911 3.84841 13.975 2.98593 14.8078 2.29673C15.577 1.66016 16.4722 1.17152 17.4953 0.890616L18.1817 0.701935L18.0735 1.38161C18.0078 1.7902 17.9202 2.20261 17.8327 2.6156C17.7189 3.15187 17.6047 3.687 17.5394 4.22829C17.5186 4.40141 17.5032 4.57338 17.4938 4.74346C17.4844 4.91353 17.4839 5.08649 17.4904 5.25747C17.4959 5.37883 17.5047 5.50023 17.5168 5.6206C17.5287 5.74097 17.5441 5.86117 17.5623 5.98479C17.6006 6.24545 17.6488 6.50405 17.7025 6.75856C17.7549 7.00969 17.8163 7.26936 17.8786 7.53014C17.8917 7.586 17.9148 7.68103 17.9377 7.775C17.9804 7.95093 18.0242 8.1286 18.0646 8.31332C18.0941 8.30907 18.1269 8.30498 18.1665 8.2997L18.2704 8.28502C18.4268 8.26171 18.6048 8.23651 18.753 8.23651C18.9981 8.23651 19.2683 8.2818 19.5364 8.34838C19.7696 8.40704 20.0004 8.48133 20.2117 8.55628C20.9928 7.68541 21.9078 7.15559 22.9169 6.82308C23.9423 6.48586 25.0598 6.35217 26.2314 6.26991L26.8781 6.22594L26.8093 6.46564L26.8442 6.54905L26.7731 6.58911L26.7043 6.82881C26.6586 6.99006 26.6068 7.15134 26.5542 7.31259C26.4974 7.48266 26.4427 7.63983 26.389 7.78981C26.2675 8.12963 26.1373 8.46961 25.9951 8.80621C25.8528 9.14285 25.7018 9.4724 25.5355 9.7986C25.4501 9.9653 25.3604 10.1322 25.2641 10.2971C25.1677 10.462 25.0694 10.6243 24.9631 10.7816C24.81 11.0085 24.644 11.2398 24.4664 11.4635C24.3183 11.6516 24.1605 11.8323 23.9937 12.005C24.3646 12.2404 24.7279 12.4841 25.077 12.7397C25.4676 13.0247 25.8451 13.3261 26.203 13.6443C26.5258 13.9325 26.9219 14.322 27.2502 14.738C27.4986 15.0534 27.7076 15.3839 27.8149 15.6963L27.9199 16.0042L27.922 16.0707L27.8356 16.3832C27.7339 16.7516 27.6157 17.1211 27.4887 17.4905C27.3596 17.8642 27.2251 18.2252 27.0904 18.5799C26.8776 19.1341 26.6511 19.6854 26.4109 20.2339C26.1997 20.7122 25.9775 21.1865 25.7445 21.6569L26.6429 21.6559H28.409L27.2502 24.451V24.4542C27.25 24.4634 27.2504 24.4725 27.2514 24.4816C27.2511 24.5916 27.2393 24.7012 27.2162 24.8088C27.1924 24.919 27.1583 25.027 27.1146 25.1314L26.703 26.1037C26.6352 26.2645 26.5478 26.4171 26.4427 26.5582C26.3377 26.6987 26.2157 26.8267 26.0793 26.9393C25.9091 27.0824 25.7148 27.1965 25.5048 27.2765C25.3022 27.3527 25.0866 27.3918 24.8691 27.3916L22.3673 27.391Z" fill="white"/>
<path d="M20.9433 28.7721L20.1955 29.887L19.9196 29.7574L19.0118 29.3218C11.893 25.7536 3.62791 16.7865 5.51917 8.55651L5.62688 8.09092L6.10666 7.97748C6.45227 7.89618 6.83233 7.84474 7.18377 7.80415C8.09904 7.69814 9.03181 7.67141 9.95137 7.70144C13.1355 7.80312 16.2864 8.59933 19.1779 9.87523C21.4707 10.8861 24.1304 12.2343 25.9994 13.903C26.499 14.3489 27.2845 15.1477 27.5061 15.7964L27.5815 16.0136L27.5199 16.2352C27.3171 16.9662 27.0468 17.7154 26.7766 18.4241C26.1372 20.1002 25.3662 21.7485 24.4654 23.3101C23.4084 25.1426 22.3039 27.0414 20.9888 28.7143C20.9734 28.7336 20.9578 28.7528 20.9433 28.7721Z" fill="#0B121D"/>
<path d="M6.32765 8.36905C4.51335 16.4936 12.7606 25.5541 19.7003 28.9858L19.7147 29.0397C19.7147 29.0397 19.7247 29.0287 19.7424 29.0067C19.7811 29.0264 19.8209 29.0462 19.8607 29.0649L20.2823 28.5404C20.9946 27.6157 22.0224 26.1016 23.7792 22.9689C25.536 19.8362 26.7551 15.8829 26.7551 15.8829C26.7551 15.8829 25.9592 13.4897 18.8618 10.269C11.7645 7.04839 6.32765 8.36905 6.32765 8.36905Z" fill="#94CB53"/>
<path d="M23.7249 21.2726C23.9013 21.401 24.2241 21.6417 24.4038 21.766L24.8253 22.058L20.2068 29.1731C19.6021 29.0638 19.0454 28.9526 18.5296 28.8381C17.5681 28.2935 16.1238 27.4116 14.2183 26.0788C11.4543 24.147 8.89213 20.2658 7.72754 18.3443L8.81773 16.107C9.02954 15.6619 9.25926 15.2223 9.50216 14.8231C9.75066 14.4134 10.0013 14.0046 10.2453 13.5927L11.523 11.1276L12.3285 9.50455C11.8627 8.00028 12.2842 6.36212 13.0584 4.97555C14.0556 3.1855 15.5629 1.77544 17.5816 1.22116C17.3564 2.62914 16.9346 3.87887 16.9882 5.23439C16.9995 5.49583 17.0247 5.75649 17.0637 6.01542C17.1424 6.55587 17.264 7.09085 17.3909 7.62149C17.4652 7.92954 17.545 8.24415 17.6115 8.55873L17.6731 8.81551C17.8327 8.79843 18.5726 8.68384 18.729 8.68384C19.1848 8.68384 19.8015 8.88712 20.233 9.04882L20.3528 9.09337C21.8845 7.19533 24.0397 6.85085 26.3412 6.68932C26.3412 6.68932 25.6657 9.03723 24.6341 10.5721C24.0851 11.3894 23.6216 11.857 23.3076 12.1159C23.4164 12.2352 23.5154 12.3626 23.6037 12.4968C23.7368 12.7066 23.8688 12.9152 24.003 13.1239L24.0286 13.1634L24.0497 13.2062C24.1661 13.4448 24.3714 13.8471 24.4078 14.0953C24.4113 14.1189 24.4146 14.1434 24.4168 14.167L24.5132 14.1691L24.1173 15.5065L26.3256 18.8961C26.3127 20.5409 24.9461 20.8047 23.7249 21.2726Z" fill="#0B121D"/>
<path d="M21.7327 14.1038C21.7327 14.1038 21.8713 13.393 21.5271 12.6108C21.4033 12.332 21.2014 12.0889 20.993 11.8906L20.4697 11.7428L20.8519 12.3742C20.8519 12.3742 20.205 11.7454 18.993 11.5369C17.781 11.3283 17.1214 10.9784 17.1214 10.9784C17.1214 10.9784 17.5135 11.5228 18.1467 11.7249C18.7798 11.927 19.496 11.9765 20.1089 12.2759C20.7218 12.5752 21.0448 13.4211 21.0448 13.4211C21.0448 13.4211 20.7496 12.7641 20.013 12.4369C19.2764 12.1096 18.9941 12.1851 18.0784 11.9906C17.1628 11.7962 16.7494 11.1879 16.7494 11.1879C16.939 12.4531 18.944 12.6615 19.6932 13.1196C19.8766 13.1986 20.0248 13.3097 20.1782 13.4481C20.5492 13.783 20.9691 14.1817 20.9691 14.1817C20.9691 14.1817 20.9968 13.9363 20.8316 13.6685C20.6664 13.4006 20.5321 13.2881 20.5321 13.2881C20.5321 13.2881 20.9212 13.5464 21.1141 13.8283C21.307 14.1103 21.3176 14.2162 21.4519 14.2303C21.5862 14.2444 21.7327 14.1038 21.7327 14.1038ZM22.7432 14.7262L22.7262 14.6375C22.7262 14.6375 22.9554 14.5608 23.1685 14.2562C23.3817 13.9517 23.3508 13.7117 23.3508 13.7117C23.3508 13.7117 23.5032 13.9029 23.451 14.3491C23.3987 14.7954 23.1493 15.2286 23.1493 15.2286L22.7432 14.7262ZM15.8842 13.4244C15.9994 13.2276 16.1732 12.9652 16.3852 12.7587C16.7775 12.3763 17.1474 12.2715 17.1474 12.2715C17.1474 12.2715 17.7988 13.8694 18.8016 14.2822C19.7886 14.6885 20.4281 14.4 20.4484 14.3915C20.2999 14.4692 20.1408 14.5238 19.9763 14.5535C20.2385 14.4635 20.4452 14.3925 20.4484 14.3915C20.514 14.3578 20.5765 14.318 20.6349 14.2726C20.6349 14.2726 20.6626 14.7392 20.0575 15.0958C19.4525 15.4523 18.8519 15.326 18.8519 15.326C18.8519 15.326 19.2719 15.4934 19.9467 15.326C20.6214 15.1585 20.697 15.0397 20.697 15.0397L22.8181 16.9584L21.0762 14.5997C21.0762 14.5997 21.2275 14.4669 21.4236 14.4291C21.6198 14.3913 21.6847 14.5058 21.6847 14.5058C21.6847 14.5058 21.6294 14.3901 21.7292 14.3383C21.8289 14.2866 22.3345 14.4399 22.3345 14.4399L25.1005 18.1931L24.6732 18.1023L24.5633 18.1445L22.4359 15.4856L24.3768 18.1661C24.3768 18.1661 23.8951 18.3822 23.8269 18.3961C23.7586 18.4101 23.3175 18.0537 23.3175 18.0537L23.6616 18.528C23.6616 18.528 23.8887 18.9536 24.0369 19.1395C24.1851 19.3254 24.1776 19.2712 24.1776 19.2712C24.1776 19.2712 24.1331 19.3837 23.5583 19.4322C22.9835 19.4809 22.4082 19.1805 22.4082 19.1805C22.4082 19.1805 22.8633 19.4669 23.3099 19.5328C23.7565 19.5987 24.2298 19.3761 24.2298 19.3761C24.2298 19.3761 23.8545 19.5965 23.4304 19.6236C23.0063 19.6506 22.4806 19.362 22.4806 19.362C22.4806 19.362 22.9006 19.7222 23.5135 19.683C24.1263 19.6438 24.2874 19.5014 24.2874 19.5014C24.2874 19.5014 24.1435 19.6375 23.7128 19.7219C23.2822 19.8062 22.6351 19.5965 22.6351 19.5965C22.6351 19.5965 22.9209 19.7985 23.4038 19.8018C23.8866 19.8051 24.3225 19.5781 24.3225 19.5781C24.3225 19.5781 23.9164 19.9066 23.2726 19.8752C22.6288 19.8438 20.577 18.2039 19.9098 17.695C19.2426 17.186 19.1797 16.9485 18.8972 16.9485C18.6148 16.9485 18.6425 17.3039 18.9462 17.4778C19.25 17.6517 19.6337 17.7999 20.3229 18.2881C21.0122 18.7764 22.54 19.9897 23.3182 20.0737C24.0964 20.1578 24.481 19.7669 24.481 19.7669C24.481 19.7669 24.2262 20.1396 23.5004 20.1785C22.7746 20.2173 22.1989 19.9063 22.1989 19.9063C22.1989 19.9063 22.798 20.2476 23.3725 20.2801C23.9471 20.3124 24.2572 20.1256 24.2572 20.1256C24.2572 20.1256 23.3799 20.5794 22.5741 20.3837C21.7684 20.1881 20.5373 19.177 20.1653 18.8982C19.7933 18.6194 19.7794 18.6044 19.7794 18.6044C19.7794 18.6044 20.6982 19.2496 21.39 19.6548C22.0818 20.0599 22.3407 20.1756 22.3407 20.1756C22.3407 20.1756 20.5404 18.9752 19.7826 18.4512C19.0248 17.9272 18.981 17.9002 18.981 17.9002C18.981 17.9002 18.9218 17.9565 18.9843 18.0926C19.0467 18.2287 19.0845 18.2806 19.0845 18.2806C19.0845 18.2806 18.5333 18.1726 18.3821 17.5454C18.2308 16.9181 18.7402 16.6865 18.7402 16.6865C18.7402 16.6865 18.6365 16.6659 18.4823 16.7534C18.328 16.8409 18.3032 16.9209 18.3032 16.9209C18.3136 16.8177 18.3519 16.7196 18.4138 16.6371C18.4756 16.5545 18.5587 16.4908 18.6539 16.453C18.9875 16.3169 19.1185 16.3969 19.1185 16.3969C19.1185 16.3969 18.9023 16.2683 18.5473 16.411C18.1923 16.5537 18.1336 16.6907 18.0762 17.0397C18.0188 17.3887 18.1476 17.716 18.1476 17.716C18.1476 17.716 17.9824 17.6144 17.7073 17.1963C17.4323 16.7783 17.4112 16.4498 17.4112 16.4498C17.4112 16.4498 17.2811 16.6659 17.5221 17.1336C17.7631 17.6013 18.2096 17.8597 18.2096 17.8597C18.2096 17.8597 17.942 17.8521 17.4326 17.3844C16.9232 16.9167 16.8537 15.8706 16.8537 15.8706C16.8537 15.8706 16.7301 16.0728 16.7855 16.4218C16.8409 16.7708 16.8879 16.9101 16.8879 16.9101C16.8879 16.9101 16.097 16.4077 15.7047 15.2841C15.3124 14.1605 16.0259 13.6446 16.0259 13.6446L15.7298 13.7138C15.7724 13.6127 15.8241 13.5158 15.8842 13.4244ZM17.1474 12.2715C17.1474 12.2715 17.1431 12.2823 17.1368 12.3015L17.1474 12.2715ZM25.0168 19.0865C25.0168 19.0865 24.8739 19.3641 24.8153 19.4204C24.7567 19.4767 24.7023 19.4777 24.7023 19.4777C24.7434 19.4853 24.7852 19.4882 24.827 19.4863C24.8671 19.485 24.9059 19.4711 24.9378 19.4464C24.9284 19.4657 24.9148 19.4826 24.898 19.4959C24.8812 19.5092 24.8617 19.5185 24.8409 19.523C24.7669 19.5426 24.7331 19.5371 24.7331 19.5371L24.8397 19.7834C24.8397 19.7834 24.8622 19.818 24.9581 19.5457C25.0541 19.2734 25.0168 19.0865 25.0168 19.0865Z" fill="#747E87"/>
<path d="M17.6174 13.9755L17.6257 13.9832L17.6327 13.99C17.6589 14.0168 17.6873 14.0436 17.7149 14.072L17.7174 14.0739L17.7185 14.0758C17.9138 14.2621 18.1588 14.4665 18.4146 14.6016C18.9958 14.9066 19.4692 14.9384 19.4692 14.9384L19.5556 14.9423C19.6511 14.9543 19.7478 14.9591 19.8444 14.9568C19.8444 14.9568 19.7829 15.0506 19.042 15.169C18.301 15.2875 17.9635 15.2375 17.9635 15.2375C17.9635 15.2375 18.2002 15.4921 19.2325 15.6292C20.2648 15.7663 20.9832 15.5048 20.9832 15.5048L23.4453 17.1442L21.6639 14.8072C21.6639 14.8072 21.779 14.7268 21.8817 14.7484C21.9844 14.7699 22.1148 14.8573 22.1148 14.8573C22.1148 14.8573 22.0427 14.6712 22.0579 14.5669C22.0638 14.5311 22.0796 14.4967 22.1041 14.4665C22.0201 14.4569 21.9491 14.455 21.9172 14.4686C21.8059 14.5148 21.8679 14.6181 21.8679 14.6181C21.8679 14.6181 21.7957 14.5148 21.5779 14.5497C21.36 14.5845 21.192 14.702 21.192 14.702L23.1262 16.8084L20.7707 15.0948C20.7707 15.0948 20.6867 15.2009 19.9373 15.3505C19.188 15.5 18.7216 15.3505 18.7216 15.3505C18.7216 15.3505 19.3869 15.4624 20.0605 15.1449C20.2947 15.0339 20.444 14.9104 20.5387 14.7976C20.7149 14.5862 20.7019 14.4097 20.7019 14.4097C20.7019 14.4097 20.6014 14.4656 20.3871 14.5245C20.1764 14.5814 19.8094 14.6103 19.7964 14.6113C19.4982 14.6113 19.1146 14.566 18.666 14.4183C17.5522 14.0498 16.829 12.6226 16.829 12.6226C16.829 12.6226 16.7509 13.0975 17.6174 13.9755Z" fill="#384A59"/>
<path d="M16.4131 16.5388C16.4372 16.3583 16.4791 16.106 16.5428 15.8972L16.6572 15.5282C16.6572 15.5282 16.8134 16.0857 16.9266 16.3247L17.0399 16.5645L17.1609 15.9343C17.1609 15.9343 17.2819 16.2382 17.4314 16.5501C17.5809 16.8619 17.6865 16.984 17.6865 16.984C17.6865 16.984 17.6293 16.4855 18.1407 16.1584C18.6521 15.8313 19.3415 16.3031 19.3415 16.3031L18.7807 16.3905L19.0215 16.5275L18.7235 16.6442C18.7235 16.6442 19.1425 16.5924 19.5331 17.013C19.9236 17.4336 20.855 18.1211 21.4795 18.6213C22.1041 19.1215 22.3385 19.2517 22.3385 19.2517L22.1262 18.8961C22.1262 18.8961 22.6232 19.1575 23.1633 19.1788C23.7034 19.2002 23.8803 19.0846 23.8803 19.0846L23.0565 17.7812C23.0565 17.7812 23.6813 18.1145 23.8451 18.0998C24.009 18.0852 24.2212 17.9473 24.2212 17.9473L22.575 15.5L24.4312 18.0797C24.4312 18.0797 23.9342 18.304 23.8638 18.3185C23.7933 18.333 23.3382 17.963 23.3382 17.963L23.6933 18.4554C23.6933 18.4554 23.9276 18.8972 24.0805 19.0902C24.2334 19.2832 24.2256 19.227 24.2256 19.227C24.2256 19.227 24.1798 19.3436 23.5867 19.3941C22.9936 19.4446 22.4001 19.1327 22.4001 19.1327C22.4001 19.1327 22.8696 19.4301 23.3304 19.4985C23.7912 19.5668 24.2795 19.3358 24.2795 19.3358C24.2795 19.3358 23.8923 19.5647 23.4548 19.5927C23.0171 19.6208 22.4748 19.3212 22.4748 19.3212C22.4748 19.3212 22.9081 19.695 23.5404 19.6544C24.1727 19.6137 24.3389 19.4659 24.3389 19.4659C24.3389 19.4659 24.1905 19.6072 23.7462 19.6948C23.3019 19.7823 22.6342 19.5647 22.6342 19.5647C22.6342 19.5647 22.929 19.7743 23.4272 19.7777C23.9255 19.7812 24.3751 19.5455 24.3751 19.5455C24.3751 19.5455 23.9562 19.8865 23.2919 19.8539C22.6277 19.8214 20.5107 18.119 19.8223 17.5906C19.1339 17.0622 19.0691 16.8156 18.7776 16.8156C18.4862 16.8156 18.5148 17.1847 18.8282 17.3652C19.1416 17.5458 19.5375 17.6995 20.2486 18.2064C20.9598 18.7133 22.536 19.9728 23.339 20.06C24.1419 20.1473 24.5387 19.7415 24.5387 19.7415C24.5387 19.7415 24.2759 20.1284 23.527 20.1688C22.7781 20.2091 22.1841 19.8862 22.1841 19.8862C22.1841 19.8862 22.8022 20.2406 23.395 20.2742C23.9878 20.3079 24.3078 20.1139 24.3078 20.1139C24.3078 20.1139 23.4027 20.585 22.5713 20.3819C21.74 20.1787 20.4698 19.1291 20.0859 18.8397C19.7021 18.5503 19.6878 18.5347 19.6878 18.5347C19.6878 18.5347 20.6358 19.2045 21.3496 19.6251C22.0633 20.0457 22.3304 20.1658 22.3304 20.1658C22.3304 20.1658 20.473 18.9196 19.6911 18.3757C18.9093 17.8317 18.8641 17.8037 18.8641 17.8037C18.8641 17.8037 18.803 17.8621 18.8674 18.0034C18.9319 18.1447 18.9708 18.1986 18.9708 18.1986C18.9708 18.1986 18.4022 18.0864 18.2461 17.4353C18.09 16.7842 18.6156 16.5437 18.6156 16.5437C18.6156 16.5437 18.5086 16.5223 18.3495 16.6131C18.1903 16.704 18.1647 16.787 18.1647 16.787C18.1755 16.68 18.215 16.578 18.2788 16.4924C18.3426 16.4067 18.4283 16.3406 18.5265 16.3013C18.8708 16.16 19.006 16.243 19.006 16.243C19.006 16.243 18.7828 16.1095 18.4165 16.2577C18.0503 16.4058 17.9898 16.548 17.9305 16.9103C17.8713 17.2727 18.0041 17.6124 18.0041 17.6124C18.0041 17.6124 17.8337 17.5069 17.5499 17.073C17.2661 16.639 17.2444 16.298 17.2444 16.298C17.2444 16.298 17.1102 16.5223 17.3588 17.0079C17.6075 17.4934 18.0681 17.7616 18.0681 17.7616C18.0681 17.7616 17.792 17.7537 17.2664 17.2681C16.7409 16.7826 16.6692 15.6967 16.6692 15.6967C16.6692 15.6967 16.5417 15.9066 16.5988 16.2689C16.6559 16.6312 16.7045 16.7758 16.7045 16.7758C16.7045 16.7758 16.5836 16.6991 16.4131 16.5388ZM25.0921 19.0354C25.0921 19.0354 24.9447 19.3235 24.8842 19.382C24.8237 19.4404 24.7677 19.4415 24.7677 19.4415C24.8101 19.4494 24.8532 19.4523 24.8963 19.4503C24.9377 19.449 24.9777 19.4345 25.0107 19.4089C25.0009 19.429 24.9869 19.4466 24.9696 19.4603C24.9522 19.4741 24.9321 19.4838 24.9106 19.4885C24.8342 19.5088 24.7995 19.5031 24.7995 19.5031L24.9094 19.7588C24.9094 19.7588 24.9326 19.7947 25.0316 19.512C25.1306 19.2293 25.0921 19.0354 25.0921 19.0354Z" fill="#384A59"/>
<path d="M21.791 14.2668L24.7549 17.9033L25.1001 17.9663L22.0124 14.3204C22.0124 14.3204 21.9137 14.2949 21.791 14.2668Z" fill="white"/>
<path d="M16.8278 13.0597C16.8278 13.0597 16.4436 13.145 16.2588 13.2583C16.074 13.3716 15.9587 13.5744 15.9587 13.5744L16.2953 13.5551C16.2953 13.5551 15.7514 14.0168 15.8191 15.0831C15.8841 16.1212 16.3213 16.7018 16.3446 16.7332C16.0481 16.3631 15.822 15.9151 15.6829 15.422C15.3629 14.2997 15.9457 13.7848 15.9457 13.7848L15.7048 13.8539C15.7048 13.8539 15.8844 13.2896 16.2261 13.1288C16.5679 12.9679 16.8278 13.0597 16.8278 13.0597Z" fill="white"/>
<path d="M20.5495 13.0337C20.3495 12.8432 20.1114 12.69 19.8483 12.5827C19.0731 12.2689 18.7758 12.3421 17.812 12.1564C16.8483 11.9706 16.4131 11.3894 16.4131 11.3894C16.5005 12.499 18.6724 12.2792 19.5477 12.5919C20.1311 12.8004 20.5449 13.0306 20.5495 13.0337Z" fill="white"/>
<path d="M21.7613 14.155C21.7613 14.155 21.9095 13.526 21.5413 12.8338C21.4089 12.5872 21.1928 12.3721 20.9697 12.1966L20.4098 12.0658L20.5455 12.2503L20.9151 12.3115C20.9151 12.3115 21.0702 12.4195 21.3097 12.8086C21.5492 13.1978 21.6963 13.8391 21.6187 13.9505C21.5411 14.0619 21.3941 14.0365 21.3941 14.0365C21.3941 14.0365 21.1693 13.6972 20.9333 13.5174C20.6973 13.3376 20.1817 13.1598 20.1817 13.1598L20.378 13.462C20.378 13.462 20.0723 13.1015 19.0105 12.9936C18.8679 12.9782 18.7412 12.967 18.6272 12.9601C19.0035 13.0681 19.3469 13.1666 19.5776 13.2832C19.7738 13.353 19.9324 13.4514 20.0965 13.5738C20.4935 13.8702 20.9428 14.2229 20.9428 14.2229C20.9428 14.2229 20.9725 14.0058 20.7957 13.7689C20.6189 13.5318 20.4752 13.4323 20.4752 13.4323C20.4752 13.4323 20.8915 13.6608 21.0979 13.9103C21.3043 14.1597 21.3157 14.2535 21.4594 14.266C21.603 14.2784 21.7613 14.155 21.7613 14.155ZM17.7023 11.6647C17.1298 11.5214 16.8271 11.3894 16.8271 11.3894C16.8271 11.3894 17.2467 11.8711 17.9242 12.05C18.6017 12.2288 19.368 12.2726 20.0238 12.5375C20.4104 12.6943 20.6891 13.0184 20.853 13.2583C20.853 13.2583 20.651 12.787 20.2018 12.4973C19.7526 12.2076 19.0967 12.2125 18.3668 12.0336C17.9156 11.9228 17.7582 11.7679 17.7023 11.6647Z" fill="#384A59"/>
<path d="M18.151 10.9784L18.0684 11.0555L20.1264 11.8005L20.1365 11.6424L18.151 10.9784Z" fill="#AA522A"/>
<path d="M18.0679 10.906L17.7364 9.74521L17.6543 9.87358L17.9914 10.9784L18.0679 10.906Z" fill="#AA522A"/>
<path d="M17.7207 9.246L18.1722 10.6848L20.0825 11.2685L20.3493 11.3507L20.4799 11.3894L20.4844 11.3182L20.5497 10.3315L19.8114 9.32706C19.6703 9.26163 18.918 8.9231 18.543 8.9231C18.295 8.9231 17.994 8.97185 17.7859 9.01228C17.7369 9.02193 17.6918 9.03047 17.6543 9.03876L17.6601 9.05811L17.7207 9.246Z" fill="#FFC972"/>
<path d="M20.2095 11.3076L20.3493 11.3507L20.4799 11.3894L20.4844 11.3182L20.5497 10.3315L19.8114 9.32706C19.6703 9.26163 18.918 8.9231 18.543 8.9231C18.295 8.9231 17.994 8.97185 17.7859 9.01228C17.7369 9.02193 17.6918 9.03047 17.6543 9.03876L17.6601 9.05811L17.7165 9.23787C17.8741 9.2309 18.047 9.22797 18.2314 9.23226C19.0885 9.25025 19.5445 9.49268 19.5445 9.49268C19.5445 9.49268 18.9756 9.42998 18.7699 9.46207L18.5653 9.49268C18.5653 9.49268 19.3401 9.60137 19.487 9.64184C19.6339 9.68226 19.7079 9.696 19.7079 9.696L20.2617 10.5318L20.2095 11.3076Z" fill="#FFEAC7"/>
<path d="M21.7081 14.1061C21.7081 14.1061 21.7322 13.7176 21.8386 13.4932C21.9449 13.2689 22.689 13.2434 22.689 13.2434C22.689 13.2434 22.231 13.1251 21.9448 13.1577C21.6586 13.1903 21.6424 13.1975 21.6424 13.1975C21.6424 13.1975 21.4715 12.4398 21.226 12.1299C20.9804 11.82 20.9639 11.8005 20.9639 11.8005C20.9639 11.8005 21.3399 11.9922 21.6424 12.2227C21.9449 12.4531 22.0761 12.5653 22.0761 12.5653C22.0761 12.5653 22.0344 12.3812 21.8711 12.1635L21.7081 11.946C21.7081 11.946 22.3702 12.36 22.6562 12.7364C22.9422 13.1127 23.1143 13.3349 23.1143 13.3349C23.1143 13.3349 23.1649 13.4225 23.227 13.5332C23.1566 13.6249 23.0194 13.7728 22.7738 13.9085C22.7295 13.933 22.6878 13.9567 22.6486 13.9793C22.4094 14.0501 22.1866 14.2668 22.1866 14.2668L21.7081 14.1061ZM23.3078 13.6812C23.375 13.8045 23.4344 13.9228 23.4407 13.9616C23.4572 14.0534 23.4331 14.0738 23.3597 14.0738C23.337 14.0738 23.2976 14.0604 23.2457 14.0432C23.288 13.9254 23.3089 13.8034 23.308 13.6809L23.3078 13.6812Z" fill="#747E87"/>
<path d="M22.1234 12.4184C22.0795 12.3293 22.0238 12.2436 21.9571 12.1625L21.7783 11.9452C21.7783 11.9452 22.5032 12.3591 22.8164 12.7353C23.1296 13.1116 23.318 13.3338 23.318 13.3338C23.5427 13.5285 23.4886 13.5734 23.0131 13.8719L23.0118 13.8739L23.0104 13.8749L23.0075 13.8758L23.0035 13.878L23.0021 13.8789L23.0006 13.8799L22.9979 13.8809L22.9966 13.8821L22.9923 13.8841L22.991 13.885L22.9827 13.8891L22.9814 13.8901L22.9716 13.8952H22.9704L22.969 13.8962C22.9656 13.8985 22.9618 13.9006 22.9579 13.9025L22.9454 13.9086C22.8969 13.9331 22.8512 13.9567 22.8083 13.9793L22.7958 13.9823C22.7919 13.9842 22.7877 13.9855 22.7833 13.9864C22.7793 13.9873 22.7755 13.9887 22.7721 13.9905H22.7708C22.7669 13.9916 22.7633 13.993 22.7598 13.9946H22.7587C22.7551 13.9962 22.7515 13.9975 22.7477 13.9986H22.7463C22.7434 13.9997 22.7394 14.0017 22.7365 14.0027L22.7338 14.0037L22.7255 14.0068L22.7226 14.0078C22.7193 14.009 22.7161 14.0103 22.713 14.0119L22.7101 14.0129C22.7067 14.0139 22.7034 14.0153 22.7005 14.017C22.483 14.1068 22.3028 14.2668 22.3028 14.2668L21.7789 14.1057C21.7789 14.1057 21.8052 13.7172 21.9217 13.4929C22.0382 13.2686 22.853 13.2432 22.853 13.2432C22.853 13.2432 22.3514 13.1249 22.038 13.1575C21.7246 13.19 21.7069 13.1972 21.7069 13.1972C21.7069 13.1972 21.5198 12.4397 21.2509 12.1298C20.9819 11.82 20.9639 11.8005 20.9639 11.8005C20.9639 11.8005 21.0041 11.8199 21.0707 11.8524C21.3034 12.0224 21.6278 12.2772 21.7637 12.4714C21.9881 12.7904 21.9881 12.8924 21.9881 12.8924C21.9881 12.8924 22.3138 12.9822 22.6104 13.0933C22.9071 13.2045 22.9417 13.288 22.9417 13.288C22.9417 13.288 22.5342 13.3305 22.345 13.4359C22.1558 13.5412 22.1163 13.8641 22.108 13.8876C22.0998 13.9111 22.1981 14.0027 22.1981 14.0027C22.1981 14.0027 22.5254 13.8172 22.8703 13.8274C22.8951 13.8162 22.9215 13.8039 22.9506 13.7917C23.0684 13.7376 23.1779 13.6184 23.2393 13.5398C23.1031 13.3597 22.9531 13.1855 22.7902 13.0178C22.5835 12.809 22.3608 12.6089 22.1234 12.4184Z" fill="#384A59"/>
<path d="M13.311 11.8005C14.1097 11.8005 14.7587 12.3526 14.7587 13.0336C14.7587 13.7146 14.1097 14.2668 13.311 14.2668C12.5123 14.2668 11.8633 13.7146 11.8633 13.0336C11.8633 12.3526 12.5113 11.8005 13.311 11.8005ZM13.311 12.2192C13.839 12.2192 14.2668 12.5843 14.2668 13.0336C14.2668 13.483 13.839 13.8481 13.311 13.8481C12.783 13.8481 12.3547 13.483 12.3547 13.0336C12.3547 12.5843 12.7832 12.2192 13.311 12.2192Z" fill="#FFC972"/>
<path d="M13.5192 12.2115C13.9761 12.2115 14.346 12.579 14.346 13.0337C14.346 13.4882 13.9756 13.8558 13.5192 13.8558C13.0629 13.8558 12.6914 13.4881 12.6914 13.0337C12.6914 12.5792 13.0613 12.2115 13.5192 12.2115Z" fill="#FFC972"/>
<path d="M15.9683 10.8899C15.9683 10.8899 15.6327 10.573 15.6732 9.73268C15.7791 7.53014 15.2899 6.71215 15.5392 4.69107C15.6597 3.7134 15.9683 3.13392 15.9683 3.13392C15.9683 3.13392 14.8412 4.18122 14.0493 6.3996C13.2575 8.61802 14.0493 9.8158 14.3309 10.2158C14.6126 10.6157 15.1765 10.973 15.1765 10.973C15.1765 10.973 14.2779 11.1245 13.5528 9.8158C12.8278 8.50706 13.0156 6.84015 13.8749 5.20079C14.7341 3.56144 16.8272 1.93509 16.8272 1.93509C16.8272 1.93509 16.0087 3.67149 16.0625 5.10377C16.1163 6.53606 16.6121 8.07942 16.7326 8.97529C16.853 9.8712 15.9683 10.8899 15.9683 10.8899Z" fill="#747E87"/>
<path d="M15.8688 10.9784C15.8688 10.9784 15.6797 10.8168 15.5869 10.4193L16.117 9.35306C16.117 9.35306 15.4582 6.8628 15.7876 4.52557C16.0184 2.89278 16.4335 2.27765 16.6643 2.05476C16.7676 1.97728 16.8278 1.93509 16.8278 1.93509C16.8278 1.93509 15.9141 3.68861 15.9741 5.135C16.0342 6.58139 16.5877 8.14002 16.7222 9.04476C16.8567 9.94945 15.8688 10.9784 15.8688 10.9784Z" fill="#384A59"/>
<path d="M14.4054 10.9784C14.1371 10.8072 13.8389 10.5152 13.5654 10.0203C12.8203 8.67383 13.0127 6.95858 13.8967 5.27178C14.5052 4.10853 15.7189 2.95186 16.4136 2.34616C15.6665 3.03432 14.3071 4.53881 13.6562 6.8543C13.1275 8.73525 13.7631 10.13 14.4054 10.9784Z" fill="white"/>
<path d="M20.5498 9.80658C21.2763 8.52523 23.2428 7.2287 24.6862 6.86777C22.2966 8.21186 21.2057 8.97321 21.5295 11.8005C21.5295 11.8005 21.1054 11.3049 20.8891 10.9683L20.6734 10.6298L20.7355 10.2328L20.5498 9.80658Z" fill="#747E87"/>
<path d="M22.6184 8.51202L22.6171 8.51314L22.6184 8.51202ZM22.1084 9.0769C21.6497 9.73232 21.4945 10.5603 21.652 11.8005C21.652 11.8005 21.1971 11.323 20.9651 10.9986L20.9639 10.9963C21.019 10.8577 21.096 10.682 21.1985 10.4583C21.4361 9.94158 21.8058 9.4418 22.1084 9.0769Z" fill="#384A59"/>
<path d="M20.5498 9.91812C21.2763 8.58814 23.2428 7.2424 24.6862 6.86777C24.4539 7.00265 24.2358 7.1328 24.0279 7.25812C23.5392 7.52199 22.9407 7.88454 22.415 8.32059C21.2882 9.2542 20.704 10.5673 20.704 10.5673L20.735 10.3614L20.5498 9.91812Z" fill="white"/>
<path d="M14.9512 13.8558C14.9512 13.8558 15.2357 16.4656 16.2798 19.81C17.3241 23.1543 19.3094 27.6373 19.3094 27.6373L18.3431 27.7759L17.8011 27.8317C17.8011 27.8317 16.0477 22.5304 15.2232 19.1728C14.3987 15.8151 14.3457 14.2593 14.3457 14.2593C14.3457 14.2593 14.7968 16.5081 15.1323 17.8408C15.4678 19.1734 15.6484 19.534 15.6484 19.534L14.8358 15.6756L15.3708 17.3895C15.3708 17.3895 15.1193 16.0775 15.0425 15.2108C14.9657 14.3441 14.9512 13.8558 14.9512 13.8558Z" fill="#FFC972"/>
<path d="M14.9513 13.8558C14.9513 13.8558 15.2357 16.4656 16.2799 19.81C17.3241 23.1543 19.3094 27.6373 19.3094 27.6373L18.3431 27.7759L17.8012 27.8317C17.8012 27.8317 17.7641 27.7211 17.6993 27.5224L18.5237 27.2709C18.5237 27.2709 18.5237 27.1742 18.1633 26.2711C17.8028 25.368 16.6541 21.8025 16.6541 21.8025L15.5581 17.757L15.6099 18.0762L15.4297 17.8822L15.881 20.2836L15.4946 19.5197C15.3249 19.1854 15.1043 18.4924 14.9097 17.8185C14.3837 15.3934 14.3457 14.2588 14.3457 14.2588C14.3457 14.2588 14.7968 16.5077 15.1323 17.8403C15.4678 19.1729 15.6483 19.5336 15.6483 19.5336L14.8358 15.6751L15.3708 17.389C15.3708 17.389 15.1193 16.077 15.0425 15.2103C14.9657 14.3436 14.9513 13.8558 14.9513 13.8558Z" fill="#AD4C21"/>
<path d="M19.3086 18.7885C19.3086 18.7885 19.3555 20.1087 20.1783 22.6794C21.0011 25.2501 21.5458 26.5986 21.5458 26.5986L22.6177 25.194C22.6177 25.194 21.1262 22.6232 20.7533 21.4009C20.3805 20.1786 20.0701 19.1958 20.0701 19.1958C20.0701 19.1958 20.3851 20.5628 20.5128 21.1979C20.6404 21.833 20.6414 21.8548 20.6414 21.8548L19.7095 18.9635L20.0118 20.9374C20.0118 20.9374 19.5679 19.7228 19.4682 19.2801C19.3684 18.8374 19.3086 18.7885 19.3086 18.7885Z" fill="#FFC972"/>
<path d="M19.3086 18.7885C19.3086 18.7885 19.3555 20.1424 20.1782 22.7788C20.2059 22.8646 20.2323 22.9492 20.2587 23.0319L19.8535 21.2029C19.8535 21.2029 20.0831 21.5747 20.0873 21.5452C20.0915 21.5158 20.1414 20.9621 20.1414 20.9621L20.7247 22.6684L20.7788 22.0527C20.7788 22.0527 21.6723 24.4628 22.2003 25.5568L22.3062 25.7764L22.6177 25.3571C22.6177 25.3571 21.1264 22.7207 20.7536 21.4672C20.3808 20.2136 20.0704 19.2057 20.0704 19.2057C20.0704 19.2057 20.3855 20.6077 20.5131 21.259C20.6407 21.9103 20.6417 21.9327 20.6417 21.9327L19.7095 18.968L20.0116 20.9923C20.0116 20.9923 19.5678 19.7466 19.4681 19.2927C19.3684 18.8387 19.3086 18.7885 19.3086 18.7885Z" fill="#AD4C21"/>
<path d="M13.0088 14.6779C13.0037 14.7077 12.9495 15.0501 12.873 15.6159C13.1546 15.6524 13.6119 15.6621 14.0395 15.6606C13.9773 15.1353 13.9445 14.7846 13.9354 14.6807C13.6344 14.7857 13.3092 14.7849 13.0088 14.6785V14.6779ZM12.674 17.2487C12.6516 17.4514 12.63 17.6637 12.6076 17.8845C12.9607 18.0742 13.718 18.2607 14.4446 18.4087C14.3936 18.1203 14.3473 17.843 14.3059 17.5767L14.2478 17.5703C13.7263 17.5136 13.1451 17.3774 12.674 17.2487ZM12.4535 19.6888C12.4402 19.8752 12.428 20.0651 12.4157 20.2558C12.4086 20.3823 12.4015 20.5046 12.3943 20.6236C12.829 20.9794 13.3548 21.3681 13.9059 21.6892C14.3365 21.9389 14.8815 22.1955 15.4305 22.4337C15.255 21.8601 15.0917 21.2983 14.9529 20.7784C13.9977 20.4219 13.0088 19.9589 12.4535 19.6888ZM12.2953 22.7797C12.275 23.4497 12.2759 23.853 12.279 24.062C12.925 24.8038 13.6068 25.4802 14.3027 26.0098C15.0965 26.6156 15.8041 27.128 16.4225 27.5584C17.0298 27.8317 17.241 27.8317 17.241 27.8317C17.241 27.8317 16.8879 26.8605 16.4359 25.5322C15.7949 25.3386 15.0244 25.0111 14.2691 24.4622C13.5057 23.9063 12.825 23.2962 12.2953 22.7797Z" fill="#94CB53"/>
<path d="M13.0061 14.6779C13.0039 14.6928 12.9876 14.7927 12.9635 14.962C13.0603 14.9955 13.1601 15.0185 13.2614 15.0307C13.5851 15.0725 13.7097 15.0371 13.7097 15.0371L13.7536 15.66C13.8476 15.6611 13.9435 15.6611 14.0372 15.66C13.975 15.1347 13.9422 14.7841 13.933 14.6801C13.6319 14.7851 13.3064 14.7843 13.0058 14.6779H13.0061ZM12.6404 17.534C12.8708 17.6379 13.1127 17.711 13.3604 17.7518C13.8026 17.8214 14.0467 17.8837 14.0467 17.8837L14.0988 18.336C14.2131 18.3618 14.3285 18.3853 14.4429 18.409C14.3918 18.1205 14.3455 17.8432 14.304 17.5769L14.2459 17.5705C13.7239 17.5138 13.1418 17.377 12.6715 17.2489C12.6603 17.3423 12.6506 17.4365 12.6404 17.534ZM12.4229 20.1019L14.4623 21.0411L14.6145 22.0627C14.8759 22.1893 15.1516 22.3136 15.4293 22.4338C15.2537 21.8602 15.0904 21.2983 14.9515 20.7784C13.9957 20.4224 13.0061 19.9594 12.4505 19.6891C12.4403 19.8252 12.4311 19.9636 12.4229 20.1019ZM12.2773 23.4533C12.6501 23.8296 13.6106 24.7399 14.6404 25.2374C15.9595 25.8742 15.9997 25.8742 15.9997 25.8742L16.6355 27.6495C17.0797 27.8317 17.241 27.8317 17.241 27.8317C17.241 27.8317 16.8877 26.8604 16.4353 25.532C15.794 25.3385 15.023 25.0108 14.2673 24.462C13.5034 23.9067 12.8223 23.2967 12.2922 22.7794C12.284 23.0449 12.2799 23.2678 12.2773 23.4533Z" fill="#0B3770"/>
<path d="M12.4841 14.6457C12.4841 14.6457 12.0359 17.0346 11.5889 20.0594C11.2582 22.2971 11.1949 23.0629 11.1841 23.3101C11.1072 23.2154 11.0304 23.1206 10.9557 23.0249L8.55469 18.8642L8.90436 17.9643L9.70121 19.5669L9.21182 17.627C9.21182 17.627 9.79966 16.1651 10.3161 15.2789C10.8325 14.3927 11.0576 13.9987 11.0576 13.9987L11.47 13.1691C11.47 13.1691 11.4981 13.5457 11.7105 14.0063C11.923 14.4668 12.05 14.5321 12.05 14.5321L11.163 19.4886L12.4841 14.6457ZM12.1655 11.653L12.9871 10.1562C13.3346 10.8561 14.049 11.4548 14.7592 11.7589C14.7592 11.7589 13.6724 11.5378 13.4028 11.5336C13.1333 11.5294 12.8508 10.8805 12.8508 10.8805L12.9515 11.5205C12.9515 11.5205 12.4523 11.6925 12.2175 11.8682C11.9827 12.0439 11.9415 12.0799 11.9415 12.0799L12.1655 11.653Z" fill="#94CB53"/>
<path d="M12.6907 14.4738C12.6907 14.4738 12.272 16.9101 11.8544 19.9949C11.5453 22.2769 11.4862 23.058 11.4761 23.31C11.4043 23.2135 11.3325 23.1169 11.2627 23.0192L11.0361 22.592L11.558 19.8473L11.114 20.55L12.0475 14.4838C12.0475 14.4838 12.0677 14.4983 11.9302 14.1396C11.8481 13.9197 11.8158 13.6813 11.8361 13.4447C11.8724 13.5736 11.9167 13.6997 11.9685 13.8221C12.1683 14.2906 12.2851 14.358 12.2851 14.358L11.4564 19.4128L12.6907 14.4738Z" fill="#0B3770"/>
<path d="M8.73171 18.611L8.55469 18.3231L8.90337 17.4792L9.69791 18.9823L9.20993 17.1629C9.20993 17.1629 9.79612 15.7918 10.3111 14.9607C10.826 14.1296 11.0504 13.76 11.0504 13.76L11.4616 12.982C11.4616 12.982 11.4756 13.1616 11.5609 13.42L9.52822 17.3153L9.98141 19.6105L8.93545 18.1658L8.73171 18.611ZM12.3146 11.6948L13.1047 10.3736C13.0573 10.3027 13.0129 10.2297 12.9741 10.1562L12.1548 11.5601L11.9314 11.9592C11.9314 11.9592 11.9736 11.9265 12.2067 11.7608C12.2412 11.7369 12.2771 11.7149 12.3142 11.6948H12.3146Z" fill="white"/>
<path d="M20.5498 19.6106C20.5498 19.6106 20.7023 20.3688 21.0157 21.342C21.3023 21.0908 21.5683 20.8526 21.7499 20.6782C21.706 20.6431 21.6633 20.6091 21.6218 20.5739C20.7706 19.8794 20.5498 19.6106 20.5498 19.6106ZM21.9342 23.5948C22.4562 24.7184 22.5514 24.9543 22.5514 24.9543C22.5514 24.9543 23.071 24.2884 23.4015 23.4796C23.732 22.6708 23.8589 22.1618 23.8589 22.1618C23.8589 22.1618 23.5967 21.9928 23.2307 21.7459C22.9209 22.2802 22.4741 22.9748 21.9342 23.5948Z" fill="#94CB53"/>
<path d="M20.5498 19.6106C20.5498 19.6106 20.7023 20.3751 21.0157 21.3563C21.0973 21.2844 21.1754 21.2137 21.2529 21.1461L21.0511 20.4736L21.5707 20.8563C21.6366 20.7949 21.6976 20.738 21.7499 20.6873C21.706 20.6519 21.6633 20.6177 21.6218 20.5822C20.7706 19.8816 20.5498 19.6106 20.5498 19.6106ZM22.1646 24.1322L23.3198 22.1818L23.7761 22.4727C23.8333 22.2857 23.8589 22.1829 23.8589 22.1829C23.8589 22.1829 23.5967 22.0125 23.2307 21.7635C22.9209 22.3023 22.4745 23.0026 21.9342 23.6277C22.022 23.8209 22.0989 23.9873 22.1646 24.1322Z" fill="#0B3770"/>
<path d="M18.9655 20.5032L18.6934 20.1726C18.6934 20.1726 18.8989 20.0376 19.0086 19.8346C19.1184 19.6316 19.2142 19.4224 19.2142 19.4224L19.3091 20.5105C19.3091 20.5105 19.1554 21.1121 18.765 21.2272C17.9008 21.4815 16.7464 19.9173 16.4937 19.2403C16.4937 19.2403 16.4788 19.2801 16.9707 19.6996C17.4627 20.1192 17.8246 20.3075 17.8246 20.3075C17.5111 20.0358 17.2186 19.7445 16.9491 19.4356C16.4937 18.9155 16.3901 18.7671 16.3901 18.7671L16.2215 18.3277C16.2215 18.3277 16.4129 18.5311 16.8466 19.0297C17.2803 19.5283 17.3526 19.5508 17.3526 19.5508C17.3526 19.5508 16.6615 18.4219 16.3974 18.0776C16.1333 17.7334 16.0661 17.4897 16.0661 17.4897L16 16.7332C16.6554 17.7641 17.6687 20.07 18.9655 20.5032Z" fill="#94CB53"/>
<path d="M18.9642 20.5031L18.6921 20.1725C18.734 20.1434 18.7736 20.1115 18.8105 20.0772L19.1122 20.5972C19.1122 20.5972 18.9653 20.6338 18.3836 20.2823C17.8018 19.9308 17.1334 18.9242 17.1334 18.9242L17.656 19.8365L17.417 19.7017L18.108 20.4718L17.1814 20.1747C17.1814 20.1747 18.0784 21.0189 18.6227 20.9992C19.1669 20.9794 19.3091 20.5105 19.3091 20.5105C19.3091 20.5105 19.1554 21.1121 18.765 21.2272C17.9008 21.4815 16.7464 19.9173 16.4937 19.2403C16.4937 19.2403 16.4788 19.2801 16.9707 19.6996C17.4627 20.1192 17.8246 20.3075 17.8246 20.3075C17.5111 20.0358 17.2186 19.7445 16.9491 19.4356C16.4937 18.9155 16.3901 18.7671 16.3901 18.7671L16.2215 18.3277C16.2215 18.3277 16.4129 18.5311 16.8466 19.0297C17.2803 19.5283 17.3526 19.5508 17.3526 19.5508C17.3526 19.5508 16.6615 18.4219 16.3974 18.0776C16.1333 17.7334 16.0661 17.4897 16.0661 17.4897L16 16.7332C16.6542 17.7639 17.6674 20.0699 18.9642 20.5031Z" fill="#0B3770"/>
<path d="M18.3981 22.425C19.0903 22.4674 19.4435 22.0769 19.4435 22.0769L19.6262 22.614C19.3752 22.7404 18.9472 22.8998 18.4189 22.8687C17.5943 22.8197 17.5144 22.6564 17.5144 22.6564L17.4841 22.6706L17.2412 22.1254C17.6322 22.3882 17.8852 22.3929 18.3981 22.425ZM19.7319 22.9267L19.994 23.6996C19.8693 23.7696 19.7375 23.8281 19.6005 23.874L19.3897 23.0619C19.5069 23.0241 19.6213 22.979 19.7319 22.9267ZM19.3515 23.9485C19.1855 23.9927 19.0205 24.027 18.8648 24.054L18.5915 23.1968C18.7762 23.1936 18.96 23.1716 19.1397 23.1313L19.3515 23.9485ZM18.6056 24.0925C18.4174 24.118 18.2542 24.1319 18.135 24.1387L17.6625 23.0739C17.8213 23.1229 18.0339 23.1656 18.3162 23.1871L18.6056 24.0925ZM20.1012 24.014L20.1367 24.1177C20.1367 24.1177 19.7046 24.3308 19.2148 24.4525C18.725 24.5742 18.3132 24.5383 18.3132 24.5383L18.2747 24.4525C18.5915 24.428 19.0833 24.3676 19.5669 24.2271C19.7526 24.1739 19.9317 24.1026 20.1012 24.0142V24.014Z" fill="#FFC972"/>
<path d="M18.4579 22.4285C19.1857 22.4714 19.5571 22.0769 19.5571 22.0769L19.7493 22.6195C19.6467 22.669 19.5404 22.712 19.4311 22.7481L19.3523 22.4975C19.3523 22.4975 19.297 22.5557 18.5521 22.6014C18.1512 22.6252 17.7495 22.5646 17.3795 22.4241L17.2412 22.1259C17.6524 22.3914 17.9184 22.3961 18.4579 22.4285ZM17.7987 23.3319L18.3074 23.4204L18.516 24.1322C18.5671 24.1264 18.6203 24.1207 18.6766 24.1131L18.3723 23.1985C18.0754 23.1765 17.8519 23.1336 17.6849 23.0841L17.7987 23.3319ZM18.7171 23.3747L19.1949 23.3375L19.3653 23.9912C19.3973 23.9834 19.4292 23.9759 19.46 23.9673L19.2384 23.1422C19.0495 23.183 18.8562 23.2052 18.662 23.2084L18.7171 23.3747ZM19.5524 23.2613L19.8504 23.1898L20.0409 23.7663C20.0749 23.75 20.1068 23.733 20.1367 23.7167L19.861 22.9359C19.7447 22.9889 19.6245 23.0348 19.5013 23.0731L19.5524 23.2613Z" fill="#AD4C21"/>
<path d="M13.5634 16.8606C13.2631 16.7988 12.9692 16.7263 12.7127 16.6569L12.7031 16.6548L12.7041 16.644C12.7189 16.5182 12.735 16.3926 12.75 16.2679C12.7659 16.1467 12.7809 16.0307 12.7943 15.9219L12.7965 15.9111L12.8093 15.9121C12.9719 15.9338 13.1862 15.9469 13.4194 15.9534C13.6526 15.9598 13.9048 15.9619 14.144 15.9609H14.1546L14.1556 15.9717C14.1759 16.1266 14.1993 16.2924 14.2249 16.4681C14.2472 16.6295 14.2728 16.7964 14.2988 16.9674L14.3009 16.9825L14.2861 16.9814C14.0521 16.9545 13.8061 16.9104 13.5634 16.8606ZM16.0504 23.8934C16.1707 24.2497 16.29 24.5985 16.4053 24.9315L16.4137 24.9543L16.3914 24.9466C16.0904 24.8428 15.7959 24.7202 15.5097 24.5794C15.1858 24.4193 14.8744 24.2342 14.5781 24.026C14.1162 23.7011 13.6827 23.3567 13.2951 23.023C12.9076 22.6894 12.5648 22.3688 12.2806 22.0903L12.2773 22.087V22.0816C12.2837 21.9289 12.2912 21.7675 12.2997 21.5963C12.3072 21.4328 12.3156 21.2605 12.3252 21.0808L12.3273 21.0591L12.3445 21.0722C12.5515 21.2293 12.7745 21.3905 13.0077 21.5465C13.2409 21.7025 13.4837 21.8552 13.7307 21.995C14.0108 22.152 14.3332 22.3109 14.6739 22.4661C15.0147 22.6214 15.3725 22.7727 15.7239 22.9146L15.7292 22.9167L15.7313 22.9221C15.8366 23.249 15.9441 23.5736 16.0504 23.8934ZM13.4877 19.5641C13.0639 19.3778 12.7019 19.2088 12.4634 19.095L12.456 19.0907L12.457 19.0832C12.4687 18.9434 12.4804 18.8005 12.4932 18.6553C12.506 18.5145 12.5187 18.3758 12.5315 18.2416L12.5326 18.2254L12.5473 18.2318C12.7869 18.3314 13.1127 18.4274 13.4726 18.5177C13.8325 18.6079 14.2253 18.691 14.6001 18.7624L14.6076 18.7645L14.6096 18.7722C14.6289 18.8728 14.6481 18.9703 14.6661 19.0667C14.6841 19.1632 14.7054 19.2623 14.7267 19.3657C14.7502 19.4816 14.7769 19.6039 14.8066 19.7318C14.8363 19.8597 14.8694 19.9928 14.9036 20.1282L14.9089 20.1499L14.8887 20.1424C14.3992 19.9561 13.9125 19.7515 13.4878 19.5641H13.4877Z" fill="#FFC972"/>
<path d="M12.7488 16.1287C12.7584 16.0573 12.7671 15.989 12.7755 15.9219L12.7778 15.9111L12.7906 15.9121C12.9541 15.9338 13.1696 15.9469 13.404 15.9533C13.6385 15.9598 13.8921 15.9619 14.1326 15.9609H14.1433L14.1443 15.9717C14.1647 16.1266 14.1881 16.2924 14.2139 16.4681C14.2363 16.6294 14.2621 16.7963 14.2882 16.9673L14.2903 16.9823L14.2754 16.9813C14.1565 16.9672 14.0348 16.9498 13.9103 16.9292L13.8611 16.2438L12.7488 16.1287ZM12.4855 18.5125C12.5775 18.5644 12.7274 18.6371 12.9693 18.7334C13.6888 19.0203 14.2133 19.0342 14.2133 19.0342L14.2625 19.8985C14.4648 19.9808 14.6725 20.0631 14.8813 20.1422L14.9016 20.1497L14.8963 20.128C14.8619 19.9926 14.8288 19.8595 14.7987 19.7317C14.7687 19.6038 14.7421 19.4815 14.7185 19.3656C14.6971 19.2627 14.6767 19.1631 14.6575 19.0667C14.6394 18.9703 14.62 18.8728 14.6007 18.7722L14.5986 18.7645L14.5912 18.7624C14.2143 18.691 13.8181 18.6075 13.4575 18.5177C13.097 18.4279 12.7681 18.3313 12.5273 18.2318L12.5124 18.2254L12.5113 18.2417C12.503 18.3306 12.4945 18.4205 12.4859 18.5125H12.4855ZM12.2773 21.5839C12.5804 21.8514 13.2419 22.4049 13.8124 22.6648C14.5801 23.0145 14.8637 23.0352 14.8637 23.0352L15.1324 23.1186L15.5209 24.5871C15.8033 24.7253 16.094 24.8454 16.3912 24.9467L16.4137 24.9543L16.4052 24.9315C16.2895 24.598 16.1697 24.2492 16.0484 23.8936C15.9413 23.5741 15.8333 23.2492 15.7273 22.9231L15.7252 22.9177L15.7198 22.9156C15.3666 22.7737 15.0061 22.6231 14.6642 22.4672C14.3222 22.3112 13.9974 22.1531 13.7158 21.9961C13.4675 21.8563 13.2234 21.7047 12.9889 21.5477C12.7545 21.3906 12.5308 21.2304 12.3221 21.0734L12.3049 21.0603L12.3027 21.082C12.2953 21.2567 12.2858 21.4248 12.2783 21.5839H12.2773Z" fill="#AD4C21"/>
<path d="M21.9117 21.3097C22.0779 21.1397 22.2268 20.9823 22.3452 20.8525L22.3538 20.8437L22.3623 20.8525C22.471 20.9445 22.5828 21.0377 22.6945 21.1283C22.8063 21.2189 22.915 21.3097 23.0229 21.394L23.0315 21.4017L23.0266 21.4116C22.8789 21.7076 22.6945 22.0551 22.4808 22.4167C22.3112 22.7051 22.1206 23.0035 21.9142 23.2912L21.9008 23.3101L21.8604 23.2118C21.7689 22.9877 21.6834 22.7598 21.6028 22.5318C21.5223 22.3037 21.4477 22.0796 21.3793 21.858L21.377 21.8505L21.383 21.8442C21.565 21.6635 21.7467 21.4797 21.9117 21.3097Z" fill="#FFC972"/>
<path d="M21.9117 21.37C22.0779 21.178 22.2268 21.0002 22.3452 20.8536L22.3538 20.8437L22.3623 20.8536C22.471 20.9575 22.5828 21.0628 22.6945 21.1651C22.8063 21.2675 22.915 21.37 23.0229 21.4652L23.0315 21.4739L23.0266 21.4852C22.9777 21.5948 22.9248 21.7114 22.869 21.8323L22.4148 21.39L21.5223 22.488C21.4714 22.3216 21.4246 22.1551 21.3793 21.9901L21.377 21.9816L21.383 21.9745C21.565 21.7697 21.7467 21.562 21.9117 21.37Z" fill="#AD4C21"/>
<path d="M14.5535 12.1496C14.6878 12.3694 14.7593 12.6278 14.7592 12.8922C14.7592 13.6513 14.1779 14.2668 13.4625 14.2668C12.9341 14.2668 12.4796 13.9312 12.2773 13.4509C12.3976 13.6463 12.5601 13.8061 12.7504 13.9163C12.9407 14.0264 13.1529 14.0833 13.3682 14.0821C14.0845 14.0821 14.6648 13.4665 14.6648 12.7074C14.665 12.5149 14.6271 12.3246 14.5535 12.1496ZM13.4625 11.9844C13.5991 11.9838 13.7338 12.0186 13.8556 12.0859C13.9775 12.1532 14.0831 12.2511 14.1637 12.3717C14.0382 12.037 13.7287 11.8005 13.3682 11.8005C12.8954 11.8005 12.5123 12.2064 12.5123 12.7073C12.5121 12.8942 12.5659 13.0765 12.6661 13.2278C12.6263 13.1213 12.6058 13.0073 12.6058 12.8922C12.6061 12.3913 12.9898 11.9844 13.4625 11.9844Z" fill="#AD4C21"/>
<path d="M13.5192 12.2115C13.9761 12.2115 14.346 12.579 14.346 13.0337C14.346 13.4882 13.9756 13.8558 13.5192 13.8558C13.0629 13.8558 12.6914 13.4881 12.6914 13.0337C12.6914 13.011 12.6927 12.9884 12.6938 12.9659C12.726 13.318 13.0242 13.5938 13.3872 13.5938C13.772 13.5938 14.0828 13.2845 14.0828 12.9026C14.0828 12.542 13.8046 12.2457 13.4497 12.2137C13.4729 12.2127 13.496 12.2115 13.5192 12.2115Z" fill="#AD4C21"/>
<path d="M13.3158 11.8005C14.0622 11.8005 14.6764 12.3452 14.7587 13.0469C14.613 12.4366 14.0474 11.9826 13.3719 11.9826C12.5864 11.9826 11.949 12.5985 11.949 13.3584C11.949 13.5734 12.0008 13.7852 12.1001 13.976C11.9455 13.749 11.863 13.4808 11.8633 13.2063C11.8633 12.4297 12.5134 11.8005 13.3158 11.8005ZM14.265 13.0727C14.2714 13.1168 14.2746 13.1612 14.2745 13.2057C14.2745 13.7178 13.8454 14.1338 13.3156 14.1338C13.1528 14.1349 12.9925 14.0948 12.8494 14.0172C12.7063 13.9397 12.5852 13.8273 12.4974 13.6903C12.6348 14.0276 12.9743 14.2668 13.3717 14.2668C13.8907 14.2668 14.3114 13.8603 14.3114 13.3576C14.3117 13.2608 14.296 13.1645 14.265 13.0727Z" fill="white"/>
<path d="M16.4172 11.8052C16.3032 11.659 18.5994 14.9969 20.1358 14.1197C18.9324 13.5887 17.2387 12.8567 16.4172 11.8052Z" fill="#FFC972"/>
<path d="M22.6182 14.6055C22.6182 14.6055 23.0006 14.2895 23.2068 14.0308C23.4131 13.7722 23.4454 13.4447 23.4454 13.4447C23.4454 13.4447 23.4484 13.7514 23.227 14.1659C23.0055 14.5804 22.8597 14.6747 22.7926 14.6777C22.7255 14.6808 22.6182 14.6055 22.6182 14.6055Z" fill="#FFC972"/>
<path d="M21.0132 28.7785L20.2715 29.887L19.9979 29.7581L19.0974 29.3251C14.1847 26.8567 8.72361 21.7903 6.48633 16.1799L7.06548 15.5C9.15325 21.1775 14.7967 26.4039 19.7666 28.7984L19.781 28.8506C19.781 28.8506 19.7909 28.84 19.8084 28.8187C19.8469 28.8377 19.8864 28.857 19.926 28.875L20.3447 28.3674C21.0522 27.4724 22.0731 26.007 23.818 22.975C24.1027 22.4812 24.3729 21.965 24.6269 21.4479L25.0999 22.2673C24.9089 22.6312 24.7105 22.9912 24.5048 23.3475C23.4565 25.1695 22.3611 27.0574 21.0567 28.7207C21.0429 28.7402 21.0275 28.7593 21.0132 28.7785Z" fill="#0B121D"/>
<path d="M27.5826 22.4926L26.6427 24.6101H26.6416C26.645 24.6434 26.6471 24.6768 26.6471 24.7112C26.6455 24.8658 26.6107 25.0186 26.5447 25.1613L26.1352 26.0658C26.0279 26.306 25.8579 26.5193 25.6398 26.6876C25.3815 26.8868 25.0745 27.0096 24.7322 27.0096H4.41895L6.9281 23.7118L5.78022 22.488C13.0552 22.5122 20.3179 22.4926 27.5826 22.4926Z" fill="#0B121D"/>
<path d="M10.9328 22.914L9.32285 26.5986L8.04794 26.5773L8.43179 25.6668L7.58788 25.6179L6.98361 26.5773H5.65918L7.77087 23.5748L7.18628 22.9005L10.9328 22.914ZM9.27496 23.7363L8.72735 23.7266L8.09702 24.6828L8.85171 24.6902L9.27496 23.7363ZM14.4851 23.6851L13.6105 25.837C13.4959 26.1168 13.3726 26.295 13.2658 26.3891C13.1241 26.5135 12.9174 26.5773 12.6397 26.5773H12.103L11.6516 24.7042L10.8848 26.5773H9.65885L11.2294 22.9002H12.3671L12.8327 24.7271L13.5625 22.8998H14.8157L14.4851 23.6851ZM18.3092 22.9002L17.0519 25.9061C16.9789 26.0859 16.8447 26.2326 16.68 26.3615C16.4956 26.5061 16.307 26.5773 16.116 26.5773H14.3031L13.8276 26.0168L14.8576 23.4746L15.0408 22.9002H16.3496L15.1444 25.8242H15.8327L16.9245 23.2536L16.6093 22.899L18.3092 22.9002ZM21.6085 23.4703L21.2988 24.2468C21.2399 24.3935 21.1308 24.5021 20.9738 24.569C20.8635 24.6158 20.6924 24.65 20.46 24.6744C20.7895 24.7414 20.9452 24.9039 20.9269 25.1619L20.6106 25.9341C20.5417 26.1028 20.4321 26.2528 20.2909 26.3712C20.1285 26.5095 19.9577 26.578 19.7827 26.578H17.0233L18.3604 23.4668L18.5725 22.9009H21.0821L21.6085 23.4703ZM20.2769 23.6714H19.5515L19.269 24.3648H19.9899L20.2769 23.6714ZM19.7164 25.0669H18.9779L18.6628 25.8433H19.3967L19.7164 25.0669ZM23.3746 22.9002L23.0867 23.6129L21.8881 26.5528C21.803 26.5694 21.7164 26.5776 21.6296 26.5771H20.5891L21.9405 23.4659L21.4268 22.9001L23.3746 22.9002ZM26.7546 22.9002L26.3129 23.9787H25.2113L25.3378 23.6671H24.6136L24.3169 24.3648H25.6868C25.9714 24.3648 26.1143 24.4745 26.1143 24.6956C26.1131 24.7845 26.0942 24.8723 26.0587 24.9542L25.6487 25.9327C25.5787 26.1035 25.4672 26.255 25.3236 26.3742C25.1633 26.5092 24.9953 26.5773 24.8197 26.5773H22.2401L22.7014 25.4477H23.911L23.7704 25.8023H24.4531L24.764 25.045H23.5401L23.008 24.4612L23.4224 23.438C23.4868 23.2784 23.6328 23.1475 23.8554 23.0432C24.0561 22.9487 24.2539 22.9012 24.4487 22.9008L26.7546 22.9002Z" fill="white"/>
<path d="M10.5296 23.3224L7.26584 23.3111L7.72318 23.8085L5.65918 26.579H6.63085L7.25357 25.6462L8.43208 25.71L8.04185 26.5831L9.01349 26.5986L10.5296 23.3224ZM9.30424 23.8342L8.73617 25.0439L7.5733 25.0325L8.42092 23.8187L9.30424 23.8342ZM14.5123 23.3101H13.5709L12.6818 25.4104L12.1139 23.3101H11.176L9.69665 26.579H10.6102L11.542 24.4313L12.0909 26.579H12.5158C12.6992 26.579 12.9117 26.5522 13.0525 26.4348C13.1867 26.3226 13.2985 26.106 13.3645 25.954L14.2638 23.8702L14.5123 23.3101ZM18.0936 23.3101H16.9308L17.0919 23.48L15.8961 26.1404H14.8524L16.0879 23.3101H15.094L14.9396 23.7693L13.9147 26.1547L14.2959 26.579H16.0807C16.2609 26.579 16.4224 26.5049 16.5604 26.403C16.6985 26.301 16.8277 26.1754 16.8948 26.0209L18.0936 23.3101ZM21.5297 23.7477L21.1003 23.3101H18.7087L18.5275 23.7651L17.2462 26.579H19.8396C19.9995 26.579 20.1393 26.51 20.2578 26.4153C20.3834 26.3156 20.4812 26.1895 20.5429 26.0478L20.856 25.3229C20.8605 25.1293 20.695 25.0613 20.5016 25.0243L19.531 24.8369L20.5171 24.7381C20.6614 24.7238 20.8637 24.701 20.9986 24.6475C21.116 24.6 21.2004 24.526 21.248 24.4159L21.5297 23.7477ZM20.578 23.7661L20.1577 24.7268H19.081L19.4959 23.7661H20.578ZM20.0045 25.117L19.5494 26.1579H18.4592L18.9064 25.117H20.0045ZM23.2896 23.3101H21.8739L22.2341 23.6849L20.9023 26.579H21.732C21.7825 26.5793 21.8329 26.5766 21.8829 26.5707L23.0787 23.8012L23.2896 23.3101ZM26.7546 23.3101H24.6218C24.4318 23.3101 24.2507 23.3584 24.0817 23.4326C23.9364 23.4974 23.7766 23.5942 23.7151 23.7384L23.3259 24.6464L23.7608 25.0954H25.1762L24.7324 26.1177H23.6958L23.8412 25.7759H22.9378L22.59 26.579H25.0019C25.1606 26.579 25.2982 26.511 25.4166 26.4184C25.5443 26.3174 25.6437 26.1895 25.7063 26.0456L26.1256 25.0984C26.1548 25.0366 26.1707 24.9702 26.1721 24.9028C26.1721 24.8667 26.1665 24.8226 26.1411 24.7927C26.0908 24.7355 25.9622 24.7268 25.8906 24.7268H24.2513L24.6861 23.7621H25.7651L25.6354 24.0647H26.426L26.7546 23.3101Z" fill="white"/>
<path d="M7.02994 24.9543L5.65918 26.5796H6.72754L7.41222 25.674L8.708 25.7361L8.27907 26.5836L9.34727 26.5986L10.2092 24.9543H9.11367L9.04248 25.0893L7.76395 25.0783L7.86092 24.9543H7.02994Z" fill="#849EB5"/>
<path d="M10.7816 24.9543H11.4499L10.9 26.5986H10.209L10.7816 24.9543Z" fill="#849EB5"/>
<path d="M11.8633 24.9543H12.7105L12.8415 25.4508L13.0467 24.9543H13.9315L13.4976 25.9847C13.4342 26.1334 13.3269 26.3467 13.198 26.457C13.0628 26.5723 12.8588 26.5986 12.6826 26.5986H12.2746L11.8633 24.9543Z" fill="#849EB5"/>
<path d="M14.4434 24.9543H15.3388L14.8257 26.1683H15.819L16.3484 24.9543H17.2407L16.77 26.0502C16.7061 26.2021 16.5837 26.3245 16.4516 26.4256C16.3195 26.5268 16.1663 26.5986 15.9947 26.5986H14.2947L13.9316 26.1817L14.4434 24.9543Z" fill="#849EB5"/>
<path d="M17.9407 24.9543H19.6616L20.2254 25.0716C20.4026 25.108 20.5544 25.1747 20.5502 25.3649L20.2632 26.0768C20.2067 26.2161 20.117 26.3399 20.0018 26.4378C19.8933 26.5309 19.7651 26.5986 19.6185 26.5986H17.2412L17.9407 24.9543Z" fill="#849EB5"/>
<path d="M21.4868 24.9543H22.618L21.7423 26.5904C21.6815 26.5962 21.6201 26.5989 21.5588 26.5985H20.5498L21.4868 24.9543Z" fill="#849EB5"/>
<path d="M23.5302 24.9543H25.9273C25.9254 25.0198 25.9108 25.0843 25.8842 25.1444L25.4969 26.0747C25.4391 26.216 25.3474 26.3416 25.2294 26.4408C25.12 26.5319 24.9929 26.5986 24.8463 26.5986H22.6182L22.9395 25.8098H23.7739L23.6396 26.1455H24.5971L25.0071 25.1414H23.6996L23.5302 24.9543Z" fill="#849EB5"/>
<path d="M19.7224 24.9543L19.357 26.1875H18.4814L18.8405 24.9543H19.7224Z" fill="#0B121D"/>
</g>
<defs>
<clipPath id="clip0">
<rect width="32" height="32" fill="white"/>
</clipPath>
</defs>
</svg>
