<svg width="256" height="256" viewBox="0 0 256 256" fill="none" xmlns="http://www.w3.org/2000/svg">
<g clip-path="url(#clip0)">
<path d="M177.555 220.106C176.294 221.955 175.008 223.789 173.671 225.622C172.283 227.537 170.827 229.464 169.302 231.401L169.157 231.582V231.59L169.029 231.754L161.646 242.746C157.66 240.871 153.572 239.005 149.646 237.037H149.638C144.885 234.661 140.185 232.038 135.552 229.211C130.876 226.358 126.306 223.321 121.841 220.102H31.4219L53.3255 189.283L41.1305 175.353L48.8295 175.379C53.5053 175.403 58.1796 175.411 62.8555 175.428L74.957 175.451C62.4296 159.581 52.4064 142.134 46.8057 124.13C41.645 107.549 40.2398 90.4911 44.0852 73.753L45.3863 68.0807L51.2284 66.7106C52.6596 66.3681 54.1154 66.1022 55.58 65.8805C57.0701 65.6521 58.518 65.4696 59.9325 65.3096C63.5259 64.8988 67.1565 64.6299 70.8239 64.5036C74.4612 64.3722 78.1068 64.3803 81.7428 64.4956C84.2268 64.5778 86.6739 64.7092 89.0927 64.8907C91.2469 65.043 93.3931 65.2399 95.5309 65.4821C95.9494 62.0567 96.7105 58.6784 97.8043 55.3946C99.0916 51.5402 100.745 47.8086 102.744 44.2475C106.917 36.7589 112.239 30.0419 118.721 24.6745C124.707 19.717 131.674 15.9115 139.637 13.7239L144.979 12.2545L144.137 17.5477C143.626 20.7297 142.944 23.9415 142.263 27.1578C141.377 31.3342 140.489 35.5018 139.98 39.7172C139.818 41.0655 139.699 42.4048 139.625 43.7293C139.552 45.0539 139.549 46.4009 139.599 47.7324C139.642 48.6776 139.71 49.623 139.804 50.5604C139.897 51.4978 140.017 52.4339 140.159 53.3967C140.457 55.4267 140.832 57.4406 141.249 59.4227C141.658 61.3785 142.135 63.4008 142.62 65.4317C142.722 65.8667 142.902 66.6068 143.08 67.3386C143.413 68.7088 143.753 70.0924 144.068 71.531C144.298 71.4979 144.553 71.4661 144.861 71.4249L145.669 71.3106C146.887 71.1291 148.272 70.9328 149.425 70.9328C151.333 70.9328 153.436 71.2855 155.522 71.804C157.337 72.2608 159.134 72.8394 160.778 73.4231C166.857 66.6409 173.978 62.5148 181.832 59.9252C189.812 57.2989 198.51 56.2578 207.628 55.6172L212.661 55.2747L212.125 57.1415L212.397 57.7911L211.844 58.103L211.308 59.9698C210.953 61.2256 210.55 62.4817 210.141 63.7374C209.698 65.0619 209.272 66.2859 208.855 67.454C207.908 70.1004 206.896 72.7482 205.789 75.3696C204.682 77.9913 203.506 80.5578 202.212 83.0982C201.547 84.3964 200.849 85.6958 200.099 86.9802C199.349 88.2646 198.584 89.5287 197.757 90.7536C196.565 92.5211 195.273 94.3217 193.891 96.0642C192.739 97.5288 191.511 98.9362 190.212 100.282C193.099 102.114 195.927 104.013 198.643 106.003C201.683 108.223 204.621 110.57 207.407 113.048C209.919 115.292 213.002 118.326 215.557 121.565C217.49 124.022 219.117 126.596 219.952 129.029L220.769 131.427L220.786 131.945L220.113 134.378C219.322 137.247 218.401 140.125 217.414 143.002C216.408 145.912 215.362 148.723 214.313 151.486C212.657 155.802 210.895 160.096 209.025 164.367C207.381 168.092 205.652 171.786 203.838 175.449L210.83 175.441H224.576L215.557 197.209V197.234C215.555 197.305 215.558 197.377 215.566 197.447C215.564 198.304 215.472 199.157 215.293 199.996C215.107 200.854 214.842 201.695 214.501 202.508L211.298 210.08C210.77 211.333 210.09 212.521 209.272 213.62C208.456 214.714 207.506 215.711 206.444 216.588C205.119 217.702 203.607 218.591 201.973 219.214C200.396 219.808 198.718 220.112 197.025 220.11L177.555 220.106Z" fill="white"/>
<path d="M166.473 230.861L160.653 239.544L158.506 238.535L151.44 235.143C96.0364 207.354 31.7115 137.519 46.4307 73.4249L47.269 69.799L51.0031 68.9156C53.6929 68.2824 56.6508 67.8818 59.3859 67.5657C66.5093 66.74 73.7688 66.5319 80.9254 66.7657C105.706 67.5576 130.229 73.7584 152.734 83.695C170.577 91.5675 191.277 102.067 205.823 115.062C209.712 118.535 215.825 124.756 217.549 129.808L218.136 131.5L217.657 133.226C216.079 138.918 213.975 144.753 211.872 150.272C206.896 163.325 200.895 176.163 193.884 188.324C185.658 202.596 177.062 217.383 166.827 230.411C166.707 230.561 166.586 230.711 166.473 230.861Z" fill="#0B121D"/>
<path d="M52.7212 71.9651C38.601 135.238 102.787 205.8 156.797 232.526L156.91 232.945C156.91 232.945 156.987 232.86 157.125 232.688C157.426 232.842 157.736 232.996 158.046 233.142L161.327 229.057C166.871 221.856 174.869 210.064 188.542 185.667C202.215 161.27 211.703 130.482 211.703 130.482C211.703 130.482 205.508 111.844 150.271 86.7618C95.0346 61.6799 52.7212 71.9651 52.7212 71.9651Z" fill="#94CB53"/>
<path d="M188.121 172.457C189.494 173.456 192.006 175.331 193.405 176.299L196.685 178.573L160.74 233.984C156.034 233.134 151.701 232.267 147.687 231.376C140.204 227.134 128.963 220.266 114.133 209.886C92.6216 194.842 72.6809 164.616 63.6172 149.651L72.1019 132.227C73.7503 128.761 75.5382 125.337 77.4286 122.229C79.3627 119.038 81.3133 115.854 83.2124 112.646L93.1562 93.4481L99.4255 80.8082C95.8 69.0932 99.0803 56.3354 105.106 45.5369C112.867 31.5962 124.598 20.6148 140.309 16.2982C138.556 27.2634 135.273 36.9961 135.691 47.5527C135.779 49.5888 135.975 51.6188 136.278 53.6352C136.891 57.8443 137.837 62.0106 138.825 66.1431C139.403 68.5422 140.024 70.9924 140.542 73.4422L141.021 75.442C142.263 75.309 148.022 74.4166 149.239 74.4166C152.786 74.4166 157.586 75.9997 160.944 77.259L161.877 77.606C173.797 62.8243 190.571 60.1415 208.482 58.8835C208.482 58.8835 203.225 77.1687 195.197 89.1221C190.924 95.4871 187.317 99.1291 184.873 101.145C185.72 102.074 186.49 103.066 187.177 104.111C188.214 105.745 189.241 107.37 190.285 108.995L190.484 109.303L190.648 109.636C191.555 111.495 193.152 114.627 193.436 116.56C193.462 116.744 193.489 116.935 193.505 117.119L194.256 117.135L191.175 127.551L208.361 153.948C208.261 166.758 197.625 168.812 188.121 172.457Z" fill="#0B121D"/>
<path d="M172.615 116.626C172.615 116.626 173.694 111.091 171.015 104.999C170.052 102.828 168.48 100.935 166.858 99.3901L162.785 98.239L165.76 103.156C165.76 103.156 160.725 98.2599 151.293 96.6357C141.861 95.0114 136.727 92.2863 136.727 92.2863C136.727 92.2863 139.778 96.5258 144.706 98.0999C149.634 99.674 155.208 100.06 159.978 102.391C164.748 104.722 167.262 111.309 167.262 111.309C167.262 111.309 164.964 106.193 159.231 103.645C153.498 101.096 151.301 101.684 144.175 100.169C137.049 98.655 133.831 93.9176 133.831 93.9176C135.307 103.771 150.911 105.394 156.743 108.962C158.17 109.577 159.323 110.442 160.517 111.52C163.404 114.128 166.673 117.233 166.673 117.233C166.673 117.233 166.888 115.322 165.602 113.237C164.317 111.15 163.272 110.274 163.272 110.274C163.272 110.274 166.3 112.285 167.801 114.481C169.302 116.677 169.385 117.502 170.43 117.612C171.475 117.722 172.615 116.626 172.615 116.626ZM180.48 121.474L180.347 120.783C180.347 120.783 182.131 120.186 183.79 117.814C185.449 115.442 185.208 113.573 185.208 113.573C185.208 113.573 186.395 115.062 185.988 118.537C185.581 122.012 183.64 125.386 183.64 125.386L180.48 121.474ZM127.098 111.335C127.995 109.803 129.347 107.759 130.997 106.151C134.05 103.173 136.929 102.357 136.929 102.357C136.929 102.357 141.999 114.801 149.803 118.016C157.485 121.18 162.462 118.933 162.62 118.867C161.464 119.472 160.226 119.898 158.946 120.129C160.986 119.428 162.595 118.875 162.62 118.867C163.131 118.605 163.617 118.295 164.071 117.941C164.071 117.941 164.287 121.575 159.578 124.352C154.869 127.128 150.195 126.145 150.195 126.145C150.195 126.145 153.464 127.449 158.715 126.145C163.966 124.84 164.555 123.915 164.555 123.915L181.063 138.858L167.506 120.489C167.506 120.489 168.683 119.454 170.21 119.16C171.736 118.866 172.242 119.757 172.242 119.757C172.242 119.757 171.811 118.856 172.588 118.453C173.364 118.05 177.299 119.244 177.299 119.244L198.826 148.474L195.5 147.767L194.645 148.095L178.088 127.388L193.194 148.263C193.194 148.263 189.445 149.946 188.914 150.055C188.382 150.164 184.949 147.388 184.949 147.388L187.628 151.082C187.628 151.082 189.395 154.396 190.548 155.844C191.702 157.292 191.643 156.87 191.643 156.87C191.643 156.87 191.297 157.745 186.824 158.124C182.35 158.503 177.873 156.163 177.873 156.163C177.873 156.163 181.414 158.394 184.89 158.907C188.366 159.42 192.05 157.687 192.05 157.687C192.05 157.687 189.129 159.403 185.828 159.614C182.527 159.824 178.436 157.577 178.436 157.577C178.436 157.577 181.705 160.382 186.475 160.077C191.244 159.772 192.498 158.663 192.498 158.663C192.498 158.663 191.378 159.722 188.026 160.379C184.675 161.036 179.639 159.403 179.639 159.403C179.639 159.403 181.862 160.976 185.621 161.002C189.379 161.028 192.771 159.26 192.771 159.26C192.771 159.26 189.611 161.818 184.6 161.573C179.589 161.329 163.621 148.558 158.428 144.594C153.235 140.63 152.746 138.78 150.547 138.78C148.349 138.78 148.565 141.549 150.929 142.903C153.293 144.257 156.279 145.411 161.644 149.213C167.008 153.016 178.898 162.465 184.955 163.12C191.011 163.774 194.005 160.73 194.005 160.73C194.005 160.73 192.022 163.633 186.373 163.935C180.724 164.238 176.243 161.815 176.243 161.815C176.243 161.815 180.906 164.474 185.378 164.727C189.849 164.979 192.263 163.524 192.263 163.524C192.263 163.524 185.435 167.058 179.164 165.534C172.893 164.01 163.312 156.136 160.417 153.965C157.521 151.794 157.413 151.677 157.413 151.677C157.413 151.677 164.564 156.702 169.948 159.857C175.332 163.012 177.347 163.913 177.347 163.913C177.347 163.913 163.336 154.564 157.438 150.484C151.541 146.403 151.2 146.193 151.2 146.193C151.2 146.193 150.739 146.631 151.225 147.691C151.711 148.751 152.005 149.155 152.005 149.155C152.005 149.155 147.715 148.314 146.538 143.429C145.361 138.544 149.325 136.74 149.325 136.74C149.325 136.74 148.519 136.58 147.318 137.261C146.118 137.943 145.924 138.566 145.924 138.566C146.005 137.762 146.303 136.998 146.785 136.355C147.266 135.713 147.913 135.216 148.653 134.922C151.25 133.862 152.27 134.485 152.27 134.485C152.27 134.485 150.587 133.483 147.824 134.595C145.061 135.706 144.605 136.773 144.158 139.491C143.711 142.209 144.713 144.758 144.713 144.758C144.713 144.758 143.427 143.967 141.287 140.711C139.146 137.455 138.982 134.897 138.982 134.897C138.982 134.897 137.97 136.58 139.845 140.223C141.721 143.865 145.196 145.877 145.196 145.877C145.196 145.877 143.113 145.818 139.148 142.175C135.184 138.533 134.644 130.386 134.644 130.386C134.644 130.386 133.682 131.961 134.112 134.679C134.543 137.397 134.91 138.481 134.91 138.481C134.91 138.481 128.754 134.569 125.701 125.819C122.648 117.068 128.201 113.051 128.201 113.051L125.896 113.589C126.228 112.802 126.63 112.047 127.098 111.335ZM136.929 102.357C136.929 102.357 136.896 102.441 136.847 102.591L136.929 102.357ZM198.174 155.431C198.174 155.431 197.062 157.593 196.606 158.032C196.15 158.47 195.727 158.478 195.727 158.478C196.047 158.537 196.372 158.559 196.697 158.545C197.01 158.535 197.312 158.426 197.56 158.234C197.487 158.384 197.381 158.516 197.25 158.62C197.119 158.723 196.968 158.795 196.805 158.831C196.23 158.983 195.967 158.941 195.967 158.941L196.796 160.858C196.796 160.858 196.971 161.128 197.718 159.007C198.465 156.886 198.174 155.431 198.174 155.431Z" fill="#747E87"/>
<path d="M140.588 115.628L140.652 115.687L140.707 115.741C140.911 115.949 141.132 116.158 141.347 116.379L141.366 116.394L141.375 116.408C142.895 117.859 144.801 119.452 146.793 120.504C151.316 122.879 155 123.126 155 123.126L155.672 123.157C156.416 123.25 157.168 123.288 157.92 123.269C157.92 123.269 157.442 124 151.675 124.922C145.908 125.845 143.282 125.456 143.282 125.456C143.282 125.456 145.124 127.439 153.158 128.506C161.192 129.574 166.783 127.538 166.783 127.538L185.945 140.305L172.081 122.105C172.081 122.105 172.976 121.478 173.776 121.646C174.575 121.814 175.59 122.495 175.59 122.495C175.59 122.495 175.028 121.045 175.147 120.234C175.193 119.954 175.316 119.687 175.507 119.452C174.853 119.376 174.3 119.362 174.052 119.467C173.186 119.827 173.668 120.632 173.668 120.632C173.668 120.632 173.107 119.827 171.411 120.099C169.716 120.37 168.408 121.285 168.408 121.285L183.462 137.69L165.129 124.344C165.129 124.344 164.475 125.171 158.643 126.336C152.811 127.5 149.181 126.336 149.181 126.336C149.181 126.336 154.359 127.207 159.602 124.735C161.425 123.87 162.587 122.908 163.323 122.03C164.695 120.384 164.594 119.009 164.594 119.009C164.594 119.009 163.811 119.445 162.144 119.903C160.504 120.346 157.648 120.571 157.547 120.579C155.226 120.579 152.24 120.226 148.749 119.076C140.08 116.206 134.452 105.091 134.452 105.091C134.452 105.091 133.844 108.79 140.588 115.628Z" fill="#384A59"/>
<path d="M131.215 135.59C131.403 134.184 131.728 132.219 132.224 130.593L133.115 127.72C133.115 127.72 134.33 132.061 135.211 133.922L136.093 135.791L137.035 130.882C137.035 130.882 137.976 133.249 139.14 135.678C140.304 138.106 141.125 139.057 141.125 139.057C141.125 139.057 140.68 135.175 144.66 132.628C148.64 130.08 154.006 133.755 154.006 133.755L149.641 134.435L151.516 135.502L149.197 136.411C149.197 136.411 152.457 136.008 155.497 139.283C158.536 142.559 165.785 147.913 170.646 151.809C175.506 155.704 177.331 156.718 177.331 156.718L175.679 153.949C175.679 153.949 179.547 155.984 183.75 156.15C187.953 156.316 189.33 155.416 189.33 155.416L182.919 145.266C182.919 145.266 187.781 147.861 189.057 147.747C190.332 147.633 191.983 146.559 191.983 146.559L179.171 127.5L193.618 147.591C193.618 147.591 189.75 149.337 189.202 149.45C188.654 149.563 185.111 146.682 185.111 146.682L187.875 150.517C187.875 150.517 189.699 153.957 190.889 155.46C192.078 156.963 192.018 156.525 192.018 156.525C192.018 156.525 191.661 157.434 187.045 157.827C182.43 158.22 177.81 155.791 177.81 155.791C177.81 155.791 181.464 158.107 185.051 158.64C188.637 159.172 192.437 157.373 192.437 157.373C192.437 157.373 189.424 159.155 186.018 159.373C182.612 159.592 178.391 157.259 178.391 157.259C178.391 157.259 181.764 160.17 186.685 159.854C191.606 159.537 192.9 158.386 192.9 158.386C192.9 158.386 191.744 159.486 188.286 160.168C184.829 160.85 179.632 159.155 179.632 159.155C179.632 159.155 181.927 160.788 185.804 160.815C189.682 160.842 193.181 159.006 193.181 159.006C193.181 159.006 189.921 161.661 184.751 161.408C179.582 161.154 163.106 147.896 157.748 143.781C152.391 139.666 151.886 137.746 149.617 137.746C147.349 137.746 147.572 140.62 150.011 142.026C152.45 143.432 155.531 144.629 161.066 148.577C166.601 152.524 178.868 162.333 185.117 163.013C191.366 163.692 194.455 160.532 194.455 160.532C194.455 160.532 192.409 163.546 186.581 163.86C180.752 164.174 176.129 161.659 176.129 161.659C176.129 161.659 180.94 164.419 185.553 164.681C190.167 164.943 192.657 163.433 192.657 163.433C192.657 163.433 185.613 167.101 179.143 165.519C172.673 163.937 162.787 155.763 159.8 153.509C156.813 151.255 156.701 151.134 156.701 151.134C156.701 151.134 164.079 156.351 169.634 159.626C175.189 162.901 177.268 163.837 177.268 163.837C177.268 163.837 162.812 154.132 156.727 149.895C150.642 145.659 150.29 145.441 150.29 145.441C150.29 145.441 149.815 145.896 150.316 146.996C150.818 148.096 151.121 148.516 151.121 148.516C151.121 148.516 146.696 147.643 145.481 142.572C144.266 137.501 148.356 135.628 148.356 135.628C148.356 135.628 147.524 135.462 146.285 136.169C145.047 136.876 144.847 137.523 144.847 137.523C144.931 136.689 145.238 135.896 145.735 135.228C146.232 134.561 146.899 134.046 147.663 133.74C150.343 132.64 151.395 133.287 151.395 133.287C151.395 133.287 149.658 132.247 146.807 133.401C143.957 134.554 143.486 135.662 143.025 138.484C142.564 141.305 143.598 143.951 143.598 143.951C143.598 143.951 142.271 143.13 140.063 139.75C137.854 136.37 137.685 133.715 137.685 133.715C137.685 133.715 136.64 135.462 138.575 139.243C140.511 143.024 144.096 145.113 144.096 145.113C144.096 145.113 141.947 145.051 137.856 141.27C133.766 137.489 133.208 129.032 133.208 129.032C133.208 129.032 132.216 130.666 132.66 133.488C133.105 136.31 133.483 137.436 133.483 137.436C133.483 137.436 132.542 136.839 131.215 135.59ZM198.761 155.033C198.761 155.033 197.614 157.277 197.143 157.732C196.673 158.187 196.236 158.196 196.236 158.196C196.567 158.257 196.902 158.28 197.237 158.265C197.56 158.255 197.871 158.142 198.128 157.942C198.052 158.098 197.943 158.235 197.808 158.343C197.673 158.45 197.516 158.525 197.349 158.562C196.755 158.72 196.484 158.676 196.484 158.676L197.34 160.667C197.34 160.667 197.52 160.947 198.291 158.745C199.061 156.543 198.761 155.033 198.761 155.033Z" fill="#384A59"/>
<path d="M173.069 117.896L196.136 146.217L198.823 146.707L174.792 118.314C174.792 118.314 174.024 118.115 173.069 117.896Z" fill="white"/>
<path d="M134.442 108.495C134.442 108.495 131.451 109.159 130.013 110.042C128.575 110.924 127.678 112.504 127.678 112.504L130.297 112.353C130.297 112.353 126.064 115.949 126.591 124.253C127.097 132.338 130.5 136.86 130.681 137.104C128.373 134.222 126.613 130.733 125.531 126.892C123.041 118.152 127.576 114.142 127.576 114.142L125.701 114.68C125.701 114.68 127.099 110.286 129.759 109.033C132.419 107.781 134.442 108.495 134.442 108.495Z" fill="white"/>
<path d="M163.407 108.292C161.851 106.809 159.998 105.616 157.95 104.78C151.917 102.336 149.603 102.907 142.102 101.46C134.602 100.013 131.215 95.4874 131.215 95.4874C131.895 104.128 148.799 102.417 155.611 104.852C160.151 106.476 163.372 108.269 163.407 108.292Z" fill="white"/>
<path d="M172.839 117.025C172.839 117.025 173.992 112.127 171.126 106.736C170.096 104.815 168.414 103.14 166.678 101.773L162.321 100.755L163.377 102.192L166.253 102.669C166.253 102.669 167.46 103.509 169.324 106.54C171.188 109.571 172.333 114.565 171.729 115.433C171.125 116.3 169.981 116.103 169.981 116.103C169.981 116.103 168.232 113.46 166.395 112.059C164.558 110.659 160.545 109.275 160.545 109.275L162.073 111.628C162.073 111.628 159.693 108.821 151.43 107.981C150.32 107.86 149.334 107.774 148.447 107.72C151.376 108.56 154.048 109.328 155.843 110.236C157.371 110.78 158.605 111.546 159.882 112.499C162.971 114.807 166.469 117.554 166.469 117.554C166.469 117.554 166.699 115.864 165.323 114.018C163.948 112.172 162.83 111.397 162.83 111.397C162.83 111.397 166.069 113.176 167.676 115.119C169.282 117.062 169.371 117.792 170.489 117.889C171.607 117.987 172.839 117.025 172.839 117.025ZM141.248 97.6308C136.793 96.5151 134.438 95.4874 134.438 95.4874C134.438 95.4874 137.703 99.2387 142.976 100.632C148.248 102.025 154.213 102.366 159.316 104.428C162.325 105.65 164.494 108.174 165.77 110.042C165.77 110.042 164.198 106.371 160.702 104.115C157.206 101.859 152.101 101.897 146.42 100.504C142.909 99.6412 141.684 98.4352 141.248 97.6308Z" fill="#384A59"/>
<path d="M144.74 92.2863L144.097 92.887L160.114 98.6888L160.193 97.4574L144.74 92.2863Z" fill="#AA522A"/>
<path d="M144.094 91.7227L141.514 82.6824L140.875 83.6821L143.498 92.2862L144.094 91.7227Z" fill="#AA522A"/>
<path d="M141.392 78.7946L144.905 89.9998L159.773 94.5455L161.849 95.1861L162.866 95.4874L162.901 94.9329L163.41 87.2486L157.663 79.4259C156.565 78.9164 150.71 76.2799 147.791 76.2799C145.861 76.2799 143.519 76.6596 141.899 76.9744C141.518 77.0496 141.167 77.1161 140.875 77.1807L140.921 77.3313L141.392 78.7946Z" fill="#FFC972"/>
<path d="M160.761 94.85L161.849 95.1861L162.866 95.4874L162.901 94.9329L163.41 87.2486L157.663 79.4259C156.565 78.9164 150.71 76.2799 147.791 76.2799C145.861 76.2799 143.519 76.6596 141.899 76.9744C141.518 77.0496 141.167 77.1161 140.875 77.1807L140.921 77.3313L141.359 78.7313C142.585 78.677 143.931 78.6542 145.367 78.6876C152.037 78.8277 155.586 80.7157 155.586 80.7157C155.586 80.7157 151.159 80.2274 149.558 80.4773L147.965 80.7157C147.965 80.7157 153.995 81.5622 155.139 81.8773C156.282 82.1922 156.858 82.2991 156.858 82.2991L161.168 88.808L160.761 94.85Z" fill="#FFEAC7"/>
<path d="M172.424 116.644C172.424 116.644 172.612 113.619 173.44 111.871C174.267 110.124 180.058 109.926 180.058 109.926C180.058 109.926 176.493 109.005 174.266 109.258C172.038 109.512 171.913 109.568 171.913 109.568C171.913 109.568 170.583 103.667 168.672 101.254C166.76 98.8405 166.632 98.6885 166.632 98.6885C166.632 98.6885 169.558 100.182 171.913 101.977C174.267 103.771 175.288 104.645 175.288 104.645C175.288 104.645 174.964 103.211 173.693 101.516L172.424 99.8222C172.424 99.8222 177.577 103.046 179.803 105.977C182.029 108.908 183.368 110.638 183.368 110.638C183.368 110.638 183.762 111.321 184.245 112.183C183.698 112.897 182.629 114.049 180.718 115.105C180.373 115.297 180.048 115.481 179.744 115.657C177.882 116.209 176.148 117.896 176.148 117.896L172.424 116.644ZM184.874 113.335C185.397 114.296 185.859 115.217 185.909 115.519C186.037 116.234 185.85 116.393 185.278 116.393C185.101 116.393 184.795 116.289 184.391 116.154C184.72 115.237 184.883 114.287 184.876 113.333L184.874 113.335Z" fill="#747E87"/>
<path d="M175.656 103.501C175.314 102.807 174.881 102.14 174.362 101.508L172.97 99.8155C172.97 99.8155 178.612 103.039 181.05 105.969C183.487 108.899 184.954 110.63 184.954 110.63C186.702 112.146 186.281 112.496 182.581 114.82L182.57 114.836L182.56 114.844L182.537 114.851L182.506 114.868L182.495 114.875L182.483 114.883L182.462 114.891L182.452 114.9L182.419 114.915L182.408 114.923L182.344 114.955L182.333 114.962L182.257 115.002H182.248L182.238 115.01C182.211 115.028 182.182 115.044 182.151 115.058L182.053 115.106C181.676 115.297 181.32 115.481 180.987 115.657L180.889 115.68C180.859 115.695 180.827 115.705 180.792 115.713C180.761 115.72 180.731 115.731 180.705 115.744H180.695C180.665 115.753 180.636 115.764 180.609 115.776H180.6C180.573 115.788 180.544 115.799 180.515 115.807H180.504C180.482 115.816 180.45 115.832 180.428 115.839L180.407 115.847L180.342 115.871L180.32 115.879C180.294 115.888 180.269 115.899 180.245 115.911L180.222 115.919C180.196 115.926 180.17 115.937 180.148 115.951C178.455 116.65 177.053 117.896 177.053 117.896L172.975 116.641C172.975 116.641 173.18 113.616 174.087 111.869C174.993 110.122 181.334 109.924 181.334 109.924C181.334 109.924 177.43 109.003 174.991 109.257C172.552 109.51 172.415 109.566 172.415 109.566C172.415 109.566 170.958 103.667 168.865 101.253C166.773 98.8405 166.632 98.6885 166.632 98.6885C166.632 98.6885 166.945 98.8395 167.463 99.093C169.274 100.417 171.799 102.402 172.857 103.914C174.603 106.398 174.603 107.192 174.603 107.192C174.603 107.192 177.138 107.891 179.447 108.757C181.755 109.623 182.025 110.273 182.025 110.273C182.025 110.273 178.853 110.604 177.381 111.425C175.908 112.245 175.601 114.76 175.537 114.943C175.472 115.126 176.238 115.839 176.238 115.839C176.238 115.839 178.785 114.395 181.469 114.474C181.662 114.387 181.867 114.291 182.094 114.196C183.011 113.775 183.863 112.846 184.341 112.234C183.281 110.832 182.114 109.475 180.846 108.169C179.237 106.542 177.504 104.984 175.656 103.501Z" fill="#384A59"/>
<path d="M107.072 98.6885C113.288 98.6885 118.339 102.989 118.339 108.292C118.339 113.596 113.288 117.896 107.072 117.896C100.856 117.896 95.8047 113.596 95.8047 108.292C95.8047 102.989 100.848 98.6885 107.072 98.6885ZM107.072 101.95C111.181 101.95 114.51 104.793 114.51 108.292C114.51 111.792 111.181 114.635 107.072 114.635C102.963 114.635 99.6291 111.792 99.6291 108.292C99.6291 104.793 102.964 101.95 107.072 101.95Z" fill="#FFC972"/>
<path d="M108.692 101.89C112.247 101.89 115.126 104.752 115.126 108.292C115.126 111.833 112.243 114.695 108.692 114.695C105.14 114.695 102.249 111.831 102.249 108.292C102.249 104.753 105.127 101.89 108.692 101.89Z" fill="#FFC972"/>
<path d="M127.752 91.5972C127.752 91.5972 125.14 89.1293 125.456 82.5848C126.28 65.4317 122.472 59.0613 124.412 43.3213C125.35 35.7074 127.752 31.1945 127.752 31.1945C127.752 31.1945 118.98 39.3507 112.817 56.6272C106.654 73.904 112.817 83.2321 115.009 86.347C117.201 89.4618 121.589 92.2442 121.589 92.2442C121.589 92.2442 114.596 93.4244 108.953 83.2321C103.31 73.0398 104.772 60.0581 111.46 47.291C118.147 34.5239 134.437 21.8581 134.437 21.8581C134.437 21.8581 128.066 35.381 128.485 46.5354C128.904 57.6899 132.763 69.7094 133.7 76.6863C134.638 83.6636 127.752 91.5972 127.752 91.5972Z" fill="#747E87"/>
<path d="M126.978 92.2859C126.978 92.2859 125.506 91.0279 124.784 87.9323L128.91 79.6283C128.91 79.6283 123.782 60.2345 126.346 42.0325C128.143 29.3165 131.373 24.5259 133.17 22.7901C133.973 22.1866 134.442 21.8581 134.442 21.8581C134.442 21.8581 127.33 35.5143 127.798 46.7786C128.265 58.0429 132.573 70.1814 133.619 77.2273C134.666 84.273 126.978 92.2859 126.978 92.2859Z" fill="#384A59"/>
<path d="M115.588 92.2862C113.501 90.953 111.18 88.6789 109.051 84.8245C103.252 74.3386 104.75 60.9804 111.629 47.8438C116.366 38.7846 125.811 29.7766 131.218 25.0595C125.403 30.4188 114.823 42.1356 109.758 60.1683C105.643 74.817 110.589 85.6794 115.588 92.2862Z" fill="white"/>
<path d="M163.41 83.1604C169.064 73.1814 184.369 63.0842 195.603 60.2732C177.005 70.7408 168.515 76.6701 171.035 98.6886C171.035 98.6886 167.734 94.8294 166.051 92.208L164.372 89.5719L164.855 86.4798L163.41 83.1604Z" fill="#747E87"/>
<path d="M179.509 73.0785L179.499 73.0872L179.509 73.0785ZM175.54 77.4777C171.97 82.582 170.762 89.0305 171.987 98.6888C171.987 98.6888 168.447 94.9697 166.641 92.4434L166.632 92.4254C167.061 91.3464 167.66 89.9778 168.458 88.2357C170.307 84.2117 173.184 80.3195 175.54 77.4777Z" fill="#384A59"/>
<path d="M163.41 84.029C169.064 73.6713 184.369 63.1908 195.603 60.2732C193.794 61.3237 192.097 62.3373 190.479 63.3132C186.676 65.3682 182.018 68.1917 177.926 71.5876C169.157 78.8585 164.61 89.0848 164.61 89.0848L164.851 87.4808L163.41 84.029Z" fill="white"/>
<path d="M119.836 114.695C119.836 114.695 122.05 135.02 130.177 161.065C138.304 187.111 153.755 222.024 153.755 222.024L146.235 223.103L142.017 223.538C142.017 223.538 128.37 182.252 121.953 156.103C115.536 129.954 115.124 117.837 115.124 117.837C115.124 117.837 118.635 135.351 121.246 145.73C123.857 156.108 125.262 158.917 125.262 158.917L118.939 128.868L123.102 142.215C123.102 142.215 121.145 131.997 120.547 125.247C119.949 118.498 119.836 114.695 119.836 114.695Z" fill="#FFC972"/>
<path d="M119.837 114.695C119.837 114.695 122.051 135.02 130.178 161.065C138.304 187.111 153.755 222.024 153.755 222.024L146.235 223.103L142.017 223.538C142.017 223.538 141.729 222.677 141.224 221.129L147.64 219.171C147.64 219.171 147.64 218.418 144.835 211.384C142.03 204.351 133.09 176.583 133.09 176.583L124.56 145.078L124.963 147.563L123.561 146.053L127.073 164.754L124.065 158.805C122.745 156.202 121.028 150.805 119.513 145.557C115.42 126.67 115.124 117.834 115.124 117.834C115.124 117.834 118.635 135.348 121.246 145.726C123.857 156.104 125.262 158.913 125.262 158.913L118.938 128.864L123.102 142.212C123.102 142.212 121.145 131.994 120.547 125.244C119.949 118.494 119.837 114.695 119.837 114.695Z" fill="#AD4C21"/>
<path d="M153.75 153.11C153.75 153.11 154.115 163.392 160.519 183.412C166.922 203.433 171.162 213.934 171.162 213.934L179.504 202.995C179.504 202.995 167.896 182.975 164.994 173.455C162.092 163.936 159.676 156.282 159.676 156.282C159.676 156.282 162.128 166.929 163.122 171.875C164.115 176.821 164.123 176.99 164.123 176.99L156.87 154.473L159.223 169.846C159.223 169.846 155.768 160.386 154.992 156.939C154.216 153.491 153.75 153.11 153.75 153.11Z" fill="#FFC972"/>
<path d="M153.75 153.11C153.75 153.11 154.115 163.654 160.518 184.186C160.734 184.855 160.939 185.514 161.144 186.158L157.991 171.914C157.991 171.914 159.778 174.809 159.811 174.58C159.843 174.35 160.232 170.038 160.232 170.038L164.771 183.326L165.193 178.532C165.193 178.532 172.146 197.301 176.255 205.821L177.08 207.532L179.504 204.266C179.504 204.266 167.898 183.734 164.996 173.972C162.095 164.209 159.679 156.36 159.679 156.36C159.679 156.36 162.131 167.278 163.124 172.35C164.117 177.423 164.125 177.597 164.125 177.597L156.87 154.508L159.222 170.273C159.222 170.273 155.768 160.572 154.991 157.037C154.216 153.501 153.75 153.11 153.75 153.11Z" fill="#AD4C21"/>
<path d="M104.72 121.097C104.68 121.329 104.259 123.996 103.663 128.403C105.855 128.687 109.414 128.762 112.742 128.751C112.258 124.66 112.003 121.929 111.931 121.119C109.589 121.937 107.058 121.931 104.72 121.102V121.097ZM102.114 141.119C101.94 142.697 101.772 144.351 101.598 146.07C104.346 147.547 110.24 149 115.895 150.153C115.498 147.906 115.138 145.747 114.815 143.673L114.363 143.624C110.304 143.181 105.781 142.121 102.114 141.119ZM100.399 160.122C100.295 161.574 100.2 163.052 100.104 164.538C100.049 165.523 99.9939 166.475 99.9375 167.402C103.321 170.173 107.413 173.2 111.702 175.701C115.053 177.646 119.295 179.643 123.567 181.499C122.202 177.032 120.931 172.657 119.851 168.608C112.416 165.832 104.72 162.225 100.399 160.122ZM99.1674 184.194C99.0088 189.412 99.0165 192.552 99.0405 194.18C104.068 199.957 109.374 205.225 114.79 209.349C120.968 214.067 126.475 218.058 131.288 221.409C136.014 223.538 137.658 223.538 137.658 223.538C137.658 223.538 134.91 215.974 131.392 205.63C126.404 204.122 120.407 201.571 114.529 197.297C108.588 192.967 103.29 188.216 99.1674 184.194Z" fill="#94CB53"/>
<path d="M104.699 121.097C104.682 121.213 104.555 121.992 104.368 123.31C105.121 123.571 105.898 123.75 106.686 123.845C109.205 124.171 110.175 123.895 110.175 123.895L110.516 128.746C111.248 128.755 111.994 128.755 112.724 128.746C112.24 124.655 111.984 121.924 111.913 121.115C109.569 121.932 107.036 121.926 104.697 121.097H104.699ZM101.853 143.341C103.646 144.149 105.529 144.719 107.456 145.036C110.898 145.579 112.798 146.064 112.798 146.064L113.203 149.587C114.093 149.787 114.991 149.97 115.881 150.155C115.484 147.908 115.123 145.748 114.8 143.675L114.348 143.625C110.286 143.183 105.755 142.118 102.095 141.12C102.008 141.847 101.933 142.581 101.853 143.341ZM100.16 163.339L116.032 170.653L117.217 178.61C119.251 179.595 121.397 180.563 123.558 181.499C122.192 177.032 120.92 172.657 119.839 168.607C112.401 165.835 104.699 162.229 100.375 160.125C100.296 161.184 100.224 162.262 100.16 163.339ZM99.0273 189.44C101.928 192.37 109.404 199.459 117.419 203.333C127.685 208.293 127.997 208.293 127.997 208.293L132.946 222.119C136.403 223.538 137.658 223.538 137.658 223.538C137.658 223.538 134.908 215.974 131.388 205.628C126.396 204.121 120.396 201.569 114.515 197.295C108.569 192.971 103.268 188.219 99.1434 184.191C99.0793 186.259 99.0472 187.995 99.0273 189.44Z" fill="#0B3770"/>
<path d="M100.635 120.847C100.635 120.847 97.1472 139.451 93.6682 163.008C91.0942 180.435 90.6017 186.399 90.5174 188.324C89.9194 187.587 89.3214 186.849 88.7401 186.103L70.0537 153.7L72.7751 146.691L78.9768 159.173L75.168 144.064C75.168 144.064 79.743 132.679 83.7623 125.778C87.7816 118.877 89.5333 115.808 89.5333 115.808L92.7427 109.347C92.7427 109.347 92.9616 112.28 94.6149 115.867C96.2682 119.454 97.2571 119.962 97.2571 119.962L90.3536 158.563L100.635 120.847ZM98.1557 97.5404L104.55 85.8835C107.254 91.3339 112.814 95.9968 118.342 98.3648C118.342 98.3648 109.884 96.6432 107.785 96.6104C105.688 96.5773 103.489 91.5237 103.489 91.5237L104.273 96.5079C104.273 96.5079 100.388 97.8479 98.5605 99.2161C96.7328 100.584 96.4124 100.865 96.4124 100.865L98.1557 97.5404Z" fill="#94CB53"/>
<path d="M102.244 119.508C102.244 119.508 98.9853 138.481 95.7352 162.506C93.3301 180.278 92.8699 186.361 92.791 188.324C92.2325 187.572 91.6739 186.819 91.1307 186.059L89.3672 182.731L93.4285 161.356L89.9729 166.829L97.2385 119.586C97.2385 119.586 97.3958 119.699 96.3255 116.906C95.6865 115.193 95.4349 113.336 95.5932 111.494C95.8758 112.498 96.2203 113.48 96.6238 114.433C98.1784 118.081 99.0879 118.606 99.0879 118.606L92.6382 157.972L102.244 119.508Z" fill="#0B3770"/>
<path d="M71.4314 151.728L70.0537 149.486L72.7674 142.914L78.9511 154.62L75.1533 140.45C75.1533 140.45 79.7154 129.772 83.7232 123.3C87.7306 116.827 89.4775 113.949 89.4775 113.949L92.6777 107.89C92.6777 107.89 92.7863 109.289 93.45 111.301L77.6305 141.637L81.1575 159.512L73.0171 148.261L71.4314 151.728ZM99.3164 97.8655L105.465 87.5762C105.096 87.0243 104.751 86.4554 104.449 85.8835L98.0727 96.8163L96.3342 99.9251C96.3342 99.9251 96.662 99.67 98.4765 98.3792C98.745 98.1935 99.0242 98.022 99.3129 97.8655H99.3164Z" fill="white"/>
<path d="M163.41 159.513C163.41 159.513 164.597 165.417 167.036 172.997C169.267 171.041 171.337 169.186 172.75 167.827C172.409 167.554 172.077 167.289 171.754 167.015C165.128 161.606 163.41 159.513 163.41 159.513ZM174.185 190.541C178.247 199.292 178.988 201.129 178.988 201.129C178.988 201.129 183.032 195.943 185.604 189.644C188.176 183.345 189.164 179.381 189.164 179.381C189.164 179.381 187.123 178.065 184.275 176.142C181.864 180.303 178.387 185.713 174.185 190.541Z" fill="#94CB53"/>
<path d="M163.41 159.513C163.41 159.513 164.597 165.466 167.036 173.108C167.671 172.548 168.279 171.998 168.882 171.471L167.312 166.233L171.355 169.214C171.868 168.736 172.343 168.293 172.75 167.898C172.409 167.623 172.077 167.356 171.754 167.079C165.128 161.624 163.41 159.513 163.41 159.513ZM175.978 194.727L184.969 179.537L188.519 181.802C188.965 180.346 189.164 179.545 189.164 179.545C189.164 179.545 187.123 178.218 184.275 176.28C181.864 180.475 178.389 185.93 174.185 190.798C174.868 192.302 175.466 193.598 175.978 194.727Z" fill="#0B3770"/>
<path d="M151.08 166.464L148.962 163.89C148.962 163.89 150.561 162.839 151.416 161.257C152.27 159.677 153.016 158.047 153.016 158.047L153.754 166.521C153.754 166.521 152.558 171.206 149.519 172.102C142.794 174.083 133.809 161.902 131.842 156.629C131.842 156.629 131.726 156.939 135.555 160.206C139.384 163.473 142.2 164.94 142.2 164.94C139.761 162.824 137.484 160.556 135.386 158.15C131.842 154.1 131.036 152.944 131.036 152.944L129.724 149.522C129.724 149.522 131.213 151.106 134.589 154.989C137.965 158.872 138.527 159.047 138.527 159.047C138.527 159.047 133.148 150.255 131.093 147.574C129.037 144.893 128.514 142.996 128.514 142.996L128 137.104C133.101 145.132 140.987 163.091 151.08 166.464Z" fill="#94CB53"/>
<path d="M151.07 166.463L148.952 163.889C149.278 163.662 149.587 163.414 149.874 163.146L152.222 167.197C152.222 167.197 151.078 167.482 146.551 164.744C142.023 162.007 136.821 154.167 136.821 154.167L140.889 161.272L139.028 160.222L144.406 166.22L137.194 163.906C137.194 163.906 144.176 170.481 148.411 170.327C152.647 170.173 153.754 166.521 153.754 166.521C153.754 166.521 152.558 171.206 149.519 172.102C142.794 174.083 133.809 161.902 131.842 156.629C131.842 156.629 131.726 156.939 135.555 160.206C139.384 163.473 142.2 164.94 142.2 164.94C139.761 162.824 137.484 160.556 135.386 158.15C131.842 154.1 131.036 152.944 131.036 152.944L129.724 149.522C129.724 149.522 131.213 151.106 134.589 154.989C137.965 158.872 138.527 159.047 138.527 159.047C138.527 159.047 133.148 150.255 131.093 147.574C129.037 144.893 128.514 142.996 128.514 142.996L128 137.104C133.091 145.131 140.977 163.09 151.07 166.463Z" fill="#0B3770"/>
<path d="M146.663 181.431C152.05 181.761 154.799 178.72 154.799 178.72L156.221 182.903C154.267 183.887 150.937 185.129 146.825 184.886C140.407 184.505 139.785 183.233 139.785 183.233L139.549 183.344L137.659 179.098C140.702 181.144 142.671 181.181 146.663 181.431ZM157.044 185.338L159.084 191.357C158.113 191.903 157.087 192.358 156.021 192.716L154.38 186.391C155.293 186.097 156.182 185.745 157.044 185.338ZM154.083 193.296C152.791 193.64 151.507 193.908 150.295 194.118L148.168 187.442C149.606 187.417 151.036 187.246 152.434 186.932L154.083 193.296ZM148.278 194.418C146.813 194.616 145.543 194.724 144.616 194.777L140.938 186.485C142.174 186.866 143.828 187.199 146.026 187.366L148.278 194.418ZM159.918 193.806L160.194 194.614C160.194 194.614 156.831 196.273 153.019 197.221C149.207 198.169 146.003 197.889 146.003 197.889L145.703 197.221C148.168 197.03 151.996 196.56 155.759 195.465C157.204 195.052 158.598 194.496 159.918 193.808V193.806Z" fill="#FFC972"/>
<path d="M147.128 181.458C152.793 181.793 155.683 178.72 155.683 178.72L157.179 182.946C156.381 183.331 155.553 183.666 154.703 183.947L154.089 181.996C154.089 181.996 153.659 182.449 147.862 182.804C144.741 182.99 141.615 182.518 138.736 181.424L137.659 179.101C140.859 181.169 142.93 181.206 147.128 181.458ZM141.998 188.494L145.957 189.183L147.58 194.726C147.978 194.681 148.392 194.637 148.83 194.578L146.462 187.455C144.151 187.283 142.412 186.95 141.112 186.564L141.998 188.494ZM149.146 188.827L152.864 188.538L154.19 193.628C154.439 193.568 154.687 193.509 154.928 193.442L153.202 187.017C151.732 187.334 150.228 187.507 148.717 187.532L149.146 188.827ZM155.647 187.944L157.966 187.387L159.448 191.877C159.713 191.75 159.961 191.617 160.194 191.49L158.049 185.41C157.144 185.823 156.208 186.18 155.249 186.479L155.647 187.944Z" fill="#AD4C21"/>
<path d="M109.036 138.096C106.699 137.615 104.412 137.05 102.415 136.51L102.341 136.493L102.349 136.409C102.464 135.43 102.589 134.452 102.706 133.48C102.83 132.536 102.946 131.633 103.051 130.786L103.068 130.701L103.167 130.709C104.433 130.878 106.101 130.98 107.915 131.031C109.731 131.081 111.694 131.097 113.555 131.089H113.638L113.646 131.173C113.803 132.38 113.985 133.671 114.184 135.04C114.358 136.297 114.557 137.596 114.76 138.928L114.776 139.045L114.661 139.037C112.84 138.827 110.925 138.484 109.036 138.096ZM128.392 192.867C129.329 195.641 130.256 198.358 131.154 200.951L131.219 201.129L131.046 201.069C128.703 200.261 126.412 199.306 124.184 198.209C121.663 196.962 119.24 195.521 116.934 193.899C113.338 191.369 109.965 188.687 106.949 186.088C103.932 183.49 101.265 180.993 99.0527 178.825L99.0273 178.799V178.757C99.0767 177.568 99.1353 176.311 99.201 174.977C99.2597 173.704 99.3254 172.362 99.4 170.962L99.4164 170.794L99.5497 170.896C101.161 172.119 102.897 173.375 104.711 174.59C106.526 175.805 108.416 176.993 110.338 178.082C112.518 179.305 115.028 180.542 117.679 181.751C120.331 182.96 123.116 184.139 125.851 185.244L125.892 185.26L125.908 185.302C126.728 187.848 127.565 190.376 128.392 192.867ZM108.447 159.151C105.149 157.7 102.331 156.383 100.475 155.498L100.418 155.464L100.426 155.405C100.517 154.317 100.608 153.204 100.708 152.073C100.807 150.976 100.906 149.896 101.006 148.851L101.014 148.725L101.129 148.775C102.993 149.551 105.529 150.298 108.33 151.001C111.131 151.704 114.188 152.351 117.105 152.907L117.163 152.924L117.179 152.983C117.329 153.767 117.478 154.526 117.619 155.277C117.759 156.028 117.925 156.8 118.09 157.605C118.273 158.508 118.481 159.461 118.712 160.457C118.943 161.453 119.201 162.49 119.467 163.544L119.508 163.713L119.351 163.654C115.541 162.204 111.754 160.61 108.448 159.151H108.447Z" fill="#FFC972"/>
<path d="M102.697 132.396C102.772 131.84 102.839 131.308 102.905 130.786L102.922 130.701L103.022 130.709C104.295 130.878 105.971 130.98 107.796 131.03C109.621 131.081 111.595 131.097 113.466 131.089H113.549L113.557 131.173C113.716 132.38 113.899 133.671 114.099 135.039C114.274 136.296 114.474 137.595 114.677 138.927L114.694 139.044L114.578 139.036C113.652 138.926 112.705 138.791 111.736 138.631L111.353 133.293L102.697 132.396ZM100.647 150.961C101.364 151.365 102.53 151.931 104.412 152.681C110.012 154.916 114.094 155.024 114.094 155.024L114.477 161.755C116.052 162.396 117.669 163.036 119.293 163.653L119.452 163.711L119.41 163.542C119.143 162.488 118.885 161.451 118.651 160.456C118.417 159.46 118.21 158.508 118.026 157.604C117.86 156.803 117.701 156.027 117.552 155.277C117.411 154.526 117.26 153.767 117.11 152.983L117.093 152.924L117.036 152.907C114.102 152.351 111.019 151.701 108.213 151.001C105.407 150.302 102.847 149.55 100.973 148.775L100.857 148.725L100.849 148.852C100.784 149.544 100.718 150.244 100.651 150.961H100.647ZM99.0273 174.881C101.386 176.964 106.535 181.274 110.975 183.299C116.949 186.022 119.156 186.183 119.156 186.183L121.248 186.833L124.271 198.27C126.469 199.346 128.731 200.281 131.045 201.07L131.219 201.129L131.154 200.951C130.253 198.354 129.321 195.638 128.377 192.868C127.543 190.38 126.702 187.85 125.877 185.31L125.861 185.268L125.819 185.252C123.07 184.147 120.265 182.974 117.604 181.76C114.942 180.545 112.414 179.314 110.223 178.091C108.29 177.002 106.39 175.822 104.565 174.599C102.741 173.376 101 172.128 99.3757 170.905L99.2414 170.803L99.2251 170.972C99.1674 172.333 99.0934 173.642 99.0344 174.881H99.0273Z" fill="#AD4C21"/>
<path d="M174.008 172.745C175.302 171.421 176.461 170.195 177.382 169.184L177.449 169.116L177.515 169.184C178.361 169.901 179.231 170.627 180.101 171.333C180.971 172.038 181.817 172.745 182.656 173.402L182.724 173.461L182.685 173.539C181.536 175.844 180.101 178.551 178.438 181.366C177.118 183.612 175.634 185.936 174.028 188.177L173.924 188.324L173.61 187.559C172.897 185.814 172.232 184.039 171.605 182.262C170.978 180.486 170.397 178.741 169.865 177.015L169.847 176.957L169.894 176.908C171.311 175.501 172.724 174.069 174.008 172.745Z" fill="#FFC972"/>
<path d="M174.008 173.215C175.302 171.72 176.461 170.335 177.382 169.193L177.449 169.116L177.515 169.193C178.361 170.003 179.231 170.823 180.101 171.619C180.971 172.416 181.817 173.215 182.656 173.957L182.724 174.024L182.685 174.112C182.305 174.966 181.893 175.873 181.459 176.815L177.924 173.37L170.978 181.922C170.582 180.626 170.217 179.329 169.865 178.044L169.847 177.978L169.894 177.923C171.311 176.327 172.724 174.711 174.008 173.215Z" fill="#AD4C21"/>
<path d="M116.742 101.408C117.787 103.119 118.344 105.132 118.343 107.191C118.343 113.102 113.819 117.896 108.251 117.896C104.139 117.896 100.601 115.282 99.0273 111.542C99.9634 113.064 101.228 114.308 102.709 115.166C104.19 116.024 105.842 116.467 107.517 116.457C113.092 116.457 117.608 111.664 117.608 105.752C117.61 104.252 117.315 102.77 116.742 101.408ZM108.251 100.121C109.314 100.116 110.362 100.387 111.311 100.911C112.259 101.436 113.081 102.198 113.709 103.137C112.731 100.531 110.323 98.6885 107.517 98.6885C103.838 98.6885 100.856 101.85 100.856 105.751C100.854 107.206 101.273 108.626 102.053 109.805C101.743 108.975 101.584 108.087 101.583 107.191C101.586 103.29 104.572 100.121 108.251 100.121Z" fill="#AD4C21"/>
<path d="M108.692 101.89C112.247 101.89 115.126 104.752 115.126 108.292C115.126 111.833 112.243 114.695 108.692 114.695C105.14 114.695 102.249 111.831 102.249 108.292C102.249 108.116 102.259 107.94 102.268 107.765C102.518 110.507 104.839 112.655 107.664 112.655C110.659 112.655 113.078 110.246 113.078 107.272C113.078 104.464 110.913 102.156 108.15 101.907C108.331 101.899 108.511 101.89 108.692 101.89Z" fill="#AD4C21"/>
<path d="M107.109 98.6885C112.919 98.6885 117.698 102.931 118.339 108.395C117.205 103.643 112.803 100.107 107.546 100.107C101.432 100.107 96.4719 104.903 96.4719 110.821C96.4719 112.496 96.8751 114.145 97.6477 115.631C96.4443 113.864 95.8021 111.775 95.8047 109.637C95.8047 103.589 100.865 98.6885 107.109 98.6885ZM114.497 108.597C114.546 108.94 114.571 109.286 114.571 109.632C114.571 113.62 111.231 116.86 107.108 116.86C105.841 116.868 104.593 116.556 103.479 115.952C102.366 115.349 101.423 114.473 100.74 113.407C101.81 116.033 104.451 117.896 107.545 117.896C111.584 117.896 114.858 114.73 114.858 110.815C114.86 110.061 114.738 109.311 114.497 108.597Z" fill="white"/>
<path d="M131.247 98.7249C130.36 97.5864 148.23 123.582 160.188 116.75C150.822 112.615 137.64 106.914 131.247 98.7249Z" fill="#FFC972"/>
<path d="M179.508 120.534C179.508 120.534 182.484 118.072 184.089 116.058C185.694 114.044 185.946 111.494 185.946 111.494C185.946 111.494 185.969 113.882 184.246 117.11C182.522 120.338 181.388 121.073 180.866 121.096C180.343 121.12 179.508 120.534 179.508 120.534Z" fill="#FFC972"/>
<path d="M167.016 230.911L161.243 239.544L159.114 238.541L152.106 235.168C113.871 215.945 71.3692 176.488 53.957 132.795L58.4644 127.5C74.713 171.716 118.634 212.419 157.314 231.067L157.426 231.473C157.426 231.473 157.503 231.39 157.64 231.224C157.939 231.373 158.247 231.522 158.554 231.663L161.813 227.71C167.32 220.74 175.265 209.327 188.845 185.714C191.061 181.869 193.164 177.849 195.14 173.821L198.822 180.203C197.335 183.037 195.791 185.841 194.19 188.615C186.031 202.805 177.506 217.508 167.354 230.461C167.247 230.613 167.127 230.762 167.016 230.911Z" fill="#0B121D"/>
<path d="M218.143 181.957L210.828 198.449H210.82C210.846 198.708 210.862 198.968 210.862 199.236C210.85 200.44 210.579 201.63 210.065 202.741L206.879 209.785C206.043 211.655 204.72 213.317 203.023 214.627C201.013 216.179 198.623 217.135 195.959 217.135H37.8662L57.3943 191.452L48.4607 181.922C105.08 182.11 161.604 181.957 218.143 181.957Z" fill="#0B121D"/>
<path d="M88.5629 185.239L76.033 213.934L66.1107 213.769L69.0981 206.678L62.5301 206.297L57.8273 213.769H47.5195L63.9543 190.385L59.4046 185.134L88.5629 185.239ZM75.6603 191.643L71.3984 191.568L66.4927 199.014L72.3662 199.072L75.6603 191.643ZM116.21 191.245L109.402 208.003C108.511 210.182 107.551 211.57 106.72 212.303C105.617 213.271 104.009 213.769 101.847 213.769H97.6705L94.1572 199.181L88.1892 213.769H78.648L90.8715 185.132H99.7253L103.35 199.359L109.029 185.129H118.782L116.21 191.245ZM145.972 185.132L136.186 208.542C135.618 209.942 134.573 211.084 133.292 212.088C131.857 213.214 130.389 213.769 128.903 213.769H114.793L111.092 209.404L119.109 189.605L120.534 185.132H130.721L121.34 207.903H126.698L135.195 187.884L132.741 185.123L145.972 185.132ZM171.65 189.572L169.239 195.619C168.78 196.761 167.931 197.607 166.71 198.128C165.851 198.493 164.519 198.759 162.71 198.949C165.275 199.471 166.486 200.737 166.344 202.745L163.882 208.759C163.347 210.073 162.493 211.241 161.395 212.164C160.131 213.241 158.801 213.774 157.439 213.774H135.963L146.37 189.544L148.021 185.138H167.553L171.65 189.572ZM161.285 191.138H155.64L153.442 196.538H159.052L161.285 191.138ZM156.923 202.006H151.176L148.723 208.053H154.435L156.923 202.006ZM185.394 185.132L183.154 190.682L173.825 213.578C173.163 213.707 172.489 213.771 171.813 213.768H163.715L174.233 189.538L170.235 185.131L185.394 185.132ZM211.7 185.132L208.262 193.531H199.689L200.673 191.105H195.037L192.728 196.538H203.39C205.605 196.538 206.717 197.392 206.717 199.114C206.707 199.807 206.56 200.49 206.284 201.128L203.093 208.749C202.549 210.079 201.68 211.259 200.563 212.187C199.315 213.238 198.008 213.769 196.641 213.769H176.564L180.155 204.972H189.569L188.475 207.733H193.788L196.207 201.835H186.683L182.541 197.289L185.766 189.32C186.268 188.077 187.404 187.058 189.136 186.246C190.698 185.509 192.238 185.14 193.754 185.137L211.7 185.132Z" fill="white"/>
<path d="M85.4252 188.42L60.0237 188.332L63.5832 192.205L47.5195 213.782H55.0818L59.9282 206.518L69.1003 207.014L66.0632 213.814L73.6253 213.934L85.4252 188.42ZM75.8881 192.406L71.4669 201.827L62.4167 201.738L69.0135 192.285L75.8881 192.406ZM116.421 188.324H109.094L102.175 204.681L97.7551 188.324H90.4552L78.9421 213.782H86.0523L93.3038 197.056L97.5763 213.782H100.883C102.311 213.782 103.964 213.574 105.06 212.659C106.104 211.785 106.975 210.098 107.488 208.914L114.487 192.686L116.421 188.324ZM144.294 188.324H135.244L136.497 189.647L127.191 210.366H119.068L128.684 188.324H120.949L119.747 191.9L111.77 210.478L114.737 213.782H128.628C130.03 213.782 131.287 213.205 132.361 212.411C133.436 211.617 134.441 210.639 134.963 209.435L144.294 188.324ZM171.035 191.732L167.694 188.324H149.081L147.671 191.868L137.698 213.782H157.882C159.127 213.782 160.215 213.245 161.137 212.507C162.115 211.73 162.876 210.748 163.356 209.645L165.793 204C165.828 202.492 164.539 201.963 163.034 201.674L155.481 200.214L163.155 199.445C164.278 199.334 165.853 199.157 166.902 198.74C167.816 198.37 168.473 197.793 168.843 196.936L171.035 191.732ZM163.629 191.875L160.358 199.357H151.978L155.208 191.875H163.629ZM159.166 202.396L155.623 210.502H147.139L150.62 202.396H159.166ZM184.733 188.324H173.715L176.518 191.243L166.153 213.782H172.61C173.003 213.785 173.395 213.763 173.785 213.717L183.091 192.148L184.733 188.324ZM211.7 188.324H195.101C193.622 188.324 192.213 188.7 190.898 189.278C189.766 189.783 188.523 190.537 188.044 191.659L185.016 198.731L188.4 202.228H199.416L195.962 210.189H187.894L189.026 207.528H181.995L179.288 213.782H198.059C199.294 213.782 200.365 213.253 201.287 212.531C202.281 211.744 203.054 210.748 203.541 209.628L206.804 202.251C207.032 201.77 207.155 201.253 207.167 200.728C207.167 200.447 207.123 200.103 206.925 199.87C206.534 199.425 205.533 199.357 204.975 199.357H192.218L195.601 191.844H203.999L202.99 194.201H209.143L211.7 188.324Z" fill="white"/>
<path d="M58.1878 201.129L47.5195 213.786H55.8343L61.163 206.734L71.2478 207.217L67.9095 213.818L76.223 213.934L82.931 201.129H74.405L73.8509 202.18L63.9004 202.095L64.6551 201.129H58.1878Z" fill="#849EB5"/>
<path d="M87.3864 201.129H92.5872L88.3081 213.934H82.9297L87.3864 201.129Z" fill="#849EB5"/>
<path d="M95.8047 201.129H102.399L103.418 204.996L105.015 201.129H111.901L108.524 209.153C108.031 210.312 107.196 211.973 106.193 212.832C105.14 213.73 103.552 213.934 102.181 213.934H99.0058L95.8047 201.129Z" fill="#849EB5"/>
<path d="M115.885 201.129H122.854L118.86 210.583H126.592L130.711 201.129H137.656L133.993 209.664C133.495 210.846 132.542 211.8 131.515 212.587C130.486 213.375 129.294 213.934 127.959 213.934H114.728L111.902 210.688L115.885 201.129Z" fill="#849EB5"/>
<path d="M143.103 201.129H156.497L160.884 202.043C162.263 202.326 163.445 202.845 163.412 204.326L161.179 209.871C160.739 210.955 160.041 211.919 159.145 212.682C158.299 213.407 157.302 213.934 156.161 213.934H137.659L143.103 201.129Z" fill="#849EB5"/>
<path d="M170.703 201.129H179.506L172.691 213.871C172.218 213.916 171.74 213.937 171.263 213.934H163.41L170.703 201.129Z" fill="#849EB5"/>
<path d="M186.606 201.129H205.262C205.247 201.639 205.134 202.141 204.927 202.609L201.913 209.854C201.463 210.955 200.749 211.933 199.83 212.706C198.979 213.415 197.99 213.934 196.849 213.934H179.508L182.009 207.792H188.503L187.458 210.406H194.909L198.1 202.586H187.924L186.606 201.129Z" fill="#849EB5"/>
<path d="M156.97 201.129L154.127 210.733H147.312L150.107 201.129H156.97Z" fill="#0B121D"/>
</g>
<defs>
<clipPath id="clip0">
<rect width="256" height="256" fill="white"/>
</clipPath>
</defs>
</svg>
