<svg width="133" height="58" viewBox="0 0 133 58" fill="none" xmlns="http://www.w3.org/2000/svg">
<path fill-rule="evenodd" clip-rule="evenodd" d="M128.618 27.1888H115.267C114.104 27.1916 112.99 27.6604 112.167 28.4928C111.345 29.3253 110.882 30.4535 110.879 31.6307V43.2725C110.882 44.4497 111.345 45.5779 112.167 46.4103C112.99 47.2427 114.104 47.7116 115.267 47.7143H128.618C129.78 47.7102 130.893 47.2408 131.714 46.4085C132.535 45.5762 132.997 44.4488 133 43.2725V31.6307C132.997 30.4544 132.535 29.3269 131.714 28.4947C130.893 27.6624 129.78 27.1929 128.618 27.1888ZM79.5857 11.88H77.9481V11.5908C78.397 11.5908 78.6827 11.5029 78.4583 11.1001C78.1522 10.4958 79.4786 10.5319 79.6623 10.661C80.0041 10.8935 79.7796 11.5598 79.5602 11.88H79.5857ZM77.341 12.2828H79.3307C79.1113 12.6237 78.494 13.7652 78.091 13.7652C77.7442 13.3277 77.489 12.8234 77.341 12.2828ZM115.359 31.6307H128.562V43.2725H115.348V31.6307H115.359ZM88.2483 31.6307H106.614C106.612 30.4535 106.149 29.3253 105.326 28.4928C104.504 27.6604 103.39 27.1916 102.227 27.1888H88.1157C86.9538 27.1929 85.8407 27.6624 85.0196 28.4947C84.1985 29.3269 83.7361 30.4544 83.7334 31.6307V43.2725C83.7361 44.4488 84.1985 45.5762 85.0196 46.4085C85.8407 47.2408 86.9538 47.7102 88.1157 47.7143H102.227C103.39 47.7116 104.504 47.2427 105.326 46.4103C106.149 45.5779 106.612 44.4497 106.614 43.2725V35.5974H91.692C91.6946 36.5061 92.0524 37.3768 92.6871 38.0194C93.3218 38.6619 94.1819 39.0242 95.0795 39.0269H102.431V43.2776H88.2279V31.6359L88.2483 31.6307ZM30.8446 31.6307H48.3942C48.3916 30.4544 47.9291 29.3269 47.108 28.4947C46.2869 27.6624 45.1739 27.1929 44.0119 27.1888H30.4058C29.243 27.1916 28.1287 27.6604 27.3064 28.4928C26.4842 29.3253 26.0211 30.4535 26.0184 31.6307V35.2462C26.0198 36.4238 26.4824 37.5528 27.3049 38.3855C28.1275 39.2182 29.2426 39.6866 30.4058 39.688H44.0221V43.3035H26.0184C26.0211 44.4807 26.4842 45.6089 27.3064 46.4413C28.1287 47.2737 29.243 47.7426 30.4058 47.7453H44.4405C45.6024 47.7412 46.7155 47.2718 47.5366 46.4395C48.3577 45.6072 48.8201 44.4798 48.8228 43.3035V39.688C48.8215 38.5112 48.3595 37.383 47.5381 36.5505C46.7167 35.7179 45.6028 35.2489 44.4405 35.2462H30.8191V31.6307H30.8446ZM5.58121 31.6307H22.1462C22.1436 30.4535 21.6804 29.3253 20.8582 28.4928C20.036 27.6604 18.9216 27.1916 17.7588 27.1888H4.38741C3.22462 27.1916 2.11024 27.6604 1.28802 28.4928C0.465806 29.3253 0.00269477 30.4535 0 31.6307V43.2725C0.00269477 44.4497 0.465806 45.5779 1.28802 46.4103C2.11024 47.2427 3.22462 47.7116 4.38741 47.7143H17.7333C18.8961 47.7116 20.0105 47.2427 20.8327 46.4103C21.6549 45.5779 22.1181 44.4497 22.1207 43.2725H5.5557V31.6307H5.58121ZM83.8099 9.86048C83.7061 9.91617 83.5942 9.95455 83.4783 9.97412C82.8559 10.8728 83.2334 10.7695 82.1264 11.5236C82.0771 12.538 82.2102 13.553 82.5192 14.5193C82.5254 14.534 82.5285 14.5498 82.5285 14.5658C82.5285 14.5817 82.5254 14.5975 82.5192 14.6122C82.5009 14.6385 82.4736 14.6569 82.4427 14.6639C82.1774 14.7207 81.7948 14.8188 81.5703 14.8653C81.6377 15.3795 81.6377 15.9005 81.5703 16.4148C81.3815 17.4116 79.045 19.5912 78.5093 19.6997C77.739 19.8546 76.8717 19.1832 75.5248 18.5634C75.1524 18.3981 73.9025 17.5666 73.2495 17.3445C72.7036 17.1637 72.1629 18.5014 72.8363 18.8578C73.1475 19.0231 73.6474 19.2504 73.8056 19.6635C74.2749 20.8928 73.7341 25.6342 72.7852 26.5897C72.3261 26.5897 71.9384 26.161 71.5966 26.2695C70.9895 26.6052 71.3772 28.4852 71.5966 28.8158C75.3361 32.7102 74.8922 35.5922 76.4788 37.746C77.2033 37.746 76.7288 38.5207 77.2798 39.4349C77.3529 39.9542 77.3111 40.4835 77.1574 40.9844V42.1568L77.0349 42.5236V43.5565C76.9227 44.073 76.8003 44.729 76.6982 45.1938C76.4789 46.1803 77.3308 46.9499 76.8207 47.8848C76.8207 48.4632 76.8206 48.3496 76.4788 48.8144C76.4788 49.7131 76.2697 51.5983 76.4788 52.2646C77.0691 53.2582 77.8212 54.1435 78.7032 54.8832C79.7235 55.3377 81.1876 55.2396 80.7081 56.8408C77.7695 57.7549 75.8922 56.3243 74.3259 56.3243L74.2494 56.598C73.5564 56.6003 72.8675 56.4904 72.2087 56.2726C72.3008 55.361 72.4456 54.4555 72.6424 53.561L72.9791 53.0445C73.1015 52.6882 72.8567 50.0592 72.8363 49.3516C72.2088 48.8867 72.0863 47.4664 72.0863 46.6865C71.9357 45.9945 71.8622 45.2877 71.8669 44.5792C71.7577 44.1319 71.7249 43.669 71.77 43.2105C71.8669 42.8954 72.219 42.7611 72.3057 42.5029V41.6197C72.4689 40.6952 72.4179 40.2665 71.8669 39.7138C70.4946 39.7138 70.3059 39.7965 69.5508 38.6137C69.3161 38.2418 67.3928 35.1739 67.204 35.0912C65.6021 34.3836 65.9235 34.6573 65.2246 33.4023C64.875 33.5364 64.5814 33.788 64.393 34.115C63.8216 34.9827 62.8064 37.7976 62.5156 38.7635C62.3575 39.311 62.5156 39.9204 62.2758 40.3801C62.0973 40.7055 61.5259 40.814 61.4035 41.0361C60.8423 42.069 61.2657 41.9812 60.1944 42.6992C60.0547 42.9981 59.942 43.3093 59.8577 43.6289L59.6179 43.9749C59.4393 44.3622 59.8067 45.075 59.7352 45.3177C59.5454 45.9583 59.3206 46.5877 59.0618 47.203C58.5517 48.3806 58.6333 49.9404 58.1435 50.6635C57.8935 51.0251 57.2966 50.6635 56.8375 50.9734C56.8375 51.2213 56.0875 52.8999 55.9447 53.3699V56.035C56.0824 56.4843 56.4549 56.9131 56.3426 57.4812C56.2304 58.0493 54.1438 58.0751 53.0163 57.915C52.2562 57.8014 52.0317 57.2385 52.0419 56.5877C52.0419 55.8181 53.5979 50.8132 53.501 50.4827C52.3327 49.1501 53.8173 47.7814 54.251 46.5418C54.4652 45.9375 54.3326 45.0957 54.5673 44.5379L55.7967 42.2601C56.5467 41.5474 56.2151 41.5112 56.6181 40.8656C56.9701 40.3078 57.3987 39.9359 57.1283 39.0837C56.6181 37.3638 57.7099 34.9517 57.7813 33.1337C57.5874 32.9322 56.9395 32.9943 56.8579 32.4468C56.6895 31.3363 57.2762 29.3478 57.6333 29.1722C57.7915 29.0895 57.9751 29.1722 58.1435 29.074C58.1435 28.2373 57.3222 23.5837 57.9446 23.3513C58.3323 23.2067 59.2149 23.1292 59.3832 23.0517C59.3832 22.8503 59.2404 22.4268 59.0771 22.4061C58.8016 22.3648 58.2405 22.2615 57.7915 22.153C56.4192 21.8328 57.6895 16.3528 57.7099 16.327C58.0874 15.8105 59.8373 16.5026 60.0515 15.6452C60.6382 14.886 59.5975 11.9729 61.582 8.38332C62.2555 7.17472 63.5513 5.95062 65.0563 6.46711C65.5664 6.64272 65.2552 7.38133 66.1429 6.5911C66.1212 6.16608 66.0154 5.74978 65.8317 5.36698C64.3522 0.904473 69.3569 -1.51269 72.8618 1.03879C73.1887 1.14733 73.4981 1.30394 73.7801 1.50362C73.9739 2.5366 74.9637 4.30819 73.9739 5.49096C73.5437 5.58879 73.1342 5.7637 72.7648 6.00746C72.7544 6.35605 72.7957 6.70425 72.8873 7.04044C72.9536 7.25737 73.0811 7.34516 72.7546 7.47945C72.7138 7.47945 72.7546 7.63441 72.7546 7.68606C73.5196 7.7744 74.2938 7.64375 74.9892 7.309H75.6422V6.47745H75.9534V5.82666H76.2646V6.95262H77.0808V7.309H89.1616V7.94431H89.6717V5.62009H90.1207V7.51044H91.141V8.58992H94.3397V8.2232H94.8499V8.36267H96.3804V9.26136H94.8499V9.40596H94.3397V9.08057H91.141V9.40596H89.7329V9.18387H89.1309V9.83983L83.8099 9.86048Z" fill="white"/>
</svg>
