<svg width="115" height="76" viewBox="0 0 115 76" fill="none" xmlns="http://www.w3.org/2000/svg">
<path d="M86.3752 23.347V0.372243C86.3752 0.0178767 85.9438 -0.129777 85.7137 0.135998L61.2652 31.4975C61.0638 31.7337 61.2364 32.1176 61.5528 32.1176H79.2133C79.7022 32.1176 80.1337 31.8814 80.4213 31.4975L86.0013 24.3511C86.2314 24.0853 86.3752 23.7309 86.3752 23.347ZM29.1945 24.3806L47.5452 47.946C47.8329 48.3299 48.2931 48.5366 48.7821 48.5366H66.4425C66.7589 48.5366 66.9315 48.1822 66.7301 47.946L29.4821 0.16553C29.252 -0.100245 28.8206 0.047409 28.8206 0.401776V23.3766C28.8493 23.7309 28.9644 24.0853 29.1945 24.3806Z" fill="white"/>
<path d="M102.597 62.3272H106.711V75.2616C106.711 75.4388 106.854 75.5569 106.998 75.5569H109.357C109.529 75.5569 109.644 75.4092 109.644 75.2616V62.3272H114.822C114.966 62.3272 115.052 62.15 114.966 62.0319L113.182 59.758C113.038 59.5809 112.808 59.4627 112.578 59.4627H102.569C102.396 59.4627 102.281 59.6104 102.281 59.758V62.0319C102.31 62.1796 102.425 62.3272 102.597 62.3272ZM3.16393 75.2911L15.2444 59.758C15.3307 59.6399 15.2444 59.4627 15.1006 59.4627H12.1092C11.8791 59.4627 11.649 59.5809 11.5052 59.758L2.93382 70.773V59.758C2.93382 59.5809 2.79001 59.4627 2.64619 59.4627H0.28763C0.115052 59.4627 0 59.6104 0 59.758V75.2911C0 75.4683 0.143815 75.5864 0.28763 75.5864H2.58867C2.79001 75.5864 3.02011 75.4683 3.16393 75.2911ZM11.7065 75.2911L15.8484 69.9461L20.019 75.2911C20.1628 75.4683 20.3929 75.5864 20.623 75.5864H22.9241C23.0967 75.5864 23.2117 75.4388 23.2117 75.2911V59.758C23.2117 59.5809 23.0679 59.4627 22.9241 59.4627H20.997C20.5368 59.4627 20.0765 59.6695 19.7889 60.0534L7.93858 75.2911C7.85229 75.4092 7.93858 75.5864 8.08239 75.5864H11.0737C11.3326 75.5864 11.5339 75.4683 11.7065 75.2911ZM20.2779 63.9514V71.0978L17.4879 67.5246L20.2779 63.9514ZM87.727 75.2911L75.6466 59.758C75.5028 59.5809 75.2727 59.4627 75.0426 59.4627H72.7415C72.569 59.4627 72.4539 59.6104 72.4539 59.758V75.2911C72.4539 75.4683 72.5977 75.5864 72.7415 75.5864H75.0426C75.2727 75.5864 75.5028 75.4683 75.6466 75.2911L79.8172 69.9461L83.9591 75.2911C84.1029 75.4683 84.333 75.5864 84.5631 75.5864H87.5832C87.7558 75.5864 87.8421 75.4092 87.727 75.2911ZM78.1777 67.5246L75.3877 71.0978V63.9514L78.1777 67.5246ZM44.9277 59.0493C40.3832 59.0493 36.6728 62.8292 36.6728 67.5246C36.6728 72.1904 40.3544 75.9999 44.9277 75.9999C49.4723 75.9999 53.1827 72.2199 53.1827 67.5246C53.1827 62.8292 49.4723 59.0493 44.9277 59.0493ZM44.9277 73.1059C41.9939 73.1059 39.6354 70.5958 39.6354 67.5246C39.6354 64.4239 41.9939 61.9433 44.9277 61.9433C47.8616 61.9433 50.2201 64.4534 50.2201 67.5246C50.2201 70.5958 47.8616 73.1059 44.9277 73.1059ZM97.3051 59.758V70.773L88.7337 59.758C88.5899 59.5809 88.3598 59.4627 88.1297 59.4627H85.8287C85.6561 59.4627 85.5411 59.6104 85.5411 59.758V67.2293C85.5411 67.4065 85.5986 67.5836 85.7136 67.7313L88.1585 70.8911C88.2735 71.0387 88.4749 70.9501 88.4749 70.773V64.2762L97.0462 75.2911C97.19 75.4683 97.4202 75.5864 97.6503 75.5864H99.9513C100.124 75.5864 100.239 75.4388 100.239 75.2911V59.758C100.239 59.5809 100.095 59.4627 99.9513 59.4627H97.5927C97.4489 59.4627 97.3051 59.5809 97.3051 59.758ZM68.4846 63.1245V59.758C68.4846 59.5809 68.3408 59.4627 68.197 59.4627H56.1165C55.944 59.4627 55.8289 59.6104 55.8289 59.758V75.2911C55.8289 75.4683 55.9727 75.5864 56.1165 75.5864H58.4751C58.6477 75.5864 58.7627 75.4388 58.7627 75.2911V62.3567H65.522L60.9487 68.2333C60.8624 68.3514 60.8624 68.4991 60.9487 68.6172L66.1548 75.3207C66.2986 75.4978 66.5287 75.616 66.7588 75.616H69.779C69.9228 75.616 70.0091 75.4388 69.9228 75.3207L64.6016 68.381L68.312 63.597C68.4271 63.4789 68.4846 63.3017 68.4846 63.1245ZM27.0659 75.5864H34.0553C34.2854 75.5864 34.5156 75.4683 34.6594 75.2911L36.4139 73.0173C36.5002 72.8992 36.4139 72.722 36.2701 72.722H29.7121V59.7876C29.7121 59.6104 29.5683 59.4923 29.4245 59.4923H27.0659C26.8934 59.4923 26.7783 59.6399 26.7783 59.7876V75.3207C26.7783 75.4388 26.8934 75.5864 27.0659 75.5864Z" fill="white"/>
</svg>
