<svg width="72" height="72" viewBox="0 0 72 72" fill="none" xmlns="http://www.w3.org/2000/svg">
<path d="M58.818 20.985C58.59 20.091 57.942 19.416 57.201 19.209C55.89 18.84 49.5 18 36 18C22.5 18 16.116 18.84 14.793 19.209C14.061 19.413 13.413 20.088 13.182 20.985C12.855 22.257 12 27.588 12 36C12 44.412 12.855 49.74 13.182 51.018C13.41 51.909 14.058 52.584 14.796 52.788C16.116 53.16 22.5 54 36 54C49.5 54 55.887 53.16 57.207 52.791C57.939 52.587 58.587 51.912 58.818 51.015C59.145 49.743 60 44.4 60 36C60 27.6 59.145 22.26 58.818 20.985ZM64.629 19.494C66 24.84 66 36 66 36C66 36 66 47.16 64.629 52.506C63.867 55.461 61.638 57.786 58.815 58.572C53.688 60 36 60 36 60C36 60 18.321 60 13.185 58.572C10.35 57.774 8.124 55.452 7.371 52.506C6 47.16 6 36 6 36C6 36 6 24.84 7.371 19.494C8.133 16.539 10.362 14.214 13.185 13.428C18.321 12 36 12 36 12C36 12 53.688 12 58.815 13.428C61.65 14.226 63.876 16.548 64.629 19.494ZM30 46.5V25.5L48 36L30 46.5Z" fill="#94CB53"/>
</svg>
