<svg width="72" height="72" viewBox="0 0 72 72" fill="none" xmlns="http://www.w3.org/2000/svg">
<path d="M41.742 43.74C41.261 43.8573 40.7768 43.9613 40.29 44.052C37.6482 44.5493 34.936 44.5391 32.298 44.022C31.836 43.932 31.182 43.773 30.339 43.548L27.576 47.139C20.757 46.92 18.165 42.351 18.165 42.351C18.165 32.208 22.608 23.985 22.608 23.985C27.051 20.586 31.278 20.679 31.278 20.679L32.487 22.254C32.5984 22.2384 32.7106 22.2284 32.823 22.224C35.1276 21.9185 37.4631 21.9286 39.765 22.254L41.091 20.679C41.091 20.679 45.321 20.586 49.761 23.988C49.761 23.988 54.207 32.208 54.207 42.351C54.207 42.351 51.582 46.917 44.763 47.139L41.742 43.737V43.74ZM30.228 33C28.425 33 27 34.35 27 36C27 37.65 28.455 39 30.228 39C32.028 39 33.453 37.65 33.453 36C33.483 34.35 32.031 33 30.228 33ZM41.772 33C39.972 33 38.547 34.35 38.547 36C38.547 37.65 40.002 39 41.772 39C43.575 39 45 37.65 45 36C45 34.35 43.575 33 41.772 33ZM63 69L48.03 54H57V12H15V54H48.009L49.719 60H15C13.4087 60 11.8826 59.3679 10.7574 58.2426C9.63214 57.1174 9 55.5913 9 54V12C9 10.4087 9.63214 8.88258 10.7574 7.75736C11.8826 6.63214 13.4087 6 15 6H57C58.5913 6 60.1174 6.63214 61.2426 7.75736C62.3679 8.88258 63 10.4087 63 12V69Z" fill="#94CB53"/>
</svg>
