<svg width="16" height="16" viewBox="0 0 16 16" fill="none" xmlns="http://www.w3.org/2000/svg">
<path d="M13.0706 4.66341C13.0199 4.46475 12.8759 4.31475 12.7113 4.26875C12.4199 4.18675 10.9999 4.00008 7.99992 4.00008C4.99992 4.00008 3.58125 4.18675 3.28725 4.26875C3.12459 4.31408 2.98059 4.46408 2.92925 4.66341C2.85659 4.94608 2.66659 6.13075 2.66659 8.00008C2.66659 9.86941 2.85659 11.0534 2.92925 11.3374C2.97992 11.5354 3.12392 11.6854 3.28792 11.7307C3.58125 11.8134 4.99992 12.0001 7.99992 12.0001C10.9999 12.0001 12.4193 11.8134 12.7126 11.7314C12.8753 11.6861 13.0193 11.5361 13.0706 11.3367C13.1433 11.0541 13.3333 9.86675 13.3333 8.00008C13.3333 6.13341 13.1433 4.94675 13.0706 4.66341ZM14.3619 4.33208C14.6666 5.52008 14.6666 8.00008 14.6666 8.00008C14.6666 8.00008 14.6666 10.4801 14.3619 11.6681C14.1926 12.3247 13.6973 12.8414 13.0699 13.0161C11.9306 13.3334 7.99992 13.3334 7.99992 13.3334C7.99992 13.3334 4.07125 13.3334 2.92992 13.0161C2.29992 12.8387 1.80525 12.3227 1.63792 11.6681C1.33325 10.4801 1.33325 8.00008 1.33325 8.00008C1.33325 8.00008 1.33325 5.52008 1.63792 4.33208C1.80725 3.67541 2.30259 3.15875 2.92992 2.98408C4.07125 2.66675 7.99992 2.66675 7.99992 2.66675C7.99992 2.66675 11.9306 2.66675 13.0699 2.98408C13.6999 3.16141 14.1946 3.67741 14.3619 4.33208ZM6.66659 10.3334V5.66675L10.6666 8.00008L6.66659 10.3334Z" fill="#707C93"/>
</svg>
