<svg width="276" height="324" viewBox="0 0 276 324" fill="none" xmlns="http://www.w3.org/2000/svg">
<path d="M200.764 278.748C199.167 281.08 197.539 283.392 195.844 285.702C194.087 288.117 192.242 290.546 190.312 292.988L190.128 293.216V293.226L189.966 293.433L180.615 307.29C175.566 304.927 170.389 302.575 165.417 300.093H165.406C159.387 297.098 153.433 293.791 147.565 290.227C141.644 286.63 135.855 282.802 130.2 278.744H15.6812L43.4228 239.89L27.9775 222.329L37.7285 222.36C43.6505 222.391 49.5709 222.401 55.4929 222.422L70.8198 222.453C54.9535 202.445 42.2587 180.449 35.1653 157.751C28.6291 136.848 26.8494 115.343 31.7197 94.241L33.3676 87.09L40.7666 85.3627C42.5793 84.9309 44.4235 84.5955 46.2781 84.3163C48.1657 84.0284 49.9994 83.7981 51.7911 83.5966C56.3423 83.0784 60.9404 82.7396 65.5855 82.5803C70.1921 82.4148 74.8092 82.4249 79.4143 82.5703C82.5603 82.6739 85.6599 82.8394 88.7235 83.0683C91.452 83.2602 94.17 83.5088 96.8776 83.8139C97.4076 79.4954 98.3718 75.2365 99.7569 71.0967C101.387 66.2373 103.482 61.5329 106.013 57.0437C111.298 47.6026 118.04 39.1345 126.249 32.3678C133.831 26.1179 142.655 21.3203 152.74 18.5624L159.505 16.7098L158.439 23.383C157.791 27.3946 156.928 31.4437 156.066 35.4985C154.943 40.7639 153.818 46.0178 153.174 51.3321C152.969 53.032 152.818 54.7205 152.725 56.3902C152.632 58.0599 152.627 59.7584 152.692 61.4368C152.746 62.6286 152.833 63.8204 152.951 65.0022C153.069 66.184 153.221 67.3643 153.4 68.5777C153.778 71.137 154.253 73.6761 154.782 76.1749C155.299 78.6407 155.904 81.1899 156.518 83.7506C156.647 84.299 156.874 85.2317 157.101 86.1544C157.522 87.8817 157.953 89.6263 158.352 91.4399C158.642 91.3982 158.966 91.3579 159.355 91.3061L160.38 91.1621C161.922 90.9333 163.676 90.6857 165.136 90.6857C167.553 90.6857 170.216 91.1305 172.859 91.7839C175.157 92.3597 177.433 93.0895 179.515 93.825C187.215 85.2749 196.234 80.0729 206.181 76.8083C216.289 73.4976 227.304 72.1849 238.853 71.3774L245.227 70.9455L244.549 73.299L244.893 74.118L244.192 74.511L243.513 76.8644C243.064 78.4478 242.553 80.0311 242.035 81.6145C241.475 83.2842 240.935 84.8273 240.406 86.2998C239.208 89.6363 237.926 92.9743 236.523 96.2792C235.121 99.5841 233.632 102.82 231.993 106.023C231.151 107.659 230.267 109.297 229.318 110.917C228.368 112.536 227.399 114.129 226.351 115.674C224.841 117.902 223.205 120.172 221.454 122.369C219.995 124.215 218.44 125.99 216.795 127.686C220.452 129.996 224.032 132.39 227.473 134.899C231.324 137.697 235.045 140.656 238.573 143.78C241.755 146.61 245.659 150.434 248.895 154.518C251.344 157.616 253.404 160.86 254.461 163.927L255.497 166.95L255.518 167.604L254.665 170.671C253.663 174.288 252.498 177.916 251.247 181.543C249.973 185.212 248.647 188.756 247.32 192.239C245.223 197.68 242.99 203.093 240.622 208.479C238.54 213.174 236.35 217.831 234.053 222.45L242.908 222.44H260.318L248.895 249.882V249.914C248.893 250.004 248.897 250.093 248.907 250.183C248.904 251.262 248.788 252.339 248.561 253.396C248.325 254.478 247.99 255.538 247.558 256.562L243.501 266.109C242.832 267.688 241.971 269.186 240.935 270.571C239.901 271.951 238.698 273.207 237.353 274.313C235.675 275.718 233.76 276.838 231.691 277.624C229.693 278.372 227.568 278.756 225.424 278.754L200.764 278.748Z" fill="white"/>
<path d="M186.73 292.308L179.359 303.254L176.639 301.982L167.691 297.705C97.5193 262.672 16.0496 174.631 34.6921 93.8275L35.7538 89.2562L40.4831 88.1426C43.8897 87.3442 47.6361 86.8392 51.1004 86.4408C60.1221 85.4001 69.3167 85.1374 78.3808 85.4322C109.767 86.4306 140.826 94.2479 169.329 106.775C191.928 116.7 218.146 129.937 236.568 146.32C241.493 150.699 249.236 158.541 251.42 164.91L252.163 167.043L251.557 169.219C249.558 176.395 246.893 183.751 244.229 190.709C237.927 207.165 230.327 223.349 221.448 238.681C211.029 256.673 200.142 275.316 187.178 291.74C187.026 291.93 186.873 292.118 186.73 292.308Z" fill="#0B121D"/>
<path d="M42.6532 91.9875C24.7696 171.755 106.064 260.713 174.469 294.406L174.612 294.935C174.612 294.935 174.71 294.827 174.884 294.611C175.266 294.805 175.658 295 176.05 295.183L180.206 290.034C187.228 280.955 197.358 266.088 214.676 235.331C231.993 204.574 244.009 165.759 244.009 165.759C244.009 165.759 236.164 142.262 166.204 110.641C96.245 79.0207 42.6532 91.9875 42.6532 91.9875Z" fill="#94CB53"/>
<path d="M214.144 218.677C215.883 219.937 219.064 222.301 220.836 223.521L224.99 226.387L179.465 296.245C173.505 295.172 168.017 294.08 162.933 292.956C153.455 287.609 139.219 278.95 120.435 265.865C93.1903 246.898 67.9348 208.792 56.4551 189.926L67.2014 167.96C69.2893 163.59 71.5534 159.273 73.948 155.354C76.3974 151.332 78.8679 147.318 81.2732 143.274L93.8676 119.071L101.808 103.136C97.2158 88.3665 101.37 72.2827 109.002 58.6689C118.831 41.0941 133.69 27.2498 153.588 21.8078C151.368 35.6316 147.21 47.9017 147.739 61.2105C147.85 63.7772 148.099 66.3367 148.483 68.8789C149.259 74.1852 150.457 79.4375 151.708 84.6475C152.44 87.672 153.227 90.7606 153.883 93.8493L154.49 96.3704C156.063 96.2026 163.357 95.0778 164.898 95.0778C169.391 95.0778 175.47 97.0737 179.723 98.661L180.904 99.0987C196.003 80.4632 217.246 77.0813 239.932 75.4953C239.932 75.4953 233.274 98.5472 223.106 113.617C217.694 121.641 213.125 126.233 210.03 128.774C211.103 129.946 212.079 131.196 212.949 132.514C214.261 134.574 215.562 136.622 216.885 138.671L217.137 139.059L217.345 139.479C218.493 141.822 220.515 145.771 220.875 148.208C220.909 148.44 220.942 148.681 220.963 148.913L221.914 148.933L218.011 162.064L239.779 195.343C239.651 211.493 226.181 214.082 214.144 218.677Z" fill="#0B121D"/>
<path d="M194.503 148.292C194.503 148.292 195.869 141.313 192.477 133.633C191.257 130.896 189.266 128.509 187.212 126.561L182.053 125.11L185.821 131.31C185.821 131.31 179.444 125.137 167.498 123.089C155.551 121.041 149.049 117.606 149.049 117.606C149.049 117.606 152.914 122.951 159.155 124.935C165.396 126.919 172.456 127.406 178.497 130.345C184.538 133.284 187.722 141.588 187.722 141.588C187.722 141.588 184.813 135.139 177.552 131.925C170.291 128.712 167.508 129.453 158.483 127.544C149.457 125.635 145.382 119.662 145.382 119.662C147.251 132.085 167.015 134.131 174.4 138.629C176.208 139.404 177.668 140.495 179.18 141.854C182.837 145.142 186.977 149.056 186.977 149.056C186.977 149.056 187.25 146.647 185.621 144.018C183.993 141.388 182.669 140.283 182.669 140.283C182.669 140.283 186.504 142.819 188.405 145.587C190.307 148.355 190.412 149.395 191.735 149.534C193.059 149.672 194.503 148.292 194.503 148.292ZM204.464 154.403L204.296 153.532C204.296 153.532 206.555 152.779 208.656 149.788C210.758 146.798 210.453 144.442 210.453 144.442C210.453 144.442 211.956 146.319 211.441 150.7C210.925 155.082 208.467 159.335 208.467 159.335L204.464 154.403ZM136.854 141.621C137.989 139.689 139.703 137.113 141.792 135.086C145.659 131.33 149.306 130.302 149.306 130.302C149.306 130.302 155.726 145.99 165.611 150.043C175.34 154.033 181.643 151.2 181.843 151.116C180.38 151.879 178.811 152.416 177.19 152.707C179.774 151.823 181.813 151.126 181.843 151.116C182.491 150.786 183.107 150.395 183.682 149.949C183.682 149.949 183.955 154.531 177.991 158.031C172.027 161.531 166.107 160.291 166.107 160.291C166.107 160.291 170.247 161.935 176.898 160.291C183.549 158.647 184.295 157.48 184.295 157.48L205.202 176.318L188.032 153.161C188.032 153.161 189.523 151.857 191.457 151.486C193.39 151.114 194.031 152.238 194.031 152.238C194.031 152.238 193.485 151.102 194.468 150.594C195.452 150.086 200.435 151.592 200.435 151.592L227.701 188.441L223.488 187.55L222.405 187.964L201.435 161.859L220.567 188.176C220.567 188.176 215.818 190.298 215.146 190.435C214.473 190.572 210.124 187.073 210.124 187.073L213.517 191.73C213.517 191.73 215.756 195.908 217.216 197.733C218.677 199.558 218.602 199.027 218.602 199.027C218.602 199.027 218.165 200.13 212.499 200.607C206.832 201.085 201.162 198.135 201.162 198.135C201.162 198.135 205.648 200.948 210.05 201.594C214.452 202.241 219.118 200.056 219.118 200.056C219.118 200.056 215.418 202.221 211.238 202.486C207.057 202.751 201.875 199.918 201.875 199.918C201.875 199.918 206.015 203.454 212.056 203.069C218.098 202.685 219.685 201.287 219.685 201.287C219.685 201.287 218.267 202.623 214.022 203.451C209.777 204.279 203.399 202.221 203.399 202.221C203.399 202.221 206.215 204.204 210.975 204.236C215.735 204.268 220.031 202.039 220.031 202.039C220.031 202.039 216.028 205.264 209.682 204.956C203.336 204.648 183.111 188.548 176.535 183.55C169.958 178.553 169.338 176.221 166.554 176.221C163.769 176.221 164.042 179.711 167.037 181.419C170.031 183.126 173.813 184.58 180.607 189.374C187.401 194.168 202.461 206.08 210.132 206.905C217.803 207.73 221.594 203.893 221.594 203.893C221.594 203.893 219.083 207.552 211.928 207.934C204.773 208.315 199.099 205.261 199.099 205.261C199.099 205.261 205.004 208.613 210.667 208.931C216.33 209.249 219.387 207.415 219.387 207.415C219.387 207.415 210.74 211.87 202.798 209.949C194.855 208.028 182.72 198.101 179.053 195.364C175.386 192.627 175.249 192.48 175.249 192.48C175.249 192.48 184.306 198.814 191.125 202.792C197.944 206.77 200.496 207.906 200.496 207.906C200.496 207.906 182.751 196.12 175.281 190.975C167.811 185.831 167.38 185.566 167.38 185.566C167.38 185.566 166.796 186.118 167.412 187.454C168.027 188.791 168.4 189.3 168.4 189.3C168.4 189.3 162.967 188.24 161.476 182.082C159.984 175.923 165.005 173.649 165.005 173.649C165.005 173.649 163.984 173.447 162.463 174.306C160.943 175.165 160.698 175.95 160.698 175.95C160.801 174.938 161.178 173.974 161.788 173.164C162.398 172.353 163.216 171.728 164.155 171.356C167.444 170.02 168.735 170.805 168.735 170.805C168.735 170.805 166.603 169.543 163.104 170.944C159.605 172.345 159.027 173.69 158.461 177.117C157.895 180.543 159.164 183.757 159.164 183.757C159.164 183.757 157.536 182.759 154.824 178.655C152.113 174.55 151.906 171.325 151.906 171.325C151.906 171.325 150.623 173.447 152.999 178.039C155.375 182.631 159.776 185.168 159.776 185.168C159.776 185.168 157.137 185.093 152.116 180.501C147.095 175.909 146.411 165.639 146.411 165.639C146.411 165.639 145.192 167.623 145.738 171.05C146.284 174.477 146.748 175.844 146.748 175.844C146.748 175.844 138.951 170.912 135.084 159.88C131.217 148.848 138.251 143.784 138.251 143.784L135.332 144.463C135.752 143.47 136.261 142.519 136.854 141.621V141.621ZM149.306 130.302C149.306 130.302 149.263 130.408 149.201 130.597L149.306 130.302ZM226.875 197.213C226.875 197.213 225.467 199.939 224.889 200.491C224.311 201.043 223.775 201.054 223.775 201.054C224.18 201.128 224.593 201.157 225.004 201.138C225.4 201.126 225.782 200.988 226.097 200.746C226.004 200.936 225.87 201.102 225.704 201.232C225.539 201.363 225.346 201.454 225.141 201.499C224.412 201.69 224.079 201.637 224.079 201.637L225.13 204.055C225.13 204.055 225.351 204.395 226.297 201.721C227.242 199.047 226.875 197.213 226.875 197.213V197.213Z" fill="#747E87"/>
<path d="M153.945 147.033L154.026 147.108L154.096 147.175C154.353 147.438 154.634 147.701 154.906 147.98L154.93 147.998L154.941 148.017C156.867 149.846 159.281 151.854 161.803 153.18C167.531 156.174 172.199 156.486 172.199 156.486L173.049 156.524C173.991 156.642 174.944 156.69 175.897 156.667C175.897 156.667 175.29 157.588 167.987 158.751C160.683 159.914 157.356 159.423 157.356 159.423C157.356 159.423 159.69 161.923 169.865 163.269C180.04 164.615 187.122 162.048 187.122 162.048L211.391 178.143L193.831 155.198C193.831 155.198 194.965 154.409 195.978 154.621C196.991 154.832 198.276 155.69 198.276 155.69C198.276 155.69 197.565 153.863 197.715 152.839C197.773 152.487 197.929 152.15 198.171 151.854C197.343 151.759 196.643 151.74 196.328 151.873C195.231 152.327 195.842 153.342 195.842 153.342C195.842 153.342 195.131 152.327 192.983 152.669C190.836 153.011 189.18 154.165 189.18 154.165L208.246 174.846L185.027 158.022C185.027 158.022 184.199 159.064 176.812 160.532C169.426 162.001 164.828 160.532 164.828 160.532C164.828 160.532 171.387 161.631 178.026 158.514C180.335 157.424 181.807 156.211 182.74 155.103C184.477 153.029 184.349 151.296 184.349 151.296C184.349 151.296 183.358 151.844 181.246 152.422C179.168 152.981 175.551 153.265 175.423 153.275C172.484 153.275 168.703 152.83 164.281 151.38C153.301 147.762 146.173 133.749 146.173 133.749C146.173 133.749 145.403 138.412 153.945 147.033Z" fill="#384A59"/>
<path d="M142.077 172.199C142.315 170.427 142.727 167.949 143.355 165.9L144.483 162.277C144.483 162.277 146.023 167.75 147.138 170.097L148.255 172.452L149.448 166.264C149.448 166.264 150.64 169.248 152.114 172.31C153.588 175.371 154.628 176.57 154.628 176.57C154.628 176.57 154.065 171.676 159.106 168.465C164.147 165.253 170.943 169.886 170.943 169.886L165.414 170.743L167.789 172.088L164.851 173.233C164.851 173.233 168.981 172.726 172.831 176.855C176.68 180.984 185.861 187.735 192.017 192.646C198.174 197.557 200.485 198.835 200.485 198.835L198.392 195.344C198.392 195.344 203.291 197.91 208.615 198.119C213.938 198.329 215.682 197.194 215.682 197.194L207.562 184.398C207.562 184.398 213.72 187.669 215.335 187.525C216.951 187.382 219.042 186.028 219.042 186.028L202.815 162L221.112 187.328C221.112 187.328 216.213 189.53 215.519 189.673C214.825 189.815 210.339 186.183 210.339 186.183L213.839 191.017C213.839 191.017 216.148 195.354 217.655 197.249C219.163 199.144 219.086 198.592 219.086 198.592C219.086 198.592 218.634 199.738 212.788 200.233C206.942 200.729 201.091 197.667 201.091 197.667C201.091 197.667 205.719 200.586 210.262 201.258C214.804 201.929 219.617 199.661 219.617 199.661C219.617 199.661 215.801 201.908 211.487 202.183C207.174 202.458 201.828 199.517 201.828 199.517C201.828 199.517 206.099 203.188 212.332 202.789C218.565 202.389 220.203 200.938 220.203 200.938C220.203 200.938 218.739 202.325 214.36 203.185C209.98 204.044 203.399 201.908 203.399 201.908C203.399 201.908 206.305 203.966 211.216 204C216.127 204.034 220.56 201.72 220.56 201.72C220.56 201.72 216.43 205.067 209.882 204.748C203.335 204.428 182.468 187.714 175.682 182.526C168.897 177.338 168.257 174.917 165.384 174.917C162.512 174.917 162.793 178.54 165.882 180.313C168.972 182.085 172.874 183.595 179.884 188.571C186.894 193.548 202.431 205.915 210.346 206.771C218.261 207.628 222.172 203.644 222.172 203.644C222.172 203.644 219.581 207.443 212.199 207.839C204.818 208.235 198.963 205.064 198.963 205.064C198.963 205.064 205.056 208.544 210.899 208.874C216.742 209.204 219.896 207.3 219.896 207.3C219.896 207.3 210.974 211.925 202.779 209.931C194.584 207.937 182.064 197.632 178.281 194.79C174.497 191.948 174.356 191.795 174.356 191.795C174.356 191.795 183.701 198.372 190.736 202.501C197.772 206.63 200.405 207.81 200.405 207.81C200.405 207.81 182.096 195.575 174.389 190.234C166.682 184.893 166.236 184.618 166.236 184.618C166.236 184.618 165.634 185.192 166.269 186.579C166.905 187.966 167.289 188.495 167.289 188.495C167.289 188.495 161.683 187.394 160.145 181.001C158.606 174.608 163.787 172.247 163.787 172.247C163.787 172.247 162.733 172.037 161.164 172.929C159.595 173.821 159.342 174.636 159.342 174.636C159.449 173.585 159.838 172.584 160.467 171.743C161.096 170.902 161.941 170.253 162.909 169.867C166.303 168.48 167.635 169.295 167.635 169.295C167.635 169.295 165.435 167.984 161.825 169.439C158.215 170.893 157.618 172.29 157.034 175.847C156.45 179.404 157.76 182.74 157.76 182.74C157.76 182.74 156.08 181.705 153.283 177.444C150.485 173.183 150.271 169.835 150.271 169.835C150.271 169.835 148.948 172.037 151.399 176.804C153.85 181.572 158.391 184.205 158.391 184.205C158.391 184.205 155.669 184.127 150.488 179.36C145.308 174.593 144.601 163.932 144.601 163.932C144.601 163.932 143.344 165.992 143.907 169.549C144.47 173.106 144.949 174.526 144.949 174.526C144.949 174.526 143.757 173.773 142.077 172.199ZM227.627 196.711C227.627 196.711 226.174 199.54 225.578 200.114C224.982 200.687 224.429 200.698 224.429 200.698C224.847 200.775 225.272 200.805 225.697 200.785C226.105 200.772 226.499 200.63 226.824 200.378C226.728 200.575 226.59 200.748 226.419 200.883C226.248 201.019 226.05 201.113 225.838 201.16C225.085 201.359 224.742 201.304 224.742 201.304L225.826 203.813C225.826 203.813 226.055 204.167 227.031 201.391C228.006 198.615 227.627 196.711 227.627 196.711Z" fill="#384A59"/>
<path d="M195.082 149.892L224.298 185.597L227.7 186.215L197.264 150.419C197.264 150.419 196.291 150.169 195.082 149.892Z" fill="white"/>
<path d="M146.155 138.041C146.155 138.041 142.367 138.878 140.546 139.991C138.724 141.103 137.588 143.094 137.588 143.094L140.906 142.904C140.906 142.904 135.545 147.438 136.212 157.907C136.853 168.099 141.162 173.8 141.393 174.108C138.469 170.474 136.24 166.076 134.869 161.234C131.715 150.215 137.46 145.16 137.46 145.16L135.085 145.839C135.085 145.839 136.856 140.298 140.224 138.719C143.593 137.14 146.155 138.041 146.155 138.041Z" fill="white"/>
<path d="M182.849 137.785C180.878 135.915 178.531 134.411 175.938 133.357C168.296 130.276 165.366 130.996 155.866 129.171C146.367 127.347 142.077 121.642 142.077 121.642C142.938 132.535 164.348 130.378 172.975 133.447C178.725 135.495 182.805 137.755 182.849 137.785Z" fill="white"/>
<path d="M194.791 148.794C194.791 148.794 196.253 142.619 192.623 135.823C191.317 133.401 189.188 131.289 186.989 129.566L181.47 128.282L182.808 130.094L186.451 130.695C186.451 130.695 187.979 131.755 190.34 135.576C192.701 139.397 194.151 145.693 193.386 146.787C192.621 147.88 191.172 147.631 191.172 147.631C191.172 147.631 188.957 144.299 186.63 142.534C184.304 140.769 179.221 139.024 179.221 139.024L181.156 141.991C181.156 141.991 178.142 138.451 167.677 137.392C166.271 137.24 165.022 137.131 163.898 137.063C167.608 138.123 170.993 139.09 173.266 140.235C175.201 140.92 176.764 141.886 178.381 143.088C182.294 145.998 186.724 149.461 186.724 149.461C186.724 149.461 187.016 147.33 185.273 145.003C183.531 142.676 182.115 141.699 182.115 141.699C182.115 141.699 186.218 143.942 188.252 146.392C190.287 148.841 190.399 149.761 191.815 149.884C193.232 150.006 194.791 148.794 194.791 148.794ZM154.781 124.344C149.139 122.937 146.155 121.642 146.155 121.642C146.155 121.642 150.291 126.371 156.969 128.127C163.647 129.883 171.201 130.313 177.665 132.914C181.476 134.453 184.222 137.635 185.838 139.991C185.838 139.991 183.848 135.363 179.42 132.519C174.992 129.674 168.526 129.723 161.331 127.967C156.884 126.878 155.332 125.358 154.781 124.344Z" fill="#384A59"/>
<path d="M159.201 117.606L158.386 118.363L178.673 125.677L178.773 124.125L159.201 117.606Z" fill="#AA522A"/>
<path d="M158.387 116.896L155.119 105.498L154.31 106.759L157.632 117.606L158.387 116.896Z" fill="#AA522A"/>
<path d="M154.965 100.597L159.415 114.724L178.244 120.455L180.874 121.262L182.162 121.642L182.207 120.943L182.85 111.255L175.573 101.393C174.182 100.751 166.766 97.4267 163.069 97.4267C160.625 97.4267 157.659 97.9054 155.607 98.3024C155.124 98.3973 154.68 98.4809 154.31 98.5626L154.368 98.7526L154.965 100.597Z" fill="#FFC972"/>
<path d="M179.497 120.838L180.874 121.262L182.162 121.642L182.207 120.943L182.85 111.255L175.573 101.393C174.182 100.751 166.766 97.4267 163.069 97.4267C160.625 97.4267 157.659 97.9054 155.607 98.3024C155.124 98.3973 154.68 98.4809 154.31 98.5626L154.368 98.7526L154.923 100.517C156.476 100.449 158.18 100.42 159.999 100.462C168.446 100.639 172.941 103.019 172.941 103.019C172.941 103.019 167.334 102.403 165.307 102.719L163.29 103.019C163.29 103.019 170.927 104.086 172.375 104.483C173.823 104.88 174.552 105.015 174.552 105.015L180.012 113.221L179.497 120.838Z" fill="#FFEAC7"/>
<path d="M194.264 148.314C194.264 148.314 194.501 144.5 195.549 142.297C196.598 140.095 203.933 139.844 203.933 139.844C203.933 139.844 199.417 138.683 196.596 139.003C193.775 139.323 193.616 139.394 193.616 139.394C193.616 139.394 191.931 131.954 189.511 128.912C187.09 125.869 186.927 125.677 186.927 125.677C186.927 125.677 190.634 127.56 193.616 129.823C196.598 132.085 197.89 133.186 197.89 133.186C197.89 133.186 197.48 131.379 195.87 129.241L194.264 127.107C194.264 127.107 200.789 131.171 203.609 134.866C206.428 138.561 208.124 140.743 208.124 140.743C208.124 140.743 208.623 141.603 209.235 142.689C208.542 143.59 207.188 145.042 204.768 146.374C204.331 146.615 203.92 146.847 203.534 147.07C201.176 147.765 198.98 149.892 198.98 149.892L194.264 148.314ZM210.032 144.142C210.694 145.354 211.279 146.515 211.342 146.896C211.505 147.797 211.267 147.997 210.543 147.997C210.32 147.997 209.931 147.866 209.42 147.697C209.836 146.541 210.043 145.343 210.034 144.14L210.032 144.142Z" fill="#747E87"/>
<path d="M198.357 131.745C197.924 130.87 197.375 130.029 196.718 129.232L194.955 127.098C194.955 127.098 202.101 131.162 205.188 134.856C208.275 138.55 210.133 140.732 210.133 140.732C212.347 142.643 211.814 143.084 207.127 146.015L207.114 146.034L207.1 146.044L207.072 146.054L207.032 146.075L207.019 146.084L207.004 146.094L206.977 146.104L206.964 146.115L206.922 146.134L206.909 146.144L206.827 146.184L206.814 146.194L206.717 146.244H206.706L206.693 146.254C206.658 146.277 206.622 146.297 206.583 146.315L206.459 146.375C205.981 146.616 205.531 146.848 205.108 147.07L204.985 147.099C204.947 147.117 204.905 147.131 204.862 147.14V147.14C204.822 147.149 204.785 147.162 204.752 147.18H204.738C204.701 147.191 204.664 147.204 204.63 147.22H204.619C204.584 147.235 204.548 147.248 204.511 147.259H204.497C204.469 147.27 204.429 147.29 204.4 147.299L204.374 147.309L204.292 147.34L204.264 147.35C204.231 147.361 204.199 147.374 204.169 147.39L204.141 147.4C204.106 147.409 204.074 147.423 204.046 147.44V147.44C201.902 148.321 200.126 149.892 200.126 149.892L194.961 148.31C194.961 148.31 195.221 144.497 196.369 142.294C197.517 140.092 205.548 139.842 205.548 139.842C205.548 139.842 200.604 138.681 197.515 139.001C194.426 139.32 194.251 139.391 194.251 139.391C194.251 139.391 192.407 131.953 189.756 128.911C187.106 125.869 186.927 125.677 186.927 125.677C186.927 125.677 187.324 125.868 187.98 126.188C190.274 127.856 193.471 130.359 194.811 132.265C197.023 135.397 197.023 136.398 197.023 136.398C197.023 136.398 200.234 137.28 203.158 138.371C206.082 139.462 206.423 140.283 206.423 140.283C206.423 140.283 202.406 140.7 200.541 141.734C198.676 142.768 198.287 145.938 198.205 146.169C198.124 146.4 199.093 147.299 199.093 147.299C199.093 147.299 202.319 145.478 205.719 145.578C205.964 145.468 206.224 145.347 206.51 145.228C207.672 144.697 208.751 143.526 209.357 142.755C208.014 140.987 206.536 139.276 204.93 137.63C202.892 135.579 200.697 133.614 198.357 131.745V131.745Z" fill="#384A59"/>
<path d="M111.498 125.677C119.371 125.677 125.768 131.099 125.768 137.785C125.768 144.471 119.371 149.892 111.498 149.892C103.625 149.892 97.2275 144.471 97.2275 137.785C97.2275 131.099 103.615 125.677 111.498 125.677ZM111.498 129.789C116.702 129.789 120.919 133.373 120.919 137.785C120.919 142.197 116.702 145.781 111.498 145.781C106.294 145.781 102.071 142.197 102.071 137.785C102.071 133.373 106.295 129.789 111.498 129.789V129.789Z" fill="#FFC972"/>
<path d="M113.542 129.713C118.045 129.713 121.691 133.322 121.691 137.785C121.691 142.248 118.041 145.857 113.542 145.857C109.044 145.857 105.382 142.247 105.382 137.785C105.382 133.323 109.028 129.713 113.542 129.713Z" fill="#FFC972"/>
<path d="M137.688 116.737C137.688 116.737 134.38 113.626 134.779 105.376C135.823 83.7504 131.001 75.7194 133.458 55.8759C134.646 46.277 137.688 40.5875 137.688 40.5875C137.688 40.5875 126.577 50.8699 118.772 72.6506C110.967 94.4314 118.772 106.191 121.548 110.118C124.325 114.045 129.883 117.553 129.883 117.553C129.883 117.553 121.025 119.041 113.878 106.191C106.732 93.3421 108.583 76.976 117.053 60.8804C125.522 44.7848 146.154 28.8172 146.154 28.8172C146.154 28.8172 138.086 45.8654 138.617 59.9278C139.147 73.9901 144.034 89.1433 145.221 97.9393C146.409 106.735 137.688 116.737 137.688 116.737Z" fill="#747E87"/>
<path d="M136.702 117.606C136.702 117.606 134.838 116.019 133.923 112.117L139.149 101.648C139.149 101.648 132.655 77.1983 135.902 54.251C138.177 38.2199 142.268 32.1806 144.544 29.9922C145.561 29.2314 146.155 28.8172 146.155 28.8172C146.155 28.8172 137.148 46.0335 137.74 60.2346C138.332 74.4356 143.788 89.7382 145.114 98.621C146.439 107.504 136.702 117.606 136.702 117.606Z" fill="#384A59"/>
<path d="M122.282 117.606C119.638 115.925 116.698 113.058 114.002 108.199C106.658 94.9795 108.554 78.1385 117.268 61.5774C123.267 50.1565 135.23 38.8 142.077 32.8531C134.713 39.6096 121.313 54.381 114.897 77.115C109.685 95.5826 115.951 109.277 122.282 117.606Z" fill="white"/>
<path d="M182.851 106.101C190.012 93.5206 209.396 80.7911 223.623 77.2474C200.069 90.4438 189.316 97.9189 192.508 125.678C192.508 125.678 188.327 120.812 186.196 117.508L184.069 114.184L184.681 110.286L182.851 106.101Z" fill="#747E87"/>
<path d="M203.236 93.3907L203.224 93.4014L203.236 93.3907ZM198.209 98.9366C193.688 105.372 192.158 113.501 193.711 125.677C193.711 125.677 189.226 120.989 186.94 117.804L186.927 117.781C187.471 116.421 188.229 114.696 189.24 112.499C191.582 107.426 195.227 102.519 198.209 98.9366Z" fill="#384A59"/>
<path d="M182.851 107.196C190.012 94.1381 209.396 80.9255 223.623 77.2474C221.333 78.5715 219.184 79.8495 217.135 81.0799C212.317 83.6705 206.418 87.2303 201.236 91.5113C190.129 100.678 184.37 113.57 184.37 113.57L184.676 111.548L182.851 107.196Z" fill="white"/>
<path d="M127.658 145.857C127.658 145.857 130.462 171.481 140.755 204.316C151.048 237.152 170.618 281.166 170.618 281.166L161.093 282.527L155.751 283.075C155.751 283.075 138.466 231.026 130.339 198.06C122.212 165.094 121.69 149.818 121.69 149.818C121.69 149.818 126.137 171.898 129.444 184.982C132.751 198.066 134.531 201.607 134.531 201.607L126.521 163.724L131.795 180.551C131.795 180.551 129.316 167.67 128.559 159.16C127.802 150.651 127.658 145.857 127.658 145.857Z" fill="#FFC972"/>
<path d="M127.659 145.857C127.659 145.857 130.464 171.481 140.756 204.316C151.049 237.152 170.618 281.166 170.618 281.166L161.093 282.527L155.751 283.075C155.751 283.075 155.386 281.99 154.747 280.038L162.874 277.569C162.874 277.569 162.874 276.62 159.321 267.753C155.768 258.886 144.445 223.879 144.445 223.879L133.641 184.16L134.152 187.294L132.375 185.389L136.823 208.967L133.015 201.466C131.342 198.184 129.168 191.38 127.249 184.764C122.065 160.954 121.69 149.814 121.69 149.814C121.69 149.814 126.137 171.894 129.444 184.978C132.751 198.061 134.53 201.603 134.53 201.603L126.521 163.72L131.795 180.547C131.795 180.547 129.316 167.665 128.559 159.156C127.802 150.646 127.659 145.857 127.659 145.857Z" fill="#AD4C21"/>
<path d="M170.618 194.287C170.618 194.287 171.08 207.248 179.19 232.488C187.301 257.728 192.671 270.968 192.671 270.968L203.236 257.177C203.236 257.177 188.534 231.937 184.858 219.936C181.183 207.935 178.123 198.286 178.123 198.286C178.123 198.286 181.229 211.707 182.487 217.943C183.745 224.178 183.755 224.392 183.755 224.392L174.57 196.005L177.549 215.385C177.549 215.385 173.173 203.46 172.19 199.113C171.207 194.767 170.618 194.287 170.618 194.287Z" fill="#FFC972"/>
<path d="M170.618 194.287C170.618 194.287 171.08 207.58 179.189 233.465C179.463 234.307 179.723 235.137 179.983 235.949L175.988 217.992C175.988 217.992 178.252 221.642 178.294 221.353C178.335 221.064 178.827 215.628 178.827 215.628L184.576 232.38L185.11 226.335C185.11 226.335 193.917 249.998 199.121 260.739L200.165 262.896L203.236 258.779C203.236 258.779 188.536 232.894 184.861 220.587C181.186 208.279 178.127 198.384 178.127 198.384C178.127 198.384 181.232 212.148 182.49 218.543C183.748 224.938 183.758 225.157 183.758 225.157L174.569 196.049L177.548 215.924C177.548 215.924 173.173 203.694 172.19 199.237C171.207 194.779 170.618 194.287 170.618 194.287Z" fill="#AD4C21"/>
<path d="M108.514 153.928C108.464 154.221 107.93 157.583 107.175 163.138C109.952 163.496 114.459 163.591 118.674 163.577C118.061 158.419 117.738 154.977 117.647 153.956C114.681 154.987 111.475 154.979 108.514 153.934V153.928ZM105.214 179.169C104.993 181.159 104.781 183.243 104.56 185.411C108.04 187.274 115.505 189.106 122.668 190.559C122.165 187.727 121.709 185.004 121.3 182.39L120.727 182.327C115.587 181.77 109.858 180.432 105.214 179.169ZM103.041 203.126C102.91 204.957 102.79 206.821 102.668 208.693C102.598 209.936 102.528 211.136 102.457 212.304C106.742 215.798 111.924 219.614 117.357 222.767C121.601 225.218 126.974 227.737 132.385 230.076C130.655 224.445 129.046 218.929 127.678 213.824C118.262 210.325 108.514 205.778 103.041 203.126V203.126ZM101.482 233.474C101.281 240.052 101.29 244.011 101.321 246.063C107.688 253.346 114.409 259.988 121.269 265.188C129.093 271.135 136.068 276.166 142.164 280.391C148.15 283.075 150.231 283.075 150.231 283.075C150.231 283.075 146.751 273.539 142.295 260.498C135.977 258.597 128.382 255.381 120.938 249.993C113.412 244.534 106.703 238.545 101.482 233.474Z" fill="#94CB53"/>
<path d="M108.488 153.928C108.467 154.075 108.306 155.056 108.068 156.718C109.022 157.047 110.006 157.273 111.004 157.392C114.195 157.803 115.423 157.455 115.423 157.455L115.855 163.572C116.782 163.582 117.727 163.582 118.652 163.572C118.038 158.414 117.715 154.971 117.624 153.95C114.656 154.981 111.448 154.973 108.485 153.928H108.488ZM104.883 181.971C107.154 182.99 109.538 183.708 111.98 184.108C116.339 184.792 118.745 185.403 118.745 185.403L119.258 189.845C120.385 190.098 121.523 190.329 122.65 190.561C122.147 187.729 121.691 185.006 121.281 182.392L120.708 182.329C115.563 181.772 109.826 180.428 105.189 179.171C105.079 180.088 104.984 181.013 104.883 181.971ZM102.739 207.182L122.842 216.403L124.342 226.434C126.918 227.676 129.636 228.897 132.374 230.077C130.643 224.445 129.032 218.929 127.664 213.824C118.242 210.329 108.488 205.783 103.011 203.13C102.911 204.466 102.82 205.824 102.739 207.182ZM101.304 240.087C104.978 243.782 114.446 252.719 124.598 257.603C137.6 263.856 137.995 263.856 137.995 263.856L144.263 281.286C148.642 283.075 150.231 283.075 150.231 283.075C150.231 283.075 146.749 273.539 142.29 260.496C135.968 258.596 128.368 255.379 120.919 249.991C113.389 244.539 106.676 238.549 101.451 233.47C101.37 236.077 101.329 238.266 101.304 240.087Z" fill="#0B3770"/>
<path d="M103.341 153.612C103.341 153.612 98.9232 177.067 94.5174 206.765C91.257 228.735 90.6331 236.254 90.5264 238.681C89.7691 237.752 89.0119 236.821 88.2753 235.881L64.6084 195.03L68.0554 186.195L75.9098 201.93L71.0861 182.883C71.0861 182.883 76.8805 168.53 81.9711 159.829C87.0616 151.129 89.2801 147.26 89.2801 147.26L93.3451 139.115C93.3451 139.115 93.6223 142.813 95.7163 147.334C97.8103 151.856 99.0625 152.497 99.0625 152.497L90.319 201.161L103.341 153.612ZM100.201 124.23L108.3 109.534C111.724 116.406 118.767 122.284 125.768 125.269C125.768 125.269 115.054 123.099 112.397 123.058C109.74 123.016 106.955 116.645 106.955 116.645L107.948 122.928C107.948 122.928 103.028 124.618 100.713 126.343C98.3986 128.068 97.9926 128.421 97.9926 128.421L100.201 124.23Z" fill="#94CB53"/>
<path d="M105.382 151.925C105.382 151.925 101.254 175.844 97.138 206.132C94.0919 228.538 93.509 236.206 93.4093 238.681C92.7018 237.733 91.9942 236.784 91.3061 235.826L89.0728 231.631L94.2165 204.683L89.8398 211.582L99.0418 152.023C99.0418 152.023 99.2412 152.165 97.8857 148.644C97.0761 146.485 96.7578 144.144 96.958 141.821C97.3162 143.087 97.7524 144.325 98.2637 145.527C100.233 150.126 101.385 150.788 101.385 150.788L93.2154 200.417L105.382 151.925Z" fill="#0B3770"/>
<path d="M66.3536 192.544L64.6084 189.718L68.0456 181.433L75.8774 196.191L71.0675 178.327C71.0675 178.327 76.8453 164.865 81.9213 156.705C86.9972 148.545 89.2093 144.917 89.2093 144.917L93.2627 137.277C93.2627 137.277 93.4001 139.041 94.2409 141.578L74.2047 179.823L78.6718 202.358L68.3618 188.174L66.3536 192.544ZM101.671 124.64L109.458 111.668C108.991 110.972 108.554 110.255 108.171 109.534L100.096 123.317L97.8938 127.237C97.8938 127.237 98.3091 126.915 100.607 125.287C100.947 125.053 101.301 124.837 101.666 124.64H101.671Z" fill="white"/>
<path d="M182.851 202.358C182.851 202.358 184.353 209.802 187.443 219.358C190.268 216.892 192.89 214.553 194.68 212.84C194.248 212.496 193.827 212.162 193.418 211.816C185.026 204.998 182.851 202.358 182.851 202.358ZM196.497 241.476C201.642 252.508 202.58 254.824 202.58 254.824C202.58 254.824 207.702 248.285 210.96 240.345C214.218 232.404 215.469 227.406 215.469 227.406C215.469 227.406 212.884 225.747 209.277 223.323C206.223 228.569 201.819 235.389 196.497 241.476Z" fill="#94CB53"/>
<path d="M182.851 202.358C182.851 202.358 184.353 209.864 187.443 219.498C188.248 218.792 189.018 218.098 189.781 217.434L187.792 210.831L192.913 214.589C193.563 213.986 194.164 213.427 194.68 212.93C194.248 212.583 193.827 212.246 193.418 211.898C185.026 205.02 182.851 202.358 182.851 202.358ZM198.768 246.753L210.155 227.603L214.652 230.459C215.217 228.623 215.469 227.613 215.469 227.613C215.469 227.613 212.884 225.94 209.277 223.496C206.223 228.786 201.822 235.662 196.497 241.8C197.362 243.696 198.12 245.33 198.768 246.753Z" fill="#0B3770"/>
<path d="M167.231 211.122L164.549 207.876C164.549 207.876 166.575 206.551 167.657 204.558C168.738 202.565 169.683 200.51 169.683 200.51L170.618 211.194C170.618 211.194 169.103 217.1 165.255 218.23C156.737 220.727 145.357 205.37 142.866 198.723C142.866 198.723 142.72 199.114 147.569 203.233C152.418 207.351 155.985 209.2 155.985 209.2C152.895 206.534 150.012 203.673 147.355 200.64C142.866 195.534 141.845 194.077 141.845 194.077L140.184 189.763C140.184 189.763 142.07 191.76 146.345 196.655C150.621 201.55 151.333 201.772 151.333 201.772C151.333 201.772 144.52 190.687 141.917 187.308C139.314 183.928 138.652 181.535 138.652 181.535L138 174.108C144.461 184.229 154.449 206.869 167.231 211.122Z" fill="#94CB53"/>
<path d="M167.219 211.121L164.536 207.875C164.95 207.59 165.34 207.277 165.704 206.939L168.678 212.045C168.678 212.045 167.23 212.405 161.495 208.954C155.761 205.502 149.173 195.62 149.173 195.62L154.324 204.576L151.967 203.252L158.779 210.814L149.645 207.896C149.645 207.896 158.487 216.186 163.852 215.992C169.217 215.798 170.618 211.194 170.618 211.194C170.618 211.194 169.103 217.1 165.255 218.23C156.737 220.727 145.357 205.37 142.866 198.723C142.866 198.723 142.72 199.114 147.569 203.233C152.418 207.351 155.985 209.2 155.985 209.2C152.895 206.534 150.012 203.673 147.355 200.64C142.866 195.534 141.845 194.077 141.845 194.077L140.184 189.763C140.184 189.763 142.07 191.76 146.345 196.655C150.621 201.55 151.333 201.772 151.333 201.772C151.333 201.772 144.52 190.687 141.917 187.308C139.314 183.928 138.652 181.535 138.652 181.535L138 174.108C144.448 184.227 154.436 206.868 167.219 211.121Z" fill="#0B3770"/>
<path d="M161.636 229.991C168.458 230.407 171.94 226.573 171.94 226.573L173.741 231.846C171.267 233.088 167.048 234.653 161.841 234.347C153.711 233.866 152.925 232.263 152.925 232.263L152.625 232.402L150.231 227.049C154.085 229.629 156.579 229.675 161.636 229.991ZM174.783 234.916L177.366 242.505C176.137 243.193 174.838 243.767 173.487 244.218L171.409 236.244C172.565 235.873 173.692 235.43 174.783 234.916V234.916ZM171.032 244.948C169.396 245.383 167.77 245.72 166.235 245.985L163.542 237.568C165.363 237.537 167.174 237.322 168.945 236.925L171.032 244.948ZM163.68 246.363C161.825 246.613 160.217 246.749 159.042 246.816L154.385 236.362C155.95 236.843 158.045 237.262 160.828 237.473L163.68 246.363ZM178.423 245.591L178.772 246.61C178.772 246.61 174.514 248.703 169.686 249.897C164.858 251.092 160.799 250.74 160.799 250.74L160.419 249.897C163.542 249.657 168.389 249.064 173.156 247.684C174.986 247.162 176.752 246.462 178.423 245.594V245.591Z" fill="#FFC972"/>
<path d="M162.224 230.026C169.399 230.446 173.06 226.573 173.06 226.573L174.954 231.9C173.943 232.387 172.895 232.809 171.817 233.163L171.041 230.702C171.041 230.702 170.496 231.274 163.154 231.722C159.201 231.957 155.242 231.361 151.595 229.983L150.231 227.054C154.284 229.66 156.907 229.707 162.224 230.026ZM155.727 238.894L160.741 239.764L162.797 246.753C163.301 246.695 163.825 246.639 164.38 246.565L161.381 237.585C158.454 237.369 156.251 236.948 154.605 236.462L155.727 238.894ZM164.779 239.315L169.489 238.95L171.169 245.367C171.484 245.292 171.798 245.218 172.103 245.134L169.918 237.033C168.056 237.433 166.151 237.651 164.236 237.682L164.779 239.315ZM173.013 238.202L175.95 237.5L177.828 243.16C178.163 243 178.478 242.833 178.772 242.673L176.055 235.007C174.909 235.528 173.724 235.978 172.509 236.354L173.013 238.202Z" fill="#AD4C21"/>
<path d="M113.981 175.359C111.021 174.751 108.124 174.04 105.595 173.359L105.501 173.338L105.511 173.232C105.657 171.997 105.816 170.764 105.963 169.539C106.12 168.349 106.267 167.21 106.4 166.142L106.422 166.036L106.547 166.046C108.151 166.259 110.263 166.387 112.561 166.451C114.86 166.514 117.347 166.535 119.704 166.525H119.809L119.819 166.631C120.019 168.152 120.249 169.78 120.501 171.505C120.721 173.09 120.973 174.728 121.23 176.407L121.25 176.555L121.105 176.545C118.799 176.28 116.373 175.847 113.981 175.359ZM138.496 244.408C139.682 247.906 140.857 251.331 141.994 254.6L142.077 254.824L141.857 254.749C138.89 253.729 135.987 252.525 133.166 251.143C129.974 249.571 126.904 247.754 123.983 245.71C119.43 242.519 115.157 239.138 111.337 235.862C107.517 232.586 104.138 229.439 101.336 226.705L101.304 226.673V226.619C101.367 225.12 101.441 223.535 101.524 221.855C101.599 220.249 101.682 218.558 101.776 216.793L101.797 216.58L101.966 216.709C104.007 218.251 106.205 219.834 108.503 221.366C110.802 222.897 113.196 224.396 115.63 225.769C118.391 227.311 121.57 228.87 124.928 230.395C128.286 231.919 131.814 233.405 135.277 234.797L135.33 234.818L135.35 234.871C136.388 238.081 137.448 241.268 138.496 244.408ZM113.235 201.902C109.057 200.073 105.489 198.413 103.138 197.296L103.065 197.254L103.075 197.18C103.19 195.808 103.306 194.404 103.432 192.979C103.558 191.597 103.683 190.235 103.81 188.917L103.82 188.758L103.966 188.821C106.327 189.799 109.538 190.742 113.086 191.628C116.634 192.514 120.506 193.329 124.201 194.031L124.274 194.051L124.294 194.127C124.483 195.115 124.673 196.072 124.851 197.019C125.029 197.966 125.238 198.939 125.448 199.954C125.68 201.092 125.942 202.293 126.235 203.549C126.528 204.804 126.855 206.111 127.192 207.44L127.244 207.653L127.044 207.579C122.22 205.751 117.423 203.742 113.236 201.902H113.235Z" fill="#FFC972"/>
<path d="M105.951 168.173C106.047 167.471 106.132 166.801 106.215 166.142L106.237 166.036L106.363 166.046C107.975 166.259 110.099 166.387 112.41 166.451C114.721 166.514 117.221 166.535 119.591 166.525H119.697L119.707 166.631C119.908 168.152 120.139 169.779 120.393 171.504C120.614 173.089 120.868 174.727 121.126 176.406L121.146 176.554L121 176.543C119.827 176.405 118.627 176.234 117.4 176.032L116.915 169.302L105.951 168.173ZM103.356 191.577C104.263 192.087 105.74 192.8 108.125 193.745C115.217 196.563 120.387 196.699 120.387 196.699L120.872 205.185C122.867 205.993 124.914 206.801 126.972 207.577L127.172 207.651L127.12 207.439C126.781 206.109 126.454 204.802 126.158 203.547C125.862 202.292 125.6 201.091 125.367 199.953C125.156 198.942 124.956 197.964 124.766 197.018C124.587 196.071 124.397 195.114 124.206 194.126L124.186 194.051L124.112 194.03C120.397 193.329 116.492 192.509 112.938 191.628C109.384 190.746 106.142 189.798 103.768 188.822L103.621 188.758L103.611 188.918C103.529 189.791 103.445 190.674 103.36 191.577H103.356ZM101.304 221.733C104.291 224.359 110.813 229.793 116.436 232.345C124.002 235.779 126.799 235.981 126.799 235.981L129.447 236.801L133.276 251.219C136.06 252.576 138.925 253.755 141.856 254.749L142.077 254.824L141.993 254.6C140.853 251.326 139.672 247.901 138.476 244.41C137.421 241.273 136.355 238.083 135.311 234.881L135.29 234.828L135.237 234.807C131.755 233.415 128.203 231.936 124.832 230.405C121.461 228.873 118.259 227.321 115.483 225.779C113.036 224.407 110.629 222.919 108.318 221.377C106.007 219.835 103.803 218.262 101.745 216.72L101.575 216.592L101.555 216.805C101.482 218.521 101.388 220.17 101.313 221.733H101.304Z" fill="#AD4C21"/>
<path d="M196.275 219.041C197.913 217.372 199.381 215.826 200.548 214.552L200.633 214.466L200.716 214.552C201.788 215.455 202.89 216.37 203.991 217.26C205.093 218.149 206.165 219.041 207.228 219.868L207.313 219.944L207.265 220.042C205.808 222.947 203.991 226.36 201.885 229.909C200.213 232.741 198.334 235.671 196.3 238.496L196.168 238.681L195.77 237.716C194.867 235.516 194.025 233.278 193.231 231.039C192.437 228.8 191.701 226.6 191.027 224.424L191.004 224.35L191.064 224.289C192.858 222.515 194.648 220.71 196.275 219.041Z" fill="#FFC972"/>
<path d="M196.275 219.633C197.913 217.748 199.381 216.002 200.548 214.563L200.633 214.466L200.716 214.563C201.788 215.583 202.89 216.617 203.991 217.622C205.093 218.626 206.165 219.633 207.228 220.568L207.313 220.653L207.265 220.764C206.783 221.84 206.261 222.985 205.712 224.172L201.235 219.829L192.437 230.609C191.935 228.976 191.474 227.341 191.027 225.722L191.004 225.638L191.064 225.568C192.858 223.557 194.648 221.518 196.275 219.633Z" fill="#AD4C21"/>
<path d="M123.741 129.105C125.064 131.263 125.77 133.801 125.768 136.396C125.768 143.849 120.038 149.892 112.987 149.892C107.778 149.892 103.298 146.597 101.304 141.882C102.49 143.8 104.092 145.37 105.967 146.451C107.843 147.532 109.935 148.091 112.057 148.078C119.117 148.078 124.838 142.035 124.838 134.582C124.84 132.692 124.466 130.823 123.741 129.105V129.105ZM112.987 127.483C114.333 127.477 115.66 127.819 116.862 128.48C118.063 129.141 119.104 130.102 119.899 131.285C118.661 128 115.611 125.677 112.057 125.677C107.397 125.677 103.621 129.663 103.621 134.581C103.618 136.416 104.149 138.205 105.136 139.692C104.744 138.646 104.542 137.526 104.542 136.396C104.544 131.478 108.327 127.483 112.987 127.483V127.483Z" fill="#AD4C21"/>
<path d="M113.542 129.713C118.045 129.713 121.691 133.322 121.691 137.785C121.691 142.248 118.041 145.857 113.542 145.857C109.044 145.857 105.382 142.247 105.382 137.785C105.382 137.563 105.395 137.341 105.406 137.12C105.724 140.577 108.663 143.285 112.241 143.285C116.034 143.285 119.098 140.248 119.098 136.498C119.098 132.958 116.355 130.049 112.857 129.734C113.085 129.725 113.314 129.713 113.542 129.713Z" fill="#AD4C21"/>
<path d="M111.545 125.677C118.903 125.677 124.957 131.026 125.768 137.915C124.331 131.923 118.757 127.466 112.098 127.466C104.355 127.466 98.0727 133.512 98.0727 140.973C98.0725 143.084 98.5833 145.164 99.5619 147.037C98.0378 144.809 97.2243 142.175 97.2275 139.48C97.2275 131.855 103.636 125.677 111.545 125.677ZM120.901 138.169C120.964 138.601 120.996 139.037 120.995 139.474C120.995 144.502 116.765 148.587 111.544 148.587C109.939 148.597 108.358 148.203 106.948 147.442C105.538 146.681 104.344 145.577 103.478 144.233C104.833 147.544 108.179 149.892 112.096 149.892C117.212 149.892 121.359 145.901 121.359 140.966C121.362 140.015 121.207 139.07 120.901 138.169Z" fill="white"/>
<path d="M142.117 125.723C140.994 124.288 163.627 157.061 178.772 148.448C166.91 143.234 150.214 136.047 142.117 125.723Z" fill="#FFC972"/>
<path d="M203.237 153.218C203.237 153.218 207.006 150.115 209.039 147.576C211.072 145.037 211.391 141.821 211.391 141.821C211.391 141.821 211.42 144.832 209.238 148.902C207.055 152.971 205.618 153.897 204.956 153.927C204.295 153.957 203.237 153.218 203.237 153.218Z" fill="#FFC972"/>
<path d="M187.415 292.37L180.104 303.254L177.407 301.989L168.532 297.737C120.106 273.502 66.2755 223.76 44.2222 168.675L49.9311 162C70.5101 217.743 126.138 269.057 175.128 292.566L175.269 293.079C175.269 293.079 175.367 292.974 175.54 292.765C175.919 292.952 176.309 293.141 176.699 293.318L180.826 288.335C187.8 279.548 197.863 265.159 215.063 235.391C217.869 230.543 220.533 225.475 223.036 220.397L227.699 228.443C225.816 232.016 223.86 235.551 221.833 239.048C211.499 256.937 200.701 275.473 187.844 291.803C187.709 291.995 187.557 292.182 187.415 292.37Z" fill="#0B121D"/>
<path d="M252.163 230.655L242.899 251.445H242.888C242.921 251.772 242.942 252.1 242.942 252.437C242.926 253.955 242.583 255.456 241.932 256.857L237.897 265.737C236.838 268.095 235.163 270.189 233.012 271.842C230.467 273.798 227.441 275.004 224.067 275.004H23.8359L48.5688 242.625L37.2542 230.609C108.965 230.848 180.554 230.655 252.163 230.655Z" fill="#0B121D"/>
<path d="M88.0518 234.792L72.182 270.968L59.6152 270.759L63.399 261.82L55.0803 261.34L49.1239 270.759H36.0688L56.8841 241.28L51.1219 234.66L88.0518 234.792ZM71.7102 242.865L66.3122 242.771L60.099 252.158L67.5382 252.231L71.7102 242.865ZM123.068 242.363L114.446 263.491C113.317 266.238 112.101 267.987 111.049 268.911C109.651 270.132 107.614 270.759 104.877 270.759H99.5869L95.1371 252.368L87.5785 270.759H75.494L90.9755 234.657H102.19L106.78 252.593L113.972 234.652H126.326L123.068 242.363ZM160.762 234.657L148.368 264.169C147.649 265.935 146.326 267.375 144.703 268.64C142.885 270.06 141.026 270.759 139.143 270.759H121.273L116.586 265.256L126.739 240.296L128.545 234.657H141.446L129.566 263.364H136.351L147.113 238.126L144.005 234.645L160.762 234.657ZM193.284 240.254L190.23 247.878C189.65 249.318 188.574 250.384 187.028 251.041C185.94 251.501 184.253 251.836 181.963 252.075C185.211 252.734 186.745 254.329 186.565 256.862L183.447 264.444C182.768 266.1 181.687 267.573 180.296 268.736C178.695 270.093 177.011 270.766 175.286 270.766H148.086L161.267 240.219L163.357 234.664H188.095L193.284 240.254ZM180.157 242.228H173.008L170.223 249.037H177.329L180.157 242.228ZM174.632 255.929H167.353L164.247 263.553H171.482L174.632 255.929ZM210.692 234.657L207.855 241.654L196.039 270.518C195.2 270.681 194.347 270.762 193.492 270.757H183.235L196.556 240.211L191.492 234.655L210.692 234.657ZM244.01 234.657L239.656 245.245H228.797L230.044 242.186H222.905L219.981 249.037H233.484C236.29 249.037 237.698 250.113 237.698 252.284C237.686 253.157 237.5 254.019 237.15 254.823L233.108 264.431C232.419 266.107 231.319 267.595 229.903 268.765C228.324 270.09 226.668 270.759 224.937 270.759H199.509L204.056 259.669H215.979L214.594 263.15H221.323L224.388 255.715H212.324L207.078 249.982L211.164 239.936C211.798 238.37 213.238 237.085 215.431 236.061C217.41 235.133 219.36 234.666 221.28 234.663L244.01 234.657Z" fill="white"/>
<path d="M84.0776 238.802L51.9059 238.691L56.414 243.574L36.0688 270.775H45.6467L51.785 261.617L63.4018 262.243L59.5551 270.816L69.1329 270.968L84.0776 238.802ZM71.9985 243.826L66.399 255.704L54.9368 255.592L63.2916 243.675L71.9985 243.826ZM123.335 238.681H114.056L105.292 259.302L99.6942 238.681H90.4485L75.8667 270.775H84.872L94.0565 249.689L99.4677 270.775H103.656C105.464 270.775 107.558 270.513 108.946 269.36C110.269 268.258 111.371 266.131 112.021 264.639L120.886 244.18L123.335 238.681ZM158.637 238.681H147.175L148.762 240.349L136.976 266.469H126.687L138.866 238.681H129.069L127.548 243.189L117.445 266.61L121.203 270.775H138.796C140.571 270.775 142.163 270.048 143.524 269.047C144.885 268.046 146.158 266.813 146.82 265.296L158.637 238.681ZM192.506 242.977L188.274 238.681H164.7L162.914 243.148L150.284 270.775H175.847C177.424 270.775 178.802 270.099 179.97 269.168C181.208 268.189 182.172 266.951 182.78 265.56L185.866 258.443C185.91 256.542 184.279 255.875 182.373 255.512L172.806 253.671L182.526 252.701C183.948 252.56 185.943 252.337 187.271 251.812C188.428 251.346 189.261 250.619 189.73 249.538L192.506 242.977ZM183.126 243.158L178.982 252.59H168.37L172.46 243.158H183.126ZM177.473 256.421L172.986 266.641H162.24L166.649 256.421H177.473ZM209.854 238.681H195.9L199.45 242.361L186.322 270.775H194.501C194.998 270.779 195.495 270.752 195.989 270.694L207.776 243.502L209.854 238.681ZM244.01 238.681H222.987C221.113 238.681 219.328 239.155 217.663 239.884C216.23 240.52 214.655 241.471 214.049 242.886L210.212 251.801L214.499 256.209H228.451L224.076 266.246H213.859L215.291 262.891H206.387L202.958 270.775H226.732C228.297 270.775 229.653 270.108 230.821 269.199C232.08 268.207 233.059 266.951 233.676 265.539L237.809 256.239C238.097 255.632 238.253 254.98 238.268 254.318C238.268 253.964 238.213 253.531 237.962 253.237C237.466 252.676 236.198 252.59 235.493 252.59H219.334L223.62 243.119H234.256L232.978 246.09H240.771L244.01 238.681Z" fill="white"/>
<path d="M49.5804 254.824L36.0688 270.781H46.5997L53.3488 261.89L66.1215 262.499L61.8936 270.82L72.4228 270.968L80.9189 254.824H70.1204L69.4186 256.149L56.8158 256.041L57.7718 254.824H49.5804Z" fill="#849EB5"/>
<path d="M86.5625 254.824H93.1498L87.7299 270.968H80.918L86.5625 254.824Z" fill="#849EB5"/>
<path d="M97.2275 254.824H105.579L106.869 259.699L108.892 254.824H117.614L113.338 264.94C112.713 266.401 111.654 268.495 110.384 269.578C109.051 270.71 107.04 270.968 105.304 270.968H101.282L97.2275 254.824Z" fill="#849EB5"/>
<path d="M122.658 254.824H131.485L126.426 266.742H136.218L141.436 254.824H150.232L145.592 265.584C144.962 267.075 143.755 268.276 142.453 269.27C141.151 270.263 139.641 270.968 137.95 270.968H121.193L117.614 266.875L122.658 254.824Z" fill="#849EB5"/>
<path d="M157.127 254.824H174.09L179.647 255.976C181.394 256.333 182.89 256.988 182.849 258.855L180.02 265.845C179.462 267.212 178.579 268.427 177.444 269.389C176.373 270.303 175.11 270.968 173.665 270.968H150.231L157.127 254.824Z" fill="#849EB5"/>
<path d="M192.087 254.824H203.237L194.606 270.887C194.006 270.944 193.401 270.971 192.796 270.967H182.851L192.087 254.824Z" fill="#849EB5"/>
<path d="M212.227 254.824H235.855C235.837 255.467 235.693 256.1 235.431 256.69L231.613 265.824C231.043 267.212 230.139 268.445 228.976 269.419C227.897 270.313 226.645 270.968 225.2 270.968H203.237L206.404 263.223H214.629L213.305 266.519H222.744L226.785 256.661H213.897L212.227 254.824Z" fill="#849EB5"/>
<path d="M174.696 254.824L171.094 266.932H162.464L166.003 254.824H174.696Z" fill="#0B121D"/>
</svg>
