<?xml version="1.0" encoding="utf-8"?>
<!-- Generator: Adobe Illustrator 25.0.1, SVG Export Plug-In . SVG Version: 6.00 Build 0)  -->
<svg version="1.0" id="katman_1" xmlns="http://www.w3.org/2000/svg" xmlns:xlink="http://www.w3.org/1999/xlink" x="0px" y="0px"
	 viewBox="0 0 3914.7 2638.2" style="enable-background:new 0 0 3914.7 2638.2;" xml:space="preserve">
<style type="text/css">
	.st0{fill:#A7A5A6;}
	.st1{fill:#FFFFFF;}
	.st2{fill:#4F4C4C;}
	.st3{fill:#231F20;}
	.st4{clip-path:url(#SVGID_2_);}
	.st5{fill:#548E32;}
	.st6{fill:#203F10;}
</style>
<path class="st0" d="M2173.3,945.7c25.5-17.7,57-24,87.9-24h235.1v-9.3h273.1v36.8h174.9v420.3c0,17-2.7,33.7-9.1,49.1h271.9v205.9
	l-89.1-5.9c-3.8-0.3-14,2.5-17.8,3.8c-17.1,5.5-31.5,15.4-41.9,30.2c-12.7,18.1-23,38.1-33.3,57.8c32,18.6,59.1,40.6,84.3,68.8
	c6.4,7.1,12.5,14.4,18.7,21.7c12.2,14.4,23.1,30.7,31.3,47.7c11.3,23.4,18.5,50.8,12,76.7l-2.4,9.6l-5.5,8.2
	c-10.9,16.5-20.6,34.8-25,54.2c-2.8,12.2-2.8,24.6-3.6,37c-0.3,4.7,2.9,17.1,3.9,22.2c4,20.8,6.3,40.7,3.6,61.8
	c-9.1,73-63.2,97.8-130.5,80.5c-48.3-12.5-77.6-40.2-101.5-82.9c-1.1-1.9-2.1-3.9-3-5.8c-4.6,3.2-9.1,6.5-13.4,10.1
	c-20,16.4-46.9,29.8-73.5,30.1c-15.8,34.2-31.8,68.3-47.9,102.4c-18.7,39.3-37.5,78.6-57,117.6l-23.1,46.3h-154.4l-139.4-266.3
	c-26-0.9-52.2-14-71.8-30.1c-4.3-3.5-8.8-6.9-13.4-10.1c-0.9,2-1.9,3.9-3,5.8c-23.9,42.7-53.3,70.4-101.6,82.9
	c-67.3,17.4-121.4-7.4-130.5-80.5c-2.6-21.1-0.4-41,3.6-61.8c1-5.1,4.2-17.5,3.9-22.2c-1.1-15.8-1.7-30.8-5.9-45.7h-158.3
	c-30.9,0-62.3-6-87.9-23.6c-25.6,17.1-57.4,23.6-87.9,23.6h-175.8c-36.3,0-72.6-8.4-99.4-32.7c-26.9,24.4-63.2,32.7-99.4,32.7H843.7
	c-42.8,0-85.2-11.7-112.5-46.8c-16.4-21.2-23.6-46.8-23.6-73.4v-326.7c0-80.6,60.7-121.1,136.1-121.1h236.9
	c-7.1-15.9-10.4-33.3-10.4-51.2v-179.7h-35v-155.1c-1.1,0-2.3,0-3.4,0H719.9V451.9c0-80.6,60.7-121.1,136.1-121.1h527.4
	c30.6,0,62.4,6.7,87.9,24c25.5-17.3,57.3-24,87.9-24H1735c13.3,0,26.7,1.2,39.7,4.1v-4.1h273.1v2c12.9-1.4,25.9-2,38.8-2
	c29.9,0,58.1,9.2,82.9,25.8c0.4,0.2,0.7,0.5,1.1,0.7c26.1-19.3,59.6-26.6,91.8-26.6h38.8V221.6h273.1v677.2h-879v22.8h38.4
	c30.6,0,62.4,6.7,87.9,24c25.5-17.3,57.3-24,87.9-24h175.8C2116,921.7,2147.7,928.4,2173.3,945.7L2173.3,945.7z M2506.2,1419.6
	c-6.8-15.7-9.9-32.7-9.9-50.2v-70.5h-98.1v120.7L2506.2,1419.6"/>
<path d="M2171.1,374.1c22.5-20.4,55.1-30.1,91.4-30.1h52.1V234.8h246.6v650.8h-879v49.3h51.7c34.4,0,65.6,8.9,87.9,27.3
	c22.3-18.4,53.5-27.3,87.9-27.3h175.8c34.4,0,65.7,8.9,88,27.4c24-20.3,56-27.4,87.8-27.4h248.3v-9.3h246.6v36.8h174.9v407.1
	c0,25.5-6.6,46.2-18.1,62.4h281v178.5l-75-5c-5.8-0.4-17.1,2.6-22.7,4.3c-19.9,6.4-36.6,18-48.7,35.2c-15,21.4-27,45.9-39.3,68.9
	c-0.3,0.6-0.6,1.2-0.9,1.7c34.4,18.6,63.7,40.5,92.1,72.4c6.3,7,12.3,14.3,18.5,21.5c23.8,28.1,50.3,74,40.6,112.7l-1.8,7.4
	l-4.2,6.3c-11.9,17.8-22.2,37.6-26.9,58.7c-3.1,13.5-3,25.4-3.9,39c-0.4,6.1,2.9,19.4,4.1,25.6c3.8,19.4,5.9,37.8,3.5,57.6
	c-8.1,64.7-54.3,84.7-114.1,69.3c-45-11.6-71.4-37.4-93.3-76.5c-3.4-6.1-5.9-12.6-7.4-19.3c-10.6,5.8-20.5,12.9-28.9,19.8
	c-19.9,16.3-47.7,29.6-73.4,26.7c-17,36.9-34.2,73.7-51.6,110.3c-18.7,39.3-37.4,78.5-56.9,117.3l-19.5,39h-138.2l-139.4-266.4
	c-25.1,2-52-11.1-71.4-26.9c-8.5-6.9-18.3-14-28.9-19.8c-1.5,6.8-4,13.3-7.3,19.3c-22,39.2-48.3,64.9-93.3,76.5
	c-59.8,15.4-106-4.5-114.1-69.3c-2.5-19.8-0.3-38.2,3.5-57.6c1.2-6.3,4.5-19.5,4.1-25.6c-1.7-24.8-2.5-39.6-9.6-58h-167.8
	c-31.7,0-63.7-6.7-87.8-26.9c-22.4,18.3-53.6,26.9-88,26.9h-175.8c-37.1,0-74.7-9.2-99.4-38.5c-24.7,29.3-62.3,38.5-99.4,38.5H843.7
	c-38.5,0-77.4-9.9-102-41.7c-14.6-18.9-20.9-41.7-20.9-65.3v-326.6c0-73.5,55.2-107.9,122.9-107.9h260
	c-14.1-18.7-20.2-41.1-20.2-64.4v-192.9h-35v-155.7c-5.5,0.5-11.1,0.7-16.7,0.7H733.1V451.9c0-73.5,55.2-107.9,122.9-107.9h527.4
	c34.4,0,65.6,8.9,87.9,27.3c22.3-18.4,53.5-27.3,87.9-27.3H1735c18.9,0,36.9,2.7,52.9,8.2V344h246.6v3.9c17.3-2.8,34.9-3.9,52.1-3.9
	c27.3,0,52.9,8.4,75.6,23.6C2165.3,369.6,2168.2,371.8,2171.1,374.1L2171.1,374.1L2171.1,374.1z M2528.9,1432.9
	c-13.6-18.5-19.4-40.5-19.4-63.4v-83.8h-124.6v147.1H2528.9"/>
<path class="st1" d="M949.4,848.5v-9.9h-96.2c-43.2,0-78.8-14.8-78.8-63V449c0-48,35.6-63.8,78.8-63.8h254.6v526.3
	c0,13.8-3.1,27.3-11.7,38.4c-15.6,20.1-43.3,24.6-67.1,24.6H774.4V848.5L949.4,848.5L949.4,848.5z M1301,675.3h-16.5v211.1H1126
	V385.2h254.6c43.2,0,78.8,15.9,78.8,63.8v116.9c0,20.6-9.1,35.5-24.2,45.6c15.1,10,24.2,24.9,24.2,45.6v191.5h175.8v125.9h-254.6
	c-18.5,0-35.7-5.8-51-16.1c-16.3-11-28.6-26.4-28.6-46.8L1301,675.3L1301,675.3z M1652.6,548.5V512h-16.5v26.6h-158.5V449
	c0-48,35.6-63.8,78.8-63.8h175.8c43.2,0,78.8,15.9,78.8,63.8v389.6h-254.6c-23.9,0-51.6-4.5-67.1-24.6
	c-8.6-11.1-11.7-24.6-11.7-38.4V611.5c0-13.5,3-26.7,11.3-37.6c15.5-20.6,43.3-25.4,67.5-25.4L1652.6,548.5L1652.6,548.5z
	 M2004.2,512h-16.5v326.7h-158.4V385.2h158.4v20c28.6-15.9,64.4-20,96.2-20c18.5,0,35.6,5.8,51,16.1c16.8,11.3,27.8,27,27.8,47.7
	v389.6h-158.4V512L2004.2,512z M2355.8,385.2V276h158.5v562.6h-254.6c-43.1,0-78.8-14.8-78.8-63V449c0-48.2,35.4-63.8,78.8-63.8
	L2355.8,385.2L2355.8,385.2z M949.4,512h-16.5v200.7h16.5V512z M1301,512h-16.5v36.5h16.5V512z M1652.6,675.3h-16.5v37.4h16.5V675.3
	z M2355.8,512h-16.5v200.7h16.5L2355.8,512"/>
<path class="st2" d="M953.3,499.2h-34.1v218.3h34.1L953.3,499.2L953.3,499.2z M1094.1,907.5c0,36.1-23.3,54.2-70,54.2H778.4V853.4
	h175v-27.5h-105c-47.8,0-71.1-18-70-54.2V445c0-36.7,23.3-55,70-55h245.8L1094.1,907.5L1094.1,907.5z M1304.9,499.2h-34.1v54.2h34.1
	L1304.9,499.2L1304.9,499.2z M1375.8,961.7c-15.9,0-31.3-4.9-46.1-14.6c-16.5-11.5-24.8-24.6-24.8-39.5v-245h-34.1v211.1H1130V390
	h245.8c46.7,0,70,18.3,70,55v116.9c0,21.8-11.7,37-35,45.6c23.3,8.6,35,23.8,35,45.6v200.3h175.8v108.3L1375.8,961.7L1375.8,961.7z
	 M1656.6,662.5h-34.1v55h34.1V662.5z M1551.6,825.8c-46.7,0-70-18-70-54.2V607.5c0-35.5,23.3-53.6,70-54.2h105v-54.2h-34.1v26.6
	h-140.8V445c0-36.7,23.3-55,70-55h175.8c46.7,0,70,18.3,70,55v380.8L1551.6,825.8L1551.6,825.8z M2008.2,825.8V499.2H1974v326.7
	h-140.8V390H1974v27.5c23.3-18.3,58.3-27.5,105-27.5c15.9,0,31.3,4.9,46.1,14.6C2141,415.5,2149,429,2149,445v380.8L2008.2,825.8z
	 M2359.8,499.2h-34.1v218.3h34.1V499.2L2359.8,499.2z M2254.8,825.8c-47.8,0-71.1-18-70-54.2V445c-0.6-36.7,22.8-55,70-55h105V280.9
	h140.8v545L2254.8,825.8"/>
<path class="st1" d="M1124.8,1129.5h-35v-125.9h35v-76.2h158.4v76.2h175v125.9h-175v174.1h17.4v-164.2h157.6v227.2
	c0,48.1-35.9,63-78.8,63h-175.8c-23.9,0-51.6-4.5-67.1-24.6c-8.6-11.1-11.7-24.6-11.7-38.4L1124.8,1129.5L1124.8,1129.5
	L1124.8,1129.5z M1651.3,1102.9h-16.5v326.7h-158.4V866.9h158.4v109.2h96.2c43.2,0,78.8,15.9,78.8,63.8v389.6h-158.4V1102.9z
	 M1986.4,1266.2v37.4h16.5v-27.5h158.4v90.5c0,13.8-3.1,27.3-11.7,38.4c-15.6,20.1-43.2,24.6-67.1,24.6h-175.8
	c-23.9,0-51.6-4.5-67.1-24.6c-8.6-11.1-11.7-24.6-11.7-38.4v-326.7c0-48,35.6-63.8,78.8-63.8h175.8c43.2,0,78.8,15.9,78.8,63.8
	v226.3L1986.4,1266.2L1986.4,1266.2z M2338,1238.7v190.8h-158.4v-389.6c0-13.9,3.1-27.5,11.7-38.7c15.5-20.3,43-25.1,67.1-25.1
	h243.4v126.8H2338v9h163.7v126.8L2338,1238.7L2338,1238.7L2338,1238.7z M2550.8,1129.5h-35v-125.9h35v-36.8h158.5v36.8h174.9v125.9
	h-174.9v174.1h17.4v-164.2h157.6v227.2c0,48.1-35.9,63-78.8,63h-175.8c-23.9,0-51.6-4.5-67.1-24.6c-8.6-11.1-11.7-24.6-11.7-38.4
	L2550.8,1129.5L2550.8,1129.5L2550.8,1129.5z M2002.9,1102.9h-16.5v36.5h16.5V1102.9"/>
<path class="st2" d="M1127.8,1123.4h-35v-113.6h35v-76.2h146.1v76.2h175v113.6h-175v186.4h29.7v-164.2h145.3v221
	c0,44.4-33.2,56.8-72.6,56.8h-175.8c-39.1,0-72.6-12.7-72.6-56.8L1127.8,1123.4L1127.8,1123.4z M1654.4,1096.7h-28.9v326.7h-146.1
	V873.1h146.1v109.2h102.3c39.7,0,72.6,13.3,72.6,57.7v383.5h-146.1L1654.4,1096.7z M1977.2,1260v49.7h28.9v-27.5h146.1v84.3
	c0,44.1-33.5,56.8-72.6,56.8h-175.8c-39.1,0-72.6-12.7-72.6-56.8v-326.7c0-44.4,33-57.7,72.6-57.7h175.8c39.7,0,72.6,13.3,72.6,57.7
	V1260L1977.2,1260L1977.2,1260z M2328.8,1232.5v190.8h-146.1v-383.5c0-44,33.3-57.7,72.6-57.7h237.2v114.5h-163.7v21.4h163.7v114.5
	L2328.8,1232.5L2328.8,1232.5L2328.8,1232.5z M2553.9,1123.4h-35v-113.6h35v-36.8H2700v36.8h174.9v113.6H2700v186.4h29.7v-164.2
	h145.2v221c0,44.4-33.2,56.8-72.6,56.8h-175.8c-39.1,0-72.6-12.7-72.6-56.8L2553.9,1123.4L2553.9,1123.4z M2006,1096.7h-28.9v48.9
	h28.9V1096.7"/>
<path class="st1" d="M1449.3,1366.6c0,36.7-23.3,54.7-70,54.1h-175.8c-46.7,0-70-18.1-70-54.1v-245.9h-35v-108.3h35v-76.2h140.8
	v76.2h174.9v108.3h-175v191.7h35v-164.2h140L1449.3,1366.6z M1660.1,1420.7v-326.6H1626v326.7h-140.8v-545H1626v109.2h105
	c46.6,0,70,18.3,70,55v380.8H1660.1L1660.1,1420.7z M2011.8,1094.1h-34.1v54.2h34.1V1094.1z M2152.6,1366.6
	c0,36.1-23.3,54.1-70,54.1h-175.8c-46.7,0-70-18.1-70-54.1v-326.7c0-36.7,23.3-55,70-55h175.8c46.7,0,70,18.3,70,55v217.5h-175v55
	h34.1v-27.5h140.8V1366.6z M2329.2,1229.9v190.8h-140.8v-380.8c0-36.1,23.3-54.4,70-55h234.5v109.2h-163.7v26.7h163.7v109.2
	L2329.2,1229.9L2329.2,1229.9z M2875.4,1366.6c0,36.7-23.3,54.7-70,54.1h-175.8c-46.7,0-70-18.1-70-54.1v-245.9h-35v-108.3h35v-36.8
	h140.8v36.8h175v108.3h-175v191.7h35v-164.2h140L2875.4,1366.6 M937,1638.4v-36.5h-16.5v26.6H762.1v-89.6c0-48,35.6-63.8,78.8-63.8
	h175.8c43.2,0,78.8,15.9,78.8,63.8v389.6H840.9c-23.9,0-51.6-4.5-67.1-24.6c-8.6-11.1-11.7-24.6-11.7-38.4v-164.2
	c0-13.5,3-26.7,11.3-37.6c15.5-20.6,43.3-25.4,67.5-25.4L937,1638.4L937,1638.4z M1272.1,1802.6h16.5v-327.5h158.4v390.5
	c0,13.8-3.1,27.3-11.7,38.4c-15.6,20.1-43.3,24.6-67.1,24.6h-175.8c-23.9,0-51.6-4.5-67.1-24.6c-8.6-11.1-11.7-24.6-11.7-38.4
	v-390.5h158.4V1802.6L1272.1,1802.6z M1488.3,1628.5h-35v-126h35v-41.2h158.4v41.2h175v126h-175v174.1h17.4v-164.2h157.6v227.2
	c0,48.1-35.9,63-78.8,63h-175.8c-23.9,0-51.6-4.5-67.1-24.6c-8.6-11.1-11.7-24.6-11.7-38.4V1628.5z M2173.4,1865.6
	c0,13.8-3.1,27.3-11.7,38.4c-15.6,20.1-43.3,24.6-67.1,24.6h-175.8c-23.9,0-51.6-4.5-67.1-24.6c-8.6-11.1-11.7-24.6-11.7-38.4
	v-326.7c0-48,35.6-63.8,78.8-63.8h175.8c43.2,0,78.8,15.9,78.8,63.8L2173.4,1865.6L2173.4,1865.6L2173.4,1865.6z M937,1765.2h-16.5
	v37.4H937V1765.2z M2014.9,1601.9h-16.5v200.7h16.5V1601.9"/>
<path class="st2" d="M940.5,1644.6v-48.9h-28.8v26.6H765.6v-83.5c0-44.4,33-57.7,72.6-57.7H1014c39.7,0,72.6,13.3,72.6,57.7v383.5
	H838.2c-39.1,0-72.6-12.7-72.6-56.8v-164.2c0-43.7,33.8-56.8,72.6-56.8L940.5,1644.6z M1263.3,1808.8h28.9v-327.5h146.1v384.3
	c0,44.1-33.5,56.8-72.6,56.8h-175.8c-39.1,0-72.6-12.7-72.6-56.8v-384.3h146.1L1263.3,1808.8L1263.3,1808.8L1263.3,1808.8z
	 M1491.9,1622.4h-35v-113.6h35v-41.2H1638v41.2h175v113.6h-175v186.4h29.7v-164.2h145.3v221c0,44.4-33.2,56.8-72.6,56.8h-175.8
	c-39.1,0-72.6-12.7-72.6-56.8L1491.9,1622.4L1491.9,1622.4z M2164.5,1865.6c0,44.1-33.5,56.8-72.6,56.8h-175.8
	c-39.1,0-72.6-12.7-72.6-56.8v-326.7c0-44.4,33-57.7,72.6-57.7h175.8c39.7,0,72.6,13.3,72.6,57.7V1865.6z M940.5,1759.1h-28.8v49.7
	h28.8L940.5,1759.1L940.5,1759.1z M2018.4,1595.7h-28.9v213.1h28.9L2018.4,1595.7"/>
<path class="st1" d="M945.8,1756.4h-34.1v55h34.1L945.8,1756.4L945.8,1756.4z M840.9,1919.7c-46.7,0-70-18-70-54.2v-164.2
	c0-35.5,23.3-53.6,70-54.1h105v-54.2h-34.1v26.6H770.9v-80.8c0-36.7,23.3-55,70-55h175.8c46.7,0,70,18.3,70,55v380.8L840.9,1919.7
	L840.9,1919.7z M1438.3,1865.6c0,36.1-23.3,54.2-70,54.2h-175.8c-46.7,0-70-18.1-70-54.2v-381.7h140.8v327.5h34.1v-327.5h140.8
	L1438.3,1865.6L1438.3,1865.6z M1812.9,1865.6c0,36.7-23.3,54.7-70,54.2h-175.8c-46.7,0-70-18.1-70-54.2v-245.9h-35v-108.3h35v-41.2
	H1638v41.2h175v108.3H1638v191.7h35v-164.2h140L1812.9,1865.6L1812.9,1865.6z M2023.7,1593.1h-34.1v218.3h34.1V1593.1z
	 M2164.5,1865.6c0,36.1-23.3,54.2-70,54.2h-175.8c-46.7,0-70-18.1-70-54.2v-326.7c0-36.7,23.3-55,70-55h175.8c46.7,0,70,18.3,70,55
	L2164.5,1865.6 M958.2,503.2H924v218.3h34.1L958.2,503.2L958.2,503.2z M1099,911.5c0,36.1-23.3,54.2-70,54.2H783.2V857.3h175v-27.5
	h-105c-47.8,0-71.1-18.1-70-54.2V449c0-36.7,23.3-55,70-55H1099V911.5z M1309.8,503.2h-34.1v54.2h34.1L1309.8,503.2L1309.8,503.2z
	 M1380.6,965.6c-15.9,0-31.3-4.9-46.1-14.6c-16.5-11.5-24.8-24.6-24.8-39.5v-245h-34.1v211.1h-140.8V394h245.8c46.7,0,70,18.3,70,55
	v116.9c0,21.8-11.7,37-35,45.6c23.3,8.6,35,23.8,35,45.6v200.3h175.8v108.3L1380.6,965.6L1380.6,965.6z M1661.4,666.5h-34.1v55h34.1
	L1661.4,666.5L1661.4,666.5z M1556.4,829.8c-46.7,0-70-18.1-70-54.2V611.5c0-35.5,23.3-53.6,70-54.2h105v-54.2h-34.1v26.7h-140.8
	V449c0-36.7,23.3-55,70-55h175.8c46.7,0,70,18.3,70,55v380.8H1556.4z M2013,829.8V503.2h-34.1v326.7h-140.8V394h140.8v27.5
	c23.3-18.3,58.3-27.5,105-27.5c15.9,0,31.3,4.9,46.1,14.6c15.9,10.9,23.9,24.4,23.9,40.4v380.8H2013z M2364.6,503.2h-34.1v218.3
	h34.1L2364.6,503.2L2364.6,503.2z M2259.7,829.8c-47.8,0-71.1-18.1-70-54.2V449c-0.6-36.7,22.8-55,70-55h105V284.8h140.8v545H2259.7
	"/>
<g>
	<path d="M2706.7,1925.2l110.7-254c7.4-16.9,13.3-44,10.6-62.4c-3.9-26.8-54.3-35.7-75.7-36.7l-37.8-1.8v-110.8h450.3v114.7
		l-42.1-2.8c-10.2-0.7-24.3,2.6-34.1,5.7c-26.3,8.4-48.6,24.2-64.5,46.9c-15.8,22.5-28.3,47.9-41.3,72.1
		c-43.8,82.1-82.8,166.8-119.9,252.2c-41.2,94.8-84.2,188.9-128.6,282.3c-18.6,39.1-37.3,78.1-56.6,116.8l-11,21.9h-100.4
		l-220.5-421.3l-130-246c-10.3-19.4-21.1-38.5-33-56.9c-7.3-11.3-16.2-25.2-25.9-34.4c-7.6-7.3-14.8-15.3-22.9-22
		c-14.9-12.2-37.8-14.5-56.3-16.1l-35.3-3.1l-2.9-108.9h623.9v112.2h-39.6c-9.9,0-22.2,2.6-31.5,5.9c-11.9,4.2-23.3,10.8-25.9,24.1
		c-2.4,12.1,0.3,30.8,3.3,42.7c1.5,5.7,5,12.6,7.4,18c6.1,13.9,12.6,27.6,19.2,41.2c18.3,38.2,37.3,76.2,56.3,114
		C2670.5,1854.3,2688.5,1889.8,2706.7,1925.2"/>
	<path class="st1" d="M2623.8,1559.5c-11.2,0.1-25.5,3-35.9,6.7c-16.6,5.9-30.7,15.7-34.5,33.9c-2.7,14.1,0,35,3.5,48.6
		c1.6,5.9,5.6,14.4,8.1,20.1c6.2,14,12.8,27.8,19.3,41.6c18.4,38.3,37.4,76.3,56.4,114.3c22.1,43.9,44.4,87.7,66.9,131.4
		l121.8-279.6c8.3-19.3,14.6-48.9,11.5-69.6c-5.2-35.4-59.6-46.7-88.2-48l-25.2-1.2v-84.9h423.8v87.4l-28-1.9
		c-11.9-0.5-27.9,2.8-39,6.3c-29.2,9.3-53.2,27.3-71.3,51.9c-15.2,22.8-29.3,49.4-42.1,73.5c-43.8,82.2-83.2,167.7-120.3,253.1
		c-41.2,94.7-84.1,188.7-128.4,281.9c-18.5,39-37.2,78-56.5,116.5l-7.3,14.6h-84.3l-216.8-414.2l-130-246.1
		c-10.4-19.7-21.5-39.2-33.6-57.9c-7.6-11.8-17.7-27.1-27.8-36.8c-7.8-7.4-15.4-15.9-23.6-22.6c-17.5-14.4-41.8-17.2-63.6-19.1
		l-23.5-2l-2.2-83.6h597.1v85.7L2623.8,1559.5"/>
	<path class="st3" d="M2080.1,1500.2h543.5v32.8c0,0-84,0-96.2,61.8c0,0-5.2,24.8,3.8,60.4c9,35.6,178.5,362.5,178.5,362.5
		l144-330.7c0,0,19.2-44.3,13.4-84c-5.8-39.7-50.2-67.7-113.1-70.6v-33.2h370.9v32.7c0,0-79.3-5.3-133.5,69.4
		c0,0-64.7,86.9-165,331.3C2726,2150.6,2642,2329.7,2642,2329.7h-51.9l-209.4-400.1l-130.1-246.1c-40.8-78.6-75.8-142.3-169.7-150.5
		L2080.1,1500.2"/>
</g>
<g>
	<g transform="matrix(.125 0 0 -.125 -132.39 703.701)">
		<g>
			<defs>
				<path id="SVGID_1_" d="M21916.1-6550.3v-15.2c-619.3-14.5-838.6-522.9-699.9-1070.2c88.6-349.9,1653.8-3293.1,1653.8-3293.1
					l1327.3,3004.6c0,0,480.6,1005.4-821.1,1341.3v43.8H25899v-11.6c0,0-637.7-5.8-1097.3-736
					c-459.6-730.1-2660.6-5629.9-2660.6-5629.9h-61.8l-1673.8,3181.9l-909.9,1718.1c0,0-559,1272.1-1387.1,1400.4v65.9H21916.1
					L21916.1-6550.3z"/>
			</defs>
			<clipPath id="SVGID_2_">
				<use xlink:href="#SVGID_1_"  style="overflow:visible;"/>
			</clipPath>
			<g class="st4">
				<path class="st5" d="M21916.1-6550.3v-15.2c-619.3-14.5-838.6-522.9-699.9-1070.2c88.6-349.9,1653.8-3293.1,1653.8-3293.1
					l1327.3,3004.6c0,0,480.6,1005.4-821.1,1341.3v43.8H25899v-11.6c0,0-637.7-5.8-1097.3-736
					c-459.6-730.1-2660.6-5629.9-2660.6-5629.9h-61.8l-1673.8,3181.9l-909.9,1718.1c0,0-559,1272.1-1387.1,1400.4v65.9H21916.1"/>
				<g>
					<path class="st6" d="M25611.3-7109c978.7,0,1864.7-396.7,2506.1-1038.1c641.4-641.4,1038.1-1527.4,1038.1-2506.1
						c0-978.7-396.7-1864.8-1038.1-2506.1c-641.4-641.4-1527.4-1038.1-2506.1-1038.1c-978.7,0-1864.7,396.7-2506.1,1038.1
						c-641.3,641.3-1038,1527.4-1038,2506.1c0,978.7,396.7,1864.7,1038,2506.1C23746.6-7505.7,24632.6-7109,25611.3-7109z
						 M28098.7-8165.8c-636.6,636.6-1516,1030.4-2487.4,1030.4c-971.4,0-1850.9-393.8-2487.4-1030.4
						c-636.5-636.6-1030.3-1516-1030.3-2487.4c0-971.4,393.8-1850.9,1030.3-2487.4c636.6-636.6,1516.1-1030.3,2487.4-1030.3
						c971.4,0,1850.8,393.8,2487.4,1030.3c636.6,636.6,1030.3,1516,1030.3,2487.4C29129.1-9681.7,28735.3-8802.3,28098.7-8165.8"/>
					<path class="st6" d="M25711.1-7332.3c975.7-76.9,1827.8-541.9,2416.9-1231.6c589-689.8,915-1604.2,838.1-2579.9
						c-76.8-975.6-541.9-1827.8-1231.6-2416.9c-689.8-589.1-1604.2-915-2579.9-838.2c-975.6,76.9-1827.8,541.9-2416.9,1231.6
						c-589.1,689.7-915,1604.2-838.2,2579.9c76.9,975.7,541.8,1827.8,1231.6,2416.9C23821.1-7581.5,24735.5-7255.5,25711.1-7332.3
						L25711.1-7332.3z M28108-8581.1c-584.7,684.6-1430.5,1146.1-2398.9,1222.4h-0.1c-968.4,76.3-1876.1-247.2-2560.6-831.8
						c-684.6-584.7-1146.2-1430.5-1222.4-2398.9v0c-76.3-968.5,247.3-1876.1,831.9-2560.7c584.7-684.6,1430.5-1146.1,2398.9-1222.4
						c968.4-76.3,1876.1,247.2,2560.7,831.8c684.6,584.7,1146.1,1430.5,1222.4,2398.9C29016.1-10173.3,28692.6-9265.7,28108-8581.1
						L28108-8581.1z M25709.1-7358.7L25709.1-7358.7L25709.1-7358.7z M21926-10589.4L21926-10589.4L21926-10589.4z"/>
					<path class="st6" d="M25793.1-7562.9c966.6-153.2,1779.7-683.7,2312.8-1417.5c533-733.8,786.1-1671.1,633-2637.7
						c-153.2-966.6-683.7-1779.7-1417.5-2312.8c-733.8-533.1-1671-786.2-2637.7-633c-966.7,153.2-1779.7,683.7-2312.7,1417.5
						c-533.1,733.8-786.2,1671-633.1,2637.7c153.2,966.7,683.7,1779.7,1417.5,2312.8C23889.3-7662.9,24826.5-7409.7,25793.1-7562.9
						L25793.1-7562.9z M28084.5-8995.9c-529.1,728.4-1336.1,1255-2295.5,1407c-959.4,152-1889.7-99.2-2618.1-628.3
						c-728.4-529.1-1254.9-1336.1-1406.9-2295.5c-152-959.4,99.3-1889.7,628.3-2618c529.1-728.4,1336.1-1254.9,2295.5-1407
						c959.4-152,1889.7,99.2,2618.1,628.4c728.4,529.1,1254.9,1336.1,1407,2295.5C28864.9-10654.6,28613.6-9724.3,28084.5-8995.9"/>
					<path class="st6" d="M25854.9-7798.7L25854.9-7798.7l1.8-0.4c951.7-228.6,1720.6-821.2,2194.4-1594.7
						c473.5-772.9,652.3-1726.4,424.4-2677.4v0l-0.4-1.7c-228.6-951.6-821.3-1720.5-1594.7-2194.4
						c-773.4-473.8-1727.6-652.6-2679.2-424c-951.6,228.6-1720.6,821.3-2194.4,1594.7c-473.8,773.4-652.6,1727.6-424,2679.2
						c228.5,951.6,821.2,1720.6,1594.7,2194.4C23950.4-7749.6,24903.9-7570.8,25854.9-7798.7L25854.9-7798.7z M28028.6-9407.6
						c-470.3,767.6-1233.3,1355.9-2177.7,1582.8l-0.2,0c-944.6,226.9-1891.7,49.5-2659.4-420.9
						c-767.7-470.3-1355.9-1233.4-1582.8-2177.9c-226.9-944.6-49.5-1891.6,420.9-2659.4c470.3-767.6,1233.5-1355.9,2178-1582.8
						c944.6-226.9,1891.7-49.4,2659.3,420.9c767.6,470.3,1355.8,1233.3,1582.7,2177.7l0.1,0.2
						C28676.3-11122.4,28498.9-10175.2,28028.6-9407.6"/>
					<path class="st6" d="M25901.6-8039.6c930.7-302.6,1650.7-953.8,2062.4-1762c411.7-808.2,515-1773.5,212.4-2704.3
						c-302.5-930.8-953.8-1650.8-1762-2062.4c-808.2-411.6-1773.5-515-2704.2-212.4c-930.8,302.6-1650.8,953.8-2062.4,1762
						c-411.7,808.2-515,1773.5-212.4,2704.3c302.6,930.8,953.8,1650.8,1762,2062.4C24005.6-7840.4,24970.9-7737,25901.6-8039.6
						L25901.6-8039.6z M27940.5-9813.6c-408.6,802.2-1123.2,1448.6-2047,1748.9c-923.8,300.3-1881.9,197.7-2684.1-210.9
						c-802.2-408.6-1448.6-1123.2-1748.9-2047c-300.3-923.8-197.7-1881.9,210.8-2684.1c408.6-802.2,1123.2-1448.6,2047-1748.9
						c923.8-300.3,1881.9-197.8,2684.1,210.8c802.2,408.6,1448.6,1123.2,1748.9,2047C28451.6-11573.9,28349-10615.8,27940.5-9813.6"
						/>
					<path class="st6" d="M25927.5-8282.9c904.1-374.7,1570.8-1080.4,1917.7-1918.5c346.9-838,374.2-1808.4-0.5-2712.5
						c-374.6-904.1-1080.4-1570.8-1918.5-1917.7c-838.1-346.9-1808.5-374.2-2712.6,0.5c-904.1,374.7-1570.8,1080.4-1917.7,1918.5
						c-346.9,838-374.2,1808.4,0.6,2712.5c374.7,904.1,1080.4,1570.8,1918.5,1917.7C24053-7935.4,25023.4-7908.2,25927.5-8282.9
						L25927.5-8282.9z M27820.8-10211.4c-344.3,831.8-1006,1532.2-1903.4,1904.1c-897.4,371.9-1860.6,344.9-2692.4,0.5
						c-831.8-344.3-1532.2-1006-1904.1-1903.5c-371.9-897.4-344.9-1860.6-0.5-2692.4c344.3-831.8,1006.1-1532.3,1903.4-1904.2
						c897.4-371.9,1860.6-344.9,2692.4-0.5c831.8,344.4,1532.2,1006,1904.1,1903.5C28192.2-12006.4,28165.2-11043.2,27820.8-10211.4
						"/>
					<path class="st6" d="M25934.1-8527.4c872-444.5,1481.1-1200.4,1761.2-2063.1c280.1-862.7,231.1-1832.2-213.4-2704.1
						c-444.5-871.9-1200.4-1481.1-2063.1-1761.2c-862.7-280.1-1832.3-231.1-2704.2,213.4c-871.9,444.5-1481.1,1200.4-1761.2,2063.1
						c-280.1,862.7-231.1,1832.2,213.4,2704.1c444.5,871.9,1200.4,1481.2,2063.1,1761.2
						C24092.7-8033.9,25062.2-8082.9,25934.1-8527.4L25934.1-8527.4z M27670.3-10598.7c-278,856.2-882.7,1606.5-1748.1,2047.7
						c-865.4,441.2-1827.8,489.9-2684.1,211.9c-856.2-278-1606.5-882.7-2047.6-1748.1c-441.2-865.5-489.9-1827.8-211.9-2684
						c278-856.3,882.6-1606.5,1748.1-2047.7c865.4-441.2,1827.8-489.8,2684.1-211.9c856.2,278,1606.5,882.6,2047.7,1748.1
						C27899.6-12417.3,27948.3-11455,27670.3-10598.7"/>
					<path class="st6" d="M25907.9-8794.3l-0.4,0.2c-828.1,507.6-1783.5,631.6-2658.8,421.7c-875.4-210-1670.8-753.9-2178.6-1582
						l-0.2-0.3c-507.6-828.1-631.6-1783.5-421.7-2658.9c209.9-875.4,753.8-1670.8,1581.9-2178.5l0.2-0.2
						c828.1-507.6,1783.6-631.7,2658.9-421.8c875.5,209.9,1670.8,753.8,2178.6,1582l0.2,0.3c507.7,828.1,631.7,1783.5,421.8,2658.8
						C27279.9-10097.4,26736-9302.1,25907.9-8794.3L25907.9-8794.3z M25923.1-8772.7c833.5-511.6,1380.9-1312.6,1592.3-2194.1
						c211.5-882,86.5-1844.7-425-2679l-0.9-1.5l0,0c-511.6-833.5-1312.6-1381-2194.1-1592.3c-882-211.5-1844.7-86.5-2679,425
						l-1.5,0.9v0c-833.5,511.6-1380.9,1312.6-1592.3,2194.1c-211.5,882-86.5,1844.7,425.1,2679l0.9,1.5l0,0
						c511.6,833.5,1312.5,1381,2194.1,1592.3c882,211.6,1844.7,86.5,2679.1-425L25923.1-8772.7L25923.1-8772.7"/>
					<path class="st6" d="M25874.5-9035.8l-0.1,0.1c-785.7,571.2-1728.6,769.8-2617.7,629.3c-889.2-140.5-1724.8-620.3-2296-1406.1
						c-571.2-785.7-769.9-1728.6-629.3-2617.8c140.5-889.2,620.3-1724.8,1406-2296c785.8-571.3,1728.6-769.9,2617.9-629.4
						c889.2,140.5,1724.8,620.3,2296,1406.1l0.1,0c571.2,785.8,769.8,1728.6,629.3,2617.8
						C27140-10442.6,26660.1-9606.9,25874.5-9035.8L25874.5-9035.8z M25890.9-9015c791-575.5,1274-1417.1,1415.6-2312.7
						c141.6-895.9-58.5-1845.8-634-2637.4l-0.7-1l0,0c-575.4-791-1417.1-1274.1-2312.6-1415.6c-895.9-141.6-1845.8,58.5-2637.4,634
						c-791.6,575.5-1275,1417.4-1416.6,2313.4c-141.6,895.9,58.5,1845.9,634,2637.4c575.5,791.6,1417.4,1275,2313.4,1416.6
						c896,141.6,1845.8-58.6,2637.4-634.1L25890.9-9015L25890.9-9015"/>
					<path class="st6" d="M25839.4-9253.8c744-635.9,1159.7-1513.1,1230.6-2417.4c70.8-904.2-203.3-1835.5-839.2-2579.5
						c-1271.7-1487.9-3508.9-1663.2-4996.9-391.4l-0.1,0c-743.9,635.9-1159.7,1513.1-1230.6,2417.4
						c-70.8,904.2,203.3,1835.5,839.2,2579.5l0.1,0.1c635.9,743.9,1513.1,1159.7,2417.3,1230.5
						C24164.1-8343.7,25095.3-8617.8,25839.4-9253.8L25839.4-9253.8L25839.4-9253.8z M27043.7-11673.1
						c-70.3,897.5-483,1768.2-1221.5,2399.3v0.1c-738.4,631.1-1662.8,903.2-2560.3,832.8c-897.5-70.3-1768.2-483-2399.3-1221.5l0,0
						c-631.1-738.4-903.1-1662.8-832.8-2560.3c70.3-897.5,483.1-1768.2,1221.4-2399.3h0.1c1476.8-1262.3,3697.4-1088.3,4959.7,388.6
						C26841.9-13495,27114-12570.7,27043.7-11673.1L27043.7-11673.1z M21251.1-14622.1L21251.1-14622.1L21251.1-14622.1"/>
					<path class="st6" d="M25770.1-9488.4c691.8-692.3,1037.4-1599.4,1037-2506.5c-0.4-907-346.7-1814-1039-2505.7
						c-692.3-691.7-1599.4-1037.4-2506.4-1037c-907.1,0.3-1813.9,346.7-2505.7,1039c-691.7,692.3-1037.4,1599.4-1037.1,2506.5
						c0.4,907,346.7,1813.9,1039.1,2505.7c692.3,691.7,1599.4,1037.4,2506.5,1037.1C24171.4-8449.7,25078.3-8796.1,25770.1-9488.4
						L25770.1-9488.4z M26780.8-11994.9c0.4,900.3-342.7,1800.7-1029.4,2487.9c-686.6,687.1-1586.8,1030.9-2487,1031.3
						c-900.3,0.4-1800.7-342.8-2487.9-1029.5c-687.2-686.6-1030.9-1586.8-1031.3-2487c-0.4-900.3,342.8-1800.7,1029.4-2487.9
						c686.6-687.2,1586.8-1030.9,2487-1031.3c900.2-0.3,1800.7,342.8,2487.9,1029.4
						C26436.7-13795.3,26780.5-12895.1,26780.8-11994.9"/>
					<path class="st6" d="M25682.5-9716.7l0.1-0.1c635.3-744.5,908.7-1676,837.2-2580.2c-71.6-904.2-488-1781-1232.4-2416.3
						l-0.1-0.1c-744.5-635.3-1676-908.7-2580.2-837.1c-904.1,71.5-1781,488-2416.3,1232.4l-0.1,0.1
						c-635.3,744.5-908.7,1676-837.2,2580.2c71.6,904.2,488,1781,1232.4,2416.3l0.1,0.1c744.5,635.3,1676,908.7,2580.2,837.1
						C24170.4-8555.8,25047.2-8972.3,25682.5-9716.7L25682.5-9716.7z M26493.4-12294.9c71,897.5-200.3,1822-830.9,2560.9v0
						c-630.5,738.9-1501,1152.3-2398.4,1223.4c-897.5,71-1822-200.3-2560.9-830.9l0,0c-739-630.5-1152.3-1500.9-1223.3-2398.4
						s200.3-1822,830.8-2560.9l0.1,0c630.5-738.9,1500.9-1152.3,2398.4-1223.3c897.5-71,1822,200.3,2560.9,830.8v0
						C26009-14062.8,26422.4-13192.5,26493.4-12294.9"/>
					<path class="st6" d="M25577.6-9937.7c574.9-792.1,774.3-1742.2,632-2638c-142.3-895.8-626.3-1737.3-1418.4-2312.2
						c-792-574.9-1742.1-774.3-2637.9-632c-895.8,142.3-1737.4,626.4-2312.2,1418.4c-574.9,792-774.3,1742.1-632,2638
						c142.3,895.8,626.3,1737.3,1418.4,2312.2c792,574.9,1742.1,774.3,2637.9,632C24161.1-8661.7,25002.7-9145.7,25577.6-9937.7
						L25577.6-9937.7z M26183.5-12571.5c141.3,889.1-56.7,1832.1-627.3,2618.3c-570.6,786.2-1405.8,1266.6-2295,1407.9
						c-889.1,141.2-1832.1-56.7-2618.3-627.3c-786.1-570.6-1266.6-1405.8-1407.8-2295c-141.3-889.1,56.7-1832.1,627.3-2618.3
						c570.6-786.2,1405.8-1266.6,2295-1407.8c889.1-141.3,1832.1,56.7,2618.3,627.3
						C25561.8-14295.9,26042.3-13460.7,26183.5-12571.5"/>
					<path class="st6" d="M25455.4-10149.7c510.9-834.7,635.2-1797.5,423-2679.4c-212.1-881.3-760.2-1681.9-1594-2192.8l0,0
						l-1.5-0.9c-834.7-510.9-1797.5-635.2-2679.3-423c-881.4,212.1-1681.9,760.2-2192.8,1594v0.1l-0.9,1.5
						c-510.9,834.7-635.1,1797.5-423,2679.3c212.1,881.4,760.2,1681.9,1594,2192.9l0.1,0l1.5,0.9
						c834.7,510.9,1797.5,635.1,2679.3,423C24143.5-8766.4,24944.5-9315,25455.4-10149.7L25455.4-10149.7z M25852.7-12823
						c210.6,875.3,87.3,1831-419.9,2659.5c-507.1,828.5-1302,1373-2177.3,1583.7c-875.2,210.6-1830.8,87.3-2659.3-419.8l-0.2-0.1
						c-828.5-507.1-1373.1-1302.1-1583.7-2177.3c-210.6-875.2-87.3-1830.8,419.7-2659.2l0.2-0.3
						c507.2-828.5,1302.1-1373.1,2177.3-1583.7c875.2-210.6,1830.9-87.3,2659.4,419.8l0.1,0.1
						C25097.6-14493.2,25642.1-13698.2,25852.7-12823"/>
					<path class="st6" d="M25317-10351.5c443.9-872.2,492.1-1841.9,211.3-2704.3c-280.7-862.5-890.5-1617.9-1762.8-2061.7
						c-872.2-443.8-1841.8-492.1-2704.3-211.3c-861.9,280.6-1616.8,889.7-2060.7,1760.9l-0.1,0l-0.9,1.9
						c-443.8,872.3-492.1,1841.9-211.4,2704.3c280.6,861.8,889.7,1616.8,1760.9,2060.7l0,0l1.8,1
						c872.3,443.8,1841.9,492.1,2704.4,211.3c861.9-280.6,1616.8-889.7,2060.7-1760.9l0,0L25317-10351.5L25317-10351.5z
						 M25503.2-13047.7c278.6,856,230.7,1818.3-209.6,2684l-0.2,0.3c-440.5,865.8-1190.3,1471-2046.3,1749.7
						c-855.9,278.6-1818.1,230.8-2683.7-209.5l-0.5-0.3c-865.8-440.5-1471-1190.3-1749.7-2046.3c-278.6-856-230.7-1818.3,209.7-2684
						l0.1-0.2c440.6-865.8,1190.3-1471,2046.4-1749.7c856.1-278.7,1818.4-230.8,2684.2,209.8
						C24619.3-14653.4,25224.6-13903.7,25503.2-13047.7"/>
					<path class="st6" d="M25163.2-10541.7c374-904.4,346-1874.8-1.6-2712.6c-347.6-837.8-1014.8-1542.9-1919.2-1916.9
						s-1874.8-346.1-2712.6,1.6c-837.8,347.6-1542.9,1014.8-1917,1919.2c-374,904.4-346,1874.8,1.6,2712.6
						c347.6,837.8,1014.8,1542.9,1919.3,1916.9c904.4,374,1874.8,346,2712.6-1.6C24084-8970.1,24789.1-9637.3,25163.2-10541.7
						L25163.2-10541.7z M25137.2-13244.2c345,831.5,372.8,1794.7,1.5,2692.4c-371.3,897.6-1071.1,1559.9-1902.7,1904.9
						c-831.6,345-1794.8,372.8-2692.5,1.6c-897.7-371.2-1559.8-1071.2-1904.9-1902.7c-345-831.5-372.8-1794.7-1.5-2692.4
						c371.2-897.6,1071.1-1559.9,1902.7-1904.9c831.5-345,1794.7-372.8,2692.4-1.6C24130-14775.7,24792.2-14075.7,25137.2-13244.2"
						/>
					<path class="st6" d="M24994.9-10719.4c301.8-930.9,197.8-1896.1-214.5-2704c-412.3-807.9-1132.8-1458.5-2063.8-1760.4
						c-931-301.9-1896.2-197.8-2704.1,214.5c-807.9,412.3-1458.5,1132.8-1760.4,2063.8c-301.8,931-197.8,1896.1,214.5,2704
						c412.3,807.9,1132.9,1458.5,2063.8,1760.4c931,301.8,1896.2,197.8,2704.1-214.5C24042.4-9067.8,24693.1-9788.3,24994.9-10719.4
						L24994.9-10719.4z M24756.9-13411.4c409.3,801.9,512.6,1759.9,213,2684c-299.6,924-945.3,1639.1-1747.3,2048.4
						c-801.9,409.2-1760,512.6-2684,213c-924-299.6-1639.1-945.4-2048.3-1747.3c-409.2-802-512.5-1760-212.9-2684.1
						c299.6-924,945.4-1639.1,1747.3-2048.3c801.9-409.3,1759.9-512.6,2684-212.9C23632.6-14859.1,24347.6-14213.4,24756.9-13411.4"
						/>
					<path class="st6" d="M24787.6-10889.2l-0.1,0.4c-226.2,944.5-813.8,1708-1581,2178.8c-767.3,470.9-1714.2,649.1-2659,423h0
						c-944.7-226.1-1708.3-813.8-2179.2-1581.1c-470.7-766.9-649-1713.3-423.3-2657.5l0.7-1.5v-1.6
						c226.4-943.9,813.9-1706.9,1580.7-2177.5c767.4-470.9,1714.3-649.1,2659-423l0.5,0.1c944.5,226.2,1707.9,813.8,2178.8,1581
						C24835.5-12780.9,25013.7-11834,24787.6-10889.2L24787.6-10889.2z M24813.6-10884.9c227.2-951.2,47.6-1904.5-426.5-2677.1
						c-474.4-773.1-1243.8-1365.1-2195.6-1593l-1.7-0.4h-0.1c-951.2-227.2-1904.6-47.6-2677.1,426.5
						c-772.7,474.2-1364.5,1243-1592.6,2194.1v0l-0.4,1.5v0l-0.4,1.6v0.1c-227.2,951.2-47.6,1904.6,426.5,2677.1
						c474.2,772.6,1243,1364.5,2194.1,1592.6l1.6,0.8h1.7c951.3,227.2,1904.6,47.6,2677.2-426.5
						c773-474.4,1365.1-1243.8,1592.9-2195.6L24813.6-10884.9L24813.6-10884.9"/>
					<path class="st6" d="M24619.2-11032.2c152.4-966.7-101.4-1903.8-635.1-2637.2c-533.6-733.4-1347.1-1263.3-2313.9-1415.7
						c-966.7-152.4-1903.7,101.4-2637.1,635.1c-733.4,533.7-1263.3,1347.1-1415.8,2313.9c-152.4,966.7,101.4,1903.7,635.1,2637.1
						c533.6,733.5,1347.1,1263.3,2313.9,1415.7c966.7,152.4,1903.7-101.4,2637.1-635.1
						C23936.9-9252,24466.8-10065.5,24619.2-11032.2L24619.2-11032.2z M23962.8-13653.9c529.7,728,781.7,1658.1,630.4,2617.6
						c-151.3,959.5-677.1,1766.9-1405.1,2296.5c-728,529.7-1658,781.7-2617.6,630.4c-959.5-151.3-1766.8-677.2-2296.5-1405.2
						c-529.7-728-781.7-1658.1-630.4-2617.6c151.2-959.5,677.1-1766.9,1405.1-2296.6c728-529.7,1658-781.7,2617.6-630.4
						C22625.7-14907.8,23433.1-14381.8,23962.8-13653.9"/>
					<path class="st6" d="M24414.2-11165.6c76.1-975.7-250.6-1889.9-840.1-2579.1c-589.6-689.3-1442.1-1153.6-2417.9-1229.7h-0.1
						c-975.6-76-1889.8,250.6-2579.1,840.2c-689.3,589.6-1153.7,1442.2-1229.7,2417.9v0c-76,975.7,250.6,1889.8,840.2,2579.1
						c589.6,689.3,1442.1,1153.7,2417.9,1229.7c975.7,76.1,1889.8-250.6,2579.2-840.2
						C23873.7-9337.3,24338.1-10189.9,24414.2-11165.6L24414.2-11165.6z M23554-13727.6c585.1,684.1,909.3,1591.6,833.9,2560.1
						c-75.5,968.4-536.4,1814.6-1220.5,2399.8c-684.2,585.2-1591.5,909.4-2560,833.9c-968.5-75.5-1814.7-536.4-2399.8-1220.5
						c-585.2-684.1-909.4-1591.5-833.9-2560v0c75.5-968.4,536.4-1814.6,1220.6-2399.8c684.1-585.2,1591.5-909.4,2560-833.9h0.1
						C22122.6-14872.6,22968.8-14411.7,23554-13727.6L23554-13727.6z M21156.1-14974.5L21156.1-14974.5L21156.1-14974.5z
						 M17347.2-11716.4L17347.2-11716.4L17347.2-11716.4"/>
					<path class="st6" d="M24199.2-11282.5c-0.7-978.7-398.2-1864.4-1040-2505.3c-641.8-640.8-1528.2-1036.8-2506.9-1036.1
						c-978.7,0.8-1864.5,398.1-2505.3,1040c-640.9,641.8-1036.9,1528.2-1036.1,2506.9h0h0c0.7,978.7,398.1,1864.5,1040,2505.3
						c641.8,640.8,1528.2,1036.8,2506.8,1036.1v0h0.1v0c978.7-0.8,1864.4-398.2,2505.3-1040
						C23803.9-9417.4,24200-10303.8,24199.2-11282.5L24199.2-11282.5L24199.2-11282.5L24199.2-11282.5L24199.2-11282.5z
						 M23140.6-13769c637.1,636.1,1031.5,1515.2,1032.3,2486.6h0v0h0c0.8,971.4-392.3,1851.2-1028.4,2488.3
						c-636.1,637.1-1515.2,1031.5-2486.6,1032.3v-0.1h-0.1v0.1c-971.4,0.8-1851.1-392.3-2488.2-1028.4
						c-637.1-636.1-1031.6-1515.3-1032.3-2486.6h0h0c-0.7-971.4,392.3-1851.2,1028.4-2488.3
						c636.1-637.1,1515.2-1031.5,2486.6-1032.3C21623.7-14798.2,22503.4-14405.2,23140.6-13769"/>
					<path class="st6" d="M23975.8-11382c-77.6-975.6-543.2-1827.5-1233.4-2416c-690.2-588.5-1605-913.7-2580.6-836.1
						c-975.6,77.6-1827.4,543.3-2415.9,1233.5c-588.5,690.2-913.8,1604.9-836.2,2580.5c77.6,975.6,543.3,1827.5,1233.5,2416
						c690.3,588.5,1604.9,913.7,2580.5,836.1c975.6-77.6,1827.4-543.3,2415.9-1233.5C23728.2-9491.8,24053.4-10406.5,23975.8-11382
						L23975.8-11382z M22725.2-13777.9c685.1,584.1,1147.3,1429.6,1224.3,2397.9c77,968.3-245.8,1876.2-829.9,2561.3
						c-584.1,685-1429.6,1147.3-2397.9,1224.2h0c-968.4,77-1876.2-245.7-2561.3-829.8c-685.1-584.1-1147.3-1429.6-1224.3-2397.9
						c-77.1-968.4,245.7-1876.3,829.9-2561.3c584.1-685,1429.6-1147.3,2397.9-1224.3C21132.2-14684.8,22040.2-14362,22725.2-13777.9
						z M23975.8-11382L23975.8-11382L23975.8-11382"/>
					<path class="st6" d="M23745.2-11463.9c-153.9-966.5-685.1-1779.2-1419.3-2311.7c-734.2-532.5-1671.7-784.9-2638.2-631
						c-966.6,153.9-1779.2,685.1-2311.6,1419.3c-532.6,734.3-784.9,1671.7-631,2638.2c153.9,966.6,685.1,1779.2,1419.3,2311.7
						c734.2,532.5,1671.7,784.9,2638.2,630.9c966.5-153.9,1779.1-685.1,2311.7-1419.3
						C23646.7-9559.9,23899.1-10497.3,23745.2-11463.9L23745.2-11463.9z M22310.4-13754.1c728.8,528.6,1256,1335.1,1408.8,2294.4
						c152.8,959.3-97.7,1889.7-626.3,2618.5c-528.6,728.8-1335.1,1256-2294.4,1408.8c-959.3,152.8-1889.7-97.8-2618.6-626.3
						c-728.8-528.6-1256-1335.1-1408.7-2294.4c-152.8-959.3,97.7-1889.8,626.2-2618.6c528.6-728.8,1335.1-1256,2294.5-1408.7
						C20651.1-14533.2,21581.6-14282.7,22310.4-13754.1"/>
					<path class="st6" d="M23508.9-11527.3c-229.3-951.5-822.6-1720-1596.4-2193.2c-773.8-473.2-1728.1-651.2-2679.5-421.9
						c-951.5,229.3-1719.9,822.6-2193.2,1596.3c-473.2,773.8-651.2,1728.1-421.9,2679.5c229.3,951.5,822.6,1719.9,1596.4,2193.2
						c773.7,473.2,1728,651.2,2679.5,421.9c951.5-229.4,1719.9-822.6,2193.2-1596.4C23560.2-9621.5,23738.2-10575.8,23508.9-11527.3
						z M21898.8-13697.9c768,469.7,1356.9,1232.4,1584.5,2176.7c227.6,944.4,50.9,1891.6-418.8,2659.7
						c-469.7,768.1-1232.4,1356.9-2176.7,1584.5c-944.4,227.6-1891.6,50.9-2659.7-418.8c-768-469.7-1356.8-1232.4-1584.5-2176.7
						c-227.6-944.3-50.9-1891.6,418.8-2659.7c469.7-768.1,1232.4-1356.9,2176.7-1584.5
						C20183.5-14344.3,21130.7-14167.6,21898.8-13697.9"/>
					<path class="st6" d="M23268.4-11572c-303.3-930.6-955.1-1650-1763.6-2061c-808.6-411.1-1773.9-513.6-2704.4-210.3
						c-930.5,303.3-1650,955.1-2061,1763.6c-411,808.6-513.6,1773.9-210.3,2704.5c303.3,930.5,955.1,1650,1763.6,2061
						c808,410.7,1772.4,513.4,2702.3,211l2.1-0.7c930.6-303.3,1650-955,2061.1-1763.6c410.7-808,513.4-1772.4,211-2702.3v-0.1
						L23268.4-11572L23268.4-11572z M21492.8-13609.5c802.5,408,1449.3,1122,1750.4,2045.5l0.1,0.2
						c300.9,923.5,199.2,1881.7-208.8,2684.2c-408,802.5-1122,1449.4-2045.5,1750.4l-0.2,0.1c-923.5,301-1881.7,199.2-2684.3-208.8
						c-802.6-407.9-1449.5-1122.1-1750.5-2045.6c-301-923.6-199.2-1881.8,208.8-2684.3c407.9-802.5,1122.1-1449.4,2045.6-1750.4
						C19732.1-14119.2,20690.3-14017.4,21492.8-13609.5"/>
					<path class="st6" d="M23025.1-11597.7c-375.4-903.8-1081.7-1569.9-1920-1916.2c-838.3-346.3-1808.7-372.8-2712.6,2.6
						c-903.8,375.4-1569.9,1081.7-1916.2,1920c-346.3,838.3-372.8,1808.7,2.6,2712.5c375.4,903.8,1081.6,1569.9,1920,1916.2
						c838.3,346.2,1808.8,372.7,2712.6-2.7c903.8-375.4,1569.9-1081.6,1916.2-1920C23374-9723.4,23400.5-10693.8,23025.1-11597.7
						L23025.1-11597.7z M21095.1-13489.5c832.1,343.7,1533,1004.8,1905.7,1902c372.6,897.1,346.3,1860.3,2.6,2692.4
						c-343.7,832-1004.8,1533-1901.9,1905.6v0.1c-897.1,372.6-1860.3,346.3-2692.4,2.6c-832-343.7-1533-1004.9-1905.6-1902
						c-372.7-897.1-346.4-1860.3-2.7-2692.4c343.7-832,1004.9-1533,1902-1905.6C19299.8-13859.5,20263-13833.2,21095.1-13489.5"/>
					<path class="st6" d="M22780.5-11604.2c-445.2-871.6-1201.5-1480.2-2064.5-1759.6c-862.9-279.4-1832.4-229.6-2704,215.6
						c-871.6,445.2-1480.2,1201.5-1759.6,2064.5c-279.4,862.9-229.6,1832.4,215.6,2704c445.2,871.6,1201.5,1480.2,2064.5,1759.6
						c862.9,279.4,1832.4,229.6,2704-215.6c871.6-445.2,1480.2-1201.5,1759.6-2064.5
						C23275.5-9763.1,23225.7-10732.6,22780.5-11604.2L22780.5-11604.2z M20708-13338.6c856.4,277.3,1607.2,881.4,2049.1,1746.5
						c441.9,865.1,491.2,1827.4,213.9,2683.9c-277.3,856.5-881.4,1607.2-1746.5,2049.1c-865.1,441.9-1827.4,491.3-2683.9,213.9
						c-856.5-277.4-1607.2-881.4-2049.1-1746.5c-441.9-865.1-491.3-1827.4-213.9-2683.9c277.3-856.5,881.4-1607.2,1746.5-2049.1
						C18889.1-13566.6,19851.4-13616,20708-13338.6"/>
					<path class="st6" d="M22536.2-11591.4c-512.2-833.9-1314-1381.3-2196.2-1592.1c-882.2-210.8-1844.8-85.1-2678.7,427.1
						c-834,512.2-1381.3,1314-1592.1,2196.2c-210.8,882.2-85.1,1844.8,427.1,2678.7c512.3,834,1314,1381.3,2196.3,1592.1
						c882.2,210.8,1844.8,85.1,2678.7-427.1c833.9-512.2,1381.3-1314,1592.1-2196.3C23174.2-9794.9,23048.5-10757.5,22536.2-11591.4
						L22536.2-11591.4z M20333.9-13157.9c875.6,209.2,1671.4,752.5,2179.8,1580.2c508.5,827.7,633.3,1783.2,424,2658.8
						c-209.2,875.6-752.5,1671.4-1580.2,2179.8c-827.8,508.5-1783.2,633.2-2658.9,424c-875.6-209.2-1671.4-752.5-2179.8-1580.2
						c-508.4-827.8-633.2-1783.2-424-2658.9c209.2-875.6,752.5-1671.4,1580.2-2179.8
						C18502.8-13242.4,19458.3-13367.1,20333.9-13157.9"/>
					<path class="st6" d="M22293.6-11559.5c-576.2-791.1-1418.4-1273.9-2314.4-1414.8c-896-140.9-1845.7,60-2636.9,636.1
						c-791.1,576.2-1273.9,1418.4-1414.8,2314.4c-140.9,896,60,1845.8,636.2,2636.9c576.1,791.1,1418.4,1273.8,2314.4,1414.8
						c896,140.9,1845.7-60,2636.9-636.1c791.2-576.1,1273.9-1418.4,1414.8-2314.4C23070.7-9818.7,22869.8-10768.4,22293.6-11559.5
						L22293.6-11559.5z M19975.2-12948.3c889.3,139.9,1725.3,619,2297.2,1404.2c571.8,785.3,771.2,1728,631.3,2617.4
						c-139.9,889.3-619,1725.3-1404.2,2297.2c-785.3,571.8-1728,771.2-2617.4,631.3c-889.3-139.9-1725.3-619-2297.2-1404.2
						c-571.8-785.3-771.2-1728-631.4-2617.4c139.9-889.3,619-1725.3,1404.3-2297.1C18143.1-12888.7,19085.8-13088.2,19975.2-12948.3
						"/>
					<path class="st6" d="M22054.3-11508.8c-636.5-743.5-1514-1158.6-2418.3-1228.8c-904.3-70.1-1835.3,204.7-2578.8,841.2
						c-743.5,636.5-1158.6,1514-1228.8,2418.3c-70.1,904.3,204.7,1835.4,841.2,2578.9c636.5,743.5,1514.1,1158.6,2418.4,1228.8
						c904.3,70.1,1835.4-204.7,2578.8-841.2c743.5-636.4,1158.7-1514,1228.8-2418.3C22965.7-9834.2,22690.8-10765.3,22054.3-11508.8
						z M19634.1-12711.2c897.5,69.6,1768.5,481.6,2400.2,1219.6c631.7,738,904.5,1662.1,834.9,2559.7
						c-69.6,897.6-481.6,1768.6-1219.6,2400.3c-737.9,631.7-1662.1,904.5-2559.7,834.9c-897.6-69.6-1768.6-481.6-2400.3-1219.6
						c-631.7-737.9-904.5-1662.1-834.9-2559.8c69.6-897.6,481.7-1768.6,1219.6-2400.2
						C17812.3-12508.1,18736.4-12780.8,19634.1-12711.2"/>
					<path class="st6" d="M21819.7-11439.4c-692.8-691.2-1600.3-1036.2-2507.3-1035.1c-907.1,1-1813.7,348.2-2504.9,1041
						c-691.2,692.8-1036.2,1600.3-1035.1,2507.3c1.1,907.1,348.1,1813.7,1041,2504.9c692.8,691.2,1600.2,1036.1,2507.3,1035.1
						c907.1-1,1813.7-348.2,2504.9-1041c691.2-692.8,1036.2-1600.2,1035.1-2507.3C22859.7-9841.5,22512.6-10748.1,21819.7-11439.4z
						 M19312.5-12448.1c900.2-1,1801,341.3,2488.6,1027.5c687.7,686.1,1032.2,1586,1033.3,2486.2c1,900.3-341.4,1801-1027.5,2488.7
						c-686.1,687.7-1585.9,1032.2-2486.2,1033.2c-900.3,1.1-1800.9-341.4-2488.7-1027.4c-687.7-686.1-1032.2-1585.9-1033.2-2486.2
						c-1-900.2,341.3-1800.9,1027.4-2488.6C17512.3-12102.5,18412.2-12447.1,19312.5-12448.1"/>
					<path class="st6" d="M21591.4-11351.7c-745-634.7-1676.8-907.4-2580.9-835.2c-904.1,72.3-1780.7,489.5-2415.4,1234.4
						c-634.7,745-907.4,1676.7-835.1,2580.8c72.2,904.2,489.4,1780.7,1234.4,2415.5c745,634.7,1676.7,907.4,2580.8,835.2
						c904.1-72.3,1780.7-489.5,2415.4-1234.4c634.7-745,907.4-1676.7,835.2-2580.8C22753.5-9840.4,22336.3-10717,21591.4-11351.7z
						 M19012.6-12160.5c897.4-71.7,1822.2,198.9,2561.6,828.8c739.4,629.9,1153.5,1500.1,1225.2,2397.4
						c71.7,897.4-198.9,1822.3-828.9,2561.7c-630,739.4-1500,1153.5-2397.4,1225.2c-897.5,71.7-1822.3-198.9-2561.6-828.9
						c-739.4-630-1153.5-1500-1225.2-2397.5c-71.7-897.4,198.9-1822.2,828.9-2561.6
						C17245.1-11674.7,18115.1-12088.8,19012.6-12160.5"/>
					<path class="st6" d="M21370.5-11246.4c-792.5-574.3-1742.7-773-2638.4-630c-895.7,143-1736.9,627.7-2311.1,1420.2
						c-574.3,792.5-772.9,1742.7-630,2638.4c143,895.7,627.7,1736.8,1420.2,2311.1s1742.7,772.9,2638.4,629.9
						c895.3-143,1736.2-627.3,2310.4-1419.3h0l0.7-0.9c574.2-792.5,772.9-1742.7,629.9-2638.4
						c-142.9-895.4-627.3-1736.2-1419.2-2310.4l-0.1,0L21370.5-11246.4L21370.5-11246.4z M18736.2-11850.3
						c889-141.9,1832.1,55.3,2618.7,625.2l0.1,0.1c786.6,570,1267.7,1404.8,1409.7,2293.8c141.9,889-55.3,1832.1-625.2,2618.7
						l-0.1,0.2c-570,786.6-1404.9,1267.7-2293.8,1409.7c-889.1,141.9-1832.2-55.3-2618.9-625.3
						c-786.6-570-1267.7-1404.9-1409.6-2293.9c-141.9-889,55.3-1832.2,625.3-2618.8
						C17012.4-11227.3,17847.2-11708.4,18736.2-11850.3"/>
					<path class="st6" d="M21158.7-11124.1c-835.1-510.3-1798.1-633.7-2679.8-420.8c-881.7,212.9-1682.2,762.1-2192.4,1597.2
						c-510.3,835.1-633.8,1798-420.9,2679.7c212.9,881.7,762.1,1682.2,1597.2,2192.5c835.1,510.3,1798,633.7,2679.7,420.9
						c881.7-212.9,1682.2-762.1,2192.5-1597.3c510.2-835.1,633.7-1798,420.8-2679.7C22543-9813.4,21993.8-10613.9,21158.7-11124.1
						L21158.7-11124.1z M18485.1-11519.4c875.1-211.3,1830.9-88.7,2659.8,417.8c828.9,506.5,1374.1,1301,1585.4,2176.2
						c211.3,875.1,88.7,1830.9-417.8,2659.8c-506.5,828.9-1301,1374.1-2176.2,1585.4c-875.1,211.3-1830.9,88.7-2659.8-417.8
						c-828.9-506.5-1374-1301-1585.3-2176.1c-211.3-875.1-88.7-1830.9,417.8-2659.8C16815.4-10762.9,17610-11308.1,18485.1-11519.4"
						/>
					<path class="st6" d="M20956.9-10985.6c-872.6-443.1-1842.2-490.6-2704.4-209.2c-861.6,281.2-1616,890.9-2059.3,1762.4l0,0l-1,2
						c-443.1,872.6-490.7,1842.2-209.3,2704.5c281.2,861.6,890.9,1616,1762.5,2059.3l2.5,2.5h2.5
						c871.8,441.8,1840.3,488.9,2701.5,207.8c862.3-281.5,1617.2-891.8,2060.4-1764.5l1.5-2.8v0
						c441.8-871.9,488.9-1840.3,207.8-2701.6C22440-9787.5,21829.6-10542.4,20956.9-10985.6L20956.9-10985.6z M18260.7-11169.7
						c855.9-279.3,1818.3-232.2,2684.4,207.7c866.2,439.8,1472,1189.1,1751.3,2044.9c279.3,855.9,232.2,1818.3-207.7,2684.4
						l-0.1,0.3c-439.9,865.9-1189.1,1471.7-2044.9,1751c-855.9,279.3-1818.3,232.2-2684.4-207.7L18260.7-11169.7L18260.7-11169.7z
						 M16215.7-9418.5c439.8-866.1,1189.1-1471.9,2044.9-1751.2L16215.7-9418.5z M16215.6-9418.2l0.1-0.3L16215.6-9418.2z
						 M16008.1-6734.1c-279.4-855.8-232.2-1818.1,207.5-2684.2L16008.1-6734.1z M17759.3-4689.1
						c-866.1-439.8-1471.9-1189.1-1751.2-2045L17759.3-4689.1"/>
					<path class="st6" d="M20764.3-10832.7c-904-372.2-1873.3-343.2-2710,4.7c-837.5,348.2-1542.2,1016-1915.5,1920.7
						c-373.3,904.7-344.6,1875.1,3.7,2712.5c348.2,837.5,1016,1542.2,1920.7,1915.5c904.7,373.3,1875.1,344.5,2712.6-3.7
						c837.4-348.2,1542-1015.9,1915.3-1920.4l1.2-2.4v-0.6c372.2-904,343.2-1873.3-4.7-2710c-348.3-837.5-1016-1542.1-1920.7-1915.5
						L20764.3-10832.7L20764.3-10832.7L20764.3-10832.7L20764.3-10832.7z M18064.4-10803.5c831.3-345.7,1794.5-374.2,2692.4-3.7
						l0.2,0.1c897.8,370.5,1560.6,1069.9,1906.2,1901.1c345.6,831.3,374.2,1794.5,3.7,2692.5l-0.1,0.1
						c-370.5,897.9-1069.9,1560.6-1901.2,1906.3c-831.2,345.7-1794.5,374.2-2692.4,3.7l-0.1,0
						c-897.9-370.5-1560.7-1069.9-1906.3-1901.2c-345.7-831.3-374.2-1794.5-3.7-2692.4
						C16533.7-9795.1,17233.1-10457.9,18064.4-10803.5L18064.4-10803.5z"/>
					<path class="st6" d="M20589.4-10663.2c-931.2-301.1-1896.3-196.2-2703.9,216.7c-807.3,412.8-1457.2,1133.5-1758.5,2064.3l0,0
						l-0.3,0.9c-301.1,931.2-196.3,1896.3,216.6,2703.9c412.8,807.3,1133.5,1457.2,2064.2,1758.5l0.1,0l0.8,0.2
						c931.2,301.1,1896.3,196.3,2703.9-216.6c807.6-412.9,1457.7-1133.9,1758.8-2065.1c301.1-931.2,196.3-1896.3-216.6-2703.9
						C22241.6-9712,21520.6-10362.1,20589.4-10663.2L20589.4-10663.2L20589.4-10663.2L20589.4-10663.2z M17897.5-10423.1
						c801.5-409.8,1759.5-513.9,2683.8-215c924.3,298.9,1639.9,944.1,2049.8,1745.6c409.8,801.6,513.9,1759.5,215,2683.9
						s-944.1,1639.9-1745.7,2049.7c-801.5,409.8-1759.3,513.9-2683.5,215.1l-0.4-0.1c-924.3-298.9-1639.9-944.1-2049.7-1745.6
						c-409.8-801.5-513.9-1759.3-215.1-2683.6l0.1-0.3C16450.7-9297.6,17095.9-10013.3,17897.5-10423.1"/>
					<path class="st6" d="M20425.7-10481.4c-952-227.1-1905.9-46.8-2678.6,428.2c-772.7,475-1364.1,1244.9-1591.3,2196.9
						c-227.1,952-46.8,1905.9,428.3,2678.6c475,772.7,1244.8,1364.1,2196.8,1591.2c952,227.1,1905.9,46.9,2678.6-428.2
						c772.7-475.1,1364.2-1244.9,1591.3-2196.9c227.1-952,46.9-1905.9-428.3-2678.5C22147.5-9662.8,21377.7-10254.3,20425.7-10481.4
						L20425.7-10481.4L20425.7-10481.4z M17761-10030.7c767-471.5,1713.7-650.4,2658.6-425c944.9,225.4,1709,812.4,2180.5,1579.4
						c471.5,766.9,650.4,1713.7,425,2658.6c-225.4,944.9-812.4,1708.9-1579.4,2180.5c-766.9,471.5-1713.7,650.4-2658.7,425
						c-944.9-225.4-1708.9-812.5-2180.4-1579.3c-471.5-767-650.4-1713.7-425-2658.6C16407-8795.1,16994.1-9559.2,17761-10030.7"/>
					<path class="st6" d="M20276.8-10287.3c-966.9-151.7-1903.7,102.9-2636.6,637.1c-733.1,534.2-1262.2,1348.1-1413.9,2315
						c-151.6,966.8,103,1903.6,637.2,2636.6c534.2,733,1348,1262.2,2314.9,1413.9c966.9,151.7,1903.7-102.9,2636.6-637.1
						c733-534.2,1262.2-1348.1,1413.9-2314.9c151.6-966.9-103-1903.6-637.1-2636.7C22057.5-9606.4,21243.7-10135.6,20276.8-10287.3z
						 M17655.6-9628.8c727.5-530.2,1657.4-783,2617.1-632.4c959.7,150.5,1767.5,675.8,2297.7,1403.3
						c530.2,727.6,783,1657.5,632.4,2617.2c-150.6,959.6-675.9,1767.4-1403.4,2297.7c-727.6,530.2-1657.4,782.9-2617.2,632.4
						c-959.6-150.5-1767.4-675.8-2297.7-1403.4c-530.3-727.5-782.9-1657.4-632.4-2617.1
						C16402.8-8290.8,16928.1-9098.6,17655.6-9628.8"/>
					<path class="st6" d="M20143.5-10082.1c-975.7-75.3-1889.7,252-2578.4,842.1c-688.9,590.1-1152.6,1443.1-1227.9,2418.8v0
						c-75.3,975.8,252.1,1889.7,842.2,2578.5c590.1,688.8,1443,1152.5,2418.8,1227.8c975.7,75.3,1889.7-252,2578.5-842.1
						c688.8-590.2,1152.5-1443,1227.8-2418.8c75.3-975.8-252-1889.7-842.1-2578.5C21972.3-9543.1,21119.4-10006.8,20143.5-10082.1z
						 M17582.2-9219.9c683.7-585.7,1590.8-910.6,2559.3-835.9c968.5,74.7,1815.1,535,2400.8,1218.7
						c585.7,683.7,910.6,1590.8,835.9,2559.4c-74.7,968.5-535,1815.1-1218.7,2400.7c-683.7,585.7-1590.8,910.6-2559.4,835.9h0
						c-968.5-74.8-1815-535-2400.7-1218.6c-585.7-683.7-910.6-1590.8-835.9-2559.4v0C16438.3-7787.6,16898.5-8634.2,17582.2-9219.9
						L17582.2-9219.9z M16363.6-6819.1L16363.6-6819.1L16363.6-6819.1z M16337.2-6821.1L16337.2-6821.1L16337.2-6821.1z
						 M19600.2-3041.1L19600.2-3041.1L19600.2-3041.1z"/>
					<path class="st6" d="M20026.9-9867.1c-978.7,1.5-1864.2,399.6-2504.5,1042c-640.3,642.3-1035.6,1529-1034.1,2507.7
						c1.5,978.7,399.6,1864.2,1042,2504.5c642.3,640.3,1528.9,1035.7,2507.7,1034.1c978.7-1.5,1864.2-399.6,2504.5-1042
						c640.4-642.3,1035.7-1529,1034.2-2507.7c-1.5-978.7-399.7-1864.1-1042-2504.5C21892.3-9473.3,21005.6-9868.6,20026.9-9867.1
						L20026.9-9867.1z M17541.1-8806.5c635.6-637.6,1514.4-1032.7,2485.8-1034.2c971.4-1.5,1851.5,390.9,2489.1,1026.5
						c637.6,635.6,1032.7,1514.4,1034.2,2485.8c1.5,971.4-390.9,1851.5-1026.5,2489.1c-635.6,637.5-1514.4,1032.6-2485.8,1034.2
						c-971.4,1.5-1851.5-390.8-2489.1-1026.5c-637.6-635.6-1032.7-1514.4-1034.2-2485.8
						C16513.1-7288.8,16905.5-8168.9,17541.1-8806.5"/>
					<path class="st6" d="M19927.5-9643.5L19927.5-9643.5c-975.6,78.3-1827,544.7-2415,1235.4c-588,690.7-912.4,1605.6-834.1,2581.1
						v0.1c78.3,975.5,544.7,1826.9,1235.4,2414.9c690.7,588,1605.7,912.5,2581.1,834.2h0c975.5-78.3,1827-544.7,2415-1235.4
						c588-690.7,912.5-1605.6,834.1-2581.1c-78.4-975.5-544.7-1827-1235.4-2415C21817.9-9397.4,20902.9-9721.9,19927.5-9643.5
						L19927.5-9643.5z M17532.5-8391.1c583.6-685.5,1428.6-1148.4,2397-1226.1h0c968.3-77.8,1876.5,244.3,2561.9,827.9
						c685.5,583.6,1148.4,1428.7,1226.1,2397c77.7,968.4-244.4,1876.5-827.9,2562c-583.5,685.5-1428.6,1148.4-2396.9,1226.1h0
						c-968.3,77.8-1876.5-244.3-2562-827.8c-685.4-583.6-1148.3-1428.6-1226.1-2396.9l0,0C16627-6797.5,16949-7705.6,17532.5-8391.1
						L17532.5-8391.1z M20494.8-2577.9L20494.8-2577.9L20494.8-2577.9z M20492.8-2604.3L20492.8-2604.3L20492.8-2604.3z"/>
					<path class="st6" d="M19845.8-9412.9c-966.4,154.7-1778.6,686.4-2310.5,1421.1c-532,734.6-783.6,1672.2-628.9,2638.6
						c154.7,966.4,686.4,1778.6,1421,2310.5c734.4,531.7,1671.4,783.4,2637.4,629.1h0l1.3-0.2
						c966.4-154.7,1778.7-686.5,2310.6-1421.1c531.6-734.3,783.3-1671.4,629.1-2637.3v-0.1l-0.2-1.3
						c-154.7-966.4-686.4-1778.6-1421-2310.5C21749.8-9315.9,20812.3-9567.6,19845.8-9412.9L19845.8-9412.9z M17556.6-7976.3
						c528-729.2,1334.1-1257,2293.4-1410.5c959.2-153.6,1889.8,96.3,2619,624.2c729.2,528,1257,1334.1,1410.5,2293.2l0,0.2
						c153.5,959.2-96.3,1889.8-624.3,2619c-527.9,729.1-1334,1256.9-2293.1,1410.5l-0.2,0.1c-959.2,153.5-1889.8-96.3-2619-624.2
						c-729.2-528-1257-1334.2-1410.6-2293.4C16778.9-6316.5,17028.7-7247.1,17556.6-7976.3"/>
					<path class="st6" d="M19782.6-9176.5c-951.3,230-1719.2,823.9-2191.9,1598.1c-472.6,774.2-649.9,1728.6-419.8,2679.9l0.4,1.4v0
						c230.3,950.6,824,1718,1597.8,2190.4c774.1,472.6,1728.6,649.9,2679.9,419.8l1.4-0.3c950.6-230.3,1718.1-824,2190.5-1597.8
						c472.6-774.1,649.9-1728.6,419.8-2679.9c-230.1-951.3-823.9-1719.2-1598.1-2191.9
						C21688.3-9229.3,20733.8-9406.6,19782.6-9176.5L19782.6-9176.5z M17613.3-7564.7c469.1-768.4,1231.3-1357.9,2175.5-1586.2
						c944.2-228.3,1891.6-52.4,2660,416.7c768.4,469.1,1357.9,1231.4,1586.2,2175.5c228.4,944.2,52.4,1891.5-416.7,2659.9
						c-469.1,768.4-1231.3,1357.9-2175.5,1586.2l-0.3,0.1c-944.1,228.2-1891.4,52.2-2659.7-416.8
						c-768.4-469.1-1357.9-1231.3-1586.2-2175.5l-0.1-0.3C16968.2-5849.1,17144.2-6796.4,17613.3-7564.7"/>
					<path class="st6" d="M19737.3-8935.8c-929.9,304.1-1648.6,956.3-2058.9,1765c-410.4,808.9-512.2,1774.3-208.2,2704.6
						c304,930.3,956.4,1649.3,1765.3,2059.6c808.9,410.4,1774.3,512.3,2704.5,208.2c930.2-304,1649.2-956.4,2059.7-1765.3
						c410.4-808.8,512.2-1774.2,208.2-2704.5l-0.2-0.7l0-0.1c-304.2-929.9-956.3-1648.6-1765-2058.9
						c-808.9-410.4-1774.3-512.2-2704.6-208.2L19737.3-8935.8L19737.3-8935.8L19737.3-8935.8z M17702-7158.9
						c407.3-802.8,1121-1450.3,2044.3-1752l0.2-0.1c923.3-301.7,1881.5-200.6,2684.3,206.7c802.8,407.3,1450.3,1120.9,1752,2044.3
						l0.1,0.3c301.6,923.3,200.5,1881.4-206.8,2684.2c-407.3,802.9-1120.9,1450.3-2044.2,1752.1
						c-923.4,301.8-1881.7,200.7-2684.5-206.6c-802.8-407.3-1450.3-1120.9-1752-2044.2C17193.6-5397.8,17294.6-6356,17702-7158.9"/>
					<path class="st6" d="M19722.7-8668.3L19722.7-8668.3c896.9-373.3,1860.1-347.8,2692.4-4.8
						c832.3,343,1533.8,1003.7,1907.1,1900.5v0c373.3,896.8,347.8,1860.1,4.8,2692.4c-343.1,832.3-1003.7,1533.8-1900.5,1907.1
						c-896.8,373.3-1860,347.8-2692.4,4.7c-832.3-343-1533.8-1003.6-1907.1-1900.5h-0.1c-373.3-896.8-347.8-1860.1-4.7-2692.3
						C18165.3-7593.6,18825.9-8295,19722.7-8668.3L19722.7-8668.3z M19712.6-8692.7c-903.5,376.2-1569.1,1082.9-1914.7,1921.5
						c-345.6,838.6-371.3,1809,4.7,2712.6c376.2,903.5,1082.9,1569.1,1921.5,1914.7c838.5,345.6,1809,371.4,2712.6-4.7
						c903.5-376.1,1569-1082.9,1914.7-1921.5c345.6-838.6,371.4-1809.1-4.7-2712.6c-376.1-903.5-1082.8-1569.1-1921.5-1914.7
						C21586.5-9043.1,20616.1-9068.8,19712.6-8692.7"/>
					<path class="st6" d="M19718.3-8424.7l0.2-0.1c864.7-442.5,1826.9-492.6,2683.6-215.9c856.7,276.7,1607.9,880.1,2050.5,1744.9
						c442.5,864.7,492.7,1827,216,2683.7c-276.7,856.7-880.2,1607.9-1744.9,2050.4c-864.7,442.5-1827,492.7-2683.8,216.1
						c-856.7-276.7-1607.9-880.2-2050.4-1744.9l-0.1-0.3c-442.5-864.7-492.6-1826.8-216-2683.5
						C18250.1-7230.9,18853.6-7982.1,19718.3-8424.7z M19704.3-8447c-870.1,446-1477.4,1202.3-1756,2064.8
						c-278.7,863.1-228.2,1832.6,217.7,2703.8l1,2l0,0c446,870.1,1202.3,1477.4,2064.8,1756c863.1,278.7,1832.6,228.2,2703.8-217.7
						c871.2-445.9,1479.2-1202.7,1758-2065.9c278.7-863.1,228.1-1832.6-217.7-2703.8c-445.9-871.2-1202.7-1479.2-2065.8-1758
						c-863.1-278.8-1832.6-228.2-2703.8,217.7L19704.3-8447L19704.3-8447"/>
					<path class="st6" d="M19719.2-8203.9c-833.6,512.9-1380.3,1315.1-1590.4,2197.5c-210.1,882.3-83.6,1844.9,429.2,2678.4l0.8,1.3
						v0c512.9,832.7,1314.8,1379,2196.6,1589.1c882.4,210.1,1844.9,83.6,2678.4-429.3l1.3-0.9l0,0
						c832.8-512.9,1379.1-1314.8,1589.1-2196.6c210.1-882.3,83.6-1844.8-429.3-2678.4c-512.9-833.5-1315.1-1380.3-2197.5-1590.4
						C21515.2-8843.3,20552.7-8716.8,19719.2-8203.9L19719.2-8203.9z M18154.5-6000.3c208.5-875.7,751.2-1671.9,1578.6-2181
						c827.3-509.1,1782.7-634.6,2658.4-426c875.8,208.5,1672,751.2,2181.1,1578.5c509.1,827.4,634.6,1782.7,426,2658.5
						c-208.5,875.8-751.2,1672-1578.5,2181l-0.2,0.2c-827.3,508.9-1782.6,634.4-2658.3,425.9c-875.8-208.6-1671.9-751.2-2181-1578.6
						l-0.2-0.2C18071.5-4169.3,17946-5124.6,18154.5-6000.3"/>
					<path class="st6" d="M19751.3-7961.2c-790.7,576.7-1272.8,1419.4-1413,2315.5c-140.3,896.1,61.4,1845.7,638.1,2636.4
						c576.8,790.7,1419.4,1272.8,2315.5,1413c896.1,140.2,1845.7-61.4,2636.4-638.1c790.7-576.8,1272.8-1419.4,1413-2315.5
						c140.2-896.1-61.4-1845.7-638.2-2636.4c-576.8-790.7-1419.5-1272.8-2315.5-1413C21491.6-8739.7,20542-8538,19751.3-7961.2
						L19751.3-7961.2z M18364.3-5641.7c139.2-889.5,617.7-1725.8,1402.5-2298.3c784.8-572.4,1727.4-772.6,2616.9-633.4
						c889.5,139.1,1725.8,617.7,2298.3,1402.4c572.4,784.8,772.6,1727.4,633.5,2616.8c-139.2,889.5-617.7,1725.8-1402.5,2298.3
						c-784.8,572.4-1727.4,772.6-2616.8,633.4c-889.5-139.2-1725.8-617.7-2298.3-1402.5
						C18425.3-3809.7,18225.1-4752.3,18364.3-5641.7"/>
					<path class="st6" d="M19802.3-7722c-743.1,637-1157.5,1514.9-1226.9,2419.3c-69.4,904.4,206.1,1835.2,843.2,2578.2
						c637,743,1514.9,1157.4,2419.3,1226.9c904.3,69.4,1835.2-206.1,2578.2-843.2c743-637,1157.5-1514.9,1226.9-2419.3
						c69.4-904.4-206.1-1835.2-843.2-2578.2c-637.1-743-1514.9-1157.5-2419.3-1226.9C21476.1-8634.6,20545.2-8359.1,19802.3-7722
						L19802.3-7722z M18601.7-5300.7c68.9-897.7,480.3-1769,1217.7-2401.2c737.4-632.3,1661.4-905.8,2559.1-836.9
						c897.6,68.9,1768.9,480.3,2401.2,1217.7c632.3,737.5,905.8,1661.4,836.9,2559c-68.9,897.6-480.2,1769-1217.7,2401.2
						c-737.5,632.3-1661.4,905.8-2559,836.9s-1769-480.3-2401.2-1217.7C18806.3-3479.1,18532.8-4403.1,18601.7-5300.7"/>
					<path class="st6" d="M19871.9-7487.5c-690.7,693.4-1034.9,1601.1-1033.1,2508.1c1.8,907,349.5,1813.4,1042.9,2504.1
						s1601,1034.9,2508.1,1033.1c907.1-1.8,1813.5-349.6,2504.1-1042.9c690.7-693.4,1034.9-1601.1,1033.1-2508.1
						c-1.8-907.1-349.5-1813.4-1042.9-2504.1c-693.4-690.7-1601.1-1034.9-2508.1-1033.1
						C21468.9-8528.6,20562.5-8180.9,19871.9-7487.5L19871.9-7487.5z M18865-4979.4c-1.7-900.3,340-1801.3,1025.5-2489.5
						c685.5-688.2,1585.2-1033.4,2485.4-1035.2c900.3-1.7,1801.3,340,2489.5,1025.5c688.2,685.5,1033.5,1585.2,1035.2,2485.4
						c1.8,900.3-339.9,1801.2-1025.5,2489.5c-685.5,688.2-1585.1,1033.4-2485.4,1035.2c-900.3,1.8-1801.2-339.9-2489.5-1025.5
						C19212-3179.5,18866.8-4079.2,18865-4979.4"/>
					<path class="st6" d="M19959.7-7259.1c-634.2,745.5-906.1,1677.4-833.2,2581.4c73,904,490.9,1780.3,1236.3,2414.5
						c745.6,634.1,1677.5,906.1,2581.4,833.2c904.1-73,1780.4-490.8,2414.5-1236.4c634.1-745.5,906.1-1677.4,833.2-2581.4
						c-73-903.7-490.6-1779.7-1235.5-2413.8v0l-0.8-0.6c-745.5-634.2-1677.4-906.1-2581.4-833.2
						c-903.7,72.9-1779.7,490.5-2413.8,1235.5v0L19959.7-7259.1L19959.7-7259.1z M19152.9-4679.7
						c-72.4-897.1,197.3-1821.8,826.2-2561.5l0.7-0.8c629.4-739.9,1499.1-1154.6,2396.5-1227.1
						c897.1-72.4,1821.7,197.3,2561.5,826.2v0l0.8,0.6c739.9,629.4,1154.6,1499.1,1227,2396.5c72.5,897.4-197.5,1822.4-826.9,2562.3
						c-629.4,739.9-1499.1,1154.6-2396.5,1227c-897.4,72.4-1822.4-197.4-2562.3-826.9C19640-2912.6,19225.3-3782.4,19152.9-4679.7"
						/>
					<path class="st6" d="M20065.1-7038.4c-573.6,793-771.5,1743.4-627.9,2638.9c143.7,895.6,629.1,1736.4,1422,2310
						c792.9,573.6,1743.3,771.6,2638.9,627.9c895.2-143.7,1735.7-628.7,2309.3-1421v0l0.7-1c573.7-792.9,771.6-1743.3,627.9-2638.9
						c-143.6-895.3-628.7-1735.7-1421-2309.3l0,0l-0.9-0.7c-793-573.7-1743.3-771.6-2638.9-627.9
						C21479.6-8316.7,20638.8-7831.3,20065.1-7038.4L20065.1-7038.4z M19463.3-4403.6c-142.7-888.9,53.8-1832.2,623.2-2619.3
						c569.4-787.1,1403.9-1268.8,2292.7-1411.5c888.9-142.6,1832.2,53.8,2619.2,623.2l0.1,0c787,569.4,1268.8,1403.9,1411.5,2292.7
						c142.6,888.9-53.8,1832.1-623.1,2619.1l-0.1,0.1c-569.4,787.1-1403.9,1268.9-2292.8,1411.5
						c-888.9,142.6-1832.2-53.9-2619.2-623.2C20087.6-2680.3,19605.9-3514.8,19463.3-4403.6"/>
					<path class="st6" d="M20210.1-6812.9l0.2-0.2c505.9-829.2,1299.9-1374.9,2174.8-1586.8c874.9-212,1830.8-90.2,2660.1,415.7
						c829.3,505.9,1375.1,1300,1587.1,2174.9c212,875,90.2,1830.8-415.7,2660.1c-505.9,829.3-1300,1375.1-2175,1587.1
						c-875,212-1830.8,90.1-2660.1-415.7l-0.2-0.1c-829.2-505.8-1374.9-1299.9-1586.8-2174.8
						C19582.5-5027.7,19704.3-5983.5,20210.1-6812.9L20210.1-6812.9z M20185.6-6823.3c-508,834.7-630.1,1796.4-416.8,2676.7
						c213.5,881.6,763.4,1681.6,1598.9,2191.3l3.2,1.9h0.1c834.7,508,1796.4,630.1,2676.8,416.8
						c881.5-213.6,1681.6-763.4,2191.3-1598.9c509.6-835.5,632.4-1798.5,418.8-2680.1c-213.6-881.6-763.4-1681.6-1599-2191.2
						c-835.5-509.6-1798.5-632.4-2680.1-418.8c-881.5,213.6-1681.6,763.5-2191.2,1599L20185.6-6823.3L20185.6-6823.3"/>
					<path class="st6" d="M20349.9-6613.2l0.1-0.2c439.2-866.3,1188-1472.6,2043.5-1752.6c855.7-280,1818.1-233.6,2684.6,205.6
						c866.4,439.2,1472.9,1188,1752.8,2043.6c280,855.7,233.6,1818.2-205.6,2684.6c-439.2,866.5-1188,1472.9-2043.6,1752.8
						c-855.6,280-1818.1,233.6-2684.5-205.6l-0.2-0.1c-866.3-439.2-1472.7-1187.9-1752.7-2043.5
						C19864.3-4784.2,19910.7-5746.7,20349.9-6613.2z M20324.9-6622.2c-441.1,872.2-487.5,1840.6-205.7,2701.7
						c282.1,862.1,893.1,1616.5,1766,2059l2.8,1.4h0.1c872.2,441.1,1840.6,487.5,2701.7,205.7c862.1-282.1,1616.5-893.1,2059-1766
						S27138-5263,26856-6125c-282.2-862.1-893.1-1616.5-1766.1-2059c-872.9-442.5-1842.6-489.3-2704.6-207.2
						c-862,282.1-1616.5,893.1-2059,1766.1L20324.9-6622.2L20324.9-6622.2"/>
					<path class="st6" d="M20480.4-6435.1c-372.6,905-343.1,1875.4,5.8,2712.6c348.9,837.2,1017.2,1541.3,1922.3,1913.9l2.5,1h0.1
						c904.3,371.5,1873.6,341.8,2710-6.8c837.2-348.9,1541.4-1017.2,1913.9-1922.2l1.1-2.5v0c371.5-904.2,341.7-1873.6-6.9-2710
						c-348.9-837.2-1017.2-1541.4-1922.2-1914l-2.6-1c-904.3-371.5-1873.6-341.7-2710,6.9
						C21557.2-8008.4,20853-7340.1,20480.4-6435.1L20480.4-6435.1z M20510.6-3732.6c-346.3-831-375.6-1794.2-5.8-2692.4
						c369.8-898.2,1068.7-1561.5,1899.7-1907.8c831-346.3,1794.2-375.6,2692.4-5.8l0.2,0.1c898.1,369.8,1561.4,1068.7,1907.7,1899.6
						c346.3,831.1,375.5,1794.2,5.8,2692.4l-0.2,0.5c-369.8,898-1068.6,1561.2-1899.6,1907.4c-831,346.3-1794.1,375.6-2692.4,5.8
						l-0.2,0C21520.1-2202.8,20856.9-2901.7,20510.6-3732.6"/>
					<path class="st6" d="M20674-6249.7l0.1-0.1c298.2-924.5,942.8-1640.5,1744-2051c801.2-410.4,1759.1-515.2,2683.7-217.1
						c924.5,298.2,1640.7,942.8,2051.1,1744s515.3,1759.2,217.1,2683.7l-0.1,0.1c-298.2,924.4-942.8,1640.5-1744,2050.9
						c-801.2,410.5-1759.1,515.3-2683.7,217.1l-0.3-0.1c-924.4-298.2-1640.4-942.8-2050.8-1744
						C20480.7-4367.3,20376-5325.1,20674-6249.7L20674-6249.7z M20648.3-6255.6c-299.5,930.8-193.8,1894.9,219.4,2701.6
						c413.5,807.3,1135.1,1456.8,2066.5,1757.2l2.1,0.7c930.8,299.5,1895,193.8,2701.6-219.4
						c807.3-413.6,1456.8-1135.1,1757.2-2066.5l0.7-2.1v0c299.5-930.8,193.8-1894.9-219.4-2701.6
						c-413.5-807.3-1135-1456.8-2066.5-1757.2c-931.4-300.4-1896.4-194.7-2703.7,218.8c-807.3,413.5-1456.8,1135.1-1757.2,2066.5
						L20648.3-6255.6L20648.3-6255.6"/>
					<path class="st6" d="M20830.9-6094.2c-226.4,952.2-45.3,1905.9,430.3,2678.3c475.6,772.3,1245.9,1363.2,2198,1589.6
						c952.1,226.4,1905.9,45.3,2678.2-430.4c772.3-475.7,1363.2-1245.9,1589.6-2198c226.4-952.1,45.4-1905.9-430.3-2678.2
						c-475.7-772.3-1245.9-1363.2-2198-1589.6s-1905.9-45.3-2678.2,430.3C21648.1-7816.6,21057.2-7046.4,20830.9-6094.2z
						 M21283.7-3429.8c-472.1-766.5-651.8-1713.2-427.1-2658.3c224.7-945.1,811.1-1709.6,1577.7-2181.7
						c766.5-472.1,1713.2-651.7,2658.3-427.1c945.1,224.7,1709.6,811.1,2181.7,1577.7c472.1,766.5,651.7,1713.2,427,2658.3
						c-224.7,945.1-811.1,1709.6-1577.7,2181.8c-766.5,472.1-1713.2,651.7-2658.3,427C22520.3-2076.8,21755.7-2663.3,21283.7-3429.8
						"/>
					<path class="st6" d="M21025.1-5945.4c-150.9,967,104.5,1903.6,639.3,2636.1c534.8,732.6,1349,1261.2,2316,1412.1
						c967,150.9,1903.6-104.4,2636.1-639.2c732.6-534.8,1261.2-1349,1412.1-2316c150.9-967-104.4-1903.6-639.2-2636.1
						c-534.8-732.6-1349-1261.2-2316.1-1412.1c-967-150.9-1903.6,104.4-2636.1,639.2C21704.6-7726.7,21176-6912.4,21025.1-5945.4
						L21025.1-5945.4z M21685.6-3324.8c-530.8-727.1-784.2-1656.8-634.4-2616.6c149.8-959.8,674.4-1768,1401.6-2298.8
						c727.1-530.8,1656.8-784.2,2616.6-634.4c959.8,149.8,1768,674.4,2298.8,1401.6c530.8,727.2,784.2,1656.8,634.4,2616.6
						c-149.8,959.8-674.4,1768-1401.6,2298.8c-727.1,530.8-1656.8,784.2-2616.6,634.5C23024.7-2073,22216.4-2597.6,21685.6-3324.8"
						/>
					<path class="st6" d="M21230.4-5812.4c-74.5,975.8,253.5,1889.5,844.2,2577.8c590.7,688.4,1443.9,1151.4,2419.7,1226h0.1
						c975.8,74.5,1889.4-253.5,2577.8-844.2c688.3-590.7,1151.4-1443.9,1226-2419.8v-0.1c74.5-975.8-253.6-1889.5-844.2-2577.8
						c-590.7-688.4-1443.9-1151.4-2419.8-1226h-0.1c-975.8-74.5-1889.4,253.6-2577.8,844.1
						C21768-7641.5,21304.9-6788.2,21230.4-5812.4L21230.4-5812.4z M22094.6-3251.7c-586.3-683.2-911.9-1590.1-837.9-2558.7
						c74-968.6,533.5-1815.5,1216.8-2401.7c683.2-586.3,1590.1-911.9,2558.7-837.9h0c968.6,74,1815.5,533.6,2401.7,1216.8
						c586.3,683.2,911.9,1590.1,837.9,2558.8v0c-74,968.6-533.5,1815.4-1216.7,2401.7c-683.2,586.2-1590.1,911.9-2558.7,837.9h-0.1
						C23527.7-2108.9,22680.9-2568.5,22094.6-3251.7L22094.6-3251.7z M24496.4-2034.9L24496.4-2034.9L24496.4-2034.9z
						 M24494.4-2008.6L24494.4-2008.6L24494.4-2008.6z M25032.2-9050L25032.2-9050L25032.2-9050z M25034.2-9076.3L25034.2-9076.3
						L25034.2-9076.3"/>
					<path class="st6" d="M21445.6-5695.9c2.3,978.7,401,1863.8,1044,2503.7c642.8,639.8,1529.8,1034.5,2508.4,1032.2
						c978.7-2.3,1863.9-401,2503.7-1043.9s1034.4-1529.8,1032.2-2508.5c-2.3-978.7-401.1-1863.8-1043.9-2503.7
						c-642.9-639.8-1529.8-1034.4-2508.5-1032.1c-978.7,2.3-1863.8,401.1-2503.7,1043.9
						C21837.9-7561.5,21443.3-6674.6,21445.6-5695.9L21445.6-5695.9z M22508.1-3210.9c-638.1-635.1-1033.9-1513.7-1036.2-2485
						c-2.3-971.4,389.4-1851.8,1024.5-2489.9c635.1-638.1,1513.6-1033.9,2485-1036.2c971.4-2.3,1851.8,389.4,2489.9,1024.5
						c638.1,635.1,1033.9,1513.6,1036.2,2485c2.3,971.4-389.4,1851.8-1024.6,2489.9c-635.1,638.1-1513.6,1033.9-2485,1036.2
						C24026.5-2184.1,23146.2-2575.8,22508.1-3210.9"/>
					<path class="st6" d="M21669.1-5596.6c79.1,975.5,546.2,1826.6,1237.3,2414c691.1,587.5,1606.3,911.2,2581.8,832.1
						c975.4-79.1,1826.6-546.2,2414-1237.3c587.4-691.1,911.2-1606.4,832.1-2581.8c-79.1-975.5-546.2-1826.6-1237.2-2414.1
						c-691.1-587.4-1606.3-911.2-2581.8-832.1c-975.5,79.1-1826.6,546.2-2414,1237.3C21913.8-7487.2,21590-6572,21669.1-5596.6
						L21669.1-5596.6z M22923.5-3202.7c-686-583-1149.5-1427.7-1228-2396c-78.5-968.3,242.8-1876.6,825.9-2562.6
						c583-685.9,1427.8-1149.5,2396-1228c968.3-78.5,1876.7,242.9,2562.6,825.9c685.9,583.1,1149.5,1427.8,1228,2396
						c78.5,968.3-242.9,1876.7-825.9,2562.6c-583,685.9-1427.8,1149.4-2395.9,1227.9C24517.8-2298.3,23609.4-2619.6,22923.5-3202.7"
						/>
					<path class="st6" d="M21899.8-5515.2c155.4,966.3,687.9,1778.1,1422.9,2309.4c735.1,531.4,1672.8,782.3,2639.1,626.9
						c966.2-155.4,1778-687.8,2309.4-1422.9c531.4-735.1,782.3-1672.8,626.9-2639.1c-155.5-966.3-687.8-1778.1-1422.9-2309.5
						c-735.1-531.3-1672.8-782.3-2639.1-626.8c-966.2,155.4-1778.1,687.8-2309.4,1422.9
						C21995.3-7419.2,21744.4-6481.4,21899.8-5515.2L21899.8-5515.2L21899.8-5515.2L21899.8-5515.2z M23338.2-3227.1
						c-729.6-527.4-1258-1333.2-1412.3-2292.2c-154.3-959.1,94.8-1889.9,622.2-2619.6c527.4-729.6,1333.1-1258,2292.2-1412.3
						c959.1-154.3,1890,94.8,2619.6,622.2c729.6,527.4,1258,1333.1,1412.3,2292.2c154.3,959.1-94.8,1890-622.2,2619.6
						c-527.4,729.6-1333.2,1258-2292.2,1412.3C24998.7-2450.6,24067.8-2699.7,23338.2-3227.1"/>
					<path class="st6" d="M22136.2-5452.1c230.8,951.1,825.2,1718.6,1599.8,2190.6c774.5,472,1729.1,648.5,2680.2,417.8
						c951.1-230.8,1718.6-825.3,2190.6-1599.8c472.1-774.6,648.6-1729.2,417.7-2680.2c-230.8-951.1-825.2-1718.7-1599.8-2190.6
						c-774.6-472-1729.1-648.6-2680.2-417.8c-951.1,230.9-1718.6,825.3-2190.6,1599.8C22082-7357.8,21905.4-6403.2,22136.2-5452.1z
						 M23749.7-3284c-768.8-468.5-1358.8-1230.3-1587.9-2174.3c-229.1-944-53.8-1891.5,414.7-2660.3
						c468.5-768.7,1230.3-1358.8,2174.3-1587.9c944-229.1,1891.5-53.9,2660.3,414.7c768.8,468.5,1358.8,1230.3,1587.9,2174.3
						c229.1,944,53.9,1891.5-414.6,2660.2c-468.5,768.8-1230.3,1358.9-2174.3,1588C25466-2640.3,24518.5-2815.5,23749.7-3284"/>
					<path class="st6" d="M22401.9-5415.9L22401.9-5415.9c-302.5-923.2-202.2-1881.5,204.5-2684.7
						c406.6-803,1119.6-1451,2042.6-1753.5l0.3-0.1c923.1-302.5,1881.5-202.2,2684.7,204.5c803,406.7,1451,1119.7,1753.5,2042.6
						l0.1,0.3c302.4,923.1,202.2,1881.5-204.5,2684.7c-406.4,802.6-1118.8,1450.2-2040.9,1753h-0.9l-1.8,0.9
						c-923,302.2-1881,201.8-2684-204.8C23352.4-3779.7,22704.4-4492.8,22401.9-5415.9L22401.9-5415.9z M22377.1-5407
						c304.9,929.6,957.6,1647.8,1766.6,2057.5c808.6,409.4,1773.2,510.7,2702.6,206.7h0l2-0.7l0.8-0.3
						c929.7-304.9,1647.9-957.6,2057.6-1766.6c409.4-808.6,510.6-1773.3,206.7-2702.6v-0.1l-0.7-2
						c-304.8-930.1-957.6-1648.6-1766.9-2058.3c-808.5-409.4-1773.2-510.7-2702.6-206.8h0l-2.1,0.6
						c-930,304.8-1648.5,957.7-2058.3,1766.9c-409.4,808.6-510.7,1773.2-206.7,2702.6v1L22377.1-5407"/>
					<path class="st6" d="M22620.1-5382.5c376.8,903.2,1084.1,1568.2,1923,1913.2c838.9,345,1809.3,370,2712.5-6.9
						c903.2-376.8,1568.3-1084.1,1913.3-1923c344.9-838.9,370-1809.3-6.9-2712.5c-376.8-903.2-1084.1-1568.3-1922.9-1913.2
						c-838.9-345-1809.4-370-2712.6,6.8c-903.2,376.8-1568.2,1084.1-1913.2,1923C22268.3-7256.2,22243.3-6285.7,22620.1-5382.5
						L22620.1-5382.5z M24553.1-3493.6c-832.6-342.4-1534.6-1002.5-1908.6-1899c-374-896.6-349.3-1859.8-6.8-2692.4
						c342.4-832.6,1002.5-1534.6,1899-1908.6c896.6-374.1,1859.8-349.3,2692.4-6.9c832.6,342.4,1534.6,1002.4,1908.6,1899
						c374.1,896.6,349.3,1859.8,6.9,2692.4c-342.4,832.6-1002.5,1534.6-1899,1908.6C26349-3126.5,25385.7-3151.3,24553.1-3493.6"/>
					<path class="st6" d="M22864.7-5376.4c446.6,870.9,1203.9,1478.3,2067.2,1756.4c863.3,278.1,1832.7,226.8,2703.6-219.8
						c870.9-446.6,1478.3-1203.9,1756.4-2067.2c277.7-862.4,226.9-1830.6-218.3-2700.7v-0.1l-1.5-2.9
						c-446.6-870.9-1203.8-1478.3-2067.2-1756.4c-862.3-277.8-1830.5-226.9-2700.7,218.3h0l-2.9,1.5
						C23530.4-9700.6,22923-8943.4,22645-8080C22366.9-7216.7,22418.1-6247.3,22864.7-5376.4z M24940-3645.1
						c-856.9-276-1608.6-878.9-2051.8-1743.3c-443.2-864.4-494.1-1826.7-218.1-2683.6c276-856.9,878.8-1608.5,1743-2051.7l0.3-0.1
						c864.4-443.2,1826.6-494.1,2683.6-218.2c856.8,276,1608.4,878.8,2051.7,1743.1l0.1,0.2c443.3,864.4,494.2,1826.6,218.1,2683.6
						c-276,857-878.9,1608.6-1743.2,2051.8C26759.2-3420,25796.9-3369.1,24940-3645.1"/>
					<path class="st6" d="M23110-5387.9c513.5,832.3,1315.7,1377.9,2197.7,1587.2c881.3,209.2,1842.4,82.5,2674.7-429.4h0.1l3.3-2
						c833.2-513.6,1379.3-1316.2,1588.7-2198.7c209.2-881.2,82.5-1842.3-429.3-2674.7v-1.9l-3-3
						c-513.6-832.3-1315.7-1377.9-2197.7-1587.2c-882.5-209.4-1844.9-82.1-2678.1,431.4l-1.5,0.9v0
						c-832.3,513.6-1377.9,1315.8-1587.2,2197.7c-209.4,882.5-82.2,1844.9,431.4,2678.1L23110-5387.9L23110-5387.9L23110-5387.9z
						 M25313.8-3826.5c-876-207.9-1672.6-749.9-2182.3-1576.8l-0.1-0.1c-509.6-826.9-635.9-1782.1-428-2658
						c207.9-876,750-1672.7,1576.8-2182.4l0.3-0.1c826.9-509.6,1782-635.8,2657.9-427.9c876,207.9,1672.6,749.8,2182.3,1576.7
						l0.1,0.1c509.7,826.9,636,1782.2,428.1,2658.1c-207.9,875.9-749.8,1672.5-1576.6,2182.2l-0.3,0.2
						C27145-3744.9,26189.7-3618.6,25313.8-3826.5"/>
					<path class="st6" d="M23351.6-5421.7c577.3,790.2,1420.3,1271.6,2316.6,1411.2c896.2,139.5,1845.7-62.9,2636-640.2l0.9-0.7l0,0
						c789.6-577.3,1270.7-1420,1410.2-2315.9c139.5-896.2-62.9-1845.7-640.2-2636l-0.7-0.9l0-0.1
						c-577.3-789.6-1420-1270.7-2315.9-1410.2c-896.2-139.5-1845.7,62.8-2636,640.2c-790.2,577.3-1271.6,1420.4-1411.2,2316.7
						C22571.8-7161.4,22774.2-6212,23351.6-5421.7L23351.6-5421.7z M25672.2-4036.6c-889.6-138.5-1726.3-616.3-2299.4-1400.7
						c-573-784.4-773.9-1726.8-635.4-2616.3c138.5-889.6,616.3-1726.3,1400.7-2299.4c784.4-573.1,1726.8-773.9,2616.3-635.5
						c889.5,138.5,1726.3,616.3,2299.4,1400.8l0.2,0.2c572.9,784.3,773.8,1726.6,635.3,2616.1
						c-138.5,889.6-616.3,1726.3-1400.7,2299.4l-0.3,0.2C27503.9-4098.9,26561.6-3898.1,25672.2-4036.6"/>
					<path class="st6" d="M23590.7-5472.9c637.6,742.5,1515.8,1156.3,2420.3,1225c904.4,68.7,1835-207.5,2577.5-845.1
						c742.5-637.7,1156.3-1515.9,1225-2420.3c68.8-904.4-207.5-1835-845.1-2577.5c-637.7-742.5-1515.9-1156.3-2420.3-1225
						c-904.4-68.7-1835,207.6-2577.5,845.2c-742.5,637.6-1156.3,1515.8-1225,2420.3C22676.8-7146,22953.1-6215.4,23590.7-5472.9
						L23590.7-5472.9z M26013-4274.2c-897.7-68.3-1769.3-478.9-2402.2-1215.9c-632.8-736.9-907.1-1660.7-838.9-2558.4
						c68.3-897.7,478.9-1769.4,1215.8-2402.2c737-632.8,1660.7-907.1,2558.4-838.9c897.6,68.2,1769.3,478.9,2402.2,1215.8
						c632.9,737,907.1,1660.7,838.9,2558.4c-68.2,897.7-478.9,1769.3-1215.8,2402.2C27834.4-4480.2,26910.7-4206,26013-4274.2"/>
					<path class="st6" d="M23825.3-5542.7c693.9,690.1,1601.9,1033.7,2508.9,1031.2c907.1-2.5,1813.1-351,2503.3-1044.9v0v-0.1
						c690.2-693.9,1033.7-1601.9,1031.2-2508.8c-2.5-907.1-351-1813.2-1044.9-2503.3l0.1-0.1h-0.1
						c-694-690.1-1601.9-1033.6-2508.9-1031.2c-907.1,2.5-1813.1,351-2503.3,1044.9l0,0v0c-690.1,693.9-1033.7,1601.9-1031.2,2508.9
						C22782.9-7138.9,23131.3-6232.8,23825.3-5542.7L23825.3-5542.7z M26334.1-4537.8c-900.3,2.4-1801.5-338.5-2490.3-1023.6
						c-688.8-685-1034.7-1584.3-1037.1-2484.6c-2.5-900.3,338.5-1801.5,1023.6-2490.3v0.1l0-0.1v0
						c685-688.7,1584.3-1034.6,2484.5-1037.1c900.2-2.5,1801.5,338.5,2490.3,1023.5l-0.1,0h0.1
						c688.7,685,1034.7,1584.3,1037.1,2484.6c2.5,900.2-338.5,1801.5-1023.5,2490.2v0v0.1
						C28133.7-4886.2,27234.4-4540.2,26334.1-4537.8"/>
					<path class="st6" d="M24053.5-5630.7c746,633.6,1678.1,904.8,2582.1,831.2c904-73.7,1780-492.3,2413.6-1238.2v0
						c633.5-745.9,904.7-1678.1,831.1-2582.1s-492.2-1780-1238.2-2413.5l0,0c-746-633.6-1678.1-904.7-2582.1-831.1
						c-904,73.7-1780,492.2-2413.6,1238.2c-633.5,745.9-904.7,1678.1-831.1,2582.1C22888.9-7140.2,23307.6-6264.2,24053.5-5630.7z
						 M26633.5-4825.9c-897.3,73.1-1822.6-196.1-2563-824.9c-740.4-628.8-1155.8-1498.2-1228.9-2395.5
						c-73.1-897.3,196.1-1822.5,824.9-2562.9c628.8-740.4,1498.2-1155.8,2395.5-1228.9c897.3-73.2,1822.5,196,2562.9,824.9h0.1
						c740.4,628.8,1155.8,1498.2,1228.9,2395.5c73.2,897.3-196.1,1822.5-824.9,2562.9v0C28400.2-5314.4,27530.8-4899,26633.5-4825.9
						z M29029.1-6054.8L29029.1-6054.8L29029.1-6054.8z M28625-11013.2L28625-11013.2L28625-11013.2"/>
					<path class="st6" d="M24274.2-5736.3c793.3,573,1743.9,770.2,2639.3,625.8c895.5-144.4,1735.9-630.4,2308.9-1423.8
						c573-793.4,770.2-1743.9,625.9-2639.3c-144.4-895.5-630.4-1735.9-1423.8-2308.9c-793.4-573-1743.9-770.2-2639.3-625.8
						c-895.5,144.4-1735.9,630.4-2308.9,1423.8c-573.1,793.4-770.2,1743.9-625.9,2639.4
						C22994.8-7149.7,23480.8-6309.3,24274.2-5736.3L24274.2-5736.3z M26909.4-5136.5c-888.8,143.4-1832.3-52.4-2619.8-621.2
						c-787.5-568.7-1269.9-1402.8-1413.2-2291.6c-143.3-888.8,52.4-1832.4,621.2-2619.8c568.8-787.5,1402.9-1269.9,2291.7-1413.2
						c888.8-143.4,1832.3,52.4,2619.8,621.1c787.4,568.8,1269.8,1402.9,1413.2,2291.6c143.3,888.9-52.4,1832.4-621.2,2619.9
						C28632.3-5762.2,27798.2-5279.8,26909.4-5136.5"/>
					<path class="st6" d="M24485.9-5858.9c836,509,1799,631,2680.4,416.7c881.4-214.3,1681-764.7,2190-1600.7
						c508.9-835.9,631-1799,416.7-2680.4c-214.1-880.8-764.1-1680.1-1599.2-2189l0,0l-1.5-0.9c-835.9-508.9-1799-630.9-2680.3-416.7
						c-880.9,214.1-1680,764.1-2189.1,1599.2l-0.1,0l-0.9,1.5c-509,835.9-631,1799-416.7,2680.3
						C23099.4-7167.6,23649.9-6367.9,24485.9-5858.9L24485.9-5858.9z M27160-5467.9c-874.8,212.7-1830.7,91.6-2660.4-413.6
						c-829.7-505.2-1376.1-1298.9-1588.8-2173.6c-212.6-874.8-91.6-1830.7,413.5-2660.3l0.1-0.2
						c505.2-829.7,1298.9-1376.1,2173.6-1588.8c874.8-212.6,1830.6-91.6,2660.2,413.5l0.2,0.1
						c829.7,505.2,1376,1298.9,1588.8,2173.7c212.6,874.8,91.6,1830.7-413.6,2660.4C28828.5-6226.9,28034.8-5680.5,27160-5467.9"/>
					<path class="st6" d="M24690.2-5996.3c872.5,440.4,1841,486,2701.9,203.6c861.9-282.8,1615.8-894.3,2057.6-1767.7l1.4-2.9v0
						c440.4-872.6,486.1-1841,203.5-2701.9c-282.8-861.8-894.3-1615.8-1767.7-2057.6l-2.9-1.4h0c-872.5-440.4-1841-486-2701.9-203.6
						c-861.9,282.8-1615.8,894.4-2057.6,1767.7l-1.5,2.9v0c-440.4,872.6-486,1841-203.6,2701.9
						c282.8,861.8,894.3,1615.8,1767.7,2057.6L24690.2-5996.3L24690.2-5996.3L24690.2-5996.3L24690.2-5996.3z M27383.9-5817.9
						c-855.4,280.7-1817.9,235-2684.7-203.5l-0.3-0.1c-866.7-438.5-1473.6-1186.8-1754.2-2042.1
						c-280.7-855.5-235.1-1818,203.5-2684.7l0.1-0.3c438.5-866.7,1186.8-1473.6,2042.1-1754.2c855.4-280.7,1817.9-235,2684.7,203.5
						l0.3,0.1c866.6,438.6,1473.6,1186.8,1754.2,2042.1c280.7,855.4,235.1,1817.9-203.5,2684.7l-0.1,0.2
						C28987.5-6705.4,28239.2-6098.5,27383.9-5817.9"/>
					<path class="st6" d="M24877.2-6152.1c905.2,371.9,1875.6,341.6,2712.5-7.9c837-349.6,1540.6-1018.4,1912.5-1923.7
						c371.9-905.3,341.6-1875.6-7.9-2712.5c-349.5-837-1018.4-1540.6-1923.7-1912.5c-905.3-371.9-1875.6-341.6-2712.6,7.9
						c-836.9,349.6-1540.6,1018.4-1912.5,1923.7c-371.9,905.3-341.6,1875.6,7.9,2712.6C23303-7227.6,23971.8-6523.9,24877.2-6152.1
						L24877.2-6152.1z M27579.6-6184.3c-830.8,346.9-1793.9,377-2692.4,7.9c-898.5-369.1-1562.4-1067.5-1909.4-1898.2
						c-347-830.7-377-1793.8-7.9-2692.4c369.1-898.5,1067.5-1562.4,1898.2-1909.4c830.8-347,1793.9-377,2692.4-7.9
						c898.5,369.1,1562.4,1067.5,1909.4,1898.2c347,830.7,377,1793.8,7.9,2692.4C29108.7-7195.1,28410.3-6531.3,27579.6-6184.3"/>
					<path class="st6" d="M25053.5-6321L25053.5-6321l0.9,0.3c931.6,299.7,1896.6,193.4,2703.6-220.8
						c806.7-414.1,1455.5-1135.8,1755.2-2067l1-1.9v-1.1c298.8-931,192.4-1895.1-221.5-2701.4
						c-414.2-807-1136.2-1455.9-2067.9-1755.6l-2.1-0.7h0c-931-298.8-1895.1-192.3-2701.4,221.5
						c-807,414.2-1456,1136.2-1755.6,2067.9c-299.7,931.7-193.4,1896.6,220.8,2703.6C23400.6-7269.6,24122.3-6620.8,25053.5-6321
						L25053.5-6321z M27745.9-6565.1c-800.9,411.1-1758.6,516.6-2683.3,219.3l-0.1-0.1c-924.8-297.4-1641.4-941.5-2052.5-1742.5
						c-411.1-800.9-516.7-1758.7-219.2-2683.5c297.4-924.8,941.6-1641.4,1742.5-2052.5s1758.7-516.6,2683.5-219.2l0.2,0.1
						c924.7,297.5,1641.3,941.5,2052.3,1742.4c411.1,800.9,516.6,1758.7,219.2,2683.5l0,0
						C29190.9-7692.8,28546.9-6976.1,27745.9-6565.1"/>
					<path class="st6" d="M25217.8-6502.8c952.2,225.6,1905.9,43.8,2677.9-432.4c772-476.3,1362.3-1247,1587.8-2199.3
						c225.6-952.3,43.9-1905.9-432.4-2677.9c-476.2-772-1247-1362.2-2199.3-1587.9c-952.3-225.6-1906-43.8-2677.9,432.4
						c-772,476.3-1362.3,1247-1587.9,2199.3c-225.5,952.3-43.8,1905.9,432.4,2677.9C23494.7-7318.7,24265.5-6728.4,25217.8-6502.8
						L25217.8-6502.8L25217.8-6502.8z M27881.8-6957.6c-766.2,472.7-1712.7,653.1-2658,429.1c-945.3-223.9-1710.2-809.8-2182.9-1576
						c-472.7-766.1-653.1-1712.7-429.2-2657.9c224-945.3,809.8-1710.3,1576-2183c766.1-472.7,1712.7-653.1,2657.9-429.1
						c945.3,224,1710.3,809.8,2183,1576c472.7,766.2,653.1,1712.7,429.1,2658C29233.9-8195.3,28648-7430.3,27881.8-6957.6"/>
					<path class="st6" d="M25370.5-6723.2l-0.2,0c-959.8-149-1768.4-673.1-2299.7-1399.8c-531.4-726.7-785.5-1656.2-636.5-2616.1
						c149-959.9,673.1-1768.5,1399.8-2299.9c726.7-531.4,1656.2-785.5,2616.1-636.5c959.9,149,1768.5,673.1,2299.9,1399.8
						c531.4,726.7,785.5,1656.2,636.5,2616.1l0,0.2c-149.1,959.8-673.1,1768.3-1399.8,2299.7
						C27259.8-6828.3,26330.3-6574.2,25370.5-6723.2L25370.5-6723.2z M25367.8-6696.9c966.6,149.7,1902.5-106.4,2634.3-641.5
						c732.2-535.3,1260.1-1350,1410.3-2317.2l0.2-1.3v-0.1c149.7-966.6-106.4-1902.5-641.4-2634.3
						c-535.3-732.2-1350-1260.1-2317.2-1410.3c-967.1-150.2-1903.6,105.9-2635.7,641.2c-732.2,535.4-1260.1,1350.1-1410.3,2317.2
						c-150.1,967.1,106,1903.5,641.3,2635.7c535.4,732.1,1350,1260.1,2317.1,1410.2L25367.8-6696.9L25367.8-6696.9"/>
					<path class="st6" d="M25499.3-6902.5c975.9,73.8,1889.3-255,2577.2-846.2c687.9-591.2,1150.3-1444.9,1224.1-2420.8
						c73.7-975.9-255-1889.3-846.2-2577.2c-591.2-687.9-1444.8-1150.3-2420.7-1224.1c-975.9-73.8-1889.3,255-2577.1,846.2
						c-687.9,591.2-1150.3,1444.8-1224.1,2420.8c-73.7,975.9,255,1889.3,846.2,2577.2C23669.7-7438.7,24523.4-6976.3,25499.3-6902.5
						L25499.3-6902.5z M28059.3-7768.7c-682.8,586.8-1589.4,913.1-2558.1,839.9c-968.6-73.2-1815.9-532.1-2402.6-1214.9
						c-586.8-682.8-913.1-1589.4-839.9-2558.1c73.3-968.6,532.2-1815.9,1214.9-2402.7c682.8-586.8,1589.4-913.1,2558.1-839.9
						c968.7,73.2,1815.9,532.2,2402.6,1214.9c586.9,682.8,913.2,1589.4,839.9,2558.1C29201-9202.8,28742.1-8355.5,28059.3-7768.7"/>
				</g>
			</g>
		</g>
	</g>
</g>
<path d="M2843.6,2048.8l0.3-1.2l0.5-1.2c12.5-27.9,32-60.1,60.2-74.6c-4.7-1.4-9.6-2.1-14.4-2.5c-7.9-0.6-17.9-0.1-25.7,1.6l-21.6,5
	l20.9-43.6c-137.5-43.3-365.8-42.7-503.3,0.2c-3.4,1.1-7.2,2.3-8.5,2.8c0.8,8.7,11.4,26.8,12.2,36.5l-4-0.9
	c-7.8-1.8-17.8-2.2-25.7-1.6c-4.8,0.3-9.7,1.1-14.4,2.5c28.2,14.5,47.7,46.7,60.2,74.6l0.5,1.2l0.3,1.2c1.3,5.3,4.3,11.7,7.5,16
	c5.5,7.6,12.1,10.7,21.5,8.6l14.3-3.2l7.8,16.3l-10.2,9.5c-5.2,4.9-13.5,6.9-20.5,6.9c-16.4,0-32.5-9.9-44.7-20
	c-23.5-19.3-53.7-37.1-85-39.9c0.8,5.6,3.4,12.9,5.2,17.5c3.8,9.9,2.2,21.5-2.9,30.6c-6.7,11.9-13.2,22.4-22.8,32.4
	c-14.2,14.7-31.6,24.2-51.3,29.3c-41.5,10.7-70,2.7-75.7-43.2c-2-16.4,0-31.9,3.2-47.9c2-10.2,5.3-23.4,4.6-33.6
	c-0.5-6.5-0.6-13-1.1-19.5c-0.6-8.1-1.7-16.1-3.5-24.1c-5.6-24.8-17.3-47.9-31.3-68.9l-1.3-1.9l-0.6-2.2c-1.9-7.7-0.5-18.5,1.3-26
	c5.3-21.8,18.6-42.4,32.9-59.2c14.8-17.5,29.4-33.2,46.9-48.2c46.4-39.7,103.3-64,160.8-83c172.6-56.9,380-56.9,552.6,0
	c42.8,14.1,88.1,31.3,126.4,55.4c25.2,15.8,44.5,33.2,64,55.5c5.9,6.7,11.6,13.5,17.3,20.3c14.3,16.9,27.7,37.5,32.9,59.2
	c1.8,7.5,3.2,18.3,1.3,26l-0.6,2.2l-1.3,1.9c-14,21.1-25.7,44.1-31.3,68.9c-1.8,8-2.9,16-3.5,24.1c-0.5,6.5-0.6,13-1.1,19.5
	c-0.7,10.3,2.6,23.5,4.6,33.6c3.1,16.1,5.2,31.6,3.1,47.9c-5.7,45.9-34.2,54-75.7,43.2c-19.8-5.1-37.1-14.6-51.3-29.3
	c-9.6-10-16.1-20.4-22.8-32.4c-5.1-9.1-6.8-20.7-2.9-30.6c1.8-4.7,4.4-12,5.2-17.5c-31.3,2.8-61.5,20.6-85,39.9
	c-12.3,10-28.3,20-44.7,20c-6.9,0-15.2-2.1-20.5-6.9l-5.9-5.5l5.9-19.7l11.9,2.6c9.4,2.1,15.9-1.1,21.5-8.6
	C2839.2,2060.5,2842.3,2054,2843.6,2048.8"/>
<path class="st1" d="M2936.5,1978.3c0,0-42.4-10.5-80.1,73.5c0,0-9.7,42.4-44.7,34.6c0,0,14,12.8,47.8-13.6
	c102.4-87.7,174.5-20.5,166.8-5.4c-1.1,0.5-5-11.7-9.9-12.2c-6.7-0.6-13.9-2.5-17.3-8.9l-32.8-4.4c0,0-0.5,8.3-6.3,23.5
	c-2.4,6-1.2,13.5,2.1,19.4c8.9,15.9,24.5,44.7,65.9,55.4c41.4,10.7,55.4-1,59.3-32.1c3.9-31.1-9.3-58.7-7.8-80.9
	c1.6-22.2-1.2-59.9,38.1-119c0,0,7-28-31.5-73.5c-38.5-45.5-66.5-80.5-201.8-127.1c-170.5-53.7-373.8-53.7-544.3,0
	c-83.8,28.9-126.9,55.2-156.4,80.5c-18.1,15.5-30.8,29.4-45.4,46.7c-38.5,45.5-31.5,73.5-31.5,73.5c39.3,59.1,36.5,96.8,38.1,119
	c1.6,22.2-11.7,49.8-7.8,80.9c3.9,31.1,17.9,42.8,59.3,32.1c41.4-10.7,57-39.5,65.9-55.4c3.3-5.8,4.5-13.4,2.1-19.4
	c-5.8-15.2-6.3-23.5-6.3-23.5l-32.8,4.4c-3.4,6.4-10.5,8.3-17.3,8.9c-5,0.5-8.9,12.6-10,12.2c-7.7-15.1,64.4-82.3,166.8,5.4
	c33.8,26.4,47.8,13.6,47.8,13.6c-35,7.8-44.7-34.6-44.7-34.6c-37.7-84-80.1-73.5-80.1-73.5c22.9-32.3,75-20.2,75-20.2l-3.1-11.3
	c-10.8-5.6-43.5-12.3-32.3-16.7c143.6-56.8,424.3-58.2,569.2,0l-32.3,16.7l-3.1,11.3C2861.5,1958.1,2913.6,1946,2936.5,1978.3"/>
<g>
	<path class="st3" d="M3115.8,1907.3c0,0,0.8-48-52.7-91.8c0,0,39.4,42,49.7,83.4c0,0-13.8-45.3-50.2-73.1c0,0,45.5,52.3,48,79.1
		c0,0-18.5-50.3-58.5-75.8c0,0,54.6,53.7,55.8,85.2c0,0-14.2-43.4-51.7-71.3c0,0,43.7,48,46.5,73.7c0,0-11.9-34.4-43.5-56.6
		c0,0,40,46.8,40.4,66.9c0,0-9.1-32.9-43-57.7c0,0,41.2,47.9,40.4,62.8c0,0-11.9-29.3-39.3-48.8c0,0,35.4,41.4,37.1,61
		c0,0-12.8-31.1-37.7-49.6c0,0,32.5,38.9,34.6,56.4c0,0-18.9-39.3-46.3-55c0,0,36.2,36.5,43.9,62.8c0,0-23.3-42.2-55-59.9
		c0,0,45.9,42,52.7,65.3c0,0-19.4-33.4-45.1-48.8c0,0,33,29.5,42,58.3c0,0-12.4-26.1-41.2-45.9c0,0,37.3,39.7,39.5,54.8
		c0,0-12.4-24.7-34-38.7c0,0,32,36.6,32.3,49.6c0,0-12.1-20.6-32.3-36.7c0,0,30.4,38.5,31.3,47c0,0-25.3-39.3-49-50.7
		c0,0,42.2,39.7,48.4,63.4c0,0-25-36.5-49.3-51.1c0,0,43,45.5,46.5,56.6c0,0-23.5-29.4-37.1-37.1c0,0,34.9,36.3,39.8,56.2
		c0,0-26.8-42.6-46.8-50.4c0,0,43.2,36.3,52.3,80.6l1.8,6.7l0.6-0.1c0,0-25.2-75.6,20.7-153.1c0,0,7.6-12.5,8.9-14.5L3115.8,1907.3
		 M2888.8,1944l-25.2,6.3l-1.5,5.5L2888.8,1944 M2894.2,1950.3c0,0-15.9,3-20.4,6l10.8-0.4
		C2884.6,1955.9,2885.2,1953.6,2894.2,1950.3"/>
	<path class="st3" d="M2882,1938.7c-0.4-0.8,39.1,12.3,49.4,16.4l-14.2,6.4c0,0,21.9-3.1,27.3-1.8c5.4,1.3,6.3,4.2,6.3,4.2
		s-13.9-0.6-24.1,4.2c0,0,32.2-1,39.2,1.6c7,2.6,8.1,5.2,8.1,5.2s-40-0.4-53.2,7.1c0,0,36.5-6.7,55.7-2.2
		c19.2,4.5,39.8,21.2,39.8,21.2s-36.8-29-95-8.7c0,0,65.9-14.8,94.5,18.9c0,0-40.8-33.6-100.7-5.8c0,0,71.3-19.6,102.8,16.7
		c0,0-43-30.3-96-8.9c0,0,71.5-14.8,99.7,24.9c0,0-49.6-36.9-103.6-12.6c0,0,87.7-20.2,117.4,41c0,0,5.4,15.4-6,32.7
		c0,0,8.7,4.5,22.2,0.2c0,0-9.6-1.1-11.9-3.9c-2-6.8,10.2-6.4,14.1-8.6c0,0-6.9-1.1-11.5-1.7v-6.1c0,0,11.6-2.7,13.4-5.4
		c0,0-10.6-0.9-13.6-0.7l0.1-6.4c0,0,7.7,0.8,13.7-4.8l-14.6-1.3l-0.9-4.8c0,0,11.6,0.4,14-4l-15.1-1.2l-4.8-6.7
		c0,0,11.7-0.2,14.7-2.3c0,0-10.8-2.2-18.1-2.6c0,0-2.4-6.4,4.9-5.2c7.3,1.3,16.3,8.5,20.5,12.1c4.2,3.7,8.2,10,6.9,11.5
		c-1.3,1.5-3.7,1-2.6,3.2c1,2.1,4.5-2.7,7.3,1.6c2.7,4.2-5.7,8.4-5.7,8.4s4.2,1.5,8.7-1c4.5-2.5,2.1,9.3-12.1,14.4
		c0,0,7,3.9,15.5-6.3c0,0,5.8,1.3-1.2,8c-7,6.7-10.9,10.2-10.9,10.2s8.1,0.4,14.8-8.8c0,0,3.8,6.7-14.6,19.2c0,0,8.6,0.2,14.8-7.4
		c0,0,1.6,8-17.4,21.9c0,0,9.9,0,18.6-11c0,0-0.6,13.4-15.4,21.8c0,0,12.2,2.1,18.4-20c6.2-22.1-7.9-58.5-16.8-70
		c-8.9-11.5-31.7-45.9-70.4-67.3c-38.7-21.4-76.2-39.9-97.6-44L2882,1938.7"/>
	<path class="st3" d="M3031.8,2074c0,0-0.6,18.3-12.2,19.1c-11.7,0.8-21.2-11.3-31.9-24.5s-20.4-18.9-24.3-2.9
		c-3.9,15.9,19.3,44.7,34.4,55c15.2,10.3,39,16.4,55.4,12.8c0,0-51.2-4.5-73.1-40.1c0,0,28.4,36.7,71.5,29.2c0,0-41.8-2.5-65.9-32.5
		c0,0,29.7,31.3,70.6,18.5c0,0-26.8,1.4-36.3-7C3019.9,2101.5,3036.2,2096.8,3031.8,2074"/>
	<path class="st3" d="M2979.4,2049.6c0,0,11.4,13.4,16.4,21.4c5.1,8,14,18.3,21.4,16.1c7.4-2.1,11.5-6,12.3-10.7
		c0,0-8.6,10.5-17.1,6.1C2998.1,2073.2,2988.9,2052.7,2979.4,2049.6"/>
	<path class="st3" d="M2983.9,2044.6c0,0,9.7,13.3,12.3,17.1c2.6,3.8,13.3,15.8,19.7,14.6c6.4-1.3,11.5-7.9,12.1-9.4
		c0,0-10.2,9.6-17.4,4.1C3003.4,2065.4,2988.6,2047.1,2983.9,2044.6"/>
	<path class="st3" d="M2992.1,2045.5c0,0,11.4,19.3,19.6,19.7c8.3,0.4,10.5-4.7,10.5-4.7s-7.8,4.9-14.6-0.8
		C3000.8,2054.1,2992.1,2045.5,2992.1,2045.5 M2845.5,2074.3c0,0,36.6-31.4,55.9-40.7c0,0-22,2.6-50.1,31.7L2845.5,2074.3
		 M2856.1,2053.1c0,0,22.5-18.2,39.5-27c0,0-13.7,1.9-35.2,17.4L2856.1,2053.1 M2865.5,2033.4c0,0,8.3-7.5,24.6-15.3
		c0,0-14.4,3.9-20.6,8.4L2865.5,2033.4 M2875.2,2017.5c0,0,10.8-9.3,13.9-9.4c0,0-3.8-1.4-8.8,2.4L2875.2,2017.5 M2108.8,1907.3
		c0,0-0.8-48,52.7-91.8c0,0-39.4,42-49.7,83.4c0,0,13.8-45.3,50.2-73.1c0,0-45.5,52.3-48,79.1c0,0,18.5-50.3,58.5-75.8
		c0,0-54.6,53.7-55.8,85.2c0,0,14.2-43.4,51.7-71.3c0,0-43.7,48-46.5,73.7c0,0,11.9-34.4,43.5-56.6c0,0-40,46.8-40.4,66.9
		c0,0,9.1-32.9,43-57.7c0,0-41.2,47.9-40.4,62.8c0,0,11.9-29.3,39.3-48.8c0,0-35.4,41.4-37.1,61c0,0,12.8-31.1,37.7-49.6
		c0,0-32.5,38.9-34.6,56.4c0,0,18.9-39.3,46.3-55c0,0-36.2,36.5-43.9,62.8c0,0,23.3-42.2,55-59.9c0,0-45.9,42-52.7,65.3
		c0,0,19.4-33.4,45.1-48.8c0,0-33.1,29.5-42,58.3c0,0,12.4-26.1,41.2-45.9c0,0-37.3,39.7-39.5,54.8c0,0,12.4-24.7,34-38.7
		c0,0-32,36.6-32.3,49.6c0,0,12.1-20.6,32.3-36.7c0,0-30.4,38.5-31.3,47c0,0,25.3-39.3,49-50.7c0,0-42.2,39.7-48.4,63.4
		c0,0,25-36.5,49.3-51.1c0,0-43,45.5-46.5,56.6c0,0,23.5-29.4,37.1-37.1c0,0-34.9,36.3-39.9,56.2c0,0,26.8-42.6,46.9-50.4
		c0,0-43.2,36.3-52.3,80.6l-1.8,6.7l-0.6-0.1c0,0,25.2-75.6-20.7-153.1c0,0-7.6-12.5-8.9-14.5L2108.8,1907.3 M2335.7,1944l25.2,6.3
		l1.5,5.5L2335.7,1944 M2330.4,1950.3c0,0,15.9,3,20.4,6l-10.8-0.4C2339.9,1955.9,2339.3,1953.6,2330.4,1950.3"/>
	<path class="st3" d="M2342.5,1938.7c0.4-0.8-39.1,12.3-49.4,16.4l14.2,6.4c0,0-21.9-3.1-27.3-1.8c-5.4,1.3-6.3,4.2-6.3,4.2
		s13.9-0.6,24.1,4.2c0,0-32.2-1-39.2,1.6c-7,2.6-8.1,5.2-8.1,5.2s40-0.4,53.2,7.1c0,0-36.4-6.7-55.7-2.2
		c-19.2,4.5-39.9,21.2-39.9,21.2s36.8-29,95-8.7c0,0-65.9-14.8-94.5,18.9c0,0,40.8-33.6,100.7-5.8c0,0-71.3-19.6-102.8,16.7
		c0,0,43-30.3,96-8.9c0,0-71.5-14.8-99.7,24.9c0,0,49.6-36.9,103.6-12.6c0,0-87.7-20.2-117.4,41c0,0-5.4,15.4,6,32.7
		c0,0-8.7,4.5-22.2,0.2c0,0,9.6-1.1,11.9-3.9c2-6.8-10.2-6.4-14.1-8.6c0,0,6.9-1.1,11.5-1.7v-6.1c0,0-11.6-2.7-13.4-5.4
		c0,0,10.6-0.9,13.6-0.7l-0.1-6.4c0,0-7.7,0.8-13.7-4.8l14.6-1.3l0.9-4.8c0,0-11.6,0.4-14-4l15.1-1.2l4.8-6.7c0,0-11.7-0.2-14.7-2.3
		c0,0,10.8-2.2,18.1-2.6c0,0,2.4-6.4-4.9-5.2c-7.3,1.3-16.3,8.5-20.5,12.1c-4.2,3.7-8.2,10-6.9,11.5c1.3,1.5,3.7,1,2.6,3.2
		c-1,2.1-4.5-2.7-7.3,1.6c-2.7,4.2,5.7,8.4,5.7,8.4s-4.2,1.5-8.7-1c-4.5-2.5-2.1,9.3,12.1,14.4c0,0-7,3.9-15.6-6.3
		c0,0-5.8,1.3,1.2,8c7,6.7,10.9,10.2,10.9,10.2s-8.1,0.4-14.8-8.8c0,0-3.8,6.7,14.6,19.2c0,0-8.7,0.2-14.8-7.4c0,0-1.6,8,17.4,21.9
		c0,0-9.9,0-18.6-11c0,0,0.6,13.4,15.5,21.8c0,0-12.2,2.1-18.4-20c-6.2-22.1,7.9-58.5,16.8-70c8.9-11.5,31.7-45.9,70.4-67.3
		c38.7-21.4,76.2-39.9,97.6-44L2342.5,1938.7"/>
	<path class="st3" d="M2192.7,2074c0,0,0.6,18.3,12.3,19.1c11.7,0.8,21.2-11.3,31.9-24.5c10.7-13.2,20.4-18.9,24.3-2.9
		c3.9,15.9-19.2,44.7-34.4,55c-15.2,10.3-39,16.4-55.4,12.8c0,0,51.2-4.5,73.1-40.1c0,0-28.4,36.7-71.5,29.2c0,0,41.8-2.5,65.9-32.5
		c0,0-29.7,31.3-70.6,18.5c0,0,26.8,1.4,36.3-7C2204.6,2101.5,2188.3,2096.8,2192.7,2074"/>
	<path class="st3" d="M2245.2,2049.6c0,0-11.4,13.4-16.4,21.4c-5.1,8-14,18.3-21.4,16.1c-7.4-2.1-11.5-6-12.2-10.7
		c0,0,8.6,10.5,17.1,6.1C2226.4,2073.2,2235.7,2052.7,2245.2,2049.6"/>
	<path class="st3" d="M2240.7,2044.6c0,0-9.7,13.3-12.4,17.1c-2.6,3.8-13.3,15.8-19.7,14.6c-6.4-1.3-11.5-7.9-12.1-9.4
		c0,0,10.2,9.6,17.4,4.1C2221.1,2065.4,2236,2047.1,2240.7,2044.6"/>
	<path class="st3" d="M2232.5,2045.5c0,0-11.4,19.3-19.6,19.7c-8.3,0.4-10.5-4.7-10.5-4.7s7.8,4.9,14.6-0.8
		C2223.7,2054.1,2232.5,2045.5,2232.5,2045.5 M2379.1,2074.3c0,0-36.7-31.4-55.9-40.7c0,0,22.1,2.6,50.1,31.7L2379.1,2074.3
		 M2368.5,2053.1c0,0-22.5-18.2-39.5-27c0,0,13.7,1.9,35.2,17.4L2368.5,2053.1 M2359,2033.4c0,0-8.3-7.5-24.6-15.3
		c0,0,14.4,3.9,20.6,8.4L2359,2033.4 M2349.3,2017.5c0,0-10.8-9.3-13.9-9.4c0,0,3.8-1.4,8.8,2.4L2349.3,2017.5 M2226.1,1763.2
		c55.3-33.5,180.9-88.7,410.4-87.2h0c68.7,1.6,138.7,8.6,205.4,25.3c54.7,13.7,107.1,34,154.8,63.3c19.8,13,27.5,19.4,44.5,36.1
		c-7.7-5.3-15-11-22.6-16.3c-53.4-37.8-114.1-62.7-177.8-78.7c-66.3-16.6-136-23.6-204.4-25.2c-253.1-1.7-379,65.8-423.3,96.4
		c-11,7.6-19.2,13.9-31.2,21.8C2198.9,1783.7,2208.5,1773.8,2226.1,1763.2 M3007.4,1975.6c-159.6-134.7-629.7-134.7-789.4,0
		C2402.8,1846,2822.6,1846,3007.4,1975.6"/>
	<path class="st3" d="M2462.1,1777.1c-13.3-10.1-26.7-20-39.9-29.8c-9.6-4.1-19.1-8.1-28.5-12c-2,0.5-3.8,0.9-5.7,1.4v55.8
		c11.4-13.2,22.8-26.1,34.3-39v68.2c-11.4-7.8-22.9-15.5-34.3-23v37.2c0,10.2,5.6,16.7,16.7,20c8.9,2.6,18.4,2.9,28.9,0.9v6.2
		c-53.3,12.1-106.5,28.1-159.7,48v-6.3c7.2-2.9,14.4-8.7,21.8-17.2c8.2-9.6,12.5-18.6,12.5-27.3v-74.7c0-8.7-4.1-14.9-12.3-18.3
		c-7.3-3-14.6-3-21.9-0.2v-6.3c31.4-11.6,62.6-22.6,94.1-31.3c31.2-8.6,62.8-15,94.1-20.8V1777.1L2462.1,1777.1z M2599.1,1846.7
		c-45.8,1.5-91.5,5.2-137,11.2v-6.2c7.3-1.1,14.5-4.9,21.8-11.6c8.3-7.5,12.5-15.5,12.5-24.2v-74.7c0-8.7-4.1-15.8-12.3-21.1
		c-7.3-4.6-14.6-6.2-22-5.1v-6.2c45.4-6.3,91.1-10.3,137-11.9v6.3c-7.2,0.1-14.5,3.1-21.8,9c-8.3,6.7-12.4,14.6-12.4,23.2v75
		c0,8.7,4.1,16.1,12.3,22.2c7.3,5.4,14.6,8.1,21.9,8V1846.7L2599.1,1846.7z M2793.1,1722.1c-9-1.9-17.1-0.6-24.2,3.9
		c-6.5,4.2-11.7,10.7-15.6,19.5c-7.6,17.4-15.4,34.8-23,52.4c-7.6,17.6-15.2,35.4-22.8,53.2c-14.8-1.3-29.5-2.3-44.3-3.1
		c-10-21.8-21.4-45.7-32.7-70c-6.8-14.6-13.3-29.3-19.9-44c-4.5-10-9.1-17.3-13.5-21.9c-5.9-6.1-12.8-9-20.8-8.7v-6.3
		c36.1-0.6,72.3-0.4,108.3,2.7c36.2,3.1,72.3,9.1,108.5,16L2793.1,1722.1L2793.1,1722.1z M2736,1742.9c0.7-1.6,1-3.5,1-5.5
		c0-6.5-3.5-12.9-10.5-19.2c-6.4-5.8-12.7-9.1-19.1-9.8c-7.5-0.8-15.1,1-22.9,5.5c-8.4,4.8-12.6,10.5-12.6,16.9
		c0,1.7,0.4,3.5,1.3,5.6c5.6,12.9,11.4,25.8,17,38.7c5.7,12.9,11.4,25.9,17.2,38.9c4.7-12,9.5-23.9,14.2-35.7
		C2726.4,1766.5,2731.2,1754.7,2736,1742.9L2736,1742.9z M2947.2,1911c-29.5-11.6-58.8-22.6-88.5-31.1c-29.3-8.5-59-14.7-88.5-20.3
		v-6.2c12.8,2.3,21.9,1.3,27.3-3.2c4.6-3.9,7-10.8,7-20.9v-73.9c0-9.9-2.5-18-7.5-24.1c-5.6-6.7-14.5-11.4-26.7-13.7v-6.2
		c29.5,5.9,59.1,12.4,88.5,20.9c29.6,8.5,59,19.1,88.5,30.2v61.9c-2-0.7-3.8-1.5-5.7-2.2c-9.5-11.8-19-23.6-28.6-35.4
		c-9.5-11.6-19-23-28.5-34.3c-3.8-1.2-7.6-2.3-11.4-3.5v55.3c11.4-6.7,22.8-13.2,34.2-19.5v67.7c-11.4-14.2-22.8-28.3-34.2-42v61.5
		c1.9,0.6,3.8,1.2,5.7,1.8c10.4-5.9,20.8-11.6,31.3-17.1c10.4-5.5,20.9-10.7,31.4-15.8c1.9,0.7,3.8,1.5,5.7,2.3L2947.2,1911"/>
</g>
<g>
	<path class="st1" d="M2942.8,1904.9v-58.6c-0.4-0.2-0.7-0.3-1.1-0.5c-9.9,4.9-19.8,9.8-29.6,14.9c-10.5,5.5-20.7,10.3-31,16.1
		l-1.2-0.5l-1.8-0.6c-1.9-0.6-3.8-1.2-5.7-1.8l-3.1-1l-0.7-0.9v-128.9l5.7,1.7c3.8,1.2,7.6,2.3,11.4,3.5l1.3,0.4l0.8,1
		c9.5,11.4,19.1,22.8,28.5,34.4c8.9,10.9,17.7,21.8,26.5,32.8V1766c-28.1-10.5-56.4-20.7-85.3-29c-22.2-6.4-44.7-11.7-67.3-16.5
		c3.8,2.2,7.3,5,10.1,8.5c6.3,7.6,8.6,17.2,8.6,26.9v73.9c0,8.6-1.6,18.5-8.6,24.3c-3.4,2.8-7.6,4.4-12.1,5
		c24.1,4.8,48,10.2,71.7,17C2888,1884.1,2915.5,1894.3,2942.8,1904.9z M2876.2,1807.8l0.1,0.2c8.9,10.7,17.7,21.5,26.4,32.4v-47.7
		C2893.9,1797.6,2885,1802.6,2876.2,1807.8 M2720.6,1708.8c3.2,1.8,6.1,4.1,8.8,6.5c6.5,5.9,12,13.4,12,22.5c0,2.5-0.4,4.9-1.3,7.2
		c-4.8,11.8-9.6,23.5-14.3,35.4c-4.7,11.9-9.5,23.7-14.2,35.6l-3.9,9.8l-4.3-9.7c-5.7-13-11.5-25.9-17.2-38.9
		c-5.7-12.9-11.4-25.8-17-38.7c-1-2.3-1.6-4.8-1.6-7.3c0-9.6,7-16.3,14.8-20.8c3.7-2.1,7.5-3.8,11.5-4.9c-3.2-0.3-6.4-0.6-9.6-0.9
		c-31.6-2.7-63.3-3.2-95-2.8c4,1.7,7.7,4.3,11,7.7c6,6.3,10.7,15.2,14.3,23.1c16.9,37.4,34.1,74.5,51.9,111.5
		c12.8,0.7,25.5,1.6,38.2,2.7c7.2-16.8,14.3-33.6,21.6-50.3c7.6-17.5,15.3-34.9,23-52.4c3.8-8.6,9.3-16.4,17.3-21.5
		c3.5-2.3,7.4-3.9,11.5-4.7C2759,1714.5,2739.8,1711.4,2720.6,1708.8 M2586.9,1843.2c-4.4-1.6-8.5-3.9-12.3-6.8
		c-8.6-6.4-14.1-14.9-14.1-25.8v-75c0-11,5.6-19.8,14-26.6c3.4-2.7,7-5.1,11-6.9c-36.8,1.7-73.5,4.9-110.1,9.6c3.8,1,7.5,2.7,11.1,5
		c9,5.7,14.4,14,14.4,24.8v74.7c0,11.1-5.9,20.2-13.9,27.4c-3.6,3.2-7.5,6.2-11.7,8.5C2512.3,1847.8,2549.5,1844.8,2586.9,1843.2
		 M2457.7,1768.6v-54.2c-29.7,5.6-59.4,11.7-88.6,19.7c-27.8,7.7-55.2,17.1-82.3,26.9c3.5,0.3,7,1.1,10.5,2.5
		c9.8,4,15.1,11.7,15.1,22.3v74.7c0,11.4-6.3,21.8-13.5,30.1c-3.2,3.7-6.7,7.3-10.6,10.5c42-15.2,84.9-28.1,128.3-38.6
		c-4.5-0.3-8.9-1-13.3-2.3c-12.1-3.5-19.9-11.2-19.9-24.2v-102.7l3.3-0.8c1.9-0.5,3.8-1,5.8-1.4l1.4-0.3l1.3,0.5
		c9.6,3.9,19.1,8,28.6,12.1l0.5,0.2l0.4,0.3C2435.8,1752.2,2446.8,1760.4,2457.7,1768.6L2457.7,1768.6z M2391.1,1795.9
		c8.9,5.9,17.8,11.9,26.7,17.9v-48.3c-8.9,10-17.8,20.1-26.5,30.3L2391.1,1795.9"/>
</g>
<g>
	<path class="st3" d="M2945.9,1901.1v-58.6c-0.4-0.1-0.8-0.3-1.1-0.4c-9.9,4.9-19.8,9.8-29.6,14.9c-10.5,5.5-20.9,11.2-31.2,17.1
		l-1.6,0.9l-1.8-0.6c-1.9-0.6-3.8-1.2-5.7-1.8l-3.1-1v-132.2l5.7,1.8c3.8,1.2,7.6,2.3,11.4,3.5l1.3,0.4l0.8,1
		c9.5,11.4,19.1,22.8,28.5,34.4c8.9,10.9,17.7,21.8,26.5,32.8v-51.2c-28.1-10.5-56.4-20.7-85.3-29c-22.2-6.4-44.7-11.7-67.3-16.5
		c3.8,2.2,7.3,5,10.1,8.5c6.3,7.6,8.6,17.2,8.6,26.9v73.9c0,8.6-1.6,18.5-8.6,24.3c-3.4,2.8-7.6,4.4-12.1,5
		c24.1,4.8,48.1,10.2,71.6,17C2891.1,1880.3,2918.6,1890.5,2945.9,1901.1L2945.9,1901.1z M2879.3,1804l0.1,0.2
		c8.9,10.7,17.7,21.5,26.4,32.4v-47.7C2897,1793.7,2888.1,1798.8,2879.3,1804 M2723.7,1704.9c3.2,1.8,6.1,4.1,8.8,6.5
		c6.5,5.9,12,13.4,12,22.5c0,2.5-0.4,4.9-1.3,7.2c-4.8,11.8-9.6,23.5-14.3,35.4c-4.7,11.9-9.5,23.7-14.2,35.6l-3.9,9.8l-4.3-9.7
		c-5.7-13-11.5-25.9-17.2-38.9c-5.7-12.9-11.4-25.8-17-38.7c-1-2.3-1.6-4.8-1.6-7.3c0-9.6,7-16.3,14.8-20.8
		c3.7-2.1,7.5-3.8,11.5-4.9c-3.2-0.3-6.4-0.6-9.6-0.9c-31.6-2.7-63.3-3.2-95-2.8c4.1,1.7,7.7,4.3,11,7.7c6,6.3,10.7,15.2,14.3,23.1
		c6.6,14.7,13.3,29.3,19.9,44c10.3,23,21.1,44.9,32,67.6c12.7,0.7,25.5,1.6,38.2,2.7c7.2-16.8,14.4-33.6,21.6-50.3
		c7.6-17.5,15.3-34.9,23-52.4c3.8-8.6,9.3-16.4,17.3-21.5c3.5-2.3,7.4-3.9,11.5-4.7C2762.1,1710.7,2742.9,1707.5,2723.7,1704.9
		 M2589.9,1839.3c-4.4-1.6-8.5-3.9-12.3-6.8c-8.6-6.4-14.1-14.9-14.1-25.8v-75c0-11,5.6-19.8,14-26.6c3.4-2.7,7-5.1,11-6.9
		c-36.8,1.7-73.5,4.9-110.1,9.6c3.8,1,7.5,2.7,11.1,5c9,5.7,14.4,14,14.4,24.8v74.7c0,11.1-5.9,20.2-13.9,27.4
		c-3.6,3.2-7.5,6.2-11.7,8.5C2515.4,1843.9,2552.6,1840.9,2589.9,1839.3 M2460.8,1764.8v-54.2c-29.7,5.6-59.4,11.7-88.5,19.7
		c-27.8,7.7-55.2,17.1-82.3,26.9c3.5,0.2,7,1.1,10.5,2.5c9.8,4,15.1,11.7,15.1,22.3v74.7c0,11.4-6.3,21.8-13.5,30.1
		c-3.2,3.7-6.7,7.3-10.6,10.5c42-15.2,84.9-28.1,128.3-38.6c-4.5-0.3-8.9-1-13.3-2.3c-12.1-3.5-19.9-11.2-19.9-24.2v-102.7l3.3-0.8
		c1.9-0.5,3.8-1,5.8-1.4l1.4-0.3l1.3,0.5c9.6,3.9,19.1,8,28.6,12.1l0.5,0.2l0.4,0.3C2438.9,1748.4,2449.9,1756.6,2460.8,1764.8
		L2460.8,1764.8z M2394.2,1792.1c8.9,5.9,17.8,11.9,26.7,17.9v-48.3c-8.9,10-17.8,20.1-26.5,30.3L2394.2,1792.1"/>
</g>
</svg>
